<svg width="15" height="17" viewBox="0 0 15 17" fill="none" xmlns="http://www.w3.org/2000/svg">
<g id="Capa_1" clip-path="url(#clip0_96_280)">
<path id="Vector" d="M1.0971 5.50659C0.791748 5.50659 0.532485 5.6088 0.319536 5.81302C0.106586 6.01723 0 6.26245 0 6.54848V10.9415C0 11.2347 0.106586 11.4832 0.319536 11.6874C0.532485 11.8916 0.791748 11.9938 1.0971 11.9938C1.40246 11.9938 1.65995 11.8916 1.86957 11.6874C2.07898 11.4832 2.18379 11.2347 2.18379 10.9415V6.54848C2.18379 6.26224 2.0772 6.01723 1.86425 5.81302C1.6513 5.6088 1.39536 5.50659 1.0971 5.50659Z" fill="white"/>
<path id="Vector_2" d="M9.91842 1.56298L10.6749 0.224872C10.7246 0.13626 10.7068 0.0682598 10.6218 0.0206598C10.5293 -0.0205652 10.4584 0.000259784 10.4088 0.0818598L9.64187 1.4306C8.9669 1.14436 8.25316 1.00113 7.50041 1.00113C6.74766 1.00113 6.03369 1.14457 5.35894 1.4306L4.59179 0.0816473C4.54193 0.000259784 4.47102 -0.0205652 4.37884 0.0204473C4.29353 0.0684723 4.2758 0.136047 4.32566 0.22466L5.08218 1.56277C4.31525 1.93783 3.70432 2.46037 3.24983 3.13102C2.79535 3.80231 2.56799 4.53565 2.56799 5.33273H12.4222C12.4222 4.53586 12.1948 3.80231 11.7403 3.13102C11.2859 2.46016 10.6785 1.93783 9.91864 1.56277L9.91842 1.56298ZM5.54508 3.50927C5.46331 3.5879 5.36559 3.627 5.25191 3.627C5.13824 3.627 5.04251 3.5879 4.96429 3.50927C4.88629 3.43107 4.84707 3.33778 4.84707 3.22835C4.84707 3.11891 4.88607 3.02583 4.96429 2.94742C5.04229 2.86922 5.13824 2.83012 5.25191 2.83012C5.36559 2.83012 5.46309 2.86922 5.54508 2.94742C5.62663 3.02605 5.66762 3.11933 5.66762 3.22835C5.6674 3.33736 5.6264 3.43086 5.54508 3.50927ZM10.0354 3.50927C9.9572 3.5879 9.86125 3.627 9.74779 3.627C9.63434 3.627 9.53639 3.5879 9.45463 3.50927C9.37286 3.43107 9.33209 3.33778 9.33209 3.22835C9.33209 3.11891 9.37286 3.02583 9.45463 2.94742C9.53617 2.86922 9.63389 2.83012 9.74779 2.83012C9.86169 2.83012 9.95697 2.86922 10.0354 2.94742C10.1136 3.02605 10.1526 3.11933 10.1526 3.22835C10.1526 3.33736 10.1136 3.43086 10.0354 3.50927Z" fill="white"/>
<path id="Vector_3" d="M2.61011 12.5044C2.61011 12.8181 2.72378 13.0835 2.95092 13.3013C3.17827 13.5191 3.45504 13.6281 3.78189 13.6281H4.57031L4.58117 15.9476C4.58117 16.2404 4.68775 16.4892 4.9007 16.6935C5.11365 16.8977 5.36959 16.9999 5.66763 16.9999C5.96567 16.9999 6.23225 16.8977 6.4452 16.6935C6.65815 16.4892 6.76473 16.2404 6.76473 15.9476V13.6284H8.23477V15.9476C8.23477 16.2404 8.34136 16.4892 8.55431 16.6935C8.76726 16.8977 9.02652 16.9999 9.33188 16.9999C9.63723 16.9999 9.89649 16.8977 10.1094 16.6935C10.3224 16.4892 10.429 16.2404 10.429 15.9476V13.6284H11.228C11.5476 13.6284 11.8208 13.5193 12.0484 13.3015C12.2755 13.0837 12.3892 12.8183 12.3892 12.5047V5.7002H2.61011V12.5042V12.5044Z" fill="white"/>
<path id="Vector_4" d="M13.9027 5.50659C13.6042 5.50659 13.3487 5.60732 13.1356 5.80792C12.9226 6.00894 12.816 6.25608 12.816 6.54848V10.9415C12.816 11.2347 12.9226 11.4832 13.1356 11.6874C13.3485 11.8916 13.6045 11.9938 13.9027 11.9938C14.201 11.9938 14.4673 11.8916 14.6803 11.6874C14.8932 11.4832 14.9998 11.2347 14.9998 10.9415V6.54848C14.9998 6.25587 14.8932 6.00894 14.6803 5.80792C14.4671 5.6071 14.2079 5.50659 13.9027 5.50659Z" fill="white"/>
</g>
<defs>
<clipPath id="clip0_96_280">
<rect width="15" height="17" fill="white"/>
</clipPath>
</defs>
</svg>
