<svg width="75" height="22" viewBox="0 0 75 22" fill="none" xmlns="http://www.w3.org/2000/svg">
<g id="Mode_Isolation" clip-path="url(#clip0_19_655)">
<path id="Vector" d="M75 19.7946C75 21.0124 74.034 22 72.843 22H72.8411H2.16272C0.969758 22.001 0.00189962 21.0143 0 19.7946V2.20835C0.00189962 0.988611 0.968808 0 2.16272 0H72.8392C74.0321 0 74.999 0.988611 74.999 2.20738V19.7946H75Z" fill="white"/>
<path id="Vector_2" d="M75 19.7946C75 21.0124 74.034 22 72.843 22H72.8411H2.16272C0.969758 22.001 0.00189962 21.0143 0 19.7946V2.20835C0.00189962 0.988611 0.968808 0 2.16272 0H72.8392C74.0321 0 74.999 0.988611 74.999 2.20738V19.7946H75Z" fill="white"/>
<g id="Group">
<path id="Vector_3" d="M16.4621 10.4114C16.446 8.55556 17.9486 7.6524 18.017 7.61065C17.166 6.34235 15.8467 6.16852 15.3832 6.15492C14.2747 6.03547 13.2005 6.83277 12.6363 6.83277C12.0721 6.83277 11.1916 6.16657 10.2542 6.186C9.04886 6.20542 7.92143 6.91823 7.30216 8.02629C6.02561 10.2851 6.97732 13.6045 8.20068 15.4302C8.81236 16.3246 9.52757 17.3229 10.4631 17.288C11.3788 17.2501 11.7207 16.6917 12.8253 16.6917C13.9299 16.6917 14.2405 17.288 15.1951 17.2656C16.1772 17.2501 16.7965 16.3673 17.3863 15.4652C18.093 14.4406 18.377 13.4306 18.3884 13.3792C18.3656 13.3714 16.4811 12.6353 16.4621 10.4114ZM14.6594 4.95363C15.1514 4.32434 15.4886 3.4678 15.3955 2.59961C14.6831 2.63166 13.7922 3.10363 13.2784 3.71932C12.8244 4.26219 12.4188 5.15077 12.5233 5.98691C13.324 6.0481 14.1456 5.57418 14.6594 4.9546V4.95363Z" fill="black"/>
<path id="Vector_4" d="M29.7206 17.1599H28.4412L27.7402 14.9088H25.3049L24.6372 17.1599H23.392L25.8054 9.49765H27.2957L29.7206 17.1599ZM27.5293 13.9649L26.8958 11.9643C26.8284 11.7604 26.703 11.2787 26.5178 10.5212H26.495C26.4209 10.8475 26.3022 11.3282 26.1388 11.9643L25.5157 13.9649H27.5293ZM35.9162 14.329C35.9162 15.2691 35.6664 16.011 35.1668 16.5568C34.7194 17.0424 34.1638 17.2842 33.5008 17.2842C32.7847 17.2842 32.2699 17.0229 31.9574 16.5005V19.3993H30.7568V13.4492C30.7568 12.8587 30.7416 12.2537 30.7122 11.6332H31.7684L31.8358 12.5091H31.8586C32.2594 11.8497 32.8673 11.5195 33.6822 11.5195C34.3196 11.5195 34.8524 11.7769 35.2779 12.2926C35.7034 12.8092 35.9171 13.4871 35.9171 14.329H35.9162ZM34.6928 14.3737C34.6928 13.8357 34.5741 13.3929 34.3367 13.0432C34.0774 12.68 33.7278 12.4984 33.2909 12.4984C32.9946 12.4984 32.7258 12.5994 32.4845 12.7995C32.2433 13.0015 32.0856 13.2637 32.0115 13.59C31.9783 13.7124 31.9602 13.8376 31.9555 13.9639V14.8855C31.9555 15.2866 32.0761 15.6255 32.3174 15.9032C32.5586 16.18 32.872 16.3179 33.2567 16.3179C33.7088 16.3179 34.0612 16.1392 34.3129 15.7838C34.5656 15.4274 34.6919 14.9573 34.6919 14.3737H34.6928ZM42.1327 14.329C42.1327 15.2691 41.8829 16.011 41.3833 16.5568C40.9359 17.0424 40.3803 17.2842 39.7164 17.2842C39.0002 17.2842 38.4854 17.0229 38.1729 16.5005V19.3993H36.9724V13.4492C36.9724 12.8587 36.9572 12.2537 36.9277 11.6332H37.9839L38.0514 12.5091H38.0742C38.474 11.8497 39.0819 11.5195 39.8978 11.5195C40.5351 11.5195 41.067 11.7769 41.4944 12.2926C41.919 12.8092 42.1337 13.4871 42.1337 14.329H42.1327ZM40.9093 14.3737C40.9093 13.8357 40.7906 13.3929 40.5532 13.0432C40.2939 12.68 39.9462 12.4984 39.5084 12.4984C39.212 12.4984 38.9432 12.5994 38.701 12.7995C38.4598 13.0015 38.3031 13.2637 38.229 13.59C38.1919 13.7425 38.1729 13.8658 38.1729 13.9639V14.8855C38.1729 15.2866 38.2945 15.6255 38.5339 15.9032C38.7751 16.179 39.0886 16.3179 39.4742 16.3179C39.9272 16.3179 40.2787 16.1392 40.5304 15.7838C40.783 15.4274 40.9093 14.9573 40.9093 14.3737ZM49.0844 15.0108C49.0844 15.6634 48.8612 16.1936 48.4176 16.6024C47.9294 17.0492 47.2484 17.2735 46.3755 17.2735C45.5691 17.2735 44.9223 17.1142 44.4341 16.7957L44.7114 15.7721C45.2386 16.0907 45.817 16.2499 46.4468 16.2499C46.8998 16.2499 47.2512 16.145 47.5029 15.9372C47.7546 15.7284 47.8819 15.4497 47.8819 15.102C47.8819 14.7903 47.7765 14.53 47.5694 14.3174C47.3614 14.1057 47.0176 13.9076 46.5351 13.7269C45.2224 13.2268 44.5661 12.4946 44.5661 11.5322C44.5661 10.9038 44.7979 10.3882 45.2614 9.98613C45.7249 9.58408 46.3385 9.38306 47.1021 9.38306C47.7841 9.38306 48.353 9.50445 48.8042 9.74723L48.5031 10.7475C48.0785 10.5125 47.5989 10.395 47.0632 10.395C46.6396 10.395 46.3071 10.5018 46.0697 10.7135C45.8693 10.9029 45.7686 11.134 45.7686 11.4079C45.7686 11.7099 45.8845 11.9614 46.1143 12.1585C46.3138 12.3401 46.6776 12.5373 47.2038 12.749C47.8496 13.0151 48.3236 13.3249 48.6275 13.6803C48.9334 14.0357 49.0853 14.4805 49.0853 15.0088L49.0844 15.0108ZM53.065 12.5557H51.741V15.238C51.741 15.9207 51.9747 16.2606 52.442 16.2606C52.6566 16.2606 52.8342 16.2422 52.9758 16.2033L53.009 17.1356C52.7725 17.2259 52.461 17.2716 52.0753 17.2716C51.6014 17.2716 51.23 17.1239 50.9631 16.8277C50.6962 16.5316 50.5623 16.0363 50.5623 15.338V12.5528H49.7739V11.6312H50.5623V10.6193L51.742 10.2551V11.6303H53.066V12.5538L53.065 12.5557ZM59.0261 14.3514C59.0261 15.2011 58.7886 15.8984 58.3137 16.4432C57.8179 17.0045 57.1568 17.2842 56.3343 17.2842C55.5118 17.2842 54.9086 17.0152 54.4375 16.4781C53.9664 15.9401 53.7309 15.2613 53.7309 14.4436C53.7309 13.6259 53.974 12.8859 54.4594 12.3411C54.9457 11.7953 55.6001 11.5225 56.4226 11.5225C57.2452 11.5225 57.853 11.7915 58.3346 12.3295C58.7953 12.851 59.0251 13.5249 59.0251 14.3514H59.0261ZM57.7809 14.3795C57.7809 13.8736 57.6735 13.4395 57.4589 13.0763C57.2072 12.6373 56.8462 12.4178 56.3799 12.4178C55.9135 12.4178 55.5298 12.6373 55.2791 13.0763C55.0634 13.4395 54.9571 13.8813 54.9571 14.4028C54.9571 14.9243 55.0644 15.3448 55.2791 15.7071C55.5384 16.146 55.9012 16.3655 56.3704 16.3655C56.8396 16.3655 57.1891 16.1412 57.4494 15.6964C57.6697 15.3244 57.7809 14.8874 57.7809 14.3805V14.3795ZM62.9317 12.714C62.8063 12.6907 62.68 12.68 62.5527 12.68C62.1301 12.68 61.8033 12.8422 61.5735 13.1695C61.374 13.457 61.2733 13.8211 61.2733 14.261V17.1599H60.0728V13.3744C60.0737 12.7946 60.0623 12.2149 60.0376 11.6351H61.0834L61.127 12.6927H61.1603C61.2876 12.3295 61.487 12.0362 61.7606 11.8167C62.0113 11.6254 62.3153 11.5215 62.6287 11.5205C62.7398 11.5205 62.8396 11.5283 62.9288 11.5429V12.714H62.9298H62.9317ZM68.3029 14.1358C68.3057 14.3222 68.2915 14.5087 68.2592 14.6922H64.6565C64.6698 15.238 64.8446 15.6566 65.1789 15.944C65.4829 16.2004 65.8752 16.3296 66.3577 16.3296C66.8915 16.3296 67.3778 16.2431 67.8156 16.0683L68.0037 16.92C67.4917 17.1482 66.8886 17.2618 66.1914 17.2618C65.3537 17.2618 64.6955 17.0093 64.2168 16.5063C63.739 16.0023 63.4997 15.3254 63.4997 14.4776C63.4997 13.6298 63.7219 12.951 64.1674 12.3974C64.6338 11.807 65.2644 11.5118 66.0575 11.5118C66.8506 11.5118 67.4262 11.807 67.827 12.3974C68.1443 12.8655 68.3038 13.4463 68.3038 14.1348L68.3029 14.1358ZM67.1574 13.8172C67.166 13.4531 67.0871 13.1394 66.9237 12.8733C66.7157 12.5315 66.3957 12.3605 65.9673 12.3605C65.575 12.3605 65.2549 12.5266 65.0118 12.8607C64.8114 13.1258 64.6926 13.4453 64.6565 13.8153H67.1574V13.8163V13.8172Z" fill="black"/>
<path id="Vector_5" d="M24.9582 6.7882C24.6239 6.7882 24.3351 6.77169 24.0948 6.74352V3.03866C24.4311 2.98525 24.7711 2.95903 25.1111 2.96C26.4884 2.96 27.1228 3.65241 27.1228 4.78184C27.1228 6.08413 26.3734 6.7882 24.9582 6.7882ZM25.1605 3.43488C24.9744 3.43488 24.8167 3.44653 24.6847 3.47373V6.29001C24.7559 6.30166 24.8917 6.30652 25.0836 6.30652C25.9859 6.30652 26.4998 5.78113 26.4998 4.79835C26.4998 3.92142 26.0353 3.43488 25.1605 3.43488ZM29.1003 6.81636C28.3243 6.81636 27.8209 6.22397 27.8209 5.41987C27.8209 4.61578 28.3348 3.98357 29.144 3.98357C29.9086 3.98357 30.4234 4.5478 30.4234 5.3752C30.4234 6.2026 29.8934 6.81636 29.1003 6.81636ZM29.1222 4.42446C28.6957 4.42446 28.4222 4.83234 28.4222 5.40239C28.4222 5.97245 28.7014 6.36964 29.1165 6.36964C29.5316 6.36964 29.8108 5.9336 29.8108 5.39171C29.8108 4.84982 29.5373 4.42543 29.1222 4.42543V4.42446ZM34.8496 4.03892L34.0185 6.75421H33.4771L33.1332 5.57525C33.0478 5.28683 32.9765 4.99452 32.9195 4.69832H32.9081C32.8644 4.99452 32.7828 5.29071 32.6954 5.57525L32.3297 6.75421H31.7826L31.0009 4.03892H31.6078L31.9089 5.32956C31.9802 5.63741 32.04 5.9268 32.0894 6.20163H32.1008C32.1445 5.97342 32.2148 5.6879 32.3193 5.33538L32.6963 4.03892H33.1769L33.5379 5.30722C33.6252 5.61507 33.6965 5.91612 33.7516 6.20163H33.7677C33.8057 5.92195 33.8665 5.62575 33.9482 5.30722L34.2711 4.03892H34.8505H34.8496ZM37.9079 6.75421H37.3172V5.19457C37.3172 4.71483 37.1367 4.47399 36.7815 4.47399C36.4262 4.47399 36.1907 4.78184 36.1907 5.13922V6.75421H35.5999V4.81486C35.5999 4.57499 35.5942 4.31764 35.5781 4.03795H36.0976L36.1252 4.45748H36.1413C36.2999 4.16711 36.6219 3.9826 36.9838 3.9826C37.5413 3.9826 37.9079 4.41864 37.9079 5.12756V6.75324V6.75421ZM39.5359 6.75421H38.9451V2.79296H39.5359V6.75421ZM41.6892 6.81636C40.9132 6.81636 40.4098 6.22397 40.4098 5.41987C40.4098 4.61578 40.9236 3.98357 41.7328 3.98357C42.4984 3.98357 43.0122 4.5478 43.0122 5.3752C43.0122 6.22397 42.4822 6.81636 41.6892 6.81636ZM41.711 4.42446C41.2845 4.42446 41.011 4.83234 41.011 5.40239C41.011 5.97245 41.2902 6.36964 41.7043 6.36964C42.1185 6.36964 42.3987 5.9336 42.3987 5.39171C42.3987 4.83914 42.127 4.42543 41.711 4.42543V4.42446ZM45.3393 6.75421L45.2965 6.4415H45.2804C45.0999 6.69303 44.8368 6.81539 44.5034 6.81539C44.0276 6.81539 43.6895 6.47452 43.6895 6.01615C43.6895 5.34607 44.2574 4.99937 45.2424 4.99937V4.94887C45.2424 4.5915 45.0572 4.41184 44.6906 4.41184C44.4284 4.41184 44.1986 4.47885 43.9962 4.61383L43.8766 4.21664C44.1226 4.06029 44.4284 3.98163 44.7884 3.98163C45.4827 3.98163 45.8332 4.35551 45.8332 5.10523V6.10549C45.8332 6.37935 45.8446 6.59203 45.8712 6.75421H45.3393ZM45.2576 5.40239C44.6022 5.40239 44.2726 5.56457 44.2726 5.95011C44.2726 6.23465 44.4427 6.37449 44.6773 6.37449C44.9774 6.37449 45.2566 6.14045 45.2566 5.82192V5.40239H45.2576ZM48.6997 6.75421L48.6722 6.31817H48.656C48.486 6.64738 48.2011 6.81539 47.8031 6.81539C47.1629 6.81539 46.688 6.23951 46.688 5.42958C46.688 4.61966 47.18 3.98163 47.8515 3.98163C48.2068 3.98163 48.4585 4.10399 48.6009 4.35066H48.6123V2.79199H49.2031V6.02197C49.2031 6.28418 49.2098 6.53085 49.225 6.75421H48.6997ZM48.6123 5.1567C48.6123 4.77698 48.3663 4.45263 47.9902 4.45263C47.5523 4.45263 47.2845 4.84982 47.2845 5.40822C47.2845 5.96662 47.5618 6.33079 47.9779 6.33079C48.3492 6.33079 48.6114 6.00061 48.6114 5.61021V5.15767L48.6123 5.1567ZM52.9501 6.81636C52.1741 6.81636 51.6717 6.22397 51.6717 5.41987C51.6717 4.61578 52.1855 3.98357 52.9948 3.98357C53.7603 3.98357 54.2742 4.5478 54.2742 5.3752C54.2742 6.22397 53.7451 6.81636 52.9511 6.81636H52.9501ZM52.972 4.42446C52.5465 4.42446 52.2729 4.83234 52.2729 5.40239C52.2729 5.97245 52.5522 6.36964 52.9663 6.36964C53.3804 6.36964 53.6606 5.9336 53.6606 5.39171C53.6615 4.83914 53.3889 4.42543 52.972 4.42543V4.42446ZM57.4475 6.75421H56.8567V5.19457C56.8567 4.71483 56.6762 4.47399 56.321 4.47399C55.9658 4.47399 55.7312 4.78184 55.7312 5.13922V6.75421H55.1404V4.81486C55.1404 4.57499 55.1347 4.31764 55.1185 4.03795H55.6381L55.6656 4.45748H55.6818C55.8404 4.16711 56.1624 3.9826 56.5233 3.9826C57.0808 3.9826 57.4475 4.41864 57.4475 5.12756V6.75421ZM61.4196 4.49147H60.7699V5.81027C60.7699 6.14628 60.8839 6.31331 61.1138 6.31331C61.2182 6.31331 61.3056 6.30166 61.3759 6.28515L61.392 6.74352C61.2781 6.7882 61.1242 6.81053 60.9342 6.81053C60.4688 6.81053 60.1905 6.54833 60.1905 5.86077V4.49147H59.803V4.03892H60.1905V3.54171L60.7699 3.36302V4.03892H61.4196V4.49244V4.49147ZM64.5445 6.75421H63.9546V5.20622C63.9546 4.72066 63.7751 4.47399 63.4189 4.47399C63.1131 4.47399 62.8282 4.68667 62.8282 5.11688V6.75421H62.2383V2.79296H62.8282V4.42446H62.8396C63.0257 4.12827 63.2945 3.9826 63.6384 3.9826C64.2006 3.9826 64.5445 4.42932 64.5445 5.13922V6.75421ZM67.7463 5.54223H65.9749C65.9863 6.05596 66.3187 6.34633 66.8117 6.34633C67.0738 6.34633 67.3151 6.30166 67.5278 6.21814L67.62 6.63767C67.3683 6.74935 67.0729 6.80568 66.729 6.80568C65.898 6.80568 65.406 6.26864 65.406 5.43735C65.406 4.60606 65.9094 3.97871 66.6626 3.97871C67.3417 3.97871 67.7672 4.49244 67.7672 5.26935C67.771 5.36063 67.7643 5.45289 67.7472 5.54321L67.7463 5.54223ZM67.2049 5.11202C67.2049 4.6925 66.9978 4.39727 66.6208 4.39727C66.2817 4.39727 66.0138 4.69929 65.9749 5.11202H67.2049Z" fill="black"/>
</g>
</g>
<defs>
<clipPath id="clip0_19_655">
<rect width="75" height="22" fill="white"/>
</clipPath>
</defs>
</svg>
