<svg width="14" height="17" viewBox="0 0 14 17" fill="none" xmlns="http://www.w3.org/2000/svg">
<g id="Calque_1" clip-path="url(#clip0_96_288)">
<g id="Page-1">
<g id="Dribbble-Light-Preview">
<g id="icons">
<path id="apple-[#173]" fill-rule="evenodd" clip-rule="evenodd" d="M9.52888 2.71387C10.1292 1.99583 10.534 0.99515 10.4232 0C9.55791 0.0340004 8.51121 0.570357 7.89089 1.28798C7.33377 1.92464 6.84747 2.94189 6.97821 3.9177C7.94339 3.99165 8.92853 3.43341 9.52888 2.71408M11.6931 9.03136C11.7172 11.6041 13.9749 12.4601 13.9998 12.4714C13.9815 12.5315 13.6393 13.6911 12.8106 14.8894C12.0936 15.9249 11.3499 16.956 10.1782 16.9779C9.02736 16.9992 8.65677 16.303 7.34015 16.303C6.02353 16.303 5.613 16.9558 4.52389 16.9989C3.39297 17.0408 2.53115 15.8788 1.80912 14.8469C0.331915 12.7363 -0.796526 8.8824 0.718974 6.28158C1.47168 4.99041 2.81671 4.17143 4.27724 4.15124C5.38736 4.12999 6.43571 4.89011 7.1145 4.89011C7.7933 4.89011 9.0673 3.97614 10.4064 4.11065C10.9668 4.13339 12.5407 4.33442 13.5508 5.79707C13.4693 5.84722 11.6729 6.88084 11.6929 9.03158" fill="white"/>
</g>
</g>
</g>
</g>
<defs>
<clipPath id="clip0_96_288">
<rect width="14" height="17" fill="white"/>
</clipPath>
</defs>
</svg>
