<svg width="74" height="14" viewBox="0 0 74 14" fill="none" xmlns="http://www.w3.org/2000/svg">
<g id="Group">
<path id="Vector" d="M11.6717 8.10894C11.9097 7.70327 12.5008 7.70327 12.7362 8.10894L15.2655 12.4327C15.5035 12.8384 15.2053 13.3435 14.7319 13.3435H9.67343C9.2 13.3435 8.90444 12.8384 9.13984 12.4327L11.6691 8.10894H11.6717Z" fill="#FF394A"/>
<path id="Vector_2" d="M10.144 5.22998C10.3742 4.82692 10.3742 4.32963 10.144 3.92396L8.0699 0.304259C7.83711 -0.10142 7.25645 -0.10142 7.02368 0.304259L0.0820248 12.4301C-0.150758 12.8358 0.139567 13.3435 0.605133 13.3435H4.75075C5.2137 13.3435 5.64006 13.0949 5.87021 12.6919L10.1414 5.22998H10.144Z" fill="#FF394A"/>
<path id="Vector_3" d="M24.4907 12.3334V13.3437H23.8891C23.1698 13.3437 22.9004 13.0322 22.89 12.5035C22.5238 13.0401 21.9536 13.4065 21.0957 13.4065C19.903 13.4065 19.0739 12.815 19.0739 11.7942C19.0739 10.6531 19.8795 10.0302 21.4069 10.0302H22.7723V9.69781C22.7723 9.08535 22.3329 8.70848 21.5796 8.70848C20.9021 8.70848 20.4523 9.03041 20.366 9.5146H19.2151C19.3433 8.44937 20.2457 7.77148 21.6345 7.77148C23.0234 7.77148 23.9231 8.47031 23.9231 9.7711V11.9748C23.9231 12.2549 24.0199 12.3308 24.2658 12.3308H24.4907V12.3334ZM22.7723 10.8913H21.3546C20.6458 10.8913 20.2483 11.1609 20.2483 11.7183C20.2483 12.1816 20.6354 12.5035 21.2579 12.5035C22.2047 12.5035 22.7723 11.933 22.7723 11.1059V10.8913Z" fill="white"/>
<path id="Vector_4" d="M27.017 13.3437L24.9324 7.83691H26.18L27.7494 12.0952L29.308 7.83691H30.5322L28.4372 13.3437H27.0197H27.017Z" fill="white"/>
<path id="Vector_5" d="M36.4596 12.3334V13.3437H35.8581C35.1388 13.3437 34.8695 13.0322 34.859 12.5035C34.4928 13.0401 33.9227 13.4065 33.0648 13.4065C31.8721 13.4065 31.043 12.815 31.043 11.7942C31.043 10.6531 31.8485 10.0302 33.3761 10.0302H34.7414V9.69781C34.7414 9.08535 34.3019 8.70848 33.5487 8.70848C32.8712 8.70848 32.4215 9.03041 32.335 9.5146H31.1841C31.3123 8.44937 32.2147 7.77148 33.6036 7.77148C34.9923 7.77148 35.8923 8.47031 35.8923 9.7711V11.9748C35.8923 12.2549 35.9889 12.3308 36.2348 12.3308H36.4596V12.3334ZM34.7387 10.8913H33.3212C32.6124 10.8913 32.2147 11.1609 32.2147 11.7183C32.2147 12.1816 32.6019 12.5035 33.2242 12.5035C34.1713 12.5035 34.7387 11.933 34.7387 11.1059V10.8913Z" fill="white"/>
<path id="Vector_6" d="M41.7739 12.3229V13.3437H37.3041V12.3229H38.9648V6.9104L37.3041 7.46002V6.43404L38.7243 5.88965H40.1262V12.3255H41.7766L41.7739 12.3229Z" fill="white"/>
<path id="Vector_7" d="M47.9653 12.3334V13.3437H47.3637C46.6444 13.3437 46.3749 13.0322 46.3646 12.5035C45.9984 13.0401 45.4281 13.4065 44.5701 13.4065C43.3775 13.4065 42.5484 12.815 42.5484 11.7942C42.5484 10.6531 43.3541 10.0302 44.8814 10.0302H46.247V9.69781C46.247 9.08535 45.8075 8.70848 45.054 8.70848C44.3768 8.70848 43.9268 9.03041 43.8407 9.5146H42.6897C42.8179 8.44937 43.7203 7.77148 45.109 7.77148C46.4979 7.77148 47.3976 8.47031 47.3976 9.7711V11.9748C47.3976 12.2549 47.4945 12.3308 47.7404 12.3308H47.9653V12.3334ZM46.247 10.8913H44.8292C44.1204 10.8913 43.7227 11.1609 43.7227 11.7183C43.7227 12.1816 44.1099 12.5035 44.7325 12.5035C45.6793 12.5035 46.247 11.933 46.247 11.1059V10.8913Z" fill="white"/>
<path id="Vector_8" d="M54.18 10.2029V13.3437H53.0081V10.3102C53.0081 9.3314 52.5896 8.79484 51.7605 8.79484C50.8897 8.79484 50.3638 9.42824 50.3638 10.4934V13.3437H49.2026V7.83691H50.2121L50.3403 8.55667C50.6726 8.12744 51.1904 7.77148 52.0274 7.77148C53.199 7.77148 54.1773 8.40488 54.1773 10.2029H54.18Z" fill="white"/>
<path id="Vector_9" d="M55.6054 10.6008C55.6054 8.90214 56.6908 7.77148 58.3464 7.77148C59.7536 7.77148 60.635 8.55667 60.8496 9.80511H59.636C59.4844 9.15864 59.0239 8.76081 58.3256 8.76081C57.4023 8.76081 56.7875 9.52506 56.7875 10.6008C56.7875 11.6765 57.3996 12.4172 58.3256 12.4172C59.0134 12.4172 59.4868 12.0089 59.6255 11.3729H60.8496C60.6455 12.6213 59.7092 13.4065 58.3124 13.4065C56.6569 13.4065 55.6027 12.3203 55.6027 10.6008H55.6054Z" fill="white"/>
<path id="Vector_10" d="M67.2755 10.203V13.3437H66.1036V10.2998C66.1036 9.35236 65.6851 8.7949 64.8248 8.7949C63.9641 8.7949 63.407 9.44136 63.407 10.483V13.3437H62.2458V5.81641H63.407V8.5384C63.7837 8.06466 64.3538 7.77415 65.094 7.77415C66.3836 7.77415 67.2755 8.5384 67.2755 10.2056V10.203Z" fill="white"/>
<path id="Vector_11" d="M69.8622 10.8599V10.9149C69.8937 11.8493 70.4743 12.4643 71.3767 12.4643C72.0647 12.4643 72.5903 12.1084 72.7419 11.4959H73.9033C73.7097 12.5821 72.7969 13.4092 71.4421 13.4092C69.7235 13.4092 68.6486 12.2916 68.6486 10.6034C68.6486 8.91528 69.7235 7.77417 71.3244 7.77417C72.925 7.77417 73.9688 8.78443 74 10.3993C74 10.5171 73.9895 10.7003 73.9688 10.8625H69.8622V10.8599ZM69.9042 9.98839H72.7942C72.6975 9.17179 72.1379 8.70853 71.3322 8.70853C70.613 8.70853 69.9877 9.2032 69.9015 9.98839H69.9042Z" fill="white"/>
</g>
</svg>
