<svg width="347" height="59" viewBox="0 0 347 59" fill="none" xmlns="http://www.w3.org/2000/svg">
<rect width="347" height="59" rx="10" fill="#1C1C1C"/>
<path d="M252.888 40.72C252.888 41.36 252.68 41.888 252.264 42.304C251.848 42.712 251.28 42.952 250.56 43.024V44.464H249.504V43C248.592 42.872 247.796 42.476 247.116 41.812L247.968 40.792C248.288 41.096 248.644 41.332 249.036 41.5C249.428 41.66 249.804 41.74 250.164 41.74C250.516 41.74 250.804 41.656 251.028 41.488C251.252 41.32 251.364 41.1 251.364 40.828C251.364 40.596 251.28 40.388 251.112 40.204C250.944 40.02 250.52 39.82 249.84 39.604C249.256 39.428 248.788 39.252 248.436 39.076C248.084 38.892 247.804 38.652 247.596 38.356C247.396 38.06 247.296 37.696 247.296 37.264C247.296 36.656 247.492 36.148 247.884 35.74C248.276 35.332 248.816 35.092 249.504 35.02V33.508H250.56V35.056C250.936 35.128 251.312 35.252 251.688 35.428C252.072 35.596 252.4 35.788 252.672 36.004L251.856 37.012C251.552 36.788 251.228 36.62 250.884 36.508C250.548 36.388 250.236 36.328 249.948 36.328C249.604 36.328 249.328 36.404 249.12 36.556C248.912 36.708 248.808 36.912 248.808 37.168C248.808 37.368 248.892 37.552 249.06 37.72C249.228 37.88 249.624 38.06 250.248 38.26C250.952 38.484 251.472 38.688 251.808 38.872C252.152 39.056 252.416 39.296 252.6 39.592C252.792 39.88 252.888 40.256 252.888 40.72ZM257.379 43V41.608H253.779V40.66L257.607 34.756H258.771V40.372H259.911V41.608H258.771V43H257.379ZM255.399 40.408H257.427V37.108L255.399 40.408ZM260.492 44.584L260.876 41.548H262.316L261.476 44.584H260.492ZM263.128 34.756H268.252V35.68L265.228 43.168L263.824 42.904L266.692 36.028H263.128V34.756ZM272.409 43.096C271.953 43.096 271.529 43.004 271.137 42.82C270.745 42.628 270.409 42.352 270.129 41.992C269.849 41.624 269.629 41.176 269.469 40.648C269.317 40.12 269.241 39.532 269.241 38.884C269.241 38.276 269.313 37.712 269.457 37.192C269.601 36.664 269.809 36.216 270.081 35.848C270.361 35.472 270.697 35.184 271.089 34.984C271.489 34.776 271.929 34.672 272.409 34.672C272.865 34.672 273.289 34.768 273.681 34.96C274.073 35.144 274.409 35.416 274.689 35.776C274.969 36.136 275.185 36.584 275.337 37.12C275.497 37.648 275.577 38.236 275.577 38.884C275.577 39.492 275.505 40.056 275.361 40.576C275.217 41.096 275.009 41.544 274.737 41.92C274.465 42.296 274.129 42.588 273.729 42.796C273.329 42.996 272.889 43.096 272.409 43.096ZM272.409 41.8C272.961 41.8 273.389 41.544 273.693 41.032C274.005 40.512 274.161 39.796 274.161 38.884C274.161 37.972 274.005 37.256 273.693 36.736C273.381 36.216 272.953 35.956 272.409 35.956C271.865 35.956 271.437 36.216 271.125 36.736C270.813 37.256 270.657 37.972 270.657 38.884C270.657 39.788 270.817 40.5 271.137 41.02C271.457 41.54 271.881 41.8 272.409 41.8ZM276.703 43L276.679 42.076L279.331 39.28C279.819 38.768 280.135 38.368 280.279 38.08C280.423 37.784 280.495 37.512 280.495 37.264C280.495 37.096 280.455 36.912 280.375 36.712C280.295 36.504 280.151 36.332 279.943 36.196C279.735 36.052 279.499 35.98 279.235 35.98C278.563 35.98 278.039 36.304 277.663 36.952L276.667 36.244C276.915 35.772 277.263 35.396 277.711 35.116C278.159 34.828 278.699 34.684 279.331 34.684C279.667 34.684 279.991 34.74 280.303 34.852C280.615 34.964 280.891 35.128 281.131 35.344C281.371 35.552 281.559 35.808 281.695 36.112C281.839 36.416 281.911 36.748 281.911 37.108C281.911 37.572 281.807 38.024 281.599 38.464C281.391 38.896 281.039 39.368 280.543 39.88L278.803 41.692L278.815 41.728H281.995V43H276.703ZM284.206 43.096C283.958 43.096 283.742 43.008 283.558 42.832C283.382 42.656 283.294 42.448 283.294 42.208C283.294 41.968 283.382 41.76 283.558 41.584C283.742 41.4 283.958 41.308 284.206 41.308C284.446 41.308 284.654 41.4 284.83 41.584C285.014 41.76 285.106 41.968 285.106 42.208C285.106 42.448 285.014 42.656 284.83 42.832C284.654 43.008 284.446 43.096 284.206 43.096ZM289.437 43.096C288.981 43.096 288.557 43.004 288.165 42.82C287.773 42.628 287.437 42.352 287.157 41.992C286.877 41.624 286.657 41.176 286.497 40.648C286.345 40.12 286.269 39.532 286.269 38.884C286.269 38.276 286.341 37.712 286.485 37.192C286.629 36.664 286.837 36.216 287.109 35.848C287.389 35.472 287.725 35.184 288.117 34.984C288.517 34.776 288.957 34.672 289.437 34.672C289.893 34.672 290.317 34.768 290.709 34.96C291.101 35.144 291.437 35.416 291.717 35.776C291.997 36.136 292.213 36.584 292.365 37.12C292.525 37.648 292.605 38.236 292.605 38.884C292.605 39.492 292.533 40.056 292.389 40.576C292.245 41.096 292.037 41.544 291.765 41.92C291.493 42.296 291.157 42.588 290.757 42.796C290.357 42.996 289.917 43.096 289.437 43.096ZM289.437 41.8C289.989 41.8 290.417 41.544 290.721 41.032C291.033 40.512 291.189 39.796 291.189 38.884C291.189 37.972 291.033 37.256 290.721 36.736C290.409 36.216 289.981 35.956 289.437 35.956C288.893 35.956 288.465 36.216 288.153 36.736C287.841 37.256 287.685 37.972 287.685 38.884C287.685 39.788 287.845 40.5 288.165 41.02C288.485 41.54 288.909 41.8 289.437 41.8ZM296.779 37.708C297.131 37.708 297.463 37.768 297.775 37.888C298.095 38.008 298.375 38.184 298.615 38.416C298.855 38.648 299.043 38.932 299.179 39.268C299.315 39.596 299.383 39.96 299.383 40.36C299.383 40.752 299.311 41.12 299.167 41.464C299.031 41.8 298.835 42.092 298.579 42.34C298.323 42.58 298.011 42.768 297.643 42.904C297.283 43.032 296.891 43.096 296.467 43.096C296.051 43.096 295.647 43.032 295.255 42.904C294.871 42.768 294.547 42.596 294.283 42.388C294.019 42.172 293.811 41.964 293.659 41.764L294.667 40.96C294.843 41.216 295.079 41.424 295.375 41.584C295.671 41.736 295.995 41.812 296.347 41.812C296.843 41.812 297.235 41.672 297.523 41.392C297.819 41.112 297.967 40.76 297.967 40.336C297.967 39.904 297.803 39.56 297.475 39.304C297.155 39.04 296.787 38.908 296.371 38.908C295.827 38.908 295.379 39.052 295.027 39.34L294.271 39.076L294.511 34.756H298.975V36.04H295.819L295.711 37.888C296.095 37.768 296.451 37.708 296.779 37.708Z" fill="#A4A4A4"/>
<g clip-path="url(#clip0_2066_383)">
<path d="M42.6404 20.791H25.3408V36.5246H42.6404V20.791Z" fill="white"/>
<path fill-rule="evenodd" clip-rule="evenodd" d="M48 30C48 37.7321 41.7321 44 34 44C26.2679 44 20 37.7321 20 30C20 22.2679 26.2679 16 34 16C41.7321 16 48 22.2679 48 30ZM30.0328 35.5713H27.3158C26.7448 35.5713 26.4629 35.5713 26.2909 35.4613C26.1052 35.3409 25.9917 35.1414 25.9779 34.9213C25.9676 34.7184 26.1085 34.4707 26.3906 33.9756L33.0992 22.1507C33.3846 21.6485 33.5291 21.3975 33.7114 21.3045C33.9075 21.2048 34.1413 21.2048 34.3374 21.3045C34.5197 21.3974 34.6642 21.6485 34.9496 22.1507L36.3287 24.5581L36.3358 24.5704C36.6442 25.1091 36.8006 25.3822 36.8688 25.6689C36.9445 25.9819 36.9445 26.3121 36.8688 26.6251C36.8 26.914 36.6453 27.1892 36.3323 27.736L32.8084 33.9651L32.7993 33.9811C32.4889 34.5244 32.3317 34.7995 32.1136 35.0072C31.8763 35.2342 31.5909 35.3992 31.2779 35.4923C30.9925 35.5713 30.6726 35.5713 30.0328 35.5713ZM36.8941 35.5713H40.7873C41.3617 35.5713 41.6506 35.5713 41.8227 35.4579C42.0083 35.3375 42.1252 35.1345 42.1357 34.9145C42.1455 34.7182 42.0076 34.4802 41.7373 34.0138C41.728 33.9979 41.7186 33.9817 41.7091 33.9653L39.759 30.6292L39.7368 30.5915C39.4628 30.1281 39.3245 29.8941 39.1468 29.8037C38.9509 29.704 38.7203 29.704 38.5244 29.8037C38.3456 29.8965 38.2011 30.1407 37.9157 30.6325L35.9725 33.9687L35.9658 33.9802C35.6813 34.4712 35.5393 34.7166 35.5495 34.9179C35.5633 35.1381 35.6768 35.3409 35.8625 35.4613C36.031 35.5713 36.32 35.5713 36.8943 35.5713H36.8941Z" fill="#E84142"/>
</g>
<g clip-path="url(#clip1_2066_383)">
<path d="M326 31.3929C326 31.3929 325.893 31.0714 325.787 30.9643L319.422 24.2857C319.138 23.9643 318.64 23.8929 318.284 24.1786C317.964 24.4643 317.893 24.9643 318.178 25.3214C318.178 25.3214 318.213 25.3571 318.249 25.3929L324.116 31.5L318.249 37.6071C317.929 37.9286 317.929 38.4286 318.213 38.75C318.498 39.0714 319.031 39.0714 319.351 38.7857C319.351 38.7857 319.387 38.75 319.422 38.7143L325.787 32.0357C325.787 32.0357 326.036 31.6071 326 31.3929Z" fill="#818181"/>
</g>
<path d="M57.368 36L61.608 24.64H63.496L67.752 36H65.736L64.872 33.552H60.232L59.384 36H57.368ZM60.824 31.888H64.296L62.568 26.96H62.536L60.824 31.888ZM72.845 36L68.605 24.64H70.685L73.709 33.216H73.725L76.733 24.64H78.797L74.557 36H72.845ZM78.1493 36L82.3893 24.64H84.2773L88.5333 36H86.5173L85.6533 33.552H81.0133L80.1653 36H78.1493ZM81.6053 31.888H85.0773L83.3493 26.96H83.3173L81.6053 31.888ZM89.4183 36L93.1783 30.304L89.4983 24.64H91.7543L94.4743 28.832H94.4903L97.2103 24.64H99.4183L95.7383 30.304L99.5143 36H97.2423L94.4583 31.808H94.4263L91.6583 36H89.4183Z" fill="white"/>
<path d="M231.724 29L231.694 27.845L235.009 24.35C235.619 23.71 236.014 23.21 236.194 22.85C236.374 22.48 236.464 22.14 236.464 21.83C236.464 21.62 236.414 21.39 236.314 21.14C236.214 20.88 236.034 20.665 235.774 20.495C235.514 20.315 235.219 20.225 234.889 20.225C234.049 20.225 233.394 20.63 232.924 21.44L231.679 20.555C231.989 19.965 232.424 19.495 232.984 19.145C233.544 18.785 234.219 18.605 235.009 18.605C235.429 18.605 235.834 18.675 236.224 18.815C236.614 18.955 236.959 19.16 237.259 19.43C237.559 19.69 237.794 20.01 237.964 20.39C238.144 20.77 238.234 21.185 238.234 21.635C238.234 22.215 238.104 22.78 237.844 23.33C237.584 23.87 237.144 24.46 236.524 25.1L234.349 27.365L234.364 27.41H238.339V29H231.724ZM243.852 29V27.26H239.352V26.075L244.137 18.695H245.592V25.715H247.017V27.26H245.592V29H243.852ZM241.377 25.76H243.912V21.635L241.377 25.76ZM251.462 29.12C250.592 29.12 249.832 28.92 249.182 28.52C248.542 28.11 248.092 27.58 247.832 26.93L249.332 26.27C249.492 26.66 249.742 26.965 250.082 27.185C250.422 27.395 250.842 27.5 251.342 27.5C251.572 27.5 251.822 27.455 252.092 27.365C252.372 27.265 252.612 27.09 252.812 26.84C253.012 26.59 253.112 26.3 253.112 25.97C253.112 25.78 253.057 25.565 252.947 25.325C252.847 25.085 252.647 24.875 252.347 24.695C252.047 24.515 251.657 24.425 251.177 24.425H250.397V22.955H251.342C251.722 22.955 252.027 22.88 252.257 22.73C252.497 22.57 252.652 22.385 252.722 22.175C252.802 21.955 252.842 21.76 252.842 21.59C252.842 21.3 252.752 21.04 252.572 20.81C252.402 20.57 252.197 20.41 251.957 20.33C251.717 20.24 251.497 20.195 251.297 20.195C250.547 20.195 249.982 20.495 249.602 21.095L248.207 20.345C248.457 19.825 248.857 19.405 249.407 19.085C249.967 18.755 250.612 18.59 251.342 18.59C252.022 18.59 252.607 18.715 253.097 18.965C253.587 19.215 253.957 19.54 254.207 19.94C254.467 20.34 254.597 20.8 254.597 21.32C254.597 21.81 254.472 22.26 254.222 22.67C253.982 23.08 253.652 23.4 253.232 23.63V23.675C253.602 23.845 253.917 24.075 254.177 24.365C254.447 24.655 254.632 24.965 254.732 25.295C254.832 25.625 254.882 25.93 254.882 26.21C254.882 27.07 254.557 27.77 253.907 28.31C253.267 28.85 252.452 29.12 251.462 29.12ZM260.018 29L263.993 18.35H265.763L269.753 29H267.863L267.053 26.705H262.703L261.908 29H260.018ZM263.258 25.145H266.513L264.893 20.525H264.863L263.258 25.145ZM274.528 29L270.553 18.35H272.503L275.338 26.39H275.353L278.173 18.35H280.108L276.133 29H274.528ZM279.5 29L283.475 18.35H285.245L289.235 29H287.345L286.535 26.705H282.185L281.39 29H279.5ZM282.74 25.145H285.995L284.375 20.525H284.345L282.74 25.145ZM290.065 29L293.59 23.66L290.14 18.35H292.255L294.805 22.28H294.82L297.37 18.35H299.44L295.99 23.66L299.53 29H297.4L294.79 25.07H294.76L292.165 29H290.065Z" fill="white"/>
<defs>
<clipPath id="clip0_2066_383">
<rect width="28" height="28" fill="white" transform="translate(20 16)"/>
</clipPath>
<clipPath id="clip1_2066_383">
<rect width="15" height="8" fill="white" transform="translate(318 39) rotate(-90)"/>
</clipPath>
</defs>
</svg>
