<svg width="35" height="23" viewBox="0 0 35 23" fill="none" xmlns="http://www.w3.org/2000/svg">
<g id="Group 359">
<path id="Vector" d="M33.125 0H1.875C0.8375 0 0 0.839553 0 1.8796V21.1204C0 22.1604 0.8375 23 1.875 23H33.125C34.1625 23 35 22.1604 35 21.1204V1.8796C35 0.839553 34.1625 0 33.125 0ZM33.75 21.1893C33.75 21.5026 33.5 21.7532 33.1875 21.7532H1.8125C1.5 21.7532 1.25 21.5026 1.25 21.1893V1.81694C1.25 1.50368 1.5 1.25306 1.8125 1.25306H33.1875C33.5 1.25306 33.75 1.50368 33.75 1.81694V21.1893Z" fill="#7C7C7C"/>
<path id="Vector_2" d="M11.3641 14.2725H4.13281C3.78906 14.2725 3.50781 14.5544 3.50781 14.899C3.50781 15.2436 3.78906 15.5255 4.13281 15.5255H11.3641C11.7078 15.5193 11.9828 15.2311 11.9766 14.8865C11.9703 14.5481 11.7016 14.2787 11.3641 14.2725Z" fill="#7C7C7C"/>
</g>
</svg>
