<svg width="30" height="30" viewBox="0 0 30 30" fill="none" xmlns="http://www.w3.org/2000/svg">
<g id="Group 360">
<path id="Vector" d="M14.52 0C6.5 0 0 6.5 0 14.52C0 22.54 6.5 29.04 14.52 29.04C22.54 29.04 29.04 22.54 29.04 14.52C29.04 6.5 22.53 0 14.52 0ZM14.52 27.63C7.28 27.63 1.41 21.76 1.41 14.52C1.41 7.28 7.28 1.41 14.52 1.41C21.76 1.41 27.63 7.28 27.63 14.52C27.63 21.76 21.76 27.63 14.52 27.63Z" fill="#7C7C7C"/>
<path id="Vector_2" d="M9.75953 15.0701C9.11953 15.0701 8.49953 14.9201 7.89953 14.6101C7.29953 14.3001 6.83953 13.8501 6.50953 13.2601C6.17953 12.6701 6.01953 12.0301 6.01953 11.3601C6.01953 11.0001 6.07953 10.6101 6.19953 10.2001C6.31953 9.79009 6.54953 9.37009 6.87953 8.95009C7.21953 8.53009 7.63953 8.22009 8.15953 8.00009C8.67953 7.79009 9.20953 7.68009 9.73953 7.68009C10.1195 7.68009 10.5095 7.74009 10.9195 7.86009C11.3295 7.98009 11.7495 8.20009 12.1795 8.54009C12.6095 8.88009 12.9295 9.29009 13.1495 9.81009C13.3695 10.3201 13.4795 10.8401 13.4795 11.3701C13.4795 11.7501 13.4195 12.1401 13.2995 12.5501C13.1795 12.9601 12.9495 13.3801 12.6195 13.8001C12.2795 14.2201 11.8495 14.5401 11.3395 14.7601C10.8295 14.9801 10.2895 15.0901 9.75953 15.0901V15.0701ZM9.75953 13.8701C10.3195 13.8701 10.7995 13.7301 11.1795 13.4401C11.5695 13.1501 11.8295 12.8201 11.9795 12.4401C12.1195 12.0601 12.1995 11.7101 12.1995 11.3801C12.1995 10.6501 11.9695 10.0601 11.4995 9.60009C11.0295 9.14009 10.4495 8.91009 9.76953 8.91009C9.22953 8.91009 8.76953 9.05009 8.37953 9.34009C7.98953 9.63009 7.72953 9.96009 7.57953 10.3301C7.43953 10.7101 7.36953 11.0601 7.36953 11.3801C7.36953 12.1201 7.59953 12.7201 8.05953 13.1801C8.51953 13.6401 9.08953 13.8701 9.76953 13.8701H9.75953ZM12.2595 21.4401L11.0195 20.9201L16.8495 7.59009L18.0895 8.11009L12.2595 21.4401ZM19.2495 21.2401C18.8695 21.2401 18.4795 21.1801 18.0695 21.0601C17.6595 20.9401 17.2395 20.7201 16.8095 20.3801C16.3795 20.0501 16.0595 19.6301 15.8395 19.1101C15.6195 18.6001 15.5095 18.0701 15.5095 17.5301C15.5095 17.1701 15.5695 16.7801 15.6895 16.3701C15.8095 15.9601 16.0395 15.5401 16.3695 15.1201C16.7095 14.7001 17.1395 14.3901 17.6495 14.1701C18.1695 13.9601 18.6995 13.8501 19.2295 13.8501C19.7295 13.8501 20.2095 13.9401 20.6695 14.1101C21.1295 14.2901 21.5395 14.5401 21.8795 14.8601C22.2195 15.1901 22.4895 15.5801 22.6895 16.0301C22.8795 16.4901 22.9795 16.9801 22.9795 17.5201C22.9795 18.0201 22.8995 18.4701 22.7495 18.8601C22.5895 19.2501 22.3795 19.6101 22.1195 19.9401C21.8595 20.2701 21.4795 20.5601 20.9895 20.8201C20.4995 21.0801 19.9095 21.2101 19.2395 21.2101L19.2495 21.2401ZM19.2695 20.0601C19.9795 20.0601 20.5695 19.8201 21.0195 19.3401C21.4795 18.8601 21.6995 18.2701 21.6995 17.5701C21.6995 17.2101 21.6195 16.8401 21.4695 16.4601C21.3195 16.0801 21.0295 15.7601 20.6195 15.4901C20.2095 15.2201 19.7595 15.0901 19.2695 15.0901C18.5595 15.0901 17.9695 15.3301 17.5195 15.8001C17.0595 16.2801 16.8395 16.8601 16.8395 17.5601C16.8395 18.0801 16.9795 18.5501 17.2495 18.9701C17.5295 19.3801 17.8495 19.6701 18.2295 19.8201C18.6095 19.9801 18.9595 20.0501 19.2695 20.0501V20.0601Z" fill="#7C7C7C"/>
</g>
</svg>
