<svg width="32" height="35" viewBox="0 0 32 35" fill="none" xmlns="http://www.w3.org/2000/svg">
<path id="Vector" d="M31.9119 19.2772C31.735 18.6592 31.2234 18.1435 30.5254 17.8647C30.6544 17.7904 30.7931 17.7253 30.9557 17.6649C31.3286 17.5302 31.515 17.1306 31.3812 16.7682C31.2425 16.4058 30.8313 16.2246 30.4584 16.3547C29.6934 16.6288 29.0815 17.0935 28.6703 17.6789C28.0631 17.7857 27.4702 18.0506 26.9395 18.4502C24.9506 14.9283 20.6093 12.4751 15.5844 12.4751C13.8871 12.4751 12.2472 12.7492 10.7029 13.2882C9.23505 12.1638 7.17439 11.8897 4.88424 12.5309C4.6404 12.6006 4.44916 12.7911 4.387 13.028C4.32485 13.2696 4.39657 13.5205 4.57825 13.6971C5.35757 14.4451 5.79743 15.2071 5.96955 16.141C4.73602 17.1957 4.26748 18.2085 3.91845 18.9612C3.69852 19.4305 3.54553 19.7697 3.28735 19.9881C3.26344 20.002 3.16782 20.0392 2.81402 20.0392H2.32634C1.83389 20.0345 1.26972 20.081 0.825073 20.4341C-0.21721 21.2704 -0.236334 24.4717 0.566893 25.4381C0.719889 25.6239 1.15975 26.1489 3.1487 26.2326C2.98614 26.4184 2.76621 26.5718 2.52237 26.6693C2.34547 26.739 2.20203 26.8738 2.13032 27.0457C2.0586 27.2176 2.05382 27.4081 2.13032 27.58C2.20203 27.7472 2.8953 29.1922 5.87393 29.2898C6.26598 29.694 7.07877 30.4653 8.08281 31.0321C8.07324 32.0404 8.16886 33.6898 8.82388 34.3309C9.4502 34.935 10.6455 35 11.1332 35C11.7451 35 12.8496 34.9071 13.3755 34.2752C13.6193 33.9825 13.7962 33.4389 13.911 32.965C15.5605 33.1462 17.2052 33.0579 18.7829 32.7141C18.8833 33.3274 19.0746 33.9918 19.4188 34.3263C20.0595 34.9489 21.36 34.9954 21.7472 34.9954C22.3544 34.9954 23.4493 34.9024 23.9752 34.2705C24.7211 33.3692 24.7211 30.9671 24.6733 29.8427C26.8869 27.9238 28.1013 25.4241 28.1013 22.7618C28.1013 21.7211 27.9101 20.7222 27.5611 19.7743C27.7332 19.6117 27.9149 19.463 28.1061 19.3515C28.0774 20.2018 28.4264 20.9591 29.0528 21.3587C29.3635 21.5585 29.7317 21.656 30.0998 21.656C30.5062 21.656 30.9174 21.5352 31.2569 21.2983C31.9023 20.843 32.1462 20.0856 31.9167 19.2679L31.9119 19.2772ZM23.4732 29.011C23.3011 29.1551 23.2055 29.3641 23.2198 29.5871C23.3107 31.1065 23.1863 33.0021 22.8612 33.3971C22.7895 33.4621 22.4118 33.6108 21.7472 33.6108C21.0157 33.6108 20.5328 33.4389 20.4515 33.3645C20.3272 33.1973 20.1695 32.4492 20.1217 31.7988C20.1073 31.5897 19.9926 31.3992 19.8157 31.2784C19.6388 31.1576 19.414 31.125 19.2085 31.1808C17.3725 31.6919 15.4027 31.808 13.4616 31.506C13.0695 31.4456 12.7061 31.7012 12.6392 32.0775C12.5436 32.6304 12.3619 33.2623 12.2711 33.3971C12.1993 33.4621 11.8073 33.6108 11.1379 33.6108C10.4112 33.6108 9.93788 33.4389 9.84704 33.3506C9.63667 33.1043 9.48367 31.8173 9.53148 30.6511C9.54105 30.377 9.38805 30.1215 9.13465 30.0007C7.89156 29.4013 6.85884 28.2723 6.74409 28.1468C6.61022 27.9935 6.40942 27.9052 6.19905 27.9052C5.02289 27.9052 4.32963 27.6729 3.9328 27.4499C4.52566 26.9481 4.8938 26.2512 4.8938 25.5449C4.8938 25.3544 4.81252 25.1732 4.66909 25.0385C4.52566 24.9084 4.33441 24.8387 4.13839 24.848C4.12882 24.848 3.96627 24.8573 3.72243 24.8573C2.47456 24.8573 1.8052 24.6714 1.68567 24.5646C1.32709 24.1325 1.3749 21.9023 1.74305 21.512C1.81476 21.4563 2.01079 21.4284 2.33112 21.4284H2.8188C3.31125 21.433 3.82283 21.3866 4.22445 21.0474C4.72646 20.6246 4.9703 20.0949 5.23326 19.5327C5.58706 18.7707 5.98868 17.9065 7.1983 16.9634C7.42301 16.7915 7.50907 16.5127 7.44214 16.2571C7.32261 15.2768 6.98793 14.4265 6.4142 13.6367C7.87244 13.4415 9.09162 13.7435 9.98091 14.5148C10.1722 14.7564 10.5116 14.854 10.8128 14.7378C12.3141 14.1617 13.9158 13.869 15.5892 13.869C21.6994 13.869 26.6718 17.8601 26.6718 22.7665C26.6718 25.1128 25.5387 27.3291 23.4828 29.0064L23.4732 29.011ZM30.4106 20.1785C30.2481 20.2947 29.9994 20.304 29.8417 20.2064C29.6217 20.0624 29.5022 19.6814 29.55 19.2725C29.5548 19.2214 29.5691 19.1424 29.593 19.0495C29.6217 19.0495 29.6552 19.0588 29.6839 19.0681C30.1811 19.1703 30.4728 19.4444 30.5301 19.6535C30.6353 20.0252 30.468 20.146 30.4106 20.1832V20.1785ZM16.1103 11.0441C18.5056 11.0441 20.4515 9.15306 20.4515 6.8253C20.4515 6.72773 20.442 6.63481 20.4372 6.53724C21.9767 6.22129 23.1385 4.89247 23.1385 3.30346C23.1385 1.48215 21.6134 0 19.7392 0C18.104 0 16.7366 1.12903 16.4115 2.62512C16.3159 2.62047 16.2155 2.61118 16.1151 2.61118C13.7197 2.61118 11.7738 4.50219 11.7738 6.82995C11.7738 9.15771 13.7197 11.0487 16.1103 11.0487V11.0441ZM19.7344 1.39387C20.8197 1.39387 21.6994 2.25342 21.6994 3.30346C21.6994 4.23271 21.0109 5.00863 20.1073 5.17589C19.6674 4.17231 18.8403 3.36387 17.8028 2.93641C17.9797 2.05363 18.7734 1.38922 19.7344 1.38922V1.39387ZM16.1103 4.0004C17.712 4.0004 19.0172 5.26882 19.0172 6.8253C19.0172 8.38179 17.712 9.65021 16.1103 9.65021C14.5086 9.65021 13.2034 8.38179 13.2034 6.8253C13.2034 5.26882 14.5086 4.0004 16.1103 4.0004Z" fill="#7C7C7C"/>
</svg>
