<svg width="27" height="21" viewBox="0 0 27 21" fill="none" xmlns="http://www.w3.org/2000/svg">
<g id="Mode_Isolation" clip-path="url(#clip0_24_28)">
<path id="Vector" d="M23.7391 -1.03767e-06L5.12609 -2.24068e-07C4.9513 -2.16428e-07 4.78435 0.0701101 4.66174 0.195259L0.187825 4.7576C0.0678254 4.88013 -6.97405e-07 5.04524 -6.89872e-07 5.21757L-1.43204e-07 17.7239C-6.42414e-08 19.5303 1.46283 21 3.26087 21L23.7391 21C25.5372 21 27 19.5303 27 17.7239L27 3.27613C27 1.46967 25.5372 -1.11627e-06 23.7391 -1.03767e-06ZM23.7391 1.31045C24.8178 1.31045 25.6957 2.19239 25.6957 3.27613L25.6957 17.7239C25.6957 18.8076 24.8178 19.6895 23.7391 19.6895L3.26087 19.6895C2.18217 19.6895 1.30435 18.8076 1.30435 17.7239L1.30435 5.48621L5.39935 1.31045L23.7391 1.31045Z" fill="#7C7C7C"/>
</g>
<defs>
<clipPath id="clip0_24_28">
<rect width="21" height="27" fill="white" transform="translate(0 21) rotate(-90)"/>
</clipPath>
</defs>
</svg>
