<svg width="77" height="22" viewBox="0 0 77 22" fill="none" xmlns="http://www.w3.org/2000/svg">
<g id="Mode_Isolation" clip-path="url(#clip0_19_663)">
<path id="Vector" d="M77 19.7946C77 21.0124 76.0083 22 74.7855 22H74.7835H2.22039C0.995618 22.001 0.00195028 21.0143 0 19.7946V2.20835C0.00195028 0.988611 0.994643 0 2.22039 0H74.7816C76.0063 0 76.999 0.988611 76.999 2.20738V19.7946H77Z" fill="white"/>
<g id="Group">
<path id="path35" d="M60.2715 16.2974H61.312V9.35382H60.2715V16.2974ZM69.6436 11.8555L68.451 14.865H68.4149L67.1764 11.8555H66.056L67.9127 16.0624L66.8537 18.4028H67.939L70.8001 11.8555H69.6426H69.6436ZM63.742 15.5089C63.4017 15.5089 62.9258 15.3389 62.9258 14.9194C62.9258 14.3833 63.5177 14.1784 64.0287 14.1784C64.486 14.1784 64.7015 14.2765 64.9795 14.4105C64.8985 15.0534 64.3427 15.5089 63.741 15.5089H63.742ZM63.8688 11.704C63.115 11.704 62.3349 12.0341 62.0121 12.7673L62.9356 13.1509C63.1325 12.7673 63.5002 12.6421 63.8863 12.6421C64.4246 12.6421 64.9717 12.9635 64.9804 13.5355V13.6064C64.7922 13.4996 64.3885 13.3384 63.8951 13.3384C62.8995 13.3384 61.8863 13.8832 61.8863 14.9009C61.8863 15.8303 62.7025 16.4285 63.6172 16.4285C64.3164 16.4285 64.7025 16.1158 64.9444 15.7497H64.9804V16.2858H65.9858V13.6239C65.9858 12.3915 65.0614 11.704 63.8688 11.704ZM57.4377 12.7003H55.9575V10.3211H57.4377C58.2159 10.3211 58.6576 10.962 58.6576 11.5107C58.6576 12.0594 58.2159 12.7003 57.4377 12.7003ZM57.4104 9.35479H54.917V16.2984H55.9575V13.6676H57.4104C58.564 13.6676 59.6971 12.8363 59.6971 11.5117C59.6971 10.1871 58.563 9.35577 57.4104 9.35577V9.35479ZM43.815 15.5098C43.0963 15.5098 42.4947 14.9106 42.4947 14.0871C42.4947 13.2636 43.0963 12.6469 43.815 12.6469C44.5337 12.6469 45.0817 13.2549 45.0817 14.0871C45.0817 14.9194 44.5249 15.5098 43.815 15.5098ZM45.0096 12.2439H44.9735C44.7404 11.9662 44.2909 11.7156 43.7253 11.7156C42.5395 11.7156 41.4522 12.7538 41.4522 14.0871C41.4522 15.4205 42.5395 16.4402 43.7253 16.4402C44.2909 16.4402 44.7404 16.1896 44.9735 15.9031H45.0096V16.243C45.0096 17.1471 44.5249 17.6298 43.7428 17.6298C43.1051 17.6298 42.7102 17.1734 42.5483 16.7888L41.6414 17.1646C41.9018 17.791 42.5932 18.5601 43.7438 18.5601C44.9657 18.5601 45.9993 17.8444 45.9993 16.0993V11.8584H45.0105V12.2429L45.0096 12.2439ZM46.717 16.2974H47.7585V9.35382H46.717V16.2974ZM49.2953 14.0065C49.269 13.0936 50.0052 12.6285 50.5357 12.6285C50.9491 12.6285 51.2992 12.8344 51.4162 13.1296L49.2953 14.0065ZM52.5289 13.2189C52.3309 12.6916 51.7292 11.7156 50.4986 11.7156C49.268 11.7156 48.2617 12.6731 48.2617 14.0774C48.2617 15.402 49.268 16.4392 50.6156 16.4392C51.7029 16.4392 52.3319 15.7769 52.5923 15.3923L51.7839 14.8553C51.5147 15.2486 51.1461 15.5089 50.6156 15.5089C50.0852 15.5089 49.7088 15.267 49.4659 14.7931L52.6371 13.487L52.5289 13.218V13.2189ZM27.263 12.441V13.4433H29.6706C29.5984 14.0065 29.4102 14.4183 29.1226 14.7048C28.7725 15.0534 28.2245 15.438 27.263 15.438C25.7808 15.438 24.6213 14.2483 24.6213 12.7722C24.6213 11.2961 25.7798 10.1055 27.263 10.1055C28.0626 10.1055 28.6467 10.4192 29.0777 10.8212L29.7876 10.1142C29.186 9.54125 28.3863 9.10327 27.263 9.10327C25.2327 9.10327 23.5253 10.7493 23.5253 12.7712C23.5253 14.7931 25.2318 16.4392 27.263 16.4392C28.359 16.4392 29.186 16.0808 29.8325 15.4108C30.4975 14.7485 30.7043 13.8181 30.7043 13.0665C30.7043 12.8344 30.6857 12.6197 30.6506 12.4401H27.264L27.263 12.441ZM33.4415 15.5098C32.7228 15.5098 32.1026 14.9194 32.1026 14.0784C32.1026 13.2374 32.7228 12.6469 33.4415 12.6469C34.1601 12.6469 34.7803 13.2286 34.7803 14.0784C34.7803 14.9281 34.1601 15.5098 33.4415 15.5098ZM33.4415 11.7166C32.1299 11.7166 31.0602 12.7101 31.0602 14.0784C31.0602 15.4467 32.1289 16.4402 33.4415 16.4402C34.754 16.4402 35.8218 15.438 35.8218 14.0784C35.8218 12.7188 34.753 11.7166 33.4415 11.7166ZM38.6351 15.5098C37.9164 15.5098 37.2962 14.9194 37.2962 14.0784C37.2962 13.2374 37.9164 12.6469 38.6351 12.6469C39.3537 12.6469 39.9739 13.2286 39.9739 14.0784C39.9739 14.9281 39.3537 15.5098 38.6351 15.5098ZM38.6351 11.7166C37.3235 11.7166 36.2548 12.7101 36.2548 14.0784C36.2548 15.4467 37.3235 16.4402 38.6351 16.4402C39.9466 16.4402 41.0164 15.438 41.0164 14.0784C41.0164 12.7188 39.9476 11.7166 38.6351 11.7166Z" fill="black"/>
<path id="path37" d="M12.1902 10.4241L6.25357 16.6995C6.25357 16.6995 6.25357 16.7015 6.25357 16.7034C6.43592 17.3851 7.06099 17.8862 7.80209 17.8862C8.09854 17.8862 8.37743 17.8066 8.61536 17.6658L8.63389 17.6551L15.3165 13.8143L12.1883 10.4231" fill="#EB3131"/>
<path id="path39" d="M18.1971 9.3559L18.1912 9.35201L15.3058 7.68652L12.0557 10.5669L15.3175 13.8153L18.1873 12.1664C18.6905 11.8954 19.0318 11.3671 19.0318 10.7582C19.0318 10.1493 18.6944 9.62781 18.1971 9.35687" fill="#F6B60B"/>
<path id="path41" d="M6.25261 4.78857C6.21653 4.91968 6.198 5.05661 6.198 5.19936V16.2887C6.198 16.4315 6.21653 16.5684 6.25261 16.6995L12.394 10.5843L6.25261 4.78857Z" fill="#5778C5"/>
<path id="path43" d="M12.2341 10.7445L15.3068 7.68542L8.63194 3.831C8.38913 3.6863 8.10634 3.60278 7.80307 3.60278C7.06099 3.60278 6.43592 4.10583 6.25357 4.78756C6.25357 4.78756 6.25357 4.78853 6.25357 4.78951L12.2341 10.7455" fill="#3BAD49"/>
<path id="path33" d="M27.068 5.06827H25.4414V5.46934H26.6604C26.6272 5.79662 26.4965 6.05299 26.2761 6.23945C26.0558 6.42591 25.7739 6.52011 25.4414 6.52011C25.0767 6.52011 24.7666 6.39386 24.5131 6.14137C24.2644 5.88499 24.1386 5.56646 24.1386 5.18383C24.1386 4.80121 24.2654 4.48365 24.5131 4.2263C24.7666 3.97477 25.0757 3.84853 25.4414 3.84853C25.6287 3.84853 25.8071 3.88057 25.9709 3.9505C26.1347 4.02042 26.2664 4.1185 26.3688 4.24475L26.6779 3.9369C26.5375 3.77763 26.36 3.65624 26.1396 3.56787C25.9192 3.4795 25.6891 3.43677 25.4405 3.43677C24.9539 3.43677 24.5404 3.60477 24.203 3.94078C23.8656 4.27777 23.6969 4.69244 23.6969 5.18286C23.6969 5.67328 23.8656 6.08893 24.203 6.42494C24.5404 6.76095 24.9529 6.92895 25.4405 6.92895C25.9524 6.92895 26.36 6.7658 26.673 6.43465C26.949 6.15885 27.0904 5.78593 27.0904 5.31882C27.0904 5.24016 27.0806 5.15567 27.067 5.0673L27.068 5.06827ZM27.6979 3.51349V6.85612H29.6579V6.44533H28.1299V5.38486H29.5087V4.98378H28.1299V3.92428H29.6579V3.51252H27.6979V3.51349ZM32.4059 3.92525V3.51349H30.0997V3.92525H31.0368V6.85612H31.4678V3.92525H32.4049H32.4059ZM34.4937 3.51349H34.0626V6.85612H34.4937V3.51349ZM37.3401 3.92525V3.51349H35.0339V3.92525H35.971V6.85612H36.402V3.92525H37.3391H37.3401ZM41.6931 3.94855C41.3606 3.60769 40.952 3.43871 40.4654 3.43871C39.9788 3.43871 39.5693 3.60672 39.2367 3.94273C38.9042 4.27388 38.7404 4.68953 38.7404 5.1848C38.7404 5.68008 38.9042 6.09475 39.2367 6.42688C39.5693 6.76289 39.9778 6.9309 40.4654 6.9309C40.953 6.9309 41.3606 6.76289 41.6931 6.42688C42.0256 6.09572 42.1895 5.68008 42.1895 5.1848C42.1895 4.68953 42.0256 4.27971 41.6931 3.94855ZM39.5459 4.22824C39.7945 3.97672 40.0988 3.85047 40.4654 3.85047C40.8321 3.85047 41.1353 3.97672 41.3791 4.22824C41.6278 4.47588 41.7497 4.79829 41.7497 5.18577C41.7497 5.57326 41.6278 5.89567 41.3791 6.14331C41.1353 6.39483 40.8301 6.52205 40.4654 6.52205C40.1007 6.52205 39.7945 6.3958 39.5459 6.14331C39.303 5.89082 39.1812 5.57423 39.1812 5.18577C39.1812 4.79732 39.303 4.48073 39.5459 4.22824ZM43.2143 4.77499L43.1958 4.13016H43.2143L44.9208 6.85709H45.3713V3.51446H44.9403V5.47032L44.9589 6.11515H44.9403L43.3089 3.51446H42.7833V6.85709H43.2143V4.77499Z" fill="black" stroke="white" stroke-width="0.27" stroke-miterlimit="10"/>
</g>
</g>
<defs>
<clipPath id="clip0_19_663">
<rect width="77" height="22" fill="white"/>
</clipPath>
</defs>
</svg>
