<svg width="347" height="59" viewBox="0 0 347 59" fill="none" xmlns="http://www.w3.org/2000/svg">
<rect width="347" height="59" rx="10" fill="#1C1C1C"/>
<path d="M34 16C26.2713 16 20 22.2713 20 30C20 37.7287 26.2713 44 34 44C41.7287 44 48 37.7287 48 30C48 22.2713 41.7406 16 34 16ZM36.6399 37.0478L33.6894 32.7474L32.8771 33.6672V37.0597H30.0341V22.9642H32.8771V30.5495H33.0324L36.4966 26.4881H39.7816L35.8276 31.0751L39.9846 37.0597H36.6519L36.6399 37.0478Z" fill="white"/>
<path d="M250.497 40.72C250.497 41.36 250.289 41.888 249.873 42.304C249.457 42.712 248.889 42.952 248.169 43.024V44.464H247.113V43C246.201 42.872 245.405 42.476 244.725 41.812L245.577 40.792C245.897 41.096 246.253 41.332 246.645 41.5C247.037 41.66 247.413 41.74 247.773 41.74C248.125 41.74 248.413 41.656 248.637 41.488C248.861 41.32 248.973 41.1 248.973 40.828C248.973 40.596 248.889 40.388 248.721 40.204C248.553 40.02 248.129 39.82 247.449 39.604C246.865 39.428 246.397 39.252 246.045 39.076C245.693 38.892 245.413 38.652 245.205 38.356C245.005 38.06 244.905 37.696 244.905 37.264C244.905 36.656 245.101 36.148 245.493 35.74C245.885 35.332 246.425 35.092 247.113 35.02V33.508H248.169V35.056C248.545 35.128 248.921 35.252 249.297 35.428C249.681 35.596 250.009 35.788 250.281 36.004L249.465 37.012C249.161 36.788 248.837 36.62 248.493 36.508C248.157 36.388 247.845 36.328 247.557 36.328C247.213 36.328 246.937 36.404 246.729 36.556C246.521 36.708 246.417 36.912 246.417 37.168C246.417 37.368 246.501 37.552 246.669 37.72C246.837 37.88 247.233 38.06 247.857 38.26C248.561 38.484 249.081 38.688 249.417 38.872C249.761 39.056 250.025 39.296 250.209 39.592C250.401 39.88 250.497 40.256 250.497 40.72ZM254.556 37.708C254.908 37.708 255.24 37.768 255.552 37.888C255.872 38.008 256.152 38.184 256.392 38.416C256.632 38.648 256.82 38.932 256.956 39.268C257.092 39.596 257.16 39.96 257.16 40.36C257.16 40.752 257.088 41.12 256.944 41.464C256.808 41.8 256.612 42.092 256.356 42.34C256.1 42.58 255.788 42.768 255.42 42.904C255.06 43.032 254.668 43.096 254.244 43.096C253.828 43.096 253.424 43.032 253.032 42.904C252.648 42.768 252.324 42.596 252.06 42.388C251.796 42.172 251.588 41.964 251.436 41.764L252.444 40.96C252.62 41.216 252.856 41.424 253.152 41.584C253.448 41.736 253.772 41.812 254.124 41.812C254.62 41.812 255.012 41.672 255.3 41.392C255.596 41.112 255.744 40.76 255.744 40.336C255.744 39.904 255.58 39.56 255.252 39.304C254.932 39.04 254.564 38.908 254.148 38.908C253.604 38.908 253.156 39.052 252.804 39.34L252.048 39.076L252.288 34.756H256.752V36.04H253.596L253.488 37.888C253.872 37.768 254.228 37.708 254.556 37.708ZM258.019 44.584L258.403 41.548H259.843L259.003 44.584H258.019ZM263.929 43.084C263.625 43.084 263.305 43.048 262.969 42.976C262.633 42.896 262.301 42.752 261.973 42.544C261.645 42.328 261.397 42.056 261.229 41.728C261.069 41.4 260.989 41.068 260.989 40.732C260.989 40.476 261.033 40.2 261.121 39.904C261.217 39.608 261.381 39.34 261.613 39.1C261.845 38.852 262.109 38.668 262.405 38.548V38.524C262.213 38.428 262.033 38.28 261.865 38.08C261.697 37.872 261.577 37.652 261.505 37.42C261.433 37.188 261.397 36.98 261.397 36.796C261.397 36.14 261.633 35.624 262.105 35.248C262.585 34.864 263.193 34.672 263.929 34.672C264.297 34.672 264.637 34.724 264.949 34.828C265.269 34.924 265.541 35.064 265.765 35.248C265.997 35.432 266.173 35.656 266.293 35.92C266.421 36.184 266.485 36.476 266.485 36.796C266.485 36.988 266.449 37.204 266.377 37.444C266.305 37.676 266.181 37.896 266.005 38.104C265.829 38.304 265.649 38.444 265.465 38.524V38.548C265.881 38.708 266.221 38.98 266.485 39.364C266.757 39.748 266.893 40.204 266.893 40.732C266.893 40.996 266.841 41.264 266.737 41.536C266.641 41.808 266.453 42.072 266.173 42.328C265.901 42.584 265.561 42.776 265.153 42.904C264.745 43.024 264.337 43.084 263.929 43.084ZM263.929 37.948C264.289 37.948 264.581 37.852 264.805 37.66C265.037 37.468 265.153 37.224 265.153 36.928C265.153 36.64 265.033 36.396 264.793 36.196C264.561 35.996 264.273 35.896 263.929 35.896C263.585 35.896 263.297 36 263.065 36.208C262.833 36.408 262.717 36.648 262.717 36.928C262.717 37.224 262.829 37.468 263.053 37.66C263.285 37.852 263.577 37.948 263.929 37.948ZM263.929 41.848C264.137 41.848 264.361 41.804 264.601 41.716C264.849 41.628 265.053 41.476 265.213 41.26C265.381 41.036 265.465 40.8 265.465 40.552C265.465 40.368 265.417 40.172 265.321 39.964C265.225 39.756 265.049 39.58 264.793 39.436C264.545 39.292 264.257 39.22 263.929 39.22C263.721 39.22 263.493 39.264 263.245 39.352C263.005 39.432 262.805 39.584 262.645 39.808C262.485 40.024 262.405 40.272 262.405 40.552C262.405 40.72 262.453 40.908 262.549 41.116C262.653 41.316 262.833 41.488 263.089 41.632C263.345 41.776 263.625 41.848 263.929 41.848ZM271.179 43.096C270.723 43.096 270.299 43.004 269.907 42.82C269.515 42.628 269.179 42.352 268.899 41.992C268.619 41.624 268.399 41.176 268.239 40.648C268.087 40.12 268.011 39.532 268.011 38.884C268.011 38.276 268.083 37.712 268.227 37.192C268.371 36.664 268.579 36.216 268.851 35.848C269.131 35.472 269.467 35.184 269.859 34.984C270.259 34.776 270.699 34.672 271.179 34.672C271.635 34.672 272.059 34.768 272.451 34.96C272.843 35.144 273.179 35.416 273.459 35.776C273.739 36.136 273.955 36.584 274.107 37.12C274.267 37.648 274.347 38.236 274.347 38.884C274.347 39.492 274.275 40.056 274.131 40.576C273.987 41.096 273.779 41.544 273.507 41.92C273.235 42.296 272.899 42.588 272.499 42.796C272.099 42.996 271.659 43.096 271.179 43.096ZM271.179 41.8C271.731 41.8 272.159 41.544 272.463 41.032C272.775 40.512 272.931 39.796 272.931 38.884C272.931 37.972 272.775 37.256 272.463 36.736C272.151 36.216 271.723 35.956 271.179 35.956C270.635 35.956 270.207 36.216 269.895 36.736C269.583 37.256 269.427 37.972 269.427 38.884C269.427 39.788 269.587 40.5 269.907 41.02C270.227 41.54 270.651 41.8 271.179 41.8ZM278.953 43V41.608H275.353V40.66L279.181 34.756H280.345V40.372H281.485V41.608H280.345V43H278.953ZM276.973 40.408H279.001V37.108L276.973 40.408ZM283.397 43.096C283.149 43.096 282.933 43.008 282.749 42.832C282.573 42.656 282.485 42.448 282.485 42.208C282.485 41.968 282.573 41.76 282.749 41.584C282.933 41.4 283.149 41.308 283.397 41.308C283.637 41.308 283.845 41.4 284.021 41.584C284.205 41.76 284.297 41.968 284.297 42.208C284.297 42.448 284.205 42.656 284.021 42.832C283.845 43.008 283.637 43.096 283.397 43.096ZM288.628 43.096C288.172 43.096 287.748 43.004 287.356 42.82C286.964 42.628 286.628 42.352 286.348 41.992C286.068 41.624 285.848 41.176 285.688 40.648C285.536 40.12 285.46 39.532 285.46 38.884C285.46 38.276 285.532 37.712 285.676 37.192C285.82 36.664 286.028 36.216 286.3 35.848C286.58 35.472 286.916 35.184 287.308 34.984C287.708 34.776 288.148 34.672 288.628 34.672C289.084 34.672 289.508 34.768 289.9 34.96C290.292 35.144 290.628 35.416 290.908 35.776C291.188 36.136 291.404 36.584 291.556 37.12C291.716 37.648 291.796 38.236 291.796 38.884C291.796 39.492 291.724 40.056 291.58 40.576C291.436 41.096 291.228 41.544 290.956 41.92C290.684 42.296 290.348 42.588 289.948 42.796C289.548 42.996 289.108 43.096 288.628 43.096ZM288.628 41.8C289.18 41.8 289.608 41.544 289.912 41.032C290.224 40.512 290.38 39.796 290.38 38.884C290.38 37.972 290.224 37.256 289.912 36.736C289.6 36.216 289.172 35.956 288.628 35.956C288.084 35.956 287.656 36.216 287.344 36.736C287.032 37.256 286.876 37.972 286.876 38.884C286.876 39.788 287.036 40.5 287.356 41.02C287.676 41.54 288.1 41.8 288.628 41.8ZM296.21 43.096C295.754 43.096 295.33 43.004 294.938 42.82C294.546 42.628 294.21 42.352 293.93 41.992C293.65 41.624 293.43 41.176 293.27 40.648C293.118 40.12 293.042 39.532 293.042 38.884C293.042 38.276 293.114 37.712 293.258 37.192C293.402 36.664 293.61 36.216 293.882 35.848C294.162 35.472 294.498 35.184 294.89 34.984C295.29 34.776 295.73 34.672 296.21 34.672C296.666 34.672 297.09 34.768 297.482 34.96C297.874 35.144 298.21 35.416 298.49 35.776C298.77 36.136 298.986 36.584 299.138 37.12C299.298 37.648 299.378 38.236 299.378 38.884C299.378 39.492 299.306 40.056 299.162 40.576C299.018 41.096 298.81 41.544 298.538 41.92C298.266 42.296 297.93 42.588 297.53 42.796C297.13 42.996 296.69 43.096 296.21 43.096ZM296.21 41.8C296.762 41.8 297.19 41.544 297.494 41.032C297.806 40.512 297.962 39.796 297.962 38.884C297.962 37.972 297.806 37.256 297.494 36.736C297.182 36.216 296.754 35.956 296.21 35.956C295.666 35.956 295.238 36.216 294.926 36.736C294.614 37.256 294.458 37.972 294.458 38.884C294.458 39.788 294.618 40.5 294.938 41.02C295.258 41.54 295.682 41.8 296.21 41.8Z" fill="#A4A4A4"/>
<path d="M230.457 18.695H236.862V19.85L233.082 29.21L231.327 28.88L234.912 20.285H230.457V18.695ZM237.051 30.98L237.531 27.185H239.331L238.281 30.98H237.051ZM244.27 29.12C243.4 29.12 242.64 28.92 241.99 28.52C241.35 28.11 240.9 27.58 240.64 26.93L242.14 26.27C242.3 26.66 242.55 26.965 242.89 27.185C243.23 27.395 243.65 27.5 244.15 27.5C244.38 27.5 244.63 27.455 244.9 27.365C245.18 27.265 245.42 27.09 245.62 26.84C245.82 26.59 245.92 26.3 245.92 25.97C245.92 25.78 245.865 25.565 245.755 25.325C245.655 25.085 245.455 24.875 245.155 24.695C244.855 24.515 244.465 24.425 243.985 24.425H243.205V22.955H244.15C244.53 22.955 244.835 22.88 245.065 22.73C245.305 22.57 245.46 22.385 245.53 22.175C245.61 21.955 245.65 21.76 245.65 21.59C245.65 21.3 245.56 21.04 245.38 20.81C245.21 20.57 245.005 20.41 244.765 20.33C244.525 20.24 244.305 20.195 244.105 20.195C243.355 20.195 242.79 20.495 242.41 21.095L241.015 20.345C241.265 19.825 241.665 19.405 242.215 19.085C242.775 18.755 243.42 18.59 244.15 18.59C244.83 18.59 245.415 18.715 245.905 18.965C246.395 19.215 246.765 19.54 247.015 19.94C247.275 20.34 247.405 20.8 247.405 21.32C247.405 21.81 247.28 22.26 247.03 22.67C246.79 23.08 246.46 23.4 246.04 23.63V23.675C246.41 23.845 246.725 24.075 246.985 24.365C247.255 24.655 247.44 24.965 247.54 25.295C247.64 25.625 247.69 25.93 247.69 26.21C247.69 27.07 247.365 27.77 246.715 28.31C246.075 28.85 245.26 29.12 244.27 29.12ZM253.315 29V27.26H248.815V26.075L253.6 18.695H255.055V25.715H256.48V27.26H255.055V29H253.315ZM250.84 25.76H253.375V21.635L250.84 25.76ZM261.747 29.12C261.177 29.12 260.647 29.005 260.157 28.775C259.667 28.535 259.247 28.19 258.897 27.74C258.547 27.28 258.272 26.72 258.072 26.06C257.882 25.4 257.787 24.665 257.787 23.855C257.787 23.095 257.877 22.39 258.057 21.74C258.237 21.08 258.497 20.52 258.837 20.06C259.187 19.59 259.607 19.23 260.097 18.98C260.597 18.72 261.147 18.59 261.747 18.59C262.317 18.59 262.847 18.71 263.337 18.95C263.827 19.18 264.247 19.52 264.597 19.97C264.947 20.42 265.217 20.98 265.407 21.65C265.607 22.31 265.707 23.045 265.707 23.855C265.707 24.615 265.617 25.32 265.437 25.97C265.257 26.62 264.997 27.18 264.657 27.65C264.317 28.12 263.897 28.485 263.397 28.745C262.897 28.995 262.347 29.12 261.747 29.12ZM261.747 27.5C262.437 27.5 262.972 27.18 263.352 26.54C263.742 25.89 263.937 24.995 263.937 23.855C263.937 22.715 263.742 21.82 263.352 21.17C262.962 20.52 262.427 20.195 261.747 20.195C261.067 20.195 260.532 20.52 260.142 21.17C259.752 21.82 259.557 22.715 259.557 23.855C259.557 24.985 259.757 25.875 260.157 26.525C260.557 27.175 261.087 27.5 261.747 27.5ZM271.803 29V18.35H273.618V23.45H273.648L277.728 18.35H280.038L276.033 23.105L280.158 29H277.908L274.833 24.545L273.618 25.985V29H271.803ZM281.764 29V18.35H285.154C285.974 18.35 286.729 18.48 287.419 18.74C288.109 19 288.694 19.37 289.174 19.85C289.664 20.32 290.039 20.885 290.299 21.545C290.559 22.205 290.689 22.92 290.689 23.69C290.689 24.46 290.564 25.175 290.314 25.835C290.064 26.485 289.699 27.05 289.219 27.53C288.739 28 288.154 28.365 287.464 28.625C286.784 28.875 286.029 29 285.199 29H281.764ZM283.579 27.38H285.094C285.634 27.38 286.134 27.29 286.594 27.11C287.064 26.92 287.464 26.66 287.794 26.33C288.124 26 288.374 25.61 288.544 25.16C288.724 24.7 288.814 24.21 288.814 23.69C288.814 23.16 288.724 22.67 288.544 22.22C288.374 21.76 288.124 21.365 287.794 21.035C287.474 20.695 287.089 20.435 286.639 20.255C286.189 20.065 285.704 19.97 285.184 19.97H283.579V27.38ZM294.39 29V24.29L290.835 18.35H292.905L295.29 22.475H295.32L297.69 18.35H299.79L296.205 24.29V29H294.39Z" fill="white"/>
<g clip-path="url(#clip0_2066_417)">
<path d="M326 31.3929C326 31.3929 325.893 31.0714 325.787 30.9643L319.422 24.2857C319.138 23.9643 318.64 23.8929 318.284 24.1786C317.964 24.4643 317.893 24.9643 318.178 25.3214C318.178 25.3214 318.213 25.3571 318.249 25.3929L324.116 31.5L318.249 37.6071C317.929 37.9286 317.929 38.4286 318.213 38.75C318.498 39.0714 319.031 39.0714 319.351 38.7857C319.351 38.7857 319.387 38.75 319.422 38.7143L325.787 32.0357C325.787 32.0357 326.036 31.6071 326 31.3929Z" fill="#818181"/>
</g>
<path d="M58.392 34V22.64H60.328V28.08H60.36L64.712 22.64H67.176L62.904 27.712L67.304 34H64.904L61.624 29.248L60.328 30.784V34H58.392ZM69.017 34V22.64H72.633C73.5077 22.64 74.313 22.7787 75.049 23.056C75.785 23.3333 76.409 23.728 76.921 24.24C77.4437 24.7413 77.8437 25.344 78.121 26.048C78.3983 26.752 78.537 27.5147 78.537 28.336C78.537 29.1573 78.4037 29.92 78.137 30.624C77.8703 31.3173 77.481 31.92 76.969 32.432C76.457 32.9333 75.833 33.3227 75.097 33.6C74.3717 33.8667 73.5663 34 72.681 34H69.017ZM70.953 32.272H72.569C73.145 32.272 73.6783 32.176 74.169 31.984C74.6703 31.7813 75.097 31.504 75.449 31.152C75.801 30.8 76.0677 30.384 76.249 29.904C76.441 29.4133 76.537 28.8907 76.537 28.336C76.537 27.7707 76.441 27.248 76.249 26.768C76.0677 26.2773 75.801 25.856 75.449 25.504C75.1077 25.1413 74.697 24.864 74.217 24.672C73.737 24.4693 73.2197 24.368 72.665 24.368H70.953V32.272ZM82.4848 34V28.976L78.6928 22.64H80.9008L83.4448 27.04H83.4768L86.0048 22.64H88.2448L84.4208 28.976V34H82.4848Z" fill="white"/>
<defs>
<clipPath id="clip0_2066_417">
<rect width="15" height="8" fill="white" transform="translate(318 39) rotate(-90)"/>
</clipPath>
</defs>
</svg>
