<svg width="80" height="31" viewBox="0 0 80 31" fill="none" xmlns="http://www.w3.org/2000/svg">
<g id="layer" clip-path="url(#clip0_149_1253)">
<path id="Vector" d="M54.4043 18.0518C54.3243 18.1463 54.191 18.2004 54.0177 18.2004C53.8444 18.2004 53.6977 18.1328 53.6044 18.0113C53.5111 17.8898 53.4578 17.6603 53.4578 17.3362C53.4578 17.0797 53.4977 16.8772 53.5777 16.7557C53.6844 16.5801 53.8444 16.4991 54.0443 16.4991C54.1243 16.4991 54.2043 16.5126 54.2843 16.5531C54.3643 16.5936 54.4176 16.6477 54.4709 16.7152C54.5109 16.7557 54.5376 16.8232 54.5642 16.9177L55.3641 16.7422C55.2708 16.4181 55.1108 16.1886 54.8975 16.0401C54.6842 15.8916 54.4043 15.8105 54.031 15.8105C53.5644 15.8105 53.1911 15.9321 52.9378 16.2021C52.6845 16.4721 52.5512 16.8502 52.5512 17.3362C52.5512 17.7008 52.6312 18.0113 52.7779 18.2409C52.9245 18.4839 53.0978 18.6459 53.2978 18.7404C53.5111 18.8349 53.7644 18.8754 54.0843 18.8754C54.3509 18.8754 54.5642 18.8349 54.7375 18.7539C54.9108 18.6864 55.0442 18.5649 55.1641 18.4164C55.2841 18.2679 55.3641 18.0788 55.4174 17.8493L54.6176 17.6063C54.5776 17.7953 54.5109 17.9303 54.4043 18.0518Z" fill="#8B8B8B"/>
<path id="Vector_2" d="M57.2571 15.7971C56.7772 15.7971 56.4039 15.9321 56.1373 16.2022C55.8707 16.4722 55.7374 16.8503 55.7374 17.3363C55.7374 17.6874 55.7907 17.9439 55.9373 18.1869C56.084 18.43 56.2573 18.592 56.4706 18.7C56.6972 18.808 56.9638 18.862 57.2971 18.862C57.6304 18.862 57.897 18.7945 58.1103 18.673C58.3369 18.5515 58.4969 18.376 58.6169 18.1599C58.7369 17.9439 58.7902 17.6604 58.7902 17.3093C58.7902 16.8233 58.6569 16.4587 58.3903 16.1887C58.1236 15.9321 57.7504 15.7971 57.2571 15.7971ZM57.7104 17.9979C57.6037 18.1194 57.4571 18.1869 57.2571 18.1869C57.0572 18.1869 56.9105 18.1194 56.8039 17.9844C56.6972 17.8494 56.6439 17.6334 56.6439 17.3363C56.6439 17.0393 56.6972 16.8233 56.8039 16.7152C56.9105 16.5802 57.0572 16.5127 57.2438 16.5127C57.4304 16.5127 57.5904 16.5667 57.6971 16.7017C57.817 16.8233 57.8704 17.0258 57.8704 17.3093C57.8704 17.6334 57.817 17.8629 57.7104 17.9979Z" fill="#8B8B8B"/>
<path id="Vector_3" d="M60.8965 17.6603L60.4433 15.8511H59.2568H59.2301V18.8215H59.9767V16.5532L60.5499 18.8215H61.2165L61.7897 16.5532V18.8215H62.5363V15.8511H61.3498L60.8965 17.6603Z" fill="#8B8B8B"/>
<path id="Vector_4" d="M64.6292 15.8511H63.1228V18.835H64.0293V17.7278H64.5226C64.8825 17.7278 65.1625 17.6468 65.3358 17.4713C65.5091 17.3093 65.6024 17.0662 65.6024 16.7692C65.6024 16.4722 65.5224 16.2561 65.3624 16.0941C65.2025 15.9321 64.9625 15.8511 64.6292 15.8511ZM64.6292 17.0257C64.5492 17.0932 64.4293 17.1202 64.256 17.1202H64.0293H64.0427V16.4587H64.296C64.4693 16.4587 64.5759 16.4857 64.6426 16.5532C64.7092 16.6207 64.7359 16.7017 64.7359 16.7962C64.7359 16.8907 64.6959 16.9582 64.6292 17.0257Z" fill="#8B8B8B"/>
<path id="Vector_5" d="M66.9888 15.8511H66.0823V18.8215H68.4019V18.0924H66.9888V15.8511Z" fill="#8B8B8B"/>
<path id="Vector_6" d="M69.7617 15.8511H68.8552V18.8215H69.7617V15.8511Z" fill="#8B8B8B"/>
<path id="Vector_7" d="M71.2281 15.8376L70.1216 18.808H71.0415L71.1881 18.322H72.2146L72.3746 18.808H73.3211L72.2146 15.8376H71.2281ZM71.3881 17.6874L71.708 16.6207L72.028 17.6874H71.3881Z" fill="#8B8B8B"/>
<path id="Vector_8" d="M75.5474 17.4983L74.4409 15.8511H73.6011V18.8215H74.4543V17.1877L75.5474 18.8215H76.4006V15.8511H75.5474V17.4983Z" fill="#8B8B8B"/>
<path id="Vector_9" d="M76.8139 16.5802H77.7337V18.8215H78.6402V16.5802H79.5601V15.8511H76.8139V16.5802Z" fill="#8B8B8B"/>
<path id="Vector_10" d="M27.2088 22.0281C20.1566 21.5825 20.1566 16.4924 20.1566 16.3439V15.1287C20.1566 14.9127 20.4099 9.93053 27.2088 9.37696C27.6487 9.30945 29.2885 9.32295 29.3818 9.37696C31.2481 9.48497 31.8614 9.89003 31.8614 9.89003C31.9014 9.91703 31.928 9.95754 31.928 9.99804V13.1304C31.928 13.1709 31.9014 13.1845 31.8614 13.1709C31.8614 13.1709 30.7682 12.4959 29.4218 12.3203H28.262C25.1825 12.5904 24.9692 15.0882 24.9692 15.0882C24.9558 15.1152 24.9558 15.1827 24.9558 15.2232V16.1143C24.9558 16.1413 24.9692 16.2088 24.9692 16.2493C24.9692 16.2493 25.1158 18.5716 28.262 19.1117C28.4886 19.1522 28.7952 19.1792 29.4218 19.1117C31.6347 18.8822 32.1413 18.4771 32.1413 18.4771C32.168 18.4501 32.1946 18.4636 32.1946 18.5041V19.0213C32.8465 19.132 33.5237 19.4439 34.1676 19.8854V9.56598H38.8335V17.2741C40.4826 14.8722 42.2356 12.4203 42.8195 11.6115L37.6737 0L0 2.16028L10.4383 31L30.5282 24.5867C29.9603 23.759 29.5524 22.8638 29.4044 22.0281C29.3964 22.0281 29.3898 22.0281 29.3818 22.0281C29.2485 22.0281 27.902 22.0821 27.2088 22.0281ZM36.5006 2.93663C38.0737 2.93663 39.3534 4.15179 39.3534 5.66398C39.3534 7.17618 38.0737 8.39133 36.5006 8.39133C34.9275 8.39133 33.6477 7.16267 33.6477 5.66398C33.6477 4.16529 34.9275 2.93663 36.5006 2.93663ZM11.9447 18.2206C11.9047 18.2206 11.878 18.2476 11.878 18.2881V21.8796C11.878 21.9201 11.8514 21.9471 11.8114 21.9471H7.26546C7.22546 21.9471 7.1988 21.9201 7.1988 21.8796V9.63349C7.1988 9.59299 7.22546 9.56598 7.26546 9.56598H13.1578C14.6509 9.49848 19.2101 9.91703 19.2101 13.819C19.2101 18.7472 11.9447 18.2206 11.9447 18.2206Z" fill="#8B8B8B"/>
<path id="Vector_11" d="M12.9178 12.2529H11.798V15.4798H13.0512C13.0512 15.4798 14.4509 15.4123 14.6642 14.1027C14.6909 14.0757 14.6909 13.5221 14.6642 13.4411C14.5309 12.3204 12.9178 12.2529 12.9178 12.2529Z" fill="#8B8B8B"/>
<path id="Vector_12" d="M43.7127 20.3742L46.3389 19.5371L45.4857 17.6199C44.8592 18.4165 44.2326 19.4426 43.7127 20.3742Z" fill="#8B8B8B"/>
<path id="Vector_13" d="M50.1916 8.22266C46.0883 8.10654 41.853 14.9155 38.8335 19.9881V21.9202H37.6831C37.3045 22.5521 36.9525 23.1245 36.6339 23.6146C36.5939 23.6686 36.4073 23.6146 36.4073 23.6146C36.4073 23.6146 35.7061 22.7775 34.7835 21.9202H34.1663V21.3761C33.7277 21.0102 33.2651 20.6753 32.8199 20.4417C32.7799 20.4282 32.5932 20.3607 32.3933 20.3742C32.3599 20.3742 32.288 20.3837 32.1933 20.4053V21.4341C32.1933 21.4746 32.1666 21.5151 32.1266 21.5286C32.1266 21.5286 31.5881 21.769 30.7149 21.9161C30.7135 21.9985 30.7135 22.0862 30.7135 22.1835C30.7135 22.224 30.7402 22.413 30.7935 22.5075C31.2068 23.2366 33.0598 25.8289 34.5929 27.2601C34.8195 27.4356 35.1795 27.8812 36.6326 27.8812C37.0058 27.8812 37.2991 27.8812 37.779 27.6652C39.4321 26.7876 45.0178 12.9753 50.9102 8.72222C50.9502 8.69522 50.9902 8.65471 51.0168 8.61421C51.0568 8.5602 51.0568 8.50619 51.0568 8.50619C51.0568 8.50619 51.0568 8.22266 50.1903 8.22266H50.1916Z" fill="#4C4C4C"/>
<path id="Vector_14" d="M38.8335 21.9201V19.988C38.4269 20.6712 38.043 21.322 37.6831 21.9201H38.8335Z" fill="#4C4C4C"/>
<path id="Vector_15" d="M34.1676 21.9201H34.7849C34.5876 21.7365 34.3809 21.5528 34.1676 21.376V21.9201Z" fill="#4C4C4C"/>
<path id="Vector_16" d="M32.1946 21.4341V20.4053C31.904 20.4687 31.4001 20.6308 31.1281 20.9143C30.7762 21.2923 30.7242 21.534 30.7162 21.9161C31.5881 21.7689 32.128 21.5286 32.128 21.5286C32.168 21.5151 32.1946 21.4746 32.1946 21.4341Z" fill="#4C4C4C"/>
<path id="Vector_17" d="M58.5636 13.9068C59.0302 13.7717 59.4701 13.5152 59.8834 13.1372C60.2966 12.7456 60.6166 12.273 60.8432 11.706C61.0698 11.1389 61.1898 10.3423 61.1898 9.31616C61.1898 8.65458 61.1098 8.0335 60.9499 7.45292C60.8032 6.87235 60.5499 6.35928 60.2033 5.91372C59.87 5.48167 59.4301 5.14413 58.8969 4.90109C58.3769 4.67156 57.6837 4.55005 56.8172 4.55005H52.4579V14.1633H56.8172C57.3371 14.1633 57.9237 14.0823 58.5636 13.9068ZM55.3908 11.976V6.72383H56.124C56.8972 6.72383 57.4304 6.91285 57.7637 7.2909C58.097 7.66895 58.257 8.35754 58.257 9.38367C58.257 10.1533 58.177 10.7203 58.0303 11.0579C57.8837 11.3954 57.6704 11.6385 57.4171 11.7735C57.1638 11.9085 56.7239 11.976 56.1107 11.976H55.3908Z" fill="#8B8B8B"/>
<path id="Vector_18" d="M70.255 9.61319C70.0017 9.19463 69.6017 8.83009 69.0418 8.54655C68.4819 8.26301 67.5621 7.97948 66.2823 7.69594C65.7624 7.58793 65.4291 7.46641 65.2958 7.3449C65.1491 7.22338 65.0825 7.07486 65.0825 6.92634C65.0825 6.71031 65.1625 6.53479 65.3358 6.38627C65.5091 6.23775 65.7624 6.17024 66.109 6.17024C66.5223 6.17024 66.8422 6.26476 67.0822 6.46728C67.3221 6.66981 67.4688 6.98035 67.5487 7.4124L70.3216 7.25038C70.2016 6.25125 69.8284 5.52216 69.1885 5.0631C68.5619 4.60404 67.6287 4.37451 66.4156 4.37451C65.4291 4.37451 64.6559 4.49603 64.0827 4.75256C63.5094 5.00909 63.0828 5.34664 62.8029 5.79219C62.5229 6.23775 62.3763 6.69681 62.3763 7.19638C62.3763 7.95247 62.6429 8.57355 63.2028 9.05962C63.7627 9.54568 64.6692 9.93723 65.9623 10.2343C66.7489 10.4098 67.2555 10.5853 67.4688 10.7878C67.6821 10.9904 67.7887 11.2199 67.7887 11.4629C67.7887 11.7195 67.6687 11.949 67.4421 12.1515C67.2155 12.354 66.8822 12.4486 66.4689 12.4486C65.909 12.4486 65.4824 12.2595 65.1758 11.868C64.9892 11.6249 64.8692 11.2739 64.8025 10.8148L62.003 10.9904C62.0963 11.9625 62.4429 12.7591 63.0562 13.3937C63.6827 14.0283 64.8025 14.3388 66.4156 14.3388C67.3355 14.3388 68.1087 14.2038 68.7086 13.9337C69.3085 13.6637 69.7884 13.2722 70.1217 12.7456C70.4549 12.2325 70.6282 11.6655 70.6282 11.0444C70.6282 10.5178 70.5083 10.0317 70.255 9.61319Z" fill="#8B8B8B"/>
<path id="Vector_19" d="M76.8139 12.1515C76.5872 12.354 76.254 12.4486 75.8407 12.4486C75.2808 12.4486 74.8542 12.2595 74.5476 11.868C74.361 11.6249 74.241 11.2739 74.1743 10.8148L71.3748 10.9904C71.4548 11.9625 71.8014 12.7591 72.4279 13.3937C73.0545 14.0283 74.1743 14.3388 75.7874 14.3388C76.7072 14.3388 77.4804 14.2038 78.0803 13.9337C78.6802 13.6637 79.1602 13.2722 79.4934 12.7456C79.8267 12.2325 80 11.6655 80 11.0444C80 10.5178 79.88 10.0317 79.6267 9.61319C79.3734 9.19463 78.9735 8.83009 78.4136 8.54655C77.8537 8.26301 76.9339 7.97948 75.6541 7.69594C75.1342 7.58793 74.8009 7.46641 74.6676 7.3449C74.5209 7.22338 74.4543 7.07486 74.4543 6.92634C74.4543 6.71031 74.5343 6.53479 74.7076 6.38627C74.8809 6.23775 75.1342 6.17024 75.4808 6.17024C75.894 6.17024 76.214 6.26476 76.4539 6.46728C76.6939 6.66981 76.8405 6.98035 76.9205 7.4124L79.6934 7.25038C79.5734 6.25125 79.2001 5.52216 78.5603 5.0631C77.9337 4.60404 77.0005 4.37451 75.7874 4.37451C74.8009 4.37451 74.0277 4.49603 73.4544 4.75256C72.8812 5.00909 72.4546 5.34664 72.1747 5.79219C71.8947 6.23775 71.7481 6.69681 71.7481 7.19638C71.7481 7.95247 72.028 8.57355 72.5746 9.05962C73.1345 9.54568 74.041 9.93723 75.3341 10.2343C76.1207 10.4098 76.6272 10.5853 76.8405 10.7878C77.0538 10.9904 77.1605 11.2199 77.1605 11.4629C77.1605 11.7195 77.0405 11.949 76.8139 12.1515Z" fill="#8B8B8B"/>
</g>
<defs>
<clipPath id="clip0_149_1253">
<rect width="80" height="31" fill="white"/>
</clipPath>
</defs>
</svg>
