<svg width="104" height="104" viewBox="0 0 104 104" fill="none" xmlns="http://www.w3.org/2000/svg">
<g id="Layer_1" clip-path="url(#clip0_8_33)">
<path id="Vector" d="M32.2759 0H28.6897V3.58621H32.2759V0Z" fill="white"/>
<path id="Vector_2" d="M35.8621 0H32.2759V3.58621H35.8621V0Z" fill="white"/>
<path id="Vector_3" d="M43.0344 0H39.4482V3.58621H43.0344V0Z" fill="white"/>
<path id="Vector_4" d="M46.6206 0H43.0344V3.58621H46.6206V0Z" fill="white"/>
<path id="Vector_5" d="M50.2069 0H46.6207V3.58621H50.2069V0Z" fill="white"/>
<path id="Vector_6" d="M53.7931 0H50.2069V3.58621H53.7931V0Z" fill="white"/>
<path id="Vector_7" d="M57.3793 0H53.7931V3.58621H57.3793V0Z" fill="white"/>
<path id="Vector_8" d="M64.5518 0H60.9656V3.58621H64.5518V0Z" fill="white"/>
<path id="Vector_9" d="M32.2759 3.58618H28.6897V7.17239H32.2759V3.58618Z" fill="white"/>
<path id="Vector_10" d="M50.2069 3.58618H46.6207V7.17239H50.2069V3.58618Z" fill="white"/>
<path id="Vector_11" d="M53.7931 3.58618H50.2069V7.17239H53.7931V3.58618Z" fill="white"/>
<path id="Vector_12" d="M57.3793 3.58618H53.7931V7.17239H57.3793V3.58618Z" fill="white"/>
<path id="Vector_13" d="M68.138 3.58618H64.5518V7.17239H68.138V3.58618Z" fill="white"/>
<path id="Vector_14" d="M71.7241 3.58618H68.1379V7.17239H71.7241V3.58618Z" fill="white"/>
<path id="Vector_15" d="M75.3103 3.58618H71.7241V7.17239H75.3103V3.58618Z" fill="white"/>
<path id="Vector_16" d="M32.2759 7.17236H28.6897V10.7586H32.2759V7.17236Z" fill="white"/>
<path id="Vector_17" d="M35.8621 7.17236H32.2759V10.7586H35.8621V7.17236Z" fill="white"/>
<path id="Vector_18" d="M39.4483 7.17236H35.8621V10.7586H39.4483V7.17236Z" fill="white"/>
<path id="Vector_19" d="M50.2069 7.17236H46.6207V10.7586H50.2069V7.17236Z" fill="white"/>
<path id="Vector_20" d="M53.7931 7.17236H50.2069V10.7586H53.7931V7.17236Z" fill="white"/>
<path id="Vector_21" d="M68.138 7.17236H64.5518V10.7586H68.138V7.17236Z" fill="white"/>
<path id="Vector_22" d="M71.7241 7.17236H68.1379V10.7586H71.7241V7.17236Z" fill="white"/>
<path id="Vector_23" d="M39.4483 10.7585H35.8621V14.3448H39.4483V10.7585Z" fill="white"/>
<path id="Vector_24" d="M43.0344 10.7585H39.4482V14.3448H43.0344V10.7585Z" fill="white"/>
<path id="Vector_25" d="M46.6206 10.7585H43.0344V14.3448H46.6206V10.7585Z" fill="white"/>
<path id="Vector_26" d="M53.7931 10.7585H50.2069V14.3448H53.7931V10.7585Z" fill="white"/>
<path id="Vector_27" d="M57.3793 10.7585H53.7931V14.3448H57.3793V10.7585Z" fill="white"/>
<path id="Vector_28" d="M64.5518 10.7585H60.9656V14.3448H64.5518V10.7585Z" fill="white"/>
<path id="Vector_29" d="M68.138 10.7585H64.5518V14.3448H68.138V10.7585Z" fill="white"/>
<path id="Vector_30" d="M32.2759 14.3447H28.6897V17.9309H32.2759V14.3447Z" fill="white"/>
<path id="Vector_31" d="M35.8621 14.3447H32.2759V17.9309H35.8621V14.3447Z" fill="white"/>
<path id="Vector_32" d="M39.4483 14.3447H35.8621V17.9309H39.4483V14.3447Z" fill="white"/>
<path id="Vector_33" d="M50.2069 14.3447H46.6207V17.9309H50.2069V14.3447Z" fill="white"/>
<path id="Vector_34" d="M57.3793 14.3447H53.7931V17.9309H57.3793V14.3447Z" fill="white"/>
<path id="Vector_35" d="M68.138 14.3447H64.5518V17.9309H68.138V14.3447Z" fill="white"/>
<path id="Vector_36" d="M71.7241 14.3447H68.1379V17.9309H71.7241V14.3447Z" fill="white"/>
<path id="Vector_37" d="M39.4483 17.9312H35.8621V21.5174H39.4483V17.9312Z" fill="white"/>
<path id="Vector_38" d="M46.6206 17.9312H43.0344V21.5174H46.6206V17.9312Z" fill="white"/>
<path id="Vector_39" d="M50.2069 17.9312H46.6207V21.5174H50.2069V17.9312Z" fill="white"/>
<path id="Vector_40" d="M53.7931 17.9312H50.2069V21.5174H53.7931V17.9312Z" fill="white"/>
<path id="Vector_41" d="M75.3103 17.9312H71.7241V21.5174H75.3103V17.9312Z" fill="white"/>
<path id="Vector_42" d="M32.2759 21.5173H28.6897V25.1035H32.2759V21.5173Z" fill="white"/>
<path id="Vector_43" d="M39.4483 21.5173H35.8621V25.1035H39.4483V21.5173Z" fill="white"/>
<path id="Vector_44" d="M46.6206 21.5173H43.0344V25.1035H46.6206V21.5173Z" fill="white"/>
<path id="Vector_45" d="M53.7931 21.5173H50.2069V25.1035H53.7931V21.5173Z" fill="white"/>
<path id="Vector_46" d="M60.9655 21.5173H57.3793V25.1035H60.9655V21.5173Z" fill="white"/>
<path id="Vector_47" d="M68.138 21.5173H64.5518V25.1035H68.138V21.5173Z" fill="white"/>
<path id="Vector_48" d="M75.3103 21.5173H71.7241V25.1035H75.3103V21.5173Z" fill="white"/>
<path id="Vector_49" d="M35.8621 25.1035H32.2759V28.6897H35.8621V25.1035Z" fill="white"/>
<path id="Vector_50" d="M39.4483 25.1035H35.8621V28.6897H39.4483V25.1035Z" fill="white"/>
<path id="Vector_51" d="M53.7931 25.1035H50.2069V28.6897H53.7931V25.1035Z" fill="white"/>
<path id="Vector_52" d="M71.7241 25.1035H68.1379V28.6897H71.7241V25.1035Z" fill="white"/>
<path id="Vector_53" d="M75.3103 25.1035H71.7241V28.6897H75.3103V25.1035Z" fill="white"/>
<path id="Vector_54" d="M3.58621 28.6897H0V32.2759H3.58621V28.6897Z" fill="white"/>
<path id="Vector_55" d="M14.3449 28.6897H10.7587V32.2759H14.3449V28.6897Z" fill="white"/>
<path id="Vector_56" d="M17.9311 28.6897H14.3448V32.2759H17.9311V28.6897Z" fill="white"/>
<path id="Vector_57" d="M21.5172 28.6897H17.931V32.2759H21.5172V28.6897Z" fill="white"/>
<path id="Vector_58" d="M25.1034 28.6897H21.5172V32.2759H25.1034V28.6897Z" fill="white"/>
<path id="Vector_59" d="M28.6896 28.6897H25.1034V32.2759H28.6896V28.6897Z" fill="white"/>
<path id="Vector_60" d="M32.2759 28.6897H28.6897V32.2759H32.2759V28.6897Z" fill="white"/>
<path id="Vector_61" d="M35.8621 28.6897H32.2759V32.2759H35.8621V28.6897Z" fill="white"/>
<path id="Vector_62" d="M39.4483 28.6897H35.8621V32.2759H39.4483V28.6897Z" fill="white"/>
<path id="Vector_63" d="M43.0344 28.6897H39.4482V32.2759H43.0344V28.6897Z" fill="white"/>
<path id="Vector_64" d="M46.6206 28.6897H43.0344V32.2759H46.6206V28.6897Z" fill="white"/>
<path id="Vector_65" d="M50.2069 28.6897H46.6207V32.2759H50.2069V28.6897Z" fill="white"/>
<path id="Vector_66" d="M53.7931 28.6897H50.2069V32.2759H53.7931V28.6897Z" fill="white"/>
<path id="Vector_67" d="M57.3793 28.6897H53.7931V32.2759H57.3793V28.6897Z" fill="white"/>
<path id="Vector_68" d="M60.9655 28.6897H57.3793V32.2759H60.9655V28.6897Z" fill="white"/>
<path id="Vector_69" d="M64.5518 28.6897H60.9656V32.2759H64.5518V28.6897Z" fill="white"/>
<path id="Vector_70" d="M71.7241 28.6897H68.1379V32.2759H71.7241V28.6897Z" fill="white"/>
<path id="Vector_71" d="M78.8965 28.6897H75.3103V32.2759H78.8965V28.6897Z" fill="white"/>
<path id="Vector_72" d="M89.6552 28.6897H86.069V32.2759H89.6552V28.6897Z" fill="white"/>
<path id="Vector_73" d="M96.8275 28.6897H93.2413V32.2759H96.8275V28.6897Z" fill="white"/>
<path id="Vector_74" d="M100.414 28.6897H96.8276V32.2759H100.414V28.6897Z" fill="white"/>
<path id="Vector_75" d="M104 28.6897H100.414V32.2759H104V28.6897Z" fill="white"/>
<path id="Vector_76" d="M7.17239 32.2759H3.58618V35.8621H7.17239V32.2759Z" fill="white"/>
<path id="Vector_77" d="M10.7586 32.2759H7.17236V35.8621H10.7586V32.2759Z" fill="white"/>
<path id="Vector_78" d="M17.9311 32.2759H14.3448V35.8621H17.9311V32.2759Z" fill="white"/>
<path id="Vector_79" d="M28.6896 32.2759H25.1034V35.8621H28.6896V32.2759Z" fill="white"/>
<path id="Vector_80" d="M32.2759 32.2759H28.6897V35.8621H32.2759V32.2759Z" fill="white"/>
<path id="Vector_81" d="M39.4483 32.2759H35.8621V35.8621H39.4483V32.2759Z" fill="white"/>
<path id="Vector_82" d="M43.0344 32.2759H39.4482V35.8621H43.0344V32.2759Z" fill="white"/>
<path id="Vector_83" d="M53.7931 32.2759H50.2069V35.8621H53.7931V32.2759Z" fill="white"/>
<path id="Vector_84" d="M71.7241 32.2759H68.1379V35.8621H71.7241V32.2759Z" fill="white"/>
<path id="Vector_85" d="M86.069 32.2759H82.4828V35.8621H86.069V32.2759Z" fill="white"/>
<path id="Vector_86" d="M89.6552 32.2759H86.069V35.8621H89.6552V32.2759Z" fill="white"/>
<path id="Vector_87" d="M96.8275 32.2759H93.2413V35.8621H96.8275V32.2759Z" fill="white"/>
<path id="Vector_88" d="M100.414 32.2759H96.8276V35.8621H100.414V32.2759Z" fill="white"/>
<path id="Vector_89" d="M3.58621 35.8621H0V39.4483H3.58621V35.8621Z" fill="white"/>
<path id="Vector_90" d="M17.9311 35.8621H14.3448V39.4483H17.9311V35.8621Z" fill="white"/>
<path id="Vector_91" d="M25.1034 35.8621H21.5172V39.4483H25.1034V35.8621Z" fill="white"/>
<path id="Vector_92" d="M28.6896 35.8621H25.1034V39.4483H28.6896V35.8621Z" fill="white"/>
<path id="Vector_93" d="M32.2759 35.8621H28.6897V39.4483H32.2759V35.8621Z" fill="white"/>
<path id="Vector_94" d="M43.0344 35.8621H39.4482V39.4483H43.0344V35.8621Z" fill="white"/>
<path id="Vector_95" d="M53.7931 35.8621H50.2069V39.4483H53.7931V35.8621Z" fill="white"/>
<path id="Vector_96" d="M68.138 35.8621H64.5518V39.4483H68.138V35.8621Z" fill="white"/>
<path id="Vector_97" d="M75.3103 35.8621H71.7241V39.4483H75.3103V35.8621Z" fill="white"/>
<path id="Vector_98" d="M78.8965 35.8621H75.3103V39.4483H78.8965V35.8621Z" fill="white"/>
<path id="Vector_99" d="M82.4828 35.8621H78.8966V39.4483H82.4828V35.8621Z" fill="white"/>
<path id="Vector_100" d="M86.069 35.8621H82.4828V39.4483H86.069V35.8621Z" fill="white"/>
<path id="Vector_101" d="M96.8275 35.8621H93.2413V39.4483H96.8275V35.8621Z" fill="white"/>
<path id="Vector_102" d="M7.17239 39.4482H3.58618V43.0344H7.17239V39.4482Z" fill="white"/>
<path id="Vector_103" d="M10.7586 39.4482H7.17236V43.0344H10.7586V39.4482Z" fill="white"/>
<path id="Vector_104" d="M14.3449 39.4482H10.7587V43.0344H14.3449V39.4482Z" fill="white"/>
<path id="Vector_105" d="M28.6896 39.4482H25.1034V43.0344H28.6896V39.4482Z" fill="white"/>
<path id="Vector_106" d="M53.7931 39.4482H50.2069V43.0344H53.7931V39.4482Z" fill="white"/>
<path id="Vector_107" d="M57.3793 39.4482H53.7931V43.0344H57.3793V39.4482Z" fill="white"/>
<path id="Vector_108" d="M64.5518 39.4482H60.9656V43.0344H64.5518V39.4482Z" fill="white"/>
<path id="Vector_109" d="M71.7241 39.4482H68.1379V43.0344H71.7241V39.4482Z" fill="white"/>
<path id="Vector_110" d="M75.3103 39.4482H71.7241V43.0344H75.3103V39.4482Z" fill="white"/>
<path id="Vector_111" d="M78.8965 39.4482H75.3103V43.0344H78.8965V39.4482Z" fill="white"/>
<path id="Vector_112" d="M93.2414 39.4482H89.6552V43.0344H93.2414V39.4482Z" fill="white"/>
<path id="Vector_113" d="M104 39.4482H100.414V43.0344H104V39.4482Z" fill="white"/>
<path id="Vector_114" d="M7.17239 43.0344H3.58618V46.6206H7.17239V43.0344Z" fill="white"/>
<path id="Vector_115" d="M10.7586 43.0344H7.17236V46.6206H10.7586V43.0344Z" fill="white"/>
<path id="Vector_116" d="M14.3449 43.0344H10.7587V46.6206H14.3449V43.0344Z" fill="white"/>
<path id="Vector_117" d="M17.9311 43.0344H14.3448V46.6206H17.9311V43.0344Z" fill="white"/>
<path id="Vector_118" d="M25.1034 43.0344H21.5172V46.6206H25.1034V43.0344Z" fill="white"/>
<path id="Vector_119" d="M46.6206 43.0344H43.0344V46.6206H46.6206V43.0344Z" fill="white"/>
<path id="Vector_120" d="M50.2069 43.0344H46.6207V46.6206H50.2069V43.0344Z" fill="white"/>
<path id="Vector_121" d="M53.7931 43.0344H50.2069V46.6206H53.7931V43.0344Z" fill="white"/>
<path id="Vector_122" d="M75.3103 43.0344H71.7241V46.6206H75.3103V43.0344Z" fill="white"/>
<path id="Vector_123" d="M82.4828 43.0344H78.8966V46.6206H82.4828V43.0344Z" fill="white"/>
<path id="Vector_124" d="M86.069 43.0344H82.4828V46.6206H86.069V43.0344Z" fill="white"/>
<path id="Vector_125" d="M104 43.0344H100.414V46.6206H104V43.0344Z" fill="white"/>
<path id="Vector_126" d="M10.7586 46.6206H7.17236V50.2068H10.7586V46.6206Z" fill="white"/>
<path id="Vector_127" d="M14.3449 46.6206H10.7587V50.2068H14.3449V46.6206Z" fill="white"/>
<path id="Vector_128" d="M28.6896 46.6206H25.1034V50.2068H28.6896V46.6206Z" fill="white"/>
<path id="Vector_129" d="M32.2759 46.6206H28.6897V50.2068H32.2759V46.6206Z" fill="white"/>
<path id="Vector_130" d="M35.8621 46.6206H32.2759V50.2068H35.8621V46.6206Z" fill="white"/>
<path id="Vector_131" d="M75.3103 46.6206H71.7241V50.2068H75.3103V46.6206Z" fill="white"/>
<path id="Vector_132" d="M82.4828 46.6206H78.8966V50.2068H82.4828V46.6206Z" fill="white"/>
<path id="Vector_133" d="M89.6552 46.6206H86.069V50.2068H89.6552V46.6206Z" fill="white"/>
<path id="Vector_134" d="M93.2414 46.6206H89.6552V50.2068H93.2414V46.6206Z" fill="white"/>
<path id="Vector_135" d="M96.8275 46.6206H93.2413V50.2068H96.8275V46.6206Z" fill="white"/>
<path id="Vector_136" d="M100.414 46.6206H96.8276V50.2068H100.414V46.6206Z" fill="white"/>
<path id="Vector_137" d="M104 46.6206H100.414V50.2068H104V46.6206Z" fill="white"/>
<path id="Vector_138" d="M10.7586 50.2068H7.17236V53.793H10.7586V50.2068Z" fill="white"/>
<path id="Vector_139" d="M14.3449 50.2068H10.7587V53.793H14.3449V50.2068Z" fill="white"/>
<path id="Vector_140" d="M25.1034 50.2068H21.5172V53.793H25.1034V50.2068Z" fill="white"/>
<path id="Vector_141" d="M28.6896 50.2068H25.1034V53.793H28.6896V50.2068Z" fill="white"/>
<path id="Vector_142" d="M43.0344 50.2068H39.4482V53.793H43.0344V50.2068Z" fill="white"/>
<path id="Vector_143" d="M53.7931 50.2068H50.2069V53.793H53.7931V50.2068Z" fill="white"/>
<path id="Vector_144" d="M57.3793 50.2068H53.7931V53.793H57.3793V50.2068Z" fill="white"/>
<path id="Vector_145" d="M71.7241 50.2068H68.1379V53.793H71.7241V50.2068Z" fill="white"/>
<path id="Vector_146" d="M75.3103 50.2068H71.7241V53.793H75.3103V50.2068Z" fill="white"/>
<path id="Vector_147" d="M78.8965 50.2068H75.3103V53.793H78.8965V50.2068Z" fill="white"/>
<path id="Vector_148" d="M82.4828 50.2068H78.8966V53.793H82.4828V50.2068Z" fill="white"/>
<path id="Vector_149" d="M86.069 50.2068H82.4828V53.793H86.069V50.2068Z" fill="white"/>
<path id="Vector_150" d="M96.8275 50.2068H93.2413V53.793H96.8275V50.2068Z" fill="white"/>
<path id="Vector_151" d="M104 50.2068H100.414V53.793H104V50.2068Z" fill="white"/>
<path id="Vector_152" d="M10.7586 53.7932H7.17236V57.3794H10.7586V53.7932Z" fill="white"/>
<path id="Vector_153" d="M14.3449 53.7932H10.7587V57.3794H14.3449V53.7932Z" fill="white"/>
<path id="Vector_154" d="M21.5172 53.7932H17.931V57.3794H21.5172V53.7932Z" fill="white"/>
<path id="Vector_155" d="M35.8621 53.7932H32.2759V57.3794H35.8621V53.7932Z" fill="white"/>
<path id="Vector_156" d="M43.0344 53.7932H39.4482V57.3794H43.0344V53.7932Z" fill="white"/>
<path id="Vector_157" d="M50.2069 53.7932H46.6207V57.3794H50.2069V53.7932Z" fill="white"/>
<path id="Vector_158" d="M53.7931 53.7932H50.2069V57.3794H53.7931V53.7932Z" fill="white"/>
<path id="Vector_159" d="M60.9655 53.7932H57.3793V57.3794H60.9655V53.7932Z" fill="white"/>
<path id="Vector_160" d="M68.138 53.7932H64.5518V57.3794H68.138V53.7932Z" fill="white"/>
<path id="Vector_161" d="M75.3103 53.7932H71.7241V57.3794H75.3103V53.7932Z" fill="white"/>
<path id="Vector_162" d="M78.8965 53.7932H75.3103V57.3794H78.8965V53.7932Z" fill="white"/>
<path id="Vector_163" d="M82.4828 53.7932H78.8966V57.3794H82.4828V53.7932Z" fill="white"/>
<path id="Vector_164" d="M86.069 53.7932H82.4828V57.3794H86.069V53.7932Z" fill="white"/>
<path id="Vector_165" d="M89.6552 53.7932H86.069V57.3794H89.6552V53.7932Z" fill="white"/>
<path id="Vector_166" d="M96.8275 53.7932H93.2413V57.3794H96.8275V53.7932Z" fill="white"/>
<path id="Vector_167" d="M104 53.7932H100.414V57.3794H104V53.7932Z" fill="white"/>
<path id="Vector_168" d="M10.7586 57.3794H7.17236V60.9656H10.7586V57.3794Z" fill="white"/>
<path id="Vector_169" d="M17.9311 57.3794H14.3448V60.9656H17.9311V57.3794Z" fill="white"/>
<path id="Vector_170" d="M25.1034 57.3794H21.5172V60.9656H25.1034V57.3794Z" fill="white"/>
<path id="Vector_171" d="M28.6896 57.3794H25.1034V60.9656H28.6896V57.3794Z" fill="white"/>
<path id="Vector_172" d="M35.8621 57.3794H32.2759V60.9656H35.8621V57.3794Z" fill="white"/>
<path id="Vector_173" d="M46.6206 57.3794H43.0344V60.9656H46.6206V57.3794Z" fill="white"/>
<path id="Vector_174" d="M57.3793 57.3794H53.7931V60.9656H57.3793V57.3794Z" fill="white"/>
<path id="Vector_175" d="M71.7241 57.3794H68.1379V60.9656H71.7241V57.3794Z" fill="white"/>
<path id="Vector_176" d="M93.2414 57.3794H89.6552V60.9656H93.2414V57.3794Z" fill="white"/>
<path id="Vector_177" d="M3.58621 60.9656H0V64.5518H3.58621V60.9656Z" fill="white"/>
<path id="Vector_178" d="M7.17239 60.9656H3.58618V64.5518H7.17239V60.9656Z" fill="white"/>
<path id="Vector_179" d="M10.7586 60.9656H7.17236V64.5518H10.7586V60.9656Z" fill="white"/>
<path id="Vector_180" d="M14.3449 60.9656H10.7587V64.5518H14.3449V60.9656Z" fill="white"/>
<path id="Vector_181" d="M17.9311 60.9656H14.3448V64.5518H17.9311V60.9656Z" fill="white"/>
<path id="Vector_182" d="M28.6896 60.9656H25.1034V64.5518H28.6896V60.9656Z" fill="white"/>
<path id="Vector_183" d="M32.2759 60.9656H28.6897V64.5518H32.2759V60.9656Z" fill="white"/>
<path id="Vector_184" d="M35.8621 60.9656H32.2759V64.5518H35.8621V60.9656Z" fill="white"/>
<path id="Vector_185" d="M39.4483 60.9656H35.8621V64.5518H39.4483V60.9656Z" fill="white"/>
<path id="Vector_186" d="M43.0344 60.9656H39.4482V64.5518H43.0344V60.9656Z" fill="white"/>
<path id="Vector_187" d="M46.6206 60.9656H43.0344V64.5518H46.6206V60.9656Z" fill="white"/>
<path id="Vector_188" d="M68.138 60.9656H64.5518V64.5518H68.138V60.9656Z" fill="white"/>
<path id="Vector_189" d="M71.7241 60.9656H68.1379V64.5518H71.7241V60.9656Z" fill="white"/>
<path id="Vector_190" d="M75.3103 60.9656H71.7241V64.5518H75.3103V60.9656Z" fill="white"/>
<path id="Vector_191" d="M78.8965 60.9656H75.3103V64.5518H78.8965V60.9656Z" fill="white"/>
<path id="Vector_192" d="M89.6552 60.9656H86.069V64.5518H89.6552V60.9656Z" fill="white"/>
<path id="Vector_193" d="M96.8275 60.9656H93.2413V64.5518H96.8275V60.9656Z" fill="white"/>
<path id="Vector_194" d="M100.414 60.9656H96.8276V64.5518H100.414V60.9656Z" fill="white"/>
<path id="Vector_195" d="M3.58621 64.5518H0V68.138H3.58621V64.5518Z" fill="white"/>
<path id="Vector_196" d="M7.17239 64.5518H3.58618V68.138H7.17239V64.5518Z" fill="white"/>
<path id="Vector_197" d="M21.5172 64.5518H17.931V68.138H21.5172V64.5518Z" fill="white"/>
<path id="Vector_198" d="M25.1034 64.5518H21.5172V68.138H25.1034V64.5518Z" fill="white"/>
<path id="Vector_199" d="M28.6896 64.5518H25.1034V68.138H28.6896V64.5518Z" fill="white"/>
<path id="Vector_200" d="M32.2759 64.5518H28.6897V68.138H32.2759V64.5518Z" fill="white"/>
<path id="Vector_201" d="M43.0344 64.5518H39.4482V68.138H43.0344V64.5518Z" fill="white"/>
<path id="Vector_202" d="M50.2069 64.5518H46.6207V68.138H50.2069V64.5518Z" fill="white"/>
<path id="Vector_203" d="M53.7931 64.5518H50.2069V68.138H53.7931V64.5518Z" fill="white"/>
<path id="Vector_204" d="M60.9655 64.5518H57.3793V68.138H60.9655V64.5518Z" fill="white"/>
<path id="Vector_205" d="M71.7241 64.5518H68.1379V68.138H71.7241V64.5518Z" fill="white"/>
<path id="Vector_206" d="M78.8965 64.5518H75.3103V68.138H78.8965V64.5518Z" fill="white"/>
<path id="Vector_207" d="M82.4828 64.5518H78.8966V68.138H82.4828V64.5518Z" fill="white"/>
<path id="Vector_208" d="M93.2414 64.5518H89.6552V68.138H93.2414V64.5518Z" fill="white"/>
<path id="Vector_209" d="M104 64.5518H100.414V68.138H104V64.5518Z" fill="white"/>
<path id="Vector_210" d="M3.58621 68.1379H0V71.7241H3.58621V68.1379Z" fill="white"/>
<path id="Vector_211" d="M7.17239 68.1379H3.58618V71.7241H7.17239V68.1379Z" fill="white"/>
<path id="Vector_212" d="M10.7586 68.1379H7.17236V71.7241H10.7586V68.1379Z" fill="white"/>
<path id="Vector_213" d="M17.9311 68.1379H14.3448V71.7241H17.9311V68.1379Z" fill="white"/>
<path id="Vector_214" d="M21.5172 68.1379H17.931V71.7241H21.5172V68.1379Z" fill="white"/>
<path id="Vector_215" d="M35.8621 68.1379H32.2759V71.7241H35.8621V68.1379Z" fill="white"/>
<path id="Vector_216" d="M43.0344 68.1379H39.4482V71.7241H43.0344V68.1379Z" fill="white"/>
<path id="Vector_217" d="M46.6206 68.1379H43.0344V71.7241H46.6206V68.1379Z" fill="white"/>
<path id="Vector_218" d="M50.2069 68.1379H46.6207V71.7241H50.2069V68.1379Z" fill="white"/>
<path id="Vector_219" d="M57.3793 68.1379H53.7931V71.7241H57.3793V68.1379Z" fill="white"/>
<path id="Vector_220" d="M60.9655 68.1379H57.3793V71.7241H60.9655V68.1379Z" fill="white"/>
<path id="Vector_221" d="M71.7241 68.1379H68.1379V71.7241H71.7241V68.1379Z" fill="white"/>
<path id="Vector_222" d="M75.3103 68.1379H71.7241V71.7241H75.3103V68.1379Z" fill="white"/>
<path id="Vector_223" d="M82.4828 68.1379H78.8966V71.7241H82.4828V68.1379Z" fill="white"/>
<path id="Vector_224" d="M86.069 68.1379H82.4828V71.7241H86.069V68.1379Z" fill="white"/>
<path id="Vector_225" d="M89.6552 68.1379H86.069V71.7241H89.6552V68.1379Z" fill="white"/>
<path id="Vector_226" d="M93.2414 68.1379H89.6552V71.7241H93.2414V68.1379Z" fill="white"/>
<path id="Vector_227" d="M96.8275 68.1379H93.2413V71.7241H96.8275V68.1379Z" fill="white"/>
<path id="Vector_228" d="M3.58621 71.7241H0V75.3103H3.58621V71.7241Z" fill="white"/>
<path id="Vector_229" d="M7.17239 71.7241H3.58618V75.3103H7.17239V71.7241Z" fill="white"/>
<path id="Vector_230" d="M14.3449 71.7241H10.7587V75.3103H14.3449V71.7241Z" fill="white"/>
<path id="Vector_231" d="M25.1034 71.7241H21.5172V75.3103H25.1034V71.7241Z" fill="white"/>
<path id="Vector_232" d="M43.0344 71.7241H39.4482V75.3103H43.0344V71.7241Z" fill="white"/>
<path id="Vector_233" d="M46.6206 71.7241H43.0344V75.3103H46.6206V71.7241Z" fill="white"/>
<path id="Vector_234" d="M50.2069 71.7241H46.6207V75.3103H50.2069V71.7241Z" fill="white"/>
<path id="Vector_235" d="M64.5518 71.7241H60.9656V75.3103H64.5518V71.7241Z" fill="white"/>
<path id="Vector_236" d="M71.7241 71.7241H68.1379V75.3103H71.7241V71.7241Z" fill="white"/>
<path id="Vector_237" d="M75.3103 71.7241H71.7241V75.3103H75.3103V71.7241Z" fill="white"/>
<path id="Vector_238" d="M78.8965 71.7241H75.3103V75.3103H78.8965V71.7241Z" fill="white"/>
<path id="Vector_239" d="M82.4828 71.7241H78.8966V75.3103H82.4828V71.7241Z" fill="white"/>
<path id="Vector_240" d="M86.069 71.7241H82.4828V75.3103H86.069V71.7241Z" fill="white"/>
<path id="Vector_241" d="M89.6552 71.7241H86.069V75.3103H89.6552V71.7241Z" fill="white"/>
<path id="Vector_242" d="M93.2414 71.7241H89.6552V75.3103H93.2414V71.7241Z" fill="white"/>
<path id="Vector_243" d="M96.8275 71.7241H93.2413V75.3103H96.8275V71.7241Z" fill="white"/>
<path id="Vector_244" d="M100.414 71.7241H96.8276V75.3103H100.414V71.7241Z" fill="white"/>
<path id="Vector_245" d="M32.2759 75.3103H28.6897V78.8965H32.2759V75.3103Z" fill="white"/>
<path id="Vector_246" d="M35.8621 75.3103H32.2759V78.8965H35.8621V75.3103Z" fill="white"/>
<path id="Vector_247" d="M46.6206 75.3103H43.0344V78.8965H46.6206V75.3103Z" fill="white"/>
<path id="Vector_248" d="M50.2069 75.3103H46.6207V78.8965H50.2069V75.3103Z" fill="white"/>
<path id="Vector_249" d="M60.9655 75.3103H57.3793V78.8965H60.9655V75.3103Z" fill="white"/>
<path id="Vector_250" d="M75.3103 75.3103H71.7241V78.8965H75.3103V75.3103Z" fill="white"/>
<path id="Vector_251" d="M89.6552 75.3103H86.069V78.8965H89.6552V75.3103Z" fill="white"/>
<path id="Vector_252" d="M93.2414 75.3103H89.6552V78.8965H93.2414V75.3103Z" fill="white"/>
<path id="Vector_253" d="M32.2759 78.8965H28.6897V82.4827H32.2759V78.8965Z" fill="white"/>
<path id="Vector_254" d="M35.8621 78.8965H32.2759V82.4827H35.8621V78.8965Z" fill="white"/>
<path id="Vector_255" d="M43.0344 78.8965H39.4482V82.4827H43.0344V78.8965Z" fill="white"/>
<path id="Vector_256" d="M50.2069 78.8965H46.6207V82.4827H50.2069V78.8965Z" fill="white"/>
<path id="Vector_257" d="M57.3793 78.8965H53.7931V82.4827H57.3793V78.8965Z" fill="white"/>
<path id="Vector_258" d="M60.9655 78.8965H57.3793V82.4827H60.9655V78.8965Z" fill="white"/>
<path id="Vector_259" d="M68.138 78.8965H64.5518V82.4827H68.138V78.8965Z" fill="white"/>
<path id="Vector_260" d="M71.7241 78.8965H68.1379V82.4827H71.7241V78.8965Z" fill="white"/>
<path id="Vector_261" d="M75.3103 78.8965H71.7241V82.4827H75.3103V78.8965Z" fill="white"/>
<path id="Vector_262" d="M82.4828 78.8965H78.8966V82.4827H82.4828V78.8965Z" fill="white"/>
<path id="Vector_263" d="M89.6552 78.8965H86.069V82.4827H89.6552V78.8965Z" fill="white"/>
<path id="Vector_264" d="M93.2414 78.8965H89.6552V82.4827H93.2414V78.8965Z" fill="white"/>
<path id="Vector_265" d="M32.2759 82.4827H28.6897V86.0689H32.2759V82.4827Z" fill="white"/>
<path id="Vector_266" d="M39.4483 82.4827H35.8621V86.0689H39.4483V82.4827Z" fill="white"/>
<path id="Vector_267" d="M43.0344 82.4827H39.4482V86.0689H43.0344V82.4827Z" fill="white"/>
<path id="Vector_268" d="M46.6206 82.4827H43.0344V86.0689H46.6206V82.4827Z" fill="white"/>
<path id="Vector_269" d="M50.2069 82.4827H46.6207V86.0689H50.2069V82.4827Z" fill="white"/>
<path id="Vector_270" d="M60.9655 82.4827H57.3793V86.0689H60.9655V82.4827Z" fill="white"/>
<path id="Vector_271" d="M64.5518 82.4827H60.9656V86.0689H64.5518V82.4827Z" fill="white"/>
<path id="Vector_272" d="M68.138 82.4827H64.5518V86.0689H68.138V82.4827Z" fill="white"/>
<path id="Vector_273" d="M71.7241 82.4827H68.1379V86.0689H71.7241V82.4827Z" fill="white"/>
<path id="Vector_274" d="M75.3103 82.4827H71.7241V86.0689H75.3103V82.4827Z" fill="white"/>
<path id="Vector_275" d="M89.6552 82.4827H86.069V86.0689H89.6552V82.4827Z" fill="white"/>
<path id="Vector_276" d="M100.414 82.4827H96.8276V86.0689H100.414V82.4827Z" fill="white"/>
<path id="Vector_277" d="M104 82.4827H100.414V86.0689H104V82.4827Z" fill="white"/>
<path id="Vector_278" d="M32.2759 86.0688H28.6897V89.6551H32.2759V86.0688Z" fill="white"/>
<path id="Vector_279" d="M35.8621 86.0688H32.2759V89.6551H35.8621V86.0688Z" fill="white"/>
<path id="Vector_280" d="M39.4483 86.0688H35.8621V89.6551H39.4483V86.0688Z" fill="white"/>
<path id="Vector_281" d="M43.0344 86.0688H39.4482V89.6551H43.0344V86.0688Z" fill="white"/>
<path id="Vector_282" d="M50.2069 86.0688H46.6207V89.6551H50.2069V86.0688Z" fill="white"/>
<path id="Vector_283" d="M57.3793 86.0688H53.7931V89.6551H57.3793V86.0688Z" fill="white"/>
<path id="Vector_284" d="M60.9655 86.0688H57.3793V89.6551H60.9655V86.0688Z" fill="white"/>
<path id="Vector_285" d="M71.7241 86.0688H68.1379V89.6551H71.7241V86.0688Z" fill="white"/>
<path id="Vector_286" d="M75.3103 86.0688H71.7241V89.6551H75.3103V86.0688Z" fill="white"/>
<path id="Vector_287" d="M78.8965 86.0688H75.3103V89.6551H78.8965V86.0688Z" fill="white"/>
<path id="Vector_288" d="M82.4828 86.0688H78.8966V89.6551H82.4828V86.0688Z" fill="white"/>
<path id="Vector_289" d="M86.069 86.0688H82.4828V89.6551H86.069V86.0688Z" fill="white"/>
<path id="Vector_290" d="M89.6552 86.0688H86.069V89.6551H89.6552V86.0688Z" fill="white"/>
<path id="Vector_291" d="M93.2414 86.0688H89.6552V89.6551H93.2414V86.0688Z" fill="white"/>
<path id="Vector_292" d="M32.2759 89.6553H28.6897V93.2415H32.2759V89.6553Z" fill="white"/>
<path id="Vector_293" d="M50.2069 89.6553H46.6207V93.2415H50.2069V89.6553Z" fill="white"/>
<path id="Vector_294" d="M53.7931 89.6553H50.2069V93.2415H53.7931V89.6553Z" fill="white"/>
<path id="Vector_295" d="M60.9655 89.6553H57.3793V93.2415H60.9655V89.6553Z" fill="white"/>
<path id="Vector_296" d="M68.138 89.6553H64.5518V93.2415H68.138V89.6553Z" fill="white"/>
<path id="Vector_297" d="M71.7241 89.6553H68.1379V93.2415H71.7241V89.6553Z" fill="white"/>
<path id="Vector_298" d="M75.3103 89.6553H71.7241V93.2415H75.3103V89.6553Z" fill="white"/>
<path id="Vector_299" d="M78.8965 89.6553H75.3103V93.2415H78.8965V89.6553Z" fill="white"/>
<path id="Vector_300" d="M86.069 89.6553H82.4828V93.2415H86.069V89.6553Z" fill="white"/>
<path id="Vector_301" d="M100.414 89.6553H96.8276V93.2415H100.414V89.6553Z" fill="white"/>
<path id="Vector_302" d="M35.8621 93.2415H32.2759V96.8277H35.8621V93.2415Z" fill="white"/>
<path id="Vector_303" d="M43.0344 93.2415H39.4482V96.8277H43.0344V93.2415Z" fill="white"/>
<path id="Vector_304" d="M53.7931 93.2415H50.2069V96.8277H53.7931V93.2415Z" fill="white"/>
<path id="Vector_305" d="M60.9655 93.2415H57.3793V96.8277H60.9655V93.2415Z" fill="white"/>
<path id="Vector_306" d="M71.7241 93.2415H68.1379V96.8277H71.7241V93.2415Z" fill="white"/>
<path id="Vector_307" d="M78.8965 93.2415H75.3103V96.8277H78.8965V93.2415Z" fill="white"/>
<path id="Vector_308" d="M86.069 93.2415H82.4828V96.8277H86.069V93.2415Z" fill="white"/>
<path id="Vector_309" d="M89.6552 93.2415H86.069V96.8277H89.6552V93.2415Z" fill="white"/>
<path id="Vector_310" d="M96.8275 93.2415H93.2413V96.8277H96.8275V93.2415Z" fill="white"/>
<path id="Vector_311" d="M100.414 93.2415H96.8276V96.8277H100.414V93.2415Z" fill="white"/>
<path id="Vector_312" d="M104 93.2415H100.414V96.8277H104V93.2415Z" fill="white"/>
<path id="Vector_313" d="M35.8621 96.8276H32.2759V100.414H35.8621V96.8276Z" fill="white"/>
<path id="Vector_314" d="M50.2069 96.8276H46.6207V100.414H50.2069V96.8276Z" fill="white"/>
<path id="Vector_315" d="M53.7931 96.8276H50.2069V100.414H53.7931V96.8276Z" fill="white"/>
<path id="Vector_316" d="M57.3793 96.8276H53.7931V100.414H57.3793V96.8276Z" fill="white"/>
<path id="Vector_317" d="M71.7241 96.8276H68.1379V100.414H71.7241V96.8276Z" fill="white"/>
<path id="Vector_318" d="M78.8965 96.8276H75.3103V100.414H78.8965V96.8276Z" fill="white"/>
<path id="Vector_319" d="M82.4828 96.8276H78.8966V100.414H82.4828V96.8276Z" fill="white"/>
<path id="Vector_320" d="M86.069 96.8276H82.4828V100.414H86.069V96.8276Z" fill="white"/>
<path id="Vector_321" d="M93.2414 96.8276H89.6552V100.414H93.2414V96.8276Z" fill="white"/>
<path id="Vector_322" d="M96.8275 96.8276H93.2413V100.414H96.8275V96.8276Z" fill="white"/>
<path id="Vector_323" d="M104 96.8276H100.414V100.414H104V96.8276Z" fill="white"/>
<path id="Vector_324" d="M32.2759 100.414H28.6897V104H32.2759V100.414Z" fill="white"/>
<path id="Vector_325" d="M46.6206 100.414H43.0344V104H46.6206V100.414Z" fill="white"/>
<path id="Vector_326" d="M50.2069 100.414H46.6207V104H50.2069V100.414Z" fill="white"/>
<path id="Vector_327" d="M64.5518 100.414H60.9656V104H64.5518V100.414Z" fill="white"/>
<path id="Vector_328" d="M68.138 100.414H64.5518V104H68.138V100.414Z" fill="white"/>
<path id="Vector_329" d="M71.7241 100.414H68.1379V104H71.7241V100.414Z" fill="white"/>
<path id="Vector_330" d="M75.3103 100.414H71.7241V104H75.3103V100.414Z" fill="white"/>
<path id="Vector_331" d="M78.8965 100.414H75.3103V104H78.8965V100.414Z" fill="white"/>
<path id="Vector_332" d="M89.6552 100.414H86.069V104H89.6552V100.414Z" fill="white"/>
<path id="Vector_333" d="M93.2414 100.414H89.6552V104H93.2414V100.414Z" fill="white"/>
<g id="Group">
<path id="Vector_334" d="M21.3379 0H0V25.1034H25.1034V0H21.3379ZM21.3379 21.3379H3.76552V3.76552H21.3379V21.3379Z" fill="white"/>
</g>
<g id="Group_2">
<path id="Vector_335" d="M100.235 0H78.8966V25.1034H104V0H100.235ZM100.235 21.3379H82.6621V3.76552H100.235V21.3379Z" fill="white"/>
</g>
<g id="Group_3">
<path id="Vector_336" d="M21.3379 78.8965H0V104H25.1034V78.8965H21.3379ZM21.3379 100.234H3.76552V82.662H21.3379V100.234Z" fill="white"/>
</g>
<path id="Vector_337" d="M17.931 7.17236H7.17236V17.931H17.931V7.17236Z" fill="white"/>
<path id="Vector_338" d="M96.8276 7.17236H86.069V17.931H96.8276V7.17236Z" fill="white"/>
<path id="Vector_339" d="M17.931 86.0688H7.17236V96.8275H17.931V86.0688Z" fill="white"/>
</g>
<defs>
<clipPath id="clip0_8_33">
<rect width="104" height="104" fill="white"/>
</clipPath>
</defs>
</svg>
