<svg width="347" height="59" viewBox="0 0 347 59" fill="none" xmlns="http://www.w3.org/2000/svg">
<rect width="347" height="59" rx="10" fill="#1C1C1C"/>
<path d="M267.97 40.72C267.97 41.36 267.762 41.888 267.346 42.304C266.93 42.712 266.362 42.952 265.642 43.024V44.464H264.586V43C263.674 42.872 262.878 42.476 262.198 41.812L263.05 40.792C263.37 41.096 263.726 41.332 264.118 41.5C264.51 41.66 264.886 41.74 265.246 41.74C265.598 41.74 265.886 41.656 266.11 41.488C266.334 41.32 266.446 41.1 266.446 40.828C266.446 40.596 266.362 40.388 266.194 40.204C266.026 40.02 265.602 39.82 264.922 39.604C264.338 39.428 263.87 39.252 263.518 39.076C263.166 38.892 262.886 38.652 262.678 38.356C262.478 38.06 262.378 37.696 262.378 37.264C262.378 36.656 262.574 36.148 262.966 35.74C263.358 35.332 263.898 35.092 264.586 35.02V33.508H265.642V35.056C266.018 35.128 266.394 35.252 266.77 35.428C267.154 35.596 267.482 35.788 267.754 36.004L266.938 37.012C266.634 36.788 266.31 36.62 265.966 36.508C265.63 36.388 265.318 36.328 265.03 36.328C264.686 36.328 264.41 36.404 264.202 36.556C263.994 36.708 263.89 36.912 263.89 37.168C263.89 37.368 263.974 37.552 264.142 37.72C264.31 37.88 264.706 38.06 265.33 38.26C266.034 38.484 266.554 38.688 266.89 38.872C267.234 39.056 267.498 39.296 267.682 39.592C267.874 39.88 267.97 40.256 267.97 40.72ZM271.933 43.084C271.629 43.084 271.309 43.048 270.973 42.976C270.637 42.896 270.305 42.752 269.977 42.544C269.649 42.328 269.401 42.056 269.233 41.728C269.073 41.4 268.993 41.068 268.993 40.732C268.993 40.476 269.037 40.2 269.125 39.904C269.221 39.608 269.385 39.34 269.617 39.1C269.849 38.852 270.113 38.668 270.409 38.548V38.524C270.217 38.428 270.037 38.28 269.869 38.08C269.701 37.872 269.581 37.652 269.509 37.42C269.437 37.188 269.401 36.98 269.401 36.796C269.401 36.14 269.637 35.624 270.109 35.248C270.589 34.864 271.197 34.672 271.933 34.672C272.301 34.672 272.641 34.724 272.953 34.828C273.273 34.924 273.545 35.064 273.769 35.248C274.001 35.432 274.177 35.656 274.297 35.92C274.425 36.184 274.489 36.476 274.489 36.796C274.489 36.988 274.453 37.204 274.381 37.444C274.309 37.676 274.185 37.896 274.009 38.104C273.833 38.304 273.653 38.444 273.469 38.524V38.548C273.885 38.708 274.225 38.98 274.489 39.364C274.761 39.748 274.897 40.204 274.897 40.732C274.897 40.996 274.845 41.264 274.741 41.536C274.645 41.808 274.457 42.072 274.177 42.328C273.905 42.584 273.565 42.776 273.157 42.904C272.749 43.024 272.341 43.084 271.933 43.084ZM271.933 37.948C272.293 37.948 272.585 37.852 272.809 37.66C273.041 37.468 273.157 37.224 273.157 36.928C273.157 36.64 273.037 36.396 272.797 36.196C272.565 35.996 272.277 35.896 271.933 35.896C271.589 35.896 271.301 36 271.069 36.208C270.837 36.408 270.721 36.648 270.721 36.928C270.721 37.224 270.833 37.468 271.057 37.66C271.289 37.852 271.581 37.948 271.933 37.948ZM271.933 41.848C272.141 41.848 272.365 41.804 272.605 41.716C272.853 41.628 273.057 41.476 273.217 41.26C273.385 41.036 273.469 40.8 273.469 40.552C273.469 40.368 273.421 40.172 273.325 39.964C273.229 39.756 273.053 39.58 272.797 39.436C272.549 39.292 272.261 39.22 271.933 39.22C271.725 39.22 271.497 39.264 271.249 39.352C271.009 39.432 270.809 39.584 270.649 39.808C270.489 40.024 270.409 40.272 270.409 40.552C270.409 40.72 270.457 40.908 270.553 41.116C270.657 41.316 270.837 41.488 271.093 41.632C271.349 41.776 271.629 41.848 271.933 41.848ZM275.895 43L275.871 42.076L278.523 39.28C279.011 38.768 279.327 38.368 279.471 38.08C279.615 37.784 279.687 37.512 279.687 37.264C279.687 37.096 279.647 36.912 279.567 36.712C279.487 36.504 279.343 36.332 279.135 36.196C278.927 36.052 278.691 35.98 278.427 35.98C277.755 35.98 277.231 36.304 276.855 36.952L275.859 36.244C276.107 35.772 276.455 35.396 276.903 35.116C277.351 34.828 277.891 34.684 278.523 34.684C278.859 34.684 279.183 34.74 279.495 34.852C279.807 34.964 280.083 35.128 280.323 35.344C280.563 35.552 280.751 35.808 280.887 36.112C281.031 36.416 281.103 36.748 281.103 37.108C281.103 37.572 280.999 38.024 280.791 38.464C280.583 38.896 280.231 39.368 279.735 39.88L277.995 41.692L278.007 41.728H281.187V43H275.895ZM283.397 43.096C283.149 43.096 282.933 43.008 282.749 42.832C282.573 42.656 282.485 42.448 282.485 42.208C282.485 41.968 282.573 41.76 282.749 41.584C282.933 41.4 283.149 41.308 283.397 41.308C283.637 41.308 283.845 41.4 284.021 41.584C284.205 41.76 284.297 41.968 284.297 42.208C284.297 42.448 284.205 42.656 284.021 42.832C283.845 43.008 283.637 43.096 283.397 43.096ZM288.628 43.096C288.172 43.096 287.748 43.004 287.356 42.82C286.964 42.628 286.628 42.352 286.348 41.992C286.068 41.624 285.848 41.176 285.688 40.648C285.536 40.12 285.46 39.532 285.46 38.884C285.46 38.276 285.532 37.712 285.676 37.192C285.82 36.664 286.028 36.216 286.3 35.848C286.58 35.472 286.916 35.184 287.308 34.984C287.708 34.776 288.148 34.672 288.628 34.672C289.084 34.672 289.508 34.768 289.9 34.96C290.292 35.144 290.628 35.416 290.908 35.776C291.188 36.136 291.404 36.584 291.556 37.12C291.716 37.648 291.796 38.236 291.796 38.884C291.796 39.492 291.724 40.056 291.58 40.576C291.436 41.096 291.228 41.544 290.956 41.92C290.684 42.296 290.348 42.588 289.948 42.796C289.548 42.996 289.108 43.096 288.628 43.096ZM288.628 41.8C289.18 41.8 289.608 41.544 289.912 41.032C290.224 40.512 290.38 39.796 290.38 38.884C290.38 37.972 290.224 37.256 289.912 36.736C289.6 36.216 289.172 35.956 288.628 35.956C288.084 35.956 287.656 36.216 287.344 36.736C287.032 37.256 286.876 37.972 286.876 38.884C286.876 39.788 287.036 40.5 287.356 41.02C287.676 41.54 288.1 41.8 288.628 41.8ZM296.21 43.096C295.754 43.096 295.33 43.004 294.938 42.82C294.546 42.628 294.21 42.352 293.93 41.992C293.65 41.624 293.43 41.176 293.27 40.648C293.118 40.12 293.042 39.532 293.042 38.884C293.042 38.276 293.114 37.712 293.258 37.192C293.402 36.664 293.61 36.216 293.882 35.848C294.162 35.472 294.498 35.184 294.89 34.984C295.29 34.776 295.73 34.672 296.21 34.672C296.666 34.672 297.09 34.768 297.482 34.96C297.874 35.144 298.21 35.416 298.49 35.776C298.77 36.136 298.986 36.584 299.138 37.12C299.298 37.648 299.378 38.236 299.378 38.884C299.378 39.492 299.306 40.056 299.162 40.576C299.018 41.096 298.81 41.544 298.538 41.92C298.266 42.296 297.93 42.588 297.53 42.796C297.13 42.996 296.69 43.096 296.21 43.096ZM296.21 41.8C296.762 41.8 297.19 41.544 297.494 41.032C297.806 40.512 297.962 39.796 297.962 38.884C297.962 37.972 297.806 37.256 297.494 36.736C297.182 36.216 296.754 35.956 296.21 35.956C295.666 35.956 295.238 36.216 294.926 36.736C294.614 37.256 294.458 37.972 294.458 38.884C294.458 39.788 294.618 40.5 294.938 41.02C295.258 41.54 295.682 41.8 296.21 41.8Z" fill="#A4A4A4"/>
<path d="M242.064 29.105C241.684 29.105 241.284 29.06 240.864 28.97C240.444 28.87 240.029 28.69 239.619 28.43C239.209 28.16 238.899 27.82 238.689 27.41C238.489 27 238.389 26.585 238.389 26.165C238.389 25.845 238.444 25.5 238.554 25.13C238.674 24.76 238.879 24.425 239.169 24.125C239.459 23.815 239.789 23.585 240.159 23.435V23.405C239.919 23.285 239.694 23.1 239.484 22.85C239.274 22.59 239.124 22.315 239.034 22.025C238.944 21.735 238.899 21.475 238.899 21.245C238.899 20.425 239.194 19.78 239.784 19.31C240.384 18.83 241.144 18.59 242.064 18.59C242.524 18.59 242.949 18.655 243.339 18.785C243.739 18.905 244.079 19.08 244.359 19.31C244.649 19.54 244.869 19.82 245.019 20.15C245.179 20.48 245.259 20.845 245.259 21.245C245.259 21.485 245.214 21.755 245.124 22.055C245.034 22.345 244.879 22.62 244.659 22.88C244.439 23.13 244.214 23.305 243.984 23.405V23.435C244.504 23.635 244.929 23.975 245.259 24.455C245.599 24.935 245.769 25.505 245.769 26.165C245.769 26.495 245.704 26.83 245.574 27.17C245.454 27.51 245.219 27.84 244.869 28.16C244.529 28.48 244.104 28.72 243.594 28.88C243.084 29.03 242.574 29.105 242.064 29.105ZM242.064 22.685C242.514 22.685 242.879 22.565 243.159 22.325C243.449 22.085 243.594 21.78 243.594 21.41C243.594 21.05 243.444 20.745 243.144 20.495C242.854 20.245 242.494 20.12 242.064 20.12C241.634 20.12 241.274 20.25 240.984 20.51C240.694 20.76 240.549 21.06 240.549 21.41C240.549 21.78 240.689 22.085 240.969 22.325C241.259 22.565 241.624 22.685 242.064 22.685ZM242.064 27.56C242.324 27.56 242.604 27.505 242.904 27.395C243.214 27.285 243.469 27.095 243.669 26.825C243.879 26.545 243.984 26.25 243.984 25.94C243.984 25.71 243.924 25.465 243.804 25.205C243.684 24.945 243.464 24.725 243.144 24.545C242.834 24.365 242.474 24.275 242.064 24.275C241.804 24.275 241.519 24.33 241.209 24.44C240.909 24.54 240.659 24.73 240.459 25.01C240.259 25.28 240.159 25.59 240.159 25.94C240.159 26.15 240.219 26.385 240.339 26.645C240.469 26.895 240.694 27.11 241.014 27.29C241.334 27.47 241.684 27.56 242.064 27.56ZM247.017 29L246.987 27.845L250.302 24.35C250.912 23.71 251.307 23.21 251.487 22.85C251.667 22.48 251.757 22.14 251.757 21.83C251.757 21.62 251.707 21.39 251.607 21.14C251.507 20.88 251.327 20.665 251.067 20.495C250.807 20.315 250.512 20.225 250.182 20.225C249.342 20.225 248.687 20.63 248.217 21.44L246.972 20.555C247.282 19.965 247.717 19.495 248.277 19.145C248.837 18.785 249.512 18.605 250.302 18.605C250.722 18.605 251.127 18.675 251.517 18.815C251.907 18.955 252.252 19.16 252.552 19.43C252.852 19.69 253.087 20.01 253.257 20.39C253.437 20.77 253.527 21.185 253.527 21.635C253.527 22.215 253.397 22.78 253.137 23.33C252.877 23.87 252.437 24.46 251.817 25.1L249.642 27.365L249.657 27.41H253.632V29H247.017ZM263.769 29.12C263.309 29.12 262.834 29.055 262.344 28.925C261.864 28.785 261.444 28.57 261.084 28.28C260.724 27.98 260.434 27.655 260.214 27.305C259.994 26.945 259.824 26.54 259.704 26.09C259.594 25.63 259.539 25.14 259.539 24.62V18.35H261.339V24.485C261.339 25.015 261.434 25.515 261.624 25.985C261.814 26.445 262.104 26.8 262.494 27.05C262.884 27.29 263.309 27.41 263.769 27.41C264.489 27.41 265.074 27.15 265.524 26.63C265.984 26.1 266.214 25.385 266.214 24.485V18.35H268.029V24.62C268.029 25.29 267.929 25.905 267.729 26.465C267.539 27.025 267.259 27.505 266.889 27.905C266.519 28.295 266.069 28.595 265.539 28.805C265.009 29.015 264.419 29.12 263.769 29.12ZM273.65 29.12C272.96 29.12 272.275 28.98 271.595 28.7C270.925 28.41 270.325 27.99 269.795 27.44L270.935 26.045C271.295 26.485 271.72 26.83 272.21 27.08C272.71 27.32 273.195 27.44 273.665 27.44C274.225 27.44 274.66 27.325 274.97 27.095C275.28 26.855 275.435 26.54 275.435 26.15C275.435 25.83 275.34 25.565 275.15 25.355C274.96 25.145 274.71 24.975 274.4 24.845C274.09 24.705 273.75 24.57 273.38 24.44C272.68 24.19 272.1 23.935 271.64 23.675C271.18 23.405 270.815 23.07 270.545 22.67C270.285 22.26 270.155 21.77 270.155 21.2C270.155 20.69 270.305 20.2 270.605 19.73C270.905 19.25 271.325 18.88 271.865 18.62C272.415 18.36 272.97 18.23 273.53 18.23C274.78 18.23 275.955 18.665 277.055 19.535L275.975 20.96C275.545 20.61 275.12 20.34 274.7 20.15C274.28 19.96 273.89 19.865 273.53 19.865C273.11 19.865 272.755 19.98 272.465 20.21C272.185 20.43 272.04 20.73 272.03 21.11C272.03 21.29 272.08 21.47 272.18 21.65C272.29 21.82 272.48 21.975 272.75 22.115C273.02 22.255 273.445 22.435 274.025 22.655C275.075 23.065 275.75 23.37 276.05 23.57C276.36 23.77 276.6 23.98 276.77 24.2C276.95 24.41 277.085 24.66 277.175 24.95C277.275 25.24 277.325 25.565 277.325 25.925C277.325 26.315 277.25 26.705 277.1 27.095C276.96 27.475 276.725 27.815 276.395 28.115C276.075 28.415 275.675 28.66 275.195 28.85C274.725 29.03 274.21 29.12 273.65 29.12ZM279.332 29V18.35H282.722C283.542 18.35 284.297 18.48 284.987 18.74C285.677 19 286.262 19.37 286.742 19.85C287.232 20.32 287.607 20.885 287.867 21.545C288.127 22.205 288.257 22.92 288.257 23.69C288.257 24.46 288.132 25.175 287.882 25.835C287.632 26.485 287.267 27.05 286.787 27.53C286.307 28 285.722 28.365 285.032 28.625C284.352 28.875 283.597 29 282.767 29H279.332ZM281.147 27.38H282.662C283.202 27.38 283.702 27.29 284.162 27.11C284.632 26.92 285.032 26.66 285.362 26.33C285.692 26 285.942 25.61 286.112 25.16C286.292 24.7 286.382 24.21 286.382 23.69C286.382 23.16 286.292 22.67 286.112 22.22C285.942 21.76 285.692 21.365 285.362 21.035C285.042 20.695 284.657 20.435 284.207 20.255C283.757 20.065 283.272 19.97 282.752 19.97H281.147V27.38ZM295.267 29.09C294.547 29.09 293.862 28.975 293.212 28.745C292.562 28.505 291.987 28.155 291.487 27.695C290.987 27.235 290.597 26.665 290.317 25.985C290.037 25.305 289.897 24.545 289.897 23.705C289.897 22.955 290.017 22.245 290.257 21.575C290.497 20.905 290.842 20.32 291.292 19.82C291.752 19.32 292.317 18.93 292.987 18.65C293.667 18.37 294.417 18.23 295.237 18.23C296.017 18.23 296.777 18.405 297.517 18.755C298.257 19.105 298.897 19.61 299.437 20.27L298.102 21.395C297.312 20.425 296.357 19.94 295.237 19.94C294.747 19.94 294.287 20.03 293.857 20.21C293.427 20.39 293.057 20.65 292.747 20.99C292.447 21.32 292.212 21.72 292.042 22.19C291.872 22.65 291.787 23.155 291.787 23.705C291.787 24.235 291.872 24.73 292.042 25.19C292.212 25.65 292.452 26.045 292.762 26.375C293.082 26.695 293.457 26.945 293.887 27.125C294.317 27.305 294.777 27.395 295.267 27.395C295.537 27.395 295.847 27.35 296.197 27.26C296.547 27.17 296.892 27.01 297.232 26.78C297.572 26.54 297.872 26.26 298.132 25.94L299.467 27.08C298.987 27.68 298.387 28.165 297.667 28.535C296.947 28.905 296.147 29.09 295.267 29.09Z" fill="white"/>
<g clip-path="url(#clip0_2066_394)">
<path d="M34 45C41.7584 45 48 38.7584 48 31C48 23.2416 41.7584 17 34 17C26.2416 17 20 23.2416 20 31C20 38.7584 26.2416 45 34 45Z" fill="#2775CA"/>
<path d="M37.8498 33.2166C37.8498 31.175 36.6248 30.4751 34.1747 30.1834C32.4248 29.9499 32.0748 29.4835 32.0748 28.6667C32.0748 27.8498 32.6582 27.3251 33.8248 27.3251C34.8748 27.3251 35.4582 27.6751 35.7497 28.5502C35.8082 28.7251 35.9831 28.8419 36.1581 28.8419H37.0914C37.3249 28.8419 37.4999 28.6669 37.4999 28.4337V28.3752C37.2664 27.0919 36.2166 26.1001 34.8748 25.9836V24.5836C34.8748 24.3502 34.6999 24.1752 34.4082 24.1169H33.5331C33.2996 24.1169 33.1247 24.2919 33.0664 24.5836V25.9251C31.3165 26.1586 30.2082 27.3251 30.2082 28.7836C30.2082 30.7085 31.3747 31.4669 33.8248 31.7586C35.4582 32.0503 35.9831 32.4002 35.9831 33.3336C35.9831 34.2669 35.1663 34.9085 34.0582 34.9085C32.5415 34.9085 32.0166 34.2667 31.8414 33.3918C31.7831 33.1586 31.6082 33.0419 31.4332 33.0419H30.4414C30.2082 33.0419 30.0332 33.2168 30.0332 33.4503V33.5088C30.2664 34.967 31.1998 36.0171 33.1249 36.3088V37.7088C33.1249 37.942 33.2999 38.1169 33.5916 38.1754H34.4667C34.7001 38.1754 34.8751 38.0005 34.9333 37.7088V36.3088C36.6833 36.0171 37.85 34.792 37.85 33.2171L37.8498 33.2166Z" fill="white"/>
<path d="M31.025 39.3415C26.475 37.7083 24.1417 32.6332 25.8334 28.1415C26.7085 25.6914 28.6334 23.825 31.025 22.9499C31.2584 22.8332 31.3749 22.6582 31.3749 22.3665V21.5499C31.3749 21.3165 31.2582 21.1415 31.025 21.0833C30.9665 21.0833 30.85 21.0833 30.7915 21.1415C25.25 22.8917 22.2166 28.7834 23.9665 34.3249C25.0166 37.5916 27.5249 40.0999 30.7915 41.1499C31.025 41.2666 31.2582 41.1499 31.3164 40.9165C31.3749 40.8582 31.3749 40.7997 31.3749 40.6833V39.8664C31.3749 39.6914 31.2 39.4582 31.025 39.3415ZM37.2084 21.1415C36.9749 21.0248 36.7417 21.1415 36.6835 21.3749C36.625 21.4334 36.625 21.4917 36.625 21.6084V22.425C36.625 22.6585 36.8 22.8917 36.9749 23.0084C41.5249 24.6416 43.8582 29.7167 42.1665 34.2084C41.2914 36.6585 39.3665 38.5249 36.9749 39.4C36.7415 39.5167 36.625 39.6917 36.625 39.9834V40.8C36.625 41.0334 36.7417 41.2084 36.9749 41.2666C37.0334 41.2666 37.1499 41.2666 37.2084 41.2084C42.7499 39.4585 45.7833 33.5668 44.0334 28.025C42.9833 24.7001 40.4166 22.1916 37.2084 21.1417V21.1415Z" fill="white"/>
</g>
<g clip-path="url(#clip1_2066_394)">
<path d="M326 31.3929C326 31.3929 325.893 31.0714 325.787 30.9643L319.422 24.2857C319.138 23.9643 318.64 23.8929 318.284 24.1786C317.964 24.4643 317.893 24.9643 318.178 25.3214C318.178 25.3214 318.213 25.3571 318.249 25.3929L324.116 31.5L318.249 37.6071C317.929 37.9286 317.929 38.4286 318.213 38.75C318.498 39.0714 319.031 39.0714 319.351 38.7857C319.351 38.7857 319.387 38.75 319.422 38.7143L325.787 32.0357C325.787 32.0357 326.036 31.6071 326 31.3929Z" fill="#818181"/>
</g>
<path d="M62.744 34.128C62.2533 34.128 61.7467 34.0587 61.224 33.92C60.712 33.7707 60.264 33.5413 59.88 33.232C59.496 32.912 59.1867 32.5653 58.952 32.192C58.7173 31.808 58.536 31.376 58.408 30.896C58.2907 30.4053 58.232 29.8827 58.232 29.328V22.64H60.152V29.184C60.152 29.7493 60.2533 30.2827 60.456 30.784C60.6587 31.2747 60.968 31.6533 61.384 31.92C61.8 32.176 62.2533 32.304 62.744 32.304C63.512 32.304 64.136 32.0267 64.616 31.472C65.1067 30.9067 65.352 30.144 65.352 29.184V22.64H67.288V29.328C67.288 30.0427 67.1813 30.6987 66.968 31.296C66.7653 31.8933 66.4667 32.4053 66.072 32.832C65.6773 33.248 65.1973 33.568 64.632 33.792C64.0667 34.016 63.4373 34.128 62.744 34.128ZM73.284 34.128C72.548 34.128 71.8173 33.9787 71.092 33.68C70.3773 33.3707 69.7373 32.9227 69.172 32.336L70.388 30.848C70.772 31.3173 71.2253 31.6853 71.748 31.952C72.2813 32.208 72.7987 32.336 73.3 32.336C73.8973 32.336 74.3613 32.2133 74.692 31.968C75.0227 31.712 75.188 31.376 75.188 30.96C75.188 30.6187 75.0867 30.336 74.884 30.112C74.6813 29.888 74.4147 29.7067 74.084 29.568C73.7533 29.4187 73.3907 29.2747 72.996 29.136C72.2493 28.8693 71.6307 28.5973 71.14 28.32C70.6493 28.032 70.26 27.6747 69.972 27.248C69.6947 26.8107 69.556 26.288 69.556 25.68C69.556 25.136 69.716 24.6133 70.036 24.112C70.356 23.6 70.804 23.2053 71.38 22.928C71.9667 22.6507 72.5587 22.512 73.156 22.512C74.4893 22.512 75.7427 22.976 76.916 23.904L75.764 25.424C75.3053 25.0507 74.852 24.7627 74.404 24.56C73.956 24.3573 73.54 24.256 73.156 24.256C72.708 24.256 72.3293 24.3787 72.02 24.624C71.7213 24.8587 71.5667 25.1787 71.556 25.584C71.556 25.776 71.6093 25.968 71.716 26.16C71.8333 26.3413 72.036 26.5067 72.324 26.656C72.612 26.8053 73.0653 26.9973 73.684 27.232C74.804 27.6693 75.524 27.9947 75.844 28.208C76.1747 28.4213 76.4307 28.6453 76.612 28.88C76.804 29.104 76.948 29.3707 77.044 29.68C77.1507 29.9893 77.204 30.336 77.204 30.72C77.204 31.136 77.124 31.552 76.964 31.968C76.8147 32.3733 76.564 32.736 76.212 33.056C75.8707 33.376 75.444 33.6373 74.932 33.84C74.4307 34.032 73.8813 34.128 73.284 34.128ZM79.3451 34V22.64H82.9611C83.8358 22.64 84.6411 22.7787 85.3771 23.056C86.1131 23.3333 86.7371 23.728 87.2491 24.24C87.7718 24.7413 88.1718 25.344 88.4491 26.048C88.7265 26.752 88.8651 27.5147 88.8651 28.336C88.8651 29.1573 88.7318 29.92 88.4651 30.624C88.1985 31.3173 87.8091 31.92 87.2971 32.432C86.7851 32.9333 86.1611 33.3227 85.4251 33.6C84.6998 33.8667 83.8945 34 83.0091 34H79.3451ZM81.2811 32.272H82.8971C83.4731 32.272 84.0065 32.176 84.4971 31.984C84.9985 31.7813 85.4251 31.504 85.7771 31.152C86.1291 30.8 86.3958 30.384 86.5771 29.904C86.7691 29.4133 86.8651 28.8907 86.8651 28.336C86.8651 27.7707 86.7691 27.248 86.5771 26.768C86.3958 26.2773 86.1291 25.856 85.7771 25.504C85.4358 25.1413 85.0251 24.864 84.5451 24.672C84.0651 24.4693 83.5478 24.368 82.9931 24.368H81.2811V32.272ZM96.3424 34.096C95.5744 34.096 94.8437 33.9733 94.1504 33.728C93.457 33.472 92.8437 33.0987 92.3104 32.608C91.777 32.1173 91.361 31.5093 91.0624 30.784C90.7637 30.0587 90.6144 29.248 90.6144 28.352C90.6144 27.552 90.7424 26.7947 90.9984 26.08C91.2544 25.3653 91.6224 24.7413 92.1024 24.208C92.593 23.6747 93.1957 23.2587 93.9104 22.96C94.6357 22.6613 95.4357 22.512 96.3104 22.512C97.1424 22.512 97.953 22.6987 98.7424 23.072C99.5317 23.4453 100.214 23.984 100.79 24.688L99.3664 25.888C98.5237 24.8533 97.505 24.336 96.3104 24.336C95.7877 24.336 95.297 24.432 94.8384 24.624C94.3797 24.816 93.985 25.0933 93.6544 25.456C93.3344 25.808 93.0837 26.2347 92.9024 26.736C92.721 27.2267 92.6304 27.7653 92.6304 28.352C92.6304 28.9173 92.721 29.4453 92.9024 29.936C93.0837 30.4267 93.3397 30.848 93.6704 31.2C94.0117 31.5413 94.4117 31.808 94.8704 32C95.329 32.192 95.8197 32.288 96.3424 32.288C96.6304 32.288 96.961 32.24 97.3344 32.144C97.7077 32.048 98.0757 31.8773 98.4384 31.632C98.801 31.376 99.121 31.0773 99.3984 30.736L100.822 31.952C100.31 32.592 99.6704 33.1093 98.9024 33.504C98.1344 33.8987 97.281 34.096 96.3424 34.096Z" fill="white"/>
<defs>
<clipPath id="clip0_2066_394">
<rect width="28" height="28" fill="white" transform="translate(20 17)"/>
</clipPath>
<clipPath id="clip1_2066_394">
<rect width="15" height="8" fill="white" transform="translate(318 39) rotate(-90)"/>
</clipPath>
</defs>
</svg>
