<svg width="347" height="59" viewBox="0 0 347 59" fill="none" xmlns="http://www.w3.org/2000/svg">
<rect width="347" height="59" rx="10" fill="#1C1C1C"/>
<path d="M269.458 40.72C269.458 41.36 269.25 41.888 268.834 42.304C268.418 42.712 267.85 42.952 267.13 43.024V44.464H266.074V43C265.162 42.872 264.366 42.476 263.686 41.812L264.538 40.792C264.858 41.096 265.214 41.332 265.606 41.5C265.998 41.66 266.374 41.74 266.734 41.74C267.086 41.74 267.374 41.656 267.598 41.488C267.822 41.32 267.934 41.1 267.934 40.828C267.934 40.596 267.85 40.388 267.682 40.204C267.514 40.02 267.09 39.82 266.41 39.604C265.826 39.428 265.358 39.252 265.006 39.076C264.654 38.892 264.374 38.652 264.166 38.356C263.966 38.06 263.866 37.696 263.866 37.264C263.866 36.656 264.062 36.148 264.454 35.74C264.846 35.332 265.386 35.092 266.074 35.02V33.508H267.13V35.056C267.506 35.128 267.882 35.252 268.258 35.428C268.642 35.596 268.97 35.788 269.242 36.004L268.426 37.012C268.122 36.788 267.798 36.62 267.454 36.508C267.118 36.388 266.806 36.328 266.518 36.328C266.174 36.328 265.898 36.404 265.69 36.556C265.482 36.708 265.378 36.912 265.378 37.168C265.378 37.368 265.462 37.552 265.63 37.72C265.798 37.88 266.194 38.06 266.818 38.26C267.522 38.484 268.042 38.688 268.378 38.872C268.722 39.056 268.986 39.296 269.17 39.592C269.362 39.88 269.458 40.256 269.458 40.72ZM272.329 43V36.424L270.841 37.54L270.181 36.508L272.593 34.756H273.721V43H272.329ZM278.694 37.744C279.046 37.744 279.378 37.804 279.69 37.924C280.01 38.044 280.286 38.22 280.518 38.452C280.75 38.676 280.93 38.956 281.058 39.292C281.186 39.62 281.25 39.988 281.25 40.396C281.25 40.676 281.198 40.972 281.094 41.284C280.998 41.588 280.814 41.892 280.542 42.196C280.27 42.492 279.93 42.716 279.522 42.868C279.114 43.02 278.71 43.096 278.31 43.096C278.014 43.096 277.722 43.052 277.434 42.964C277.154 42.876 276.874 42.732 276.594 42.532C276.322 42.332 276.078 42.056 275.862 41.704C275.654 41.344 275.518 40.992 275.454 40.648C275.398 40.296 275.37 40.004 275.37 39.772C275.37 39.108 275.478 38.48 275.694 37.888C275.91 37.288 276.21 36.756 276.594 36.292C276.986 35.82 277.442 35.432 277.962 35.128C278.49 34.824 279.054 34.616 279.654 34.504L280.098 35.668C278.498 36.116 277.474 36.944 277.026 38.152L277.05 38.176C277.266 38.04 277.522 37.936 277.818 37.864C278.114 37.784 278.406 37.744 278.694 37.744ZM278.406 41.8C278.606 41.8 278.818 41.752 279.042 41.656C279.274 41.56 279.466 41.392 279.618 41.152C279.778 40.912 279.858 40.652 279.858 40.372C279.858 40.188 279.81 39.988 279.714 39.772C279.626 39.556 279.458 39.376 279.21 39.232C278.962 39.08 278.674 39.004 278.346 39.004C278.026 39.004 277.722 39.084 277.434 39.244C277.146 39.396 276.91 39.592 276.726 39.832V39.94C276.726 40.476 276.89 40.92 277.218 41.272C277.546 41.624 277.942 41.8 278.406 41.8ZM283.397 43.096C283.149 43.096 282.933 43.008 282.749 42.832C282.573 42.656 282.485 42.448 282.485 42.208C282.485 41.968 282.573 41.76 282.749 41.584C282.933 41.4 283.149 41.308 283.397 41.308C283.637 41.308 283.845 41.4 284.021 41.584C284.205 41.76 284.297 41.968 284.297 42.208C284.297 42.448 284.205 42.656 284.021 42.832C283.845 43.008 283.637 43.096 283.397 43.096ZM288.628 43.096C288.172 43.096 287.748 43.004 287.356 42.82C286.964 42.628 286.628 42.352 286.348 41.992C286.068 41.624 285.848 41.176 285.688 40.648C285.536 40.12 285.46 39.532 285.46 38.884C285.46 38.276 285.532 37.712 285.676 37.192C285.82 36.664 286.028 36.216 286.3 35.848C286.58 35.472 286.916 35.184 287.308 34.984C287.708 34.776 288.148 34.672 288.628 34.672C289.084 34.672 289.508 34.768 289.9 34.96C290.292 35.144 290.628 35.416 290.908 35.776C291.188 36.136 291.404 36.584 291.556 37.12C291.716 37.648 291.796 38.236 291.796 38.884C291.796 39.492 291.724 40.056 291.58 40.576C291.436 41.096 291.228 41.544 290.956 41.92C290.684 42.296 290.348 42.588 289.948 42.796C289.548 42.996 289.108 43.096 288.628 43.096ZM288.628 41.8C289.18 41.8 289.608 41.544 289.912 41.032C290.224 40.512 290.38 39.796 290.38 38.884C290.38 37.972 290.224 37.256 289.912 36.736C289.6 36.216 289.172 35.956 288.628 35.956C288.084 35.956 287.656 36.216 287.344 36.736C287.032 37.256 286.876 37.972 286.876 38.884C286.876 39.788 287.036 40.5 287.356 41.02C287.676 41.54 288.1 41.8 288.628 41.8ZM296.21 43.096C295.754 43.096 295.33 43.004 294.938 42.82C294.546 42.628 294.21 42.352 293.93 41.992C293.65 41.624 293.43 41.176 293.27 40.648C293.118 40.12 293.042 39.532 293.042 38.884C293.042 38.276 293.114 37.712 293.258 37.192C293.402 36.664 293.61 36.216 293.882 35.848C294.162 35.472 294.498 35.184 294.89 34.984C295.29 34.776 295.73 34.672 296.21 34.672C296.666 34.672 297.09 34.768 297.482 34.96C297.874 35.144 298.21 35.416 298.49 35.776C298.77 36.136 298.986 36.584 299.138 37.12C299.298 37.648 299.378 38.236 299.378 38.884C299.378 39.492 299.306 40.056 299.162 40.576C299.018 41.096 298.81 41.544 298.538 41.92C298.266 42.296 297.93 42.588 297.53 42.796C297.13 42.996 296.69 43.096 296.21 43.096ZM296.21 41.8C296.762 41.8 297.19 41.544 297.494 41.032C297.806 40.512 297.962 39.796 297.962 38.884C297.962 37.972 297.806 37.256 297.494 36.736C297.182 36.216 296.754 35.956 296.21 35.956C295.666 35.956 295.238 36.216 294.926 36.736C294.614 37.256 294.458 37.972 294.458 38.884C294.458 39.788 294.618 40.5 294.938 41.02C295.258 41.54 295.682 41.8 296.21 41.8Z" fill="#A4A4A4"/>
<path d="M245.328 29V20.78L243.468 22.175L242.643 20.885L245.658 18.695H247.068V29H245.328ZM253.284 22.43C253.724 22.43 254.139 22.505 254.529 22.655C254.929 22.805 255.274 23.025 255.564 23.315C255.854 23.595 256.079 23.945 256.239 24.365C256.399 24.775 256.479 25.235 256.479 25.745C256.479 26.095 256.414 26.465 256.284 26.855C256.164 27.235 255.934 27.615 255.594 27.995C255.254 28.365 254.829 28.645 254.319 28.835C253.809 29.025 253.304 29.12 252.804 29.12C252.434 29.12 252.069 29.065 251.709 28.955C251.359 28.845 251.009 28.665 250.659 28.415C250.319 28.165 250.014 27.82 249.744 27.38C249.484 26.93 249.314 26.49 249.234 26.06C249.164 25.62 249.129 25.255 249.129 24.965C249.129 24.135 249.264 23.35 249.534 22.61C249.804 21.86 250.179 21.195 250.659 20.615C251.149 20.025 251.719 19.54 252.369 19.16C253.029 18.78 253.734 18.52 254.484 18.38L255.039 19.835C253.039 20.395 251.759 21.43 251.199 22.94L251.229 22.97C251.499 22.8 251.819 22.67 252.189 22.58C252.559 22.48 252.924 22.43 253.284 22.43ZM252.924 27.5C253.174 27.5 253.439 27.44 253.719 27.32C254.009 27.2 254.249 26.99 254.439 26.69C254.639 26.39 254.739 26.065 254.739 25.715C254.739 25.485 254.679 25.235 254.559 24.965C254.449 24.695 254.239 24.47 253.929 24.29C253.619 24.1 253.259 24.005 252.849 24.005C252.449 24.005 252.069 24.105 251.709 24.305C251.349 24.495 251.054 24.74 250.824 25.04V25.175C250.824 25.845 251.029 26.4 251.439 26.84C251.849 27.28 252.344 27.5 252.924 27.5ZM266.611 29.12C266.151 29.12 265.676 29.055 265.186 28.925C264.706 28.785 264.286 28.57 263.926 28.28C263.566 27.98 263.276 27.655 263.056 27.305C262.836 26.945 262.666 26.54 262.546 26.09C262.436 25.63 262.381 25.14 262.381 24.62V18.35H264.181V24.485C264.181 25.015 264.276 25.515 264.466 25.985C264.656 26.445 264.946 26.8 265.336 27.05C265.726 27.29 266.151 27.41 266.611 27.41C267.331 27.41 267.916 27.15 268.366 26.63C268.826 26.1 269.056 25.385 269.056 24.485V18.35H270.871V24.62C270.871 25.29 270.771 25.905 270.571 26.465C270.381 27.025 270.101 27.505 269.731 27.905C269.361 28.295 268.911 28.595 268.381 28.805C267.851 29.015 267.261 29.12 266.611 29.12ZM276.492 29.12C275.802 29.12 275.117 28.98 274.437 28.7C273.767 28.41 273.167 27.99 272.637 27.44L273.777 26.045C274.137 26.485 274.562 26.83 275.052 27.08C275.552 27.32 276.037 27.44 276.507 27.44C277.067 27.44 277.502 27.325 277.812 27.095C278.122 26.855 278.277 26.54 278.277 26.15C278.277 25.83 278.182 25.565 277.992 25.355C277.802 25.145 277.552 24.975 277.242 24.845C276.932 24.705 276.592 24.57 276.222 24.44C275.522 24.19 274.942 23.935 274.482 23.675C274.022 23.405 273.657 23.07 273.387 22.67C273.127 22.26 272.997 21.77 272.997 21.2C272.997 20.69 273.147 20.2 273.447 19.73C273.747 19.25 274.167 18.88 274.707 18.62C275.257 18.36 275.812 18.23 276.372 18.23C277.622 18.23 278.797 18.665 279.897 19.535L278.817 20.96C278.387 20.61 277.962 20.34 277.542 20.15C277.122 19.96 276.732 19.865 276.372 19.865C275.952 19.865 275.597 19.98 275.307 20.21C275.027 20.43 274.882 20.73 274.872 21.11C274.872 21.29 274.922 21.47 275.022 21.65C275.132 21.82 275.322 21.975 275.592 22.115C275.862 22.255 276.287 22.435 276.867 22.655C277.917 23.065 278.592 23.37 278.892 23.57C279.202 23.77 279.442 23.98 279.612 24.2C279.792 24.41 279.927 24.66 280.017 24.95C280.117 25.24 280.167 25.565 280.167 25.925C280.167 26.315 280.092 26.705 279.942 27.095C279.802 27.475 279.567 27.815 279.237 28.115C278.917 28.415 278.517 28.66 278.037 28.85C277.567 29.03 277.052 29.12 276.492 29.12ZM282.174 29V18.35H285.564C286.384 18.35 287.139 18.48 287.829 18.74C288.519 19 289.104 19.37 289.584 19.85C290.074 20.32 290.449 20.885 290.709 21.545C290.969 22.205 291.099 22.92 291.099 23.69C291.099 24.46 290.974 25.175 290.724 25.835C290.474 26.485 290.109 27.05 289.629 27.53C289.149 28 288.564 28.365 287.874 28.625C287.194 28.875 286.439 29 285.609 29H282.174ZM283.989 27.38H285.504C286.044 27.38 286.544 27.29 287.004 27.11C287.474 26.92 287.874 26.66 288.204 26.33C288.534 26 288.784 25.61 288.954 25.16C289.134 24.7 289.224 24.21 289.224 23.69C289.224 23.16 289.134 22.67 288.954 22.22C288.784 21.76 288.534 21.365 288.204 21.035C287.884 20.695 287.499 20.435 287.049 20.255C286.599 20.065 286.114 19.97 285.594 19.97H283.989V27.38ZM294.662 29V19.97H291.647V18.35H299.537V19.97H296.477V29H294.662Z" fill="white"/>
<g clip-path="url(#clip0_2066_406)">
<path d="M33.9998 43.9996C41.7317 43.9996 47.9996 37.7317 47.9996 29.9998C47.9996 22.2679 41.7317 16 33.9998 16C26.2679 16 20 22.2679 20 29.9998C20 37.7317 26.2679 43.9996 33.9998 43.9996Z" fill="#50AF95"/>
<path d="M35.8127 27.1726V25.0345H40.9183V21.605H27.0817V25.0345H32.1873V27.1726C28.0408 27.3626 24.9192 28.1916 24.9192 29.1858C24.9192 30.1799 28.0408 31.0089 32.1873 31.1989V38.3946H35.8127V31.1989C39.9593 31.0089 43.0809 30.1799 43.0809 29.1858C43.0809 28.1916 39.9593 27.3626 35.8127 27.1726ZM35.8127 30.5919C35.2293 30.6175 34.6227 30.6309 34.0002 30.6309C33.3778 30.6309 32.7711 30.6175 32.1877 30.5919C28.4898 30.4299 25.7257 29.7834 25.7257 29.01C25.7257 28.2366 28.4898 27.5901 32.1877 27.4281V29.9797C32.7711 30.0002 33.3778 30.0112 34.0002 30.0112C34.6227 30.0112 35.2293 30.0002 35.8127 29.9797V27.4281C39.5107 27.5901 42.2748 28.2366 42.2748 29.01C42.2748 29.7834 39.5107 30.4299 35.8127 30.5919Z" fill="white"/>
</g>
<g clip-path="url(#clip1_2066_406)">
<path d="M326 31.3929C326 31.3929 325.893 31.0714 325.787 30.9643L319.422 24.2857C319.138 23.9643 318.64 23.8929 318.284 24.1786C317.964 24.4643 317.893 24.9643 318.178 25.3214C318.178 25.3214 318.213 25.3571 318.249 25.3929L324.116 31.5L318.249 37.6071C317.929 37.9286 317.929 38.4286 318.213 38.75C318.498 39.0714 319.031 39.0714 319.351 38.7857C319.351 38.7857 319.387 38.75 319.422 38.7143L325.787 32.0357C325.787 32.0357 326.036 31.6071 326 31.3929Z" fill="#818181"/>
</g>
<path d="M62.744 34.128C62.2533 34.128 61.7467 34.0587 61.224 33.92C60.712 33.7707 60.264 33.5413 59.88 33.232C59.496 32.912 59.1867 32.5653 58.952 32.192C58.7173 31.808 58.536 31.376 58.408 30.896C58.2907 30.4053 58.232 29.8827 58.232 29.328V22.64H60.152V29.184C60.152 29.7493 60.2533 30.2827 60.456 30.784C60.6587 31.2747 60.968 31.6533 61.384 31.92C61.8 32.176 62.2533 32.304 62.744 32.304C63.512 32.304 64.136 32.0267 64.616 31.472C65.1067 30.9067 65.352 30.144 65.352 29.184V22.64H67.288V29.328C67.288 30.0427 67.1813 30.6987 66.968 31.296C66.7653 31.8933 66.4667 32.4053 66.072 32.832C65.6773 33.248 65.1973 33.568 64.632 33.792C64.0667 34.016 63.4373 34.128 62.744 34.128ZM73.284 34.128C72.548 34.128 71.8173 33.9787 71.092 33.68C70.3773 33.3707 69.7373 32.9227 69.172 32.336L70.388 30.848C70.772 31.3173 71.2253 31.6853 71.748 31.952C72.2813 32.208 72.7987 32.336 73.3 32.336C73.8973 32.336 74.3613 32.2133 74.692 31.968C75.0227 31.712 75.188 31.376 75.188 30.96C75.188 30.6187 75.0867 30.336 74.884 30.112C74.6813 29.888 74.4147 29.7067 74.084 29.568C73.7533 29.4187 73.3907 29.2747 72.996 29.136C72.2493 28.8693 71.6307 28.5973 71.14 28.32C70.6493 28.032 70.26 27.6747 69.972 27.248C69.6947 26.8107 69.556 26.288 69.556 25.68C69.556 25.136 69.716 24.6133 70.036 24.112C70.356 23.6 70.804 23.2053 71.38 22.928C71.9667 22.6507 72.5587 22.512 73.156 22.512C74.4893 22.512 75.7427 22.976 76.916 23.904L75.764 25.424C75.3053 25.0507 74.852 24.7627 74.404 24.56C73.956 24.3573 73.54 24.256 73.156 24.256C72.708 24.256 72.3293 24.3787 72.02 24.624C71.7213 24.8587 71.5667 25.1787 71.556 25.584C71.556 25.776 71.6093 25.968 71.716 26.16C71.8333 26.3413 72.036 26.5067 72.324 26.656C72.612 26.8053 73.0653 26.9973 73.684 27.232C74.804 27.6693 75.524 27.9947 75.844 28.208C76.1747 28.4213 76.4307 28.6453 76.612 28.88C76.804 29.104 76.948 29.3707 77.044 29.68C77.1507 29.9893 77.204 30.336 77.204 30.72C77.204 31.136 77.124 31.552 76.964 31.968C76.8147 32.3733 76.564 32.736 76.212 33.056C75.8707 33.376 75.444 33.6373 74.932 33.84C74.4307 34.032 73.8813 34.128 73.284 34.128ZM79.3451 34V22.64H82.9611C83.8358 22.64 84.6411 22.7787 85.3771 23.056C86.1131 23.3333 86.7371 23.728 87.2491 24.24C87.7718 24.7413 88.1718 25.344 88.4491 26.048C88.7265 26.752 88.8651 27.5147 88.8651 28.336C88.8651 29.1573 88.7318 29.92 88.4651 30.624C88.1985 31.3173 87.8091 31.92 87.2971 32.432C86.7851 32.9333 86.1611 33.3227 85.4251 33.6C84.6998 33.8667 83.8945 34 83.0091 34H79.3451ZM81.2811 32.272H82.8971C83.4731 32.272 84.0065 32.176 84.4971 31.984C84.9985 31.7813 85.4251 31.504 85.7771 31.152C86.1291 30.8 86.3958 30.384 86.5771 29.904C86.7691 29.4133 86.8651 28.8907 86.8651 28.336C86.8651 27.7707 86.7691 27.248 86.5771 26.768C86.3958 26.2773 86.1291 25.856 85.7771 25.504C85.4358 25.1413 85.0251 24.864 84.5451 24.672C84.0651 24.4693 83.5478 24.368 82.9931 24.368H81.2811V32.272ZM92.6655 34V24.368H89.4495V22.64H97.8655V24.368H94.6015V34H92.6655Z" fill="white"/>
<defs>
<clipPath id="clip0_2066_406">
<rect width="28" height="28" fill="white" transform="translate(20 16)"/>
</clipPath>
<clipPath id="clip1_2066_406">
<rect width="15" height="8" fill="white" transform="translate(318 39) rotate(-90)"/>
</clipPath>
</defs>
</svg>
