<svg width="38" height="26" viewBox="0 0 38 26" fill="none" xmlns="http://www.w3.org/2000/svg">
<path id="Vector" d="M36.6483 8.70486C36.3106 8.40406 35.9125 8.20188 35.4791 8.09832C35.3783 7.34385 35.2574 6.58938 35.1112 5.83984C34.8542 4.54294 34.194 3.38904 33.1962 2.50142C32.1984 1.61381 30.9637 1.07631 29.6232 0.953027C25.8284 0.597981 21.9782 0.415527 18.1733 0.415527C14.3684 0.415527 10.5182 0.597981 6.72343 0.953027C5.38291 1.07631 4.14318 1.61381 3.15038 2.50142C2.15255 3.38904 1.49237 4.538 1.23535 5.83984C0.791874 8.10326 0.565094 10.4209 0.565094 12.7189C0.565094 15.0168 0.791874 17.3394 1.23535 19.5979C1.74939 22.2213 4.00711 24.2283 6.72343 24.4847C10.5182 24.8397 14.3684 25.0222 18.1733 25.0222C21.9782 25.0222 25.8284 24.8397 29.6232 24.4847C30.9637 24.3614 32.2034 23.8239 33.1962 22.9363C34.194 22.0487 34.8542 20.8997 35.1112 19.5979C35.2574 18.8483 35.3834 18.0939 35.4791 17.3394C35.9125 17.2358 36.3106 17.0287 36.6483 16.7328C37.0817 16.3482 37.369 15.8452 37.4849 15.2781C37.6512 14.4349 37.7368 13.5719 37.7368 12.7189C37.7368 11.8658 37.6512 11.0028 37.4849 10.1596C37.374 9.59248 37.0867 9.08949 36.6483 8.70486ZM32.2034 21.8711C31.4424 22.5467 30.5 22.956 29.4821 23.0497C25.7326 23.3998 21.9328 23.5773 18.1733 23.5773C14.4138 23.5773 10.6089 23.3998 6.86454 23.0497C4.79328 22.8574 3.07479 21.3238 2.68171 19.3266C2.25334 17.152 2.03664 14.933 2.03664 12.7189C2.03664 10.5047 2.25334 8.28571 2.68171 6.11105C2.87825 5.12482 3.3822 4.24213 4.13814 3.57149C4.89911 2.89592 5.84151 2.48663 6.8595 2.39294C10.6089 2.04282 14.4087 1.8653 18.1683 1.8653C21.9278 1.8653 25.7326 2.04282 29.477 2.39294C30.5 2.49156 31.4374 2.89592 32.1984 3.57149C32.9593 4.24706 33.4633 5.12482 33.6548 6.11105C33.7707 6.71759 33.8765 7.32906 33.9622 7.94053C32.9543 7.87149 31.9363 7.83697 30.9284 7.83697C29.5476 7.83697 28.1466 7.90108 26.7708 8.02929C26.1862 8.08353 25.6469 8.32023 25.2135 8.70486C24.7801 9.09443 24.4879 9.59248 24.377 10.1596C24.2107 10.9979 24.13 11.8608 24.13 12.7189C24.13 13.5769 24.2107 14.4398 24.377 15.2781C24.6038 16.4172 25.5865 17.295 26.7708 17.4084C28.1516 17.5416 29.5526 17.6007 30.9284 17.6007C31.9363 17.6007 32.9543 17.5662 33.9622 17.4972C33.8765 18.1086 33.7707 18.7201 33.6548 19.3266C33.4583 20.3228 32.9543 21.2005 32.1984 21.8761L32.2034 21.8711ZM36.0335 15.0069C35.9831 15.2633 35.852 15.4902 35.6555 15.6677C35.459 15.8452 35.212 15.9488 34.95 15.9734C34.8895 15.9784 34.824 15.9833 34.7635 15.9882H34.7433C33.4835 16.1016 32.2034 16.1559 30.9334 16.1559C29.598 16.1559 28.2474 16.0918 26.9119 15.9685C26.3777 15.9192 25.9292 15.5198 25.8284 15.0069C25.6822 14.2574 25.6066 13.4881 25.6066 12.7189C25.6066 11.9496 25.6822 11.1803 25.8284 10.4308C25.8788 10.1744 26.0098 9.94752 26.2063 9.77C26.4029 9.59248 26.6498 9.48892 26.9119 9.46426C28.2423 9.34099 29.598 9.27688 30.9334 9.27688C32.2689 9.27688 33.4835 9.33605 34.7433 9.44454H34.7635C34.824 9.44454 34.8895 9.4544 34.955 9.45933C35.2171 9.48399 35.464 9.59248 35.6605 9.76507C35.8571 9.93766 35.9881 10.1645 36.0385 10.4258C36.1897 11.1803 36.2653 11.9496 36.2653 12.7139C36.2653 13.4832 36.1897 14.2525 36.0385 15.0069H36.0335Z" fill="#7C7C7C"/>
</svg>
