<svg width="71" height="22" viewBox="0 0 71 22" fill="none" xmlns="http://www.w3.org/2000/svg">
<g id="Layer_1" clip-path="url(#clip0_7_2)">
<path id="Vector" d="M37.4197 5.52753C37.4197 6.32032 36.7765 6.95896 35.978 6.95896C35.1796 6.95896 34.5363 6.32032 34.5363 5.52753C34.5363 4.73474 35.1574 4.0961 35.978 4.0961C36.7987 4.11812 37.4197 4.75676 37.4197 5.52753ZM31.4755 8.41241V8.76476C31.4755 8.76476 30.7879 7.88388 29.3241 7.88388C26.9065 7.88388 25.0212 9.71171 25.0212 12.2442C25.0212 14.7768 26.8843 16.6046 29.3241 16.6046C30.8101 16.6046 31.4755 15.7017 31.4755 15.7017V16.0761C31.4755 16.2523 31.6086 16.3844 31.786 16.3844H33.5826V8.1041H31.786C31.6086 8.1041 31.4755 8.25826 31.4755 8.41241ZM31.4755 13.7197C31.1428 14.2042 30.4774 14.6226 29.6789 14.6226C28.2594 14.6226 27.1726 13.7417 27.1726 12.2442C27.1726 10.7467 28.2594 9.86587 29.6789 9.86587C30.4552 9.86587 31.165 10.3063 31.4755 10.7688V13.7197ZM34.9134 8.1041H37.0427V16.3844H34.9134V8.1041ZM66.7193 7.88388C65.2555 7.88388 64.5679 8.76476 64.5679 8.76476V4.11812H62.4386V16.3844H64.2352C64.4126 16.3844 64.5457 16.2302 64.5457 16.0761V15.7017C64.5457 15.7017 65.2333 16.6046 66.6972 16.6046C69.1148 16.6046 71.0001 14.7548 71.0001 12.2442C71.0001 9.73373 69.1148 7.88388 66.7193 7.88388ZM66.3645 14.6006C65.5438 14.6006 64.9006 14.1822 64.5679 13.6977V10.7467C64.9006 10.3063 65.6103 9.84384 66.3645 9.84384C67.784 9.84384 68.8708 10.7247 68.8708 12.2222C68.8708 13.7197 67.784 14.6006 66.3645 14.6006ZM61.3296 11.4735V16.4064H59.2004V11.7157C59.2004 10.3504 58.7568 9.7998 57.5591 9.7998C56.9158 9.7998 56.2504 10.1301 55.829 10.6146V16.3844H53.6998V8.1041H55.3854C55.5629 8.1041 55.6959 8.25826 55.6959 8.41241V8.76476C56.317 8.12613 57.1376 7.88388 57.9583 7.88388C58.8898 7.88388 59.6661 8.14815 60.2872 8.67668C61.0413 9.29329 61.3296 10.0861 61.3296 11.4735ZM48.5318 7.88388C47.068 7.88388 46.3804 8.76476 46.3804 8.76476V4.11812H44.2511V16.3844H46.0477C46.2251 16.3844 46.3582 16.2302 46.3582 16.0761V15.7017C46.3582 15.7017 47.0458 16.6046 48.5097 16.6046C50.9273 16.6046 52.8126 14.7548 52.8126 12.2442C52.8347 9.73373 50.9495 7.88388 48.5318 7.88388ZM48.177 14.6006C47.3563 14.6006 46.7131 14.1822 46.3804 13.6977V10.7467C46.7131 10.3063 47.4229 9.84384 48.177 9.84384C49.5965 9.84384 50.6833 10.7247 50.6833 12.2222C50.6833 13.7197 49.5965 14.6006 48.177 14.6006ZM42.4102 7.88388C43.0534 7.88388 43.3861 7.99399 43.3861 7.99399V9.95395C43.3861 9.95395 41.6117 9.35936 40.5027 10.6146V16.4064H38.3735V8.1041H40.17C40.3475 8.1041 40.4805 8.25826 40.4805 8.41241V8.76476C40.8798 8.3023 41.7448 7.88388 42.4102 7.88388ZM20.2969 15.6356C20.186 15.3714 20.0751 15.0851 19.9642 14.8428C19.7867 14.4464 19.6093 14.0721 19.454 13.7197L19.4318 13.6977C17.9014 10.3944 16.2601 7.04705 14.5301 3.74374L14.4636 3.61161C14.2861 3.28128 14.1087 2.92893 13.9312 2.57658C13.7094 2.18018 13.4876 1.76176 13.1328 1.36537C12.423 0.484484 11.4027 0 10.3159 0C9.2291 0 8.20883 0.484484 7.47689 1.32132C7.1442 1.71772 6.90022 2.13614 6.67842 2.53253C6.50098 2.88488 6.32354 3.23724 6.1461 3.56757L6.07956 3.6997C4.37171 7.003 2.70822 10.3504 1.17781 13.6537L1.15563 13.6977C1.00037 14.0501 0.822931 14.4244 0.645492 14.8208C0.534593 15.0631 0.423693 15.3273 0.312794 15.6136C0.0244554 16.4284 -0.0642641 17.1992 0.0466353 17.992C0.290614 19.6436 1.39961 21.031 2.93002 21.6476C3.5067 21.8899 4.10555 22 4.72659 22C4.90403 22 5.12583 21.978 5.30327 21.956C6.0352 21.8679 6.78932 21.6256 7.52125 21.2072C8.43063 20.7007 9.29564 19.974 10.2716 18.9169C11.2475 19.974 12.1347 20.7007 13.0219 21.2072C13.7538 21.6256 14.5079 21.8679 15.2399 21.956C15.4173 21.978 15.6391 22 15.8165 22C16.4376 22 17.0586 21.8899 17.6131 21.6476C19.1657 21.031 20.2525 19.6216 20.4965 17.992C20.6739 17.2212 20.5852 16.4505 20.2969 15.6356ZM10.2937 16.7808C9.09602 15.2833 8.31973 13.8739 8.05357 12.6847C7.94267 12.1782 7.92049 11.7377 7.98703 11.3413C8.03139 10.989 8.16447 10.6807 8.34191 10.4164C8.76333 9.82182 9.47308 9.44745 10.2937 9.44745C11.1144 9.44745 11.8463 9.7998 12.2456 10.4164C12.423 10.6807 12.5561 10.989 12.6004 11.3413C12.667 11.7377 12.6448 12.2002 12.5339 12.6847C12.2677 13.8519 11.4915 15.2613 10.2937 16.7808ZM19.1435 17.8158C18.9883 18.961 18.212 19.952 17.1251 20.3924C16.5928 20.6126 16.0161 20.6787 15.4395 20.6126C14.885 20.5465 14.3305 20.3704 13.7538 20.04C12.9553 19.5996 12.1568 18.9169 11.2253 17.9039C12.6892 16.1201 13.5764 14.4905 13.9091 13.037C14.0643 12.3544 14.0865 11.7377 14.02 11.1652C13.9312 10.6146 13.7316 10.1081 13.4211 9.66767C12.7335 8.67668 11.5802 8.1041 10.2937 8.1041C9.00731 8.1041 7.85395 8.6987 7.16638 9.66767C6.85586 10.1081 6.65624 10.6146 6.56752 11.1652C6.4788 11.7377 6.50098 12.3764 6.67842 13.037C7.01112 14.4905 7.92049 16.1421 9.36218 17.9259C8.45281 18.9389 7.63215 19.6216 6.83368 20.0621C6.257 20.3924 5.7025 20.5686 5.14801 20.6346C4.54915 20.7007 3.97247 20.6126 3.46234 20.4144C2.37552 19.974 1.59923 18.983 1.44397 17.8378C1.37743 17.2873 1.42179 16.7367 1.64359 16.1201C1.71013 15.8999 1.82103 15.6797 1.93192 15.4154C2.08718 15.0631 2.26462 14.6887 2.44206 14.3143L2.46424 14.2703C3.99465 10.989 5.63596 7.64164 7.34381 4.38238L7.41035 4.25025C7.58779 3.91992 7.76523 3.56757 7.94267 3.23724C8.12011 2.88488 8.31973 2.55455 8.56371 2.26827C9.02949 1.73974 9.65052 1.45345 10.3381 1.45345C11.0257 1.45345 11.6467 1.73974 12.1125 2.26827C12.3565 2.55455 12.5561 2.88488 12.7335 3.23724C12.911 3.56757 13.0884 3.91992 13.2658 4.25025L13.3324 4.38238C15.0181 7.66366 16.6594 11.011 18.1898 14.2923V14.3143C18.3672 14.6667 18.5225 15.0631 18.6999 15.4154C18.8108 15.6797 18.9217 15.8999 18.9883 16.1201C19.1657 16.6927 19.2322 17.2432 19.1435 17.8158Z" fill="white"/>
</g>
<defs>
<clipPath id="clip0_7_2">
<rect width="71" height="22" fill="white"/>
</clipPath>
</defs>
</svg>
