<svg width="40" height="20" viewBox="0 0 40 20" fill="none" xmlns="http://www.w3.org/2000/svg">
<g id="Calque_1" clip-path="url(#clip0_14_474)">
<path id="Vector" d="M39.92 0.913333L37.37 0.92L39.47 2.15333V2.59L37.4233 3.81667H39.9166V4.72667H35.67V3.92333L38.31 2.35333L35.67 0.806667V0.0133333L39.9166 0V0.91V0.913333H39.92ZM18.83 19.7H14.18L10.7633 12.6767C9.71665 13.2367 8.92331 14.21 8.09665 15.2267C7.44664 16.0233 6.77664 16.85 5.94331 17.52C4.97664 18.3 3.85331 18.9933 2.44664 19.4633C1.80998 19.6733 0.726645 19.9533 0.319978 19.99C0.149978 20.0067 0.029978 20 0.00331137 19.94C-0.0166886 19.8933 0.029978 19.8567 0.213311 19.77L0.376645 19.6967C0.709978 19.55 1.36998 19.26 1.80998 18.9567C2.47998 18.4967 2.85998 18 2.88998 17.6167C2.85664 17.5 2.78331 17.3533 2.69664 17.18C2.31331 16.4133 1.64664 15.08 2.73664 12.9633C2.90998 12.6267 3.08998 12.29 3.27664 11.9567C3.52998 11.4967 3.74998 11.09 3.92998 10.6833C4.27331 9.91 4.51331 8.81667 4.59664 8.00667C4.60331 7.96 4.60998 7.96333 4.63664 7.98667C5.28998 8.63667 7.81331 11.2 7.44664 13.75C8.28664 13.4333 9.74331 12.4667 10.4133 11.95C10.5733 11.8267 10.7233 11.7033 10.8633 11.5833C11.3466 11.1767 11.7533 10.8367 12.3333 10.8267C12.7133 10.82 12.8966 10.92 13.08 11.02C13.2233 11.0967 13.3633 11.1733 13.5966 11.2033C13.73 11.22 13.9266 11.1933 14.0266 11.1467C14.0666 11.1267 14.0566 11.0833 13.9966 11.0667C13.6933 10.9967 13.4866 10.8533 13.2766 10.71C12.9866 10.51 12.6966 10.31 12.1466 10.31C11.51 10.31 10.9733 10.7433 10.54 11.0933C10.3966 11.21 10.2633 11.3167 10.14 11.3967L7.75331 6.49C6.75664 4.43667 7.06331 2.94333 9.25331 0.01L18.83 19.7ZM26.3433 19.7033H23.4533C22.2366 19.7033 21.6233 19.44 21.1766 18.8667C20.7 18.2533 20.7 17.32 20.7 16.4367V0.0166667H24.4133V16.96C24.4133 18.3 24.5666 19.26 26.34 19.6433V19.7033H26.3433ZM30.94 19.7033H33.83V19.6433C32.0533 19.26 31.9033 18.3 31.9033 16.96V0.0166667H28.19V16.4333C28.19 17.32 28.19 18.2533 28.6666 18.8633C29.1133 19.4367 29.7266 19.7 30.9433 19.7L30.94 19.7033ZM39.71 13.23C39.53 13.5667 39.26 13.85 38.9266 14.0433C38.5933 14.24 38.2166 14.34 37.7966 14.34C37.3766 14.34 36.9966 14.24 36.6666 14.0433C36.3366 13.85 36.0666 13.5667 35.8833 13.23C35.6966 12.8867 35.6 12.4967 35.6 12.0667C35.6 11.7033 35.6633 11.3767 35.7933 11.08C35.9166 10.7933 36.11 10.54 36.3533 10.34L36.9366 10.9633C36.6033 11.2467 36.4366 11.5967 36.4366 12.0167C36.4366 12.2767 36.4933 12.5067 36.61 12.7133C36.7266 12.92 36.8866 13.0767 37.09 13.1867C37.2966 13.3 37.53 13.3567 37.7966 13.3567C38.0633 13.3567 38.2933 13.3 38.5 13.1867C38.7033 13.0767 38.87 12.9133 38.98 12.7133C39.0933 12.5133 39.1533 12.28 39.1533 12.0167C39.1533 11.6 38.9866 11.2467 38.65 10.9633L39.2333 10.34C39.48 10.5367 39.6733 10.7933 39.8 11.0833C39.93 11.3767 39.9933 11.7067 39.9933 12.07C39.9933 12.4967 39.8966 12.8833 39.71 13.23ZM38.92 9.74667C39.2533 9.55 39.5233 9.26667 39.7066 8.92333C39.8966 8.57333 39.99 8.18 39.99 7.74667C39.99 7.31333 39.8966 6.92 39.7066 6.57333C39.5233 6.23333 39.2533 5.95 38.92 5.75333C38.5866 5.55333 38.21 5.45333 37.7933 5.45333C37.3766 5.45333 37 5.55333 36.6666 5.75333C36.3366 5.95 36.0633 6.23667 35.88 6.57333C35.69 6.92 35.5966 7.31 35.5966 7.74667C35.5966 8.18333 35.69 8.57667 35.88 8.92333C36.06 9.26333 36.3333 9.55 36.6666 9.74667C37 9.94333 37.3766 10.0433 37.7933 10.0433C38.21 10.0433 38.5866 9.94333 38.92 9.74667ZM38.5 6.61C38.7 6.72 38.8666 6.88333 38.98 7.08C39.0966 7.27667 39.1533 7.50333 39.1533 7.75C39.1533 7.99667 39.0933 8.22 38.98 8.42C38.8666 8.62 38.7 8.78333 38.5 8.89C38.2933 9.00333 38.06 9.06 37.7933 9.06C37.5266 9.06 37.2966 9.00333 37.09 8.89C36.89 8.78 36.7233 8.61667 36.61 8.42C36.4933 8.22333 36.4366 7.99667 36.4366 7.75C36.4366 7.50333 36.4933 7.28 36.61 7.08C36.7233 6.88 36.89 6.71667 37.09 6.61C37.2966 6.49667 37.53 6.44 37.7933 6.44C38.0566 6.44 38.2933 6.49667 38.5 6.61ZM36.6633 15.91C36.6633 16.44 36.2266 16.87 35.69 16.87C35.1533 16.87 34.7166 16.44 34.7166 15.91C34.7166 15.38 35.1533 14.95 35.69 14.95C36.2266 14.95 36.6633 15.38 36.6633 15.91Z" fill="white"/>
</g>
<defs>
<clipPath id="clip0_14_474">
<rect width="40" height="20" fill="white"/>
</clipPath>
</defs>
</svg>
