<svg width="41" height="20" viewBox="0 0 41 20" fill="none" xmlns="http://www.w3.org/2000/svg">
<g id="Calque_1" clip-path="url(#clip0_19_736)">
<path id="Vector" d="M40.9179 0.913333L38.3041 0.92L40.4566 2.15333V2.59L38.3588 3.81667H40.9145V4.72667H36.5616V3.92333L39.2676 2.35333L36.5616 0.806667V0.0133333L40.9145 0V0.91V0.913333H40.9179ZM19.3006 19.7H14.5344L11.0323 12.6767C9.95946 13.2367 9.1463 14.21 8.29896 15.2267C7.63271 16.0233 6.94596 16.85 6.0918 17.52C5.10096 18.3 3.94955 18.9933 2.50771 19.4633C1.85513 19.6733 0.744713 19.9533 0.32788 19.99C0.15363 20.0067 0.0306298 20 0.0032965 19.94C-0.0172035 19.8933 0.0306298 19.8567 0.218547 19.77L0.385963 19.6967C0.72763 19.55 1.40413 19.26 1.85513 18.9567C2.54188 18.4967 2.93138 18 2.96213 17.6167C2.92796 17.5 2.8528 17.3533 2.76396 17.18C2.37105 16.4133 1.68771 15.08 2.80496 12.9633C2.98263 12.6267 3.16713 12.29 3.35846 11.9567C3.61813 11.4967 3.84363 11.09 4.02813 10.6833C4.38005 9.91 4.62605 8.81667 4.71146 8.00667C4.7183 7.96 4.72513 7.96333 4.75246 7.98667C5.42213 8.63667 8.00855 11.2 7.63271 13.75C8.49371 13.4333 9.9868 12.4667 10.6735 11.95C10.8375 11.8267 10.9913 11.7033 11.1348 11.5833C11.6302 11.1767 12.047 10.8367 12.6415 10.8267C13.031 10.82 13.219 10.92 13.4069 11.02C13.5538 11.0967 13.6973 11.1733 13.9365 11.2033C14.0731 11.22 14.2747 11.1933 14.3772 11.1467C14.4182 11.1267 14.408 11.0833 14.3465 11.0667C14.0355 10.9967 13.8237 10.8533 13.6085 10.71C13.3112 10.51 13.014 10.31 12.4502 10.31C11.7976 10.31 11.2475 10.7433 10.8034 11.0933C10.6565 11.21 10.5198 11.3167 10.3934 11.3967L7.94705 6.49C6.92546 4.43667 7.2398 2.94333 9.48455 0.01L19.3006 19.7ZM27.0018 19.7033H24.0395C22.7925 19.7033 22.1638 19.44 21.706 18.8667C21.2174 18.2533 21.2174 17.32 21.2174 16.4367V0.0166667H25.0235V16.96C25.0235 18.3 25.1807 19.26 26.9984 19.6433V19.7033H27.0018ZM31.7134 19.7033H34.6756V19.6433C32.8545 19.26 32.7008 18.3 32.7008 16.96V0.0166667H28.8946V16.4333C28.8946 17.32 28.8946 18.2533 29.3832 18.8633C29.841 19.4367 30.4697 19.7 31.7168 19.7L31.7134 19.7033ZM40.7026 13.23C40.5181 13.5667 40.2414 13.85 39.8997 14.0433C39.558 14.24 39.172 14.34 38.7415 14.34C38.311 14.34 37.9215 14.24 37.5832 14.0433C37.245 13.85 36.9682 13.5667 36.7803 13.23C36.589 12.8867 36.4899 12.4967 36.4899 12.0667C36.4899 11.7033 36.5548 11.3767 36.688 11.08C36.8145 10.7933 37.0126 10.54 37.262 10.34L37.86 10.9633C37.5183 11.2467 37.3475 11.5967 37.3475 12.0167C37.3475 12.2767 37.4055 12.5067 37.5251 12.7133C37.6447 12.92 37.8087 13.0767 38.0171 13.1867C38.229 13.3 38.4681 13.3567 38.7415 13.3567C39.0148 13.3567 39.2505 13.3 39.4624 13.1867C39.6708 13.0767 39.8416 12.9133 39.9544 12.7133C40.0705 12.5133 40.132 12.28 40.132 12.0167C40.132 11.6 39.9612 11.2467 39.6161 10.9633L40.214 10.34C40.4669 10.5367 40.665 10.7933 40.7949 11.0833C40.9281 11.3767 40.993 11.7067 40.993 12.07C40.993 12.4967 40.894 12.8833 40.7026 13.23ZM39.8929 9.74667C40.2345 9.55 40.5113 9.26667 40.6992 8.92333C40.894 8.57333 40.9896 8.18 40.9896 7.74667C40.9896 7.31333 40.894 6.92 40.6992 6.57333C40.5113 6.23333 40.2345 5.95 39.8929 5.75333C39.5512 5.55333 39.1651 5.45333 38.738 5.45333C38.311 5.45333 37.9249 5.55333 37.5832 5.75333C37.245 5.95 36.9648 6.23667 36.7769 6.57333C36.5821 6.92 36.4865 7.31 36.4865 7.74667C36.4865 8.18333 36.5821 8.57667 36.7769 8.92333C36.9614 9.26333 37.2415 9.55 37.5832 9.74667C37.9249 9.94333 38.311 10.0433 38.738 10.0433C39.1651 10.0433 39.5512 9.94333 39.8929 9.74667ZM39.4624 6.61C39.6674 6.72 39.8382 6.88333 39.9544 7.08C40.074 7.27667 40.132 7.50333 40.132 7.75C40.132 7.99667 40.0705 8.22 39.9544 8.42C39.8382 8.62 39.6674 8.78333 39.4624 8.89C39.2505 9.00333 39.0114 9.06 38.738 9.06C38.4647 9.06 38.229 9.00333 38.0171 8.89C37.8121 8.78 37.6413 8.61667 37.5251 8.42C37.4055 8.22333 37.3475 7.99667 37.3475 7.75C37.3475 7.50333 37.4055 7.28 37.5251 7.08C37.6413 6.88 37.8121 6.71667 38.0171 6.61C38.229 6.49667 38.4681 6.44 38.738 6.44C39.008 6.44 39.2505 6.49667 39.4624 6.61ZM37.5798 15.91C37.5798 16.44 37.1322 16.87 36.5821 16.87C36.032 16.87 35.5845 16.44 35.5845 15.91C35.5845 15.38 36.032 14.95 36.5821 14.95C37.1322 14.95 37.5798 15.38 37.5798 15.91Z" fill="#515151"/>
</g>
<defs>
<clipPath id="clip0_19_736">
<rect width="41" height="20" fill="white"/>
</clipPath>
</defs>
</svg>
