<svg width="65" height="20" viewBox="0 0 65 20" fill="none" xmlns="http://www.w3.org/2000/svg">
<g id="svg1936" clip-path="url(#clip0_9_434)">
<path id="path8" fill-rule="evenodd" clip-rule="evenodd" d="M40.322 15.6403C36.5459 18.4804 31.0734 20 26.3549 20C19.745 20 13.7981 17.505 9.29408 13.351C8.94312 13.0259 9.25509 12.5813 9.68404 12.8334C14.5391 15.72 20.551 17.4519 26.7513 17.4519C30.9369 17.4519 35.5385 16.5693 39.7695 14.7312C40.413 14.4592 40.9459 15.1626 40.322 15.6403Z" fill="white"/>
<path id="path10" fill-rule="evenodd" clip-rule="evenodd" d="M41.8883 13.8022C41.4074 13.1718 38.6971 13.5036 37.4818 13.6496C37.1113 13.6961 37.0528 13.3643 37.3908 13.132C39.5486 11.5793 43.0907 12.0305 43.5067 12.5481C43.9226 13.0723 43.3962 16.6954 41.3684 18.4273C41.0564 18.6927 40.7574 18.5534 40.9004 18.2017C41.3554 17.0404 42.3758 14.4393 41.8883 13.8022Z" fill="white"/>
<path id="path12" fill-rule="evenodd" clip-rule="evenodd" d="M37.5662 2.18312V0.676819C37.5662 0.451205 37.7352 0.298584 37.9367 0.298584H44.5465C44.761 0.298584 44.93 0.457841 44.93 0.676819V1.97078C44.93 2.18976 44.748 2.46846 44.4295 2.91969L41.0109 7.90973C42.2848 7.87655 43.6301 8.06899 44.7805 8.73256C45.0405 8.88518 45.112 9.10416 45.1315 9.3165V10.9223C45.1315 11.1413 44.891 11.4001 44.644 11.2674C42.6097 10.1791 39.906 10.0597 37.6572 11.2807C37.4297 11.4067 37.1893 11.1546 37.1893 10.9356V9.4094C37.1893 9.16388 37.1893 8.74583 37.4297 8.37423L41.4008 2.56136H37.9497C37.7352 2.56136 37.5662 2.40874 37.5662 2.18312Z" fill="white"/>
<path id="path14" fill-rule="evenodd" clip-rule="evenodd" d="M13.4472 11.5926H11.4389C11.2439 11.5793 11.0944 11.4333 11.0814 11.2409V0.703414C11.0814 0.491072 11.2569 0.325179 11.4714 0.325179H13.3497C13.5447 0.331815 13.7007 0.484436 13.7137 0.676871V2.0571H13.7527C14.2401 0.723321 15.163 0.106201 16.3979 0.106201C17.6328 0.106201 18.4452 0.729957 19.0106 2.0571C19.4981 0.723321 20.603 0.106201 21.7859 0.106201C22.6308 0.106201 23.5537 0.464529 24.1126 1.26081C24.7496 2.15 24.6196 3.43732 24.6196 4.56539V11.2144C24.6196 11.4267 24.4441 11.5926 24.2296 11.5926H22.2213C22.0198 11.5793 21.8573 11.4134 21.8573 11.2144V5.6271C21.8573 5.18251 21.8963 4.07435 21.7988 3.64967C21.6494 2.93965 21.2009 2.74057 20.616 2.74057C20.1285 2.74057 19.6216 3.07236 19.4136 3.60322C19.2056 4.13407 19.2251 5.02325 19.2251 5.62047V11.2077C19.2251 11.4201 19.0496 11.586 18.8351 11.586H16.8333C16.6319 11.5727 16.4694 11.4068 16.4694 11.2077V5.62047C16.4694 4.44595 16.6579 2.71403 15.228 2.71403C13.7981 2.71403 13.8371 4.3995 13.8371 5.62047V11.2077C13.8371 11.4201 13.6617 11.5926 13.4472 11.5926Z" fill="white"/>
<path id="path16" fill-rule="evenodd" clip-rule="evenodd" d="M50.6299 0.0994873C53.6132 0.0994873 55.2315 2.71395 55.2315 6.04507C55.2315 9.37619 53.4442 11.8115 50.6299 11.8115C47.8157 11.8115 46.1064 9.19703 46.1064 5.93227C46.0999 2.65423 47.7182 0.0994873 50.6299 0.0994873ZM50.6429 2.25609C49.1611 2.25609 49.0701 4.31316 49.0701 5.60048C49.0701 6.88781 49.0506 9.64162 50.6299 9.64162C52.2093 9.64162 52.2613 7.4253 52.2613 6.07162C52.2613 5.18243 52.2223 4.12072 51.9623 3.27799C51.7348 2.54142 51.2864 2.25609 50.6429 2.25609Z" fill="white"/>
<path id="path18" fill-rule="evenodd" clip-rule="evenodd" d="M59.0986 11.5925H57.0968C56.8953 11.5792 56.7328 11.4134 56.7328 11.2143V0.670158C56.7523 0.477722 56.9148 0.325101 57.1228 0.325101H58.9881C59.1636 0.331737 59.3066 0.457815 59.3456 0.617072V2.22955H59.3846C59.95 0.7896 60.7364 0.0994873 62.1273 0.0994873C63.0307 0.0994873 63.9081 0.431272 64.4736 1.34036C65 2.1831 65 3.60314 65 4.6184V11.2541C64.9805 11.4399 64.8115 11.5859 64.6101 11.5859H62.5953C62.4133 11.5726 62.2573 11.4333 62.2378 11.2541V5.53413C62.2378 4.37951 62.3678 2.69405 60.9769 2.69405C60.4895 2.69405 60.0345 3.02583 59.8135 3.53678C59.5276 4.18044 59.4951 4.82411 59.4951 5.53413V11.2076C59.4886 11.42 59.3131 11.5925 59.0986 11.5925Z" fill="white"/>
<path id="path28" fill-rule="evenodd" clip-rule="evenodd" d="M32.2953 6.55607C32.2953 7.35899 32.3148 8.02256 31.9183 8.73258C31.5998 9.30989 31.0864 9.66822 30.5274 9.66822C29.754 9.66822 29.3056 9.06437 29.3056 8.18182C29.3056 6.42999 30.8394 6.11148 32.3018 6.11148L32.2953 6.55607ZM34.3231 11.5594C34.1931 11.6788 33.9981 11.6921 33.8486 11.6058C33.1792 11.0418 33.0622 10.7764 32.6917 10.2389C31.5868 11.3869 30.8069 11.7319 29.3771 11.7319C27.6807 11.7319 26.3679 10.6636 26.3679 8.53351C26.3679 6.86795 27.2518 5.73325 28.5126 5.17585C29.6045 4.6848 31.1319 4.59854 32.2953 4.45919V4.19376C32.2953 3.70272 32.3343 3.12542 32.0483 2.70737C31.8078 2.32913 31.3334 2.16987 30.9174 2.16987C30.1505 2.16987 29.468 2.57465 29.2991 3.40411C29.2666 3.58991 29.1301 3.76908 28.9481 3.78235L26.9983 3.57001C26.8358 3.53019 26.6473 3.39748 26.6993 3.13869C27.1543 0.729927 29.2926 0 31.2034 0C32.1848 0 33.4586 0.265428 34.2321 1.0219C35.2135 1.95753 35.116 3.19841 35.116 4.55209V7.7505C35.116 8.71268 35.5059 9.13736 35.8764 9.65494C36.0064 9.84074 36.0324 10.0597 35.8699 10.1991C35.4605 10.5574 34.7325 11.2077 34.3231 11.5594Z" fill="white"/>
<path id="path30" fill-rule="evenodd" clip-rule="evenodd" d="M5.92741 6.55607C5.92741 7.35899 5.9469 8.02256 5.55044 8.73258C5.23198 9.30989 4.72503 9.66822 4.15958 9.66822C3.38616 9.66822 2.93771 9.06437 2.93771 8.18182C2.93771 6.42999 4.47155 6.11148 5.92741 6.11148V6.55607ZM7.9552 11.5594C7.82522 11.6788 7.63024 11.6921 7.48075 11.6058C6.81132 11.0418 6.69433 10.7764 6.32387 10.2389C5.21898 11.3869 4.43906 11.7319 3.0092 11.7319C1.31937 11.7319 0 10.6636 0 8.53351C0 6.86795 0.883912 5.73325 2.14479 5.17585C3.23668 4.6848 4.76402 4.59854 5.92741 4.45919V4.19376C5.92741 3.70272 5.9664 3.12542 5.68693 2.70737C5.43996 2.32913 4.972 2.16987 4.55604 2.16987C3.78912 2.16987 3.10669 2.57465 2.93771 3.40411C2.90521 3.58991 2.76872 3.76908 2.58674 3.78235L0.636936 3.57001C0.474453 3.53019 0.292471 3.39748 0.337966 3.13869C0.786421 0.729927 2.92471 0 4.83552 0C5.81692 0 7.09079 0.265428 7.86421 1.0219C8.84561 1.95753 8.74812 3.19841 8.74812 4.55209V7.7505C8.74812 8.71268 9.13809 9.13736 9.50855 9.65494C9.63854 9.84074 9.66453 10.0597 9.50205 10.1991C9.09259 10.5574 8.36466 11.2077 7.9552 11.5594Z" fill="white"/>
</g>
<defs>
<clipPath id="clip0_9_434">
<rect width="65" height="20" fill="white"/>
</clipPath>
</defs>
</svg>
