<svg width="50" height="20" viewBox="0 0 50 20" fill="none" xmlns="http://www.w3.org/2000/svg">
<g id="Layer_1" clip-path="url(#clip0_11_216)">
<path id="Vector" d="M9.13579 2.5785C8.54978 3.25404 7.61217 3.78687 6.67456 3.71075C6.55736 2.79734 7.0164 1.82683 7.55357 1.2274C8.13957 0.532826 9.16508 0.038059 9.99526 0C10.0929 0.951475 9.71202 1.88392 9.13579 2.5785ZM9.98549 3.89153C8.62791 3.81541 7.46567 4.6432 6.82106 4.6432C6.17645 4.6432 5.18024 3.92959 4.1059 3.94862C2.70925 3.96765 1.41027 4.73835 0.697296 5.96575C-0.76772 8.42055 0.316392 12.0552 1.73257 14.0533C2.42601 15.0428 3.25619 16.1275 4.35007 16.0894C5.38535 16.0514 5.79555 15.4329 7.0457 15.4329C8.29584 15.4329 8.66698 16.0894 9.76086 16.0704C10.8938 16.0514 11.6068 15.0809 12.3002 14.0913C13.0913 12.9686 13.4136 11.8744 13.4332 11.8173C13.4136 11.7983 11.2454 10.9895 11.2259 8.55376C11.2063 6.5176 12.9351 5.5471 13.0132 5.49001C12.0365 4.08183 10.5129 3.92959 9.98549 3.89153ZM17.8282 1.13225V15.9657H20.1918V10.8944H23.4636C26.4523 10.8944 28.5521 8.89629 28.5521 6.00381C28.5521 3.11132 26.4913 1.13225 23.5418 1.13225H17.8282ZM20.1918 3.07326H22.9167C24.9677 3.07326 26.1397 4.13892 26.1397 6.01332C26.1397 7.88773 24.9677 8.96289 22.9069 8.96289H20.1918V3.07326ZM32.869 16.0799C34.3536 16.0799 35.7307 15.3473 36.3558 14.1865H36.4046V15.9657H38.5924V8.5823C38.5924 6.44148 36.8343 5.06185 34.1289 5.06185C31.6189 5.06185 29.7632 6.46051 29.6948 8.38249H31.824C31.9998 7.46908 32.869 6.86965 34.0606 6.86965C35.5061 6.86965 36.3167 7.52617 36.3167 8.73454V9.55281L33.3671 9.72407C30.6227 9.88582 29.1381 10.98 29.1381 12.883C29.1381 14.7859 30.6715 16.0799 32.869 16.0799ZM33.5039 14.3197C32.244 14.3197 31.4431 13.7298 31.4431 12.8259C31.4431 11.922 32.2147 11.3511 33.6894 11.2655L36.3167 11.1037V11.941C36.3167 13.3302 35.1056 14.3197 33.5039 14.3197ZM41.5126 20C43.8176 20 44.9017 19.1437 45.8491 16.5461L50 5.20457H47.5973L44.8138 13.9677H44.765L41.9814 5.20457H39.5104L43.5148 16.0038L43.2999 16.6603C42.9386 17.7736 42.3526 18.2017 41.3075 18.2017C41.122 18.2017 40.7606 18.1827 40.6141 18.1637V19.9429C40.7508 19.981 41.3368 20 41.5126 20Z" fill="#6B6B6B"/>
</g>
<defs>
<clipPath id="clip0_11_216">
<rect width="50" height="20" fill="white"/>
</clipPath>
</defs>
</svg>
