<svg width="43" height="13" viewBox="0 0 43 13" fill="none" xmlns="http://www.w3.org/2000/svg">
<g id="Layer_1" clip-path="url(#clip0_14_460)">
<path id="Vector" d="M37.7894 3.35645C37.0053 2.65511 36.2718 2.42967 35.4876 2.42967C34.7035 2.42967 33.7424 2.7052 33.7424 3.68208C33.7424 4.50867 34.4759 4.7842 35.6647 5.15992C37.3594 5.71098 39.5347 6.41233 39.5347 8.86705C39.5347 11.7225 37.2329 13 34.7541 13C32.9835 13 31.1624 12.3487 30.0747 11.2216L31.9212 9.34297C32.6547 10.1195 33.7676 10.5453 34.7541 10.5453C35.6647 10.5453 36.4741 10.1946 36.4741 9.19268C36.4741 8.19075 35.5129 7.94027 33.8688 7.41426C32.2753 6.91329 30.6818 6.11175 30.6818 3.88247C30.6818 1.12717 33.1859 0 35.5129 0C36.9294 0 38.5229 0.526012 39.6106 1.52794L37.7894 3.35645ZM8.27118 7.81503H5.10941L6.70294 3.55684L8.27118 7.81503ZM13.4059 12.6243L8.29647 0.27553H5.28647L0 12.6243H3.33882L4.24941 10.1946H9.08059L10.0418 12.6243H13.4059ZM24.1306 0.27553H20.7918L17.9082 9.19268L14.9488 0.27553H11.5594L16.2894 12.6493H19.2994L24.1306 0.27553ZM25.3447 12.6243H28.38V0.27553H25.3447V12.6243ZM40.8753 1.32755C40.8753 1.90366 41.3559 2.37958 41.9376 2.37958C42.5194 2.37958 43 1.92871 43 1.32755C43 0.726397 42.5194 0.27553 41.9376 0.27553C41.3559 0.27553 40.8753 0.726397 40.8753 1.32755ZM41.0524 1.32755C41.0524 0.82659 41.4571 0.425819 41.9376 0.425819C42.4435 0.425819 42.8482 0.82659 42.8482 1.32755C42.8482 1.82852 42.4435 2.22929 41.9376 2.22929C41.4571 2.20424 41.0524 1.80347 41.0524 1.32755ZM41.5329 1.90366H41.7606V1.4027H41.9124L42.1906 1.90366H42.4435L42.1147 1.37765C42.2918 1.3526 42.3929 1.22736 42.3929 1.05202C42.3929 0.801541 42.1653 0.701349 41.9376 0.701349H41.5329V1.90366ZM41.7353 1.22736V0.901734H41.9376C42.0388 0.901734 42.1653 0.926782 42.1653 1.05202C42.1653 1.20231 42.0135 1.22736 41.8871 1.22736H41.7353Z" fill="white"/>
</g>
<defs>
<clipPath id="clip0_14_460">
<rect width="43" height="13" fill="white"/>
</clipPath>
</defs>
</svg>
