<svg width="74" height="24" viewBox="0 0 74 24" fill="none" xmlns="http://www.w3.org/2000/svg">
<g id="Calque_1" clip-path="url(#clip0_14_470)">
<path id="Vector" d="M47.9507 5.08146C46.9205 5.13298 46.0434 4.34934 45.9914 3.32708C45.9887 3.26472 45.9887 3.19964 45.9914 3.13727C45.9887 2.61665 46.1827 2.11502 46.5379 1.73269C46.8959 1.32595 47.4096 1.09276 47.9534 1.08462C48.5026 1.07107 49.0273 1.30968 49.3743 1.73269C49.8197 2.05807 50.0657 2.58954 50.0274 3.13727C50.0192 3.67687 49.7842 4.18665 49.3743 4.54186C48.9836 4.89165 48.4753 5.08417 47.9507 5.08146ZM47.9507 0C47.1391 0.00542312 46.3576 0.311829 45.7646 0.862275C45.1635 1.46424 44.8438 2.28856 44.8875 3.13456C44.8602 3.94803 45.1799 4.73438 45.7646 5.30381C46.3576 5.85697 47.1391 6.16608 47.9507 6.17422C49.653 6.17151 51.0494 4.83471 51.1122 3.14541C51.1122 2.28584 50.7597 1.46424 50.134 0.873122C49.5519 0.306406 48.7677 -0.00813467 47.9507 0.00271156V0ZM37.9277 1.84115H38.037C37.9578 2.09603 37.8047 2.32109 37.5943 2.48921C37.3949 2.60852 37.1735 2.68444 36.9412 2.70613H35.0858V1.0792H36.9358C37.1762 1.04937 37.4167 1.13072 37.5889 1.29612C37.7965 1.39645 37.9277 1.60795 37.9222 1.83844H37.9277V1.84115ZM36.9412 0.108462H34.0065V6.06033H35.0995V3.67958H35.9685L37.7091 6.06033H38.9114L37.2719 3.57112C37.7282 3.55214 38.16 3.35691 38.4742 3.02881C38.7748 2.70614 38.9305 2.27771 38.9087 1.84115H39.018C38.9087 1.41001 38.7994 0.978872 38.3649 0.648062C37.966 0.311829 37.4659 0.12202 36.944 0.105751H36.9412V0.108462ZM21.3658 0.108462L18.5266 6.06033H19.729L20.2755 4.97571H22.8932L23.4398 6.06033H24.6366L21.9041 0.108462H21.3658ZM21.5844 2.05807L22.4533 4.00226H20.7127L21.5844 2.05807ZM27.7982 1.08733H29.6481C29.8886 1.06022 30.129 1.13885 30.3066 1.30426C30.446 1.45068 30.5225 1.64592 30.5252 1.84657H30.6345C30.5936 2.09061 30.4815 2.31567 30.3094 2.49463C30.1072 2.61394 29.8831 2.68715 29.6508 2.71156H27.8009V1.08462L27.7982 1.08733ZM27.7982 3.67687H28.6671L30.3066 6.05762H31.6128L29.9733 3.56841C30.4296 3.54943 30.8613 3.35691 31.1756 3.0261C31.4762 2.70342 31.6319 2.275 31.6101 1.83844H31.7194C31.6101 1.39103 31.386 0.978872 31.0663 0.645351C30.6673 0.309118 30.1673 0.119309 29.6454 0.103039H26.5958V6.05491H27.7927V3.67416H27.7982V3.67687ZM41.5319 0.108462H42.6249V6.06033H41.5319V0.108462ZM52.6424 0.108462V1.19309H54.3885V6.05762H55.4816V1.1958H57.337V0.111174H52.6424V0.108462ZM59.0748 0.108462V1.19309H60.8209V6.05762H62.0178V1.1958H63.7584V0.111174H59.0748V0.108462ZM11.3401 2.05807V6.05762H10.247V0.111174H11.4494L13.2993 3.36504L15.1547 0.111174H16.4608V6.06304H15.264V2.06078L13.7338 4.97571H12.8648L11.3401 2.05807ZM56.6729 16.3398C56.0062 16.348 55.3695 16.0714 54.9268 15.5779C54.4924 15.1495 54.2546 14.5584 54.2738 13.951C54.1891 12.7226 55.1236 11.6597 56.3614 11.5756C56.4653 11.5675 56.5691 11.5675 56.6729 11.5756C57.285 11.5567 57.8807 11.7926 58.3125 12.2237C58.8207 12.6521 59.1022 13.2893 59.0748 13.951C58.9628 15.22 57.9518 16.226 56.6729 16.3398ZM56.6729 9.74263C54.3776 9.86465 52.5413 11.6814 52.4156 13.9591C52.4293 15.0708 52.9048 16.1256 53.7273 16.8794C54.506 17.655 55.569 18.0807 56.6729 18.0563C58.9355 18.078 60.7909 16.2775 60.8127 14.0296C60.8127 14.0025 60.8127 13.9754 60.8127 13.9483C60.7882 11.6705 58.9655 9.81584 56.6729 9.73178V9.74263ZM34.8754 17.636L28.0086 10.0653H27.0303V21.9609H29.0961V14.2709L35.8537 21.9501H36.9467V10.0545H34.8809L34.8754 17.636ZM18.308 20.1089C16.0072 20.0981 14.1272 18.2867 14.0453 16.0063C14.0316 14.8593 14.5098 13.7584 15.3569 12.9775C16.1302 12.1993 17.1932 11.7682 18.2944 11.7899C19.3901 11.8088 20.4394 12.2318 21.2373 12.9775C22.0079 13.7991 22.4369 14.8837 22.4342 16.0063C22.4533 18.2515 20.6334 20.0899 18.3709 20.1089C18.349 20.1089 18.3299 20.1089 18.308 20.1089ZM18.308 9.73178C17.4801 9.74534 16.6658 9.92973 15.9143 10.2741C15.1492 10.5778 14.4442 11.0198 13.8403 11.5756C13.2829 12.1342 12.8402 12.7958 12.5342 13.5198C12.2227 14.3116 12.0751 15.1576 12.0997 16.009C12.056 17.6251 12.6845 19.187 13.8403 20.3258C14.4442 20.8844 15.1465 21.3264 15.9143 21.6274C16.6603 21.9826 17.4801 22.1697 18.308 22.1697C19.136 22.1561 19.9558 21.9718 20.7072 21.6274C22.1937 21.0227 23.3769 19.8486 23.9863 18.3735C24.3224 17.6251 24.5082 16.8171 24.5328 15.9982C24.5191 15.1413 24.3333 14.2953 23.9863 13.509C23.6802 12.785 23.2375 12.1234 22.6801 11.5648C22.1145 11.0116 21.4477 10.5697 20.7154 10.2632C19.964 9.91888 19.1442 9.73449 18.3162 9.72093L18.308 9.73178ZM44.8984 17.9505L41.4117 10.0572H39.1273L44.3546 21.9528H45.3411L50.6777 10.0572H48.3851L44.8984 17.9505ZM5.9952 20.1198H2.07127V16.6544H5.9952C6.48706 16.6517 6.95979 16.8469 7.30135 17.1967C7.70031 17.4624 7.94624 17.9071 7.9599 18.3844C7.97356 18.8996 7.72763 19.3849 7.30135 19.6805C6.94339 19.9977 6.47066 20.1523 5.9952 20.1116V20.1198ZM2.07127 11.8007H5.66729C6.10723 11.779 6.53898 11.9336 6.86415 12.2318C7.19205 12.5003 7.39153 12.8935 7.41066 13.3165C7.41612 13.7449 7.21118 14.1489 6.86415 14.4011C6.55264 14.7292 6.1209 14.9244 5.66729 14.9434H2.07127V11.7899V11.8007ZM8.50367 15.6945L8.39437 15.5806L8.50367 15.4722C8.79332 15.2037 9.01739 14.8702 9.15675 14.5014C9.33437 14.1326 9.40815 13.7205 9.37536 13.3137C9.40815 12.4271 8.99826 11.5784 8.28234 11.0469C7.56095 10.4097 6.62915 10.0626 5.66456 10.068H0V21.9636H5.99793C7.01171 21.9501 7.98722 21.565 8.73048 20.879C9.52018 20.2987 9.97105 19.3659 9.92733 18.3898C9.93553 17.9017 9.82349 17.419 9.60216 16.9852C9.38355 16.4429 8.94908 16.1229 8.50914 15.6891L8.50367 15.6945ZM71.5981 10.068L68.1168 14.9326L64.6301 10.068H62.2309L67.0238 16.7737V21.9609H69.0978V16.7601L74 10.0545L71.5981 10.068Z" fill="white"/>
<path id="Vector_2" d="M51.4401 22.2727H62.0123V24H51.4401V22.2727H51.5494H51.4401Z" fill="white"/>
</g>
<defs>
<clipPath id="clip0_14_470">
<rect width="74" height="24" fill="white"/>
</clipPath>
</defs>
</svg>
