<svg width="48" height="13" viewBox="0 0 48 13" fill="none" xmlns="http://www.w3.org/2000/svg">
<g id="Layer_1" clip-path="url(#clip0_20_764)">
<path id="Vector" d="M19.0329 3.089C17.1138 3.089 15.7592 4.63896 15.7592 6.49454C15.7592 8.35013 17.1138 9.90008 19.0329 9.90008C20.952 9.90008 22.3067 8.35013 22.3067 6.49454C22.318 4.63896 20.952 3.089 19.0329 3.089ZM19.0329 12.9891C15.3528 12.9891 12.3161 10.2057 12.3161 6.49454C12.3161 2.78338 15.3528 0 19.0329 0C22.7131 0 25.7498 2.78338 25.7498 6.49454C25.7498 10.2057 22.7131 12.9891 19.0329 12.9891ZM33.2794 9.1251C33.2794 9.58354 32.8053 9.97649 32.0038 9.97649C30.2427 9.97649 29.1251 8.81948 29.1251 8.81948L27.206 11.2972C27.206 11.2972 28.809 13 32.0038 13C34.5663 13 36.8015 11.45 36.8015 9.13602C36.8015 5.42485 30.7168 5.10831 30.7168 3.8749C30.7168 3.41646 31.3603 3.02351 32.3198 3.02351C33.5955 3.02351 34.318 3.64568 34.318 3.64568L36.158 1.24433C36.158 1.24433 34.555 0.0109152 32.0038 0.0109152C29.5992 0.0109152 27.5221 1.71369 27.5221 3.8749C27.5108 7.57515 33.2794 7.72796 33.2794 9.1251ZM8.79398 5.87238C9.35842 5.1738 9.59548 4.48615 9.59548 3.71117C9.59548 1.82284 8.01505 0.305626 6.07338 0.305626H0V12.6835H6.63782C8.80527 12.6835 10.555 10.9807 10.555 8.89589C10.555 7.59698 9.91157 6.49454 8.79398 5.87238ZM3.27375 3.01259H5.27187C5.89276 3.01259 6.38946 3.49286 6.38946 4.0932C6.38946 4.69353 5.89276 5.1738 5.27187 5.1738H3.27375V3.01259ZM5.91533 9.90008H3.27375V7.57515H5.91533C6.58137 7.57515 7.11195 8.09908 7.11195 8.73216C7.11195 9.36524 6.58137 9.90008 5.91533 9.90008ZM44.4779 9.1251C44.4779 9.58354 44.0038 9.97649 43.2023 9.97649C41.4412 9.97649 40.3236 8.81948 40.3236 8.81948L38.4045 11.2972C38.4045 11.2972 40.0075 13 43.2023 13C45.7648 13 48 11.45 48 9.13602C48 5.42485 41.9153 5.10831 41.9153 3.8749C41.9153 3.41646 42.5588 3.02351 43.5183 3.02351C44.794 3.02351 45.5165 3.64568 45.5165 3.64568L47.3565 1.24433C47.3565 1.24433 45.7535 0.0109152 43.2023 0.0109152C40.7977 0.0109152 38.7206 1.71369 38.7206 3.8749C38.7093 7.57515 44.4779 7.72796 44.4779 9.1251Z" fill="#515151"/>
</g>
<defs>
<clipPath id="clip0_20_764">
<rect width="48" height="13" fill="white"/>
</clipPath>
</defs>
</svg>
