<svg width="33" height="36" viewBox="0 0 33 36" fill="none" xmlns="http://www.w3.org/2000/svg">
<g id="Layer_1" clip-path="url(#clip0_14_466)">
<path id="Vector" d="M30.4937 34.0331C27.7524 35.56 23.0269 36 16.5 36C9.9731 36 5.24763 35.56 2.50633 34.0331C0.861551 33.1014 0.0261076 31.8591 0.0261076 30.9533C0.0261076 30.4357 0.313291 30.151 0.913766 30.151H32.1123C32.7389 30.151 33 30.4357 33 30.9533C32.9739 31.8591 32.1385 33.1014 30.4937 34.0331ZM32.0862 10.1452H0.887658C0.287184 10.1452 0 9.83465 0 9.26528C0 5.92667 5.09098 0 16.4739 0C27.8568 0 32.9478 5.92667 32.9478 9.26528C32.9739 9.83465 32.6867 10.1452 32.0862 10.1452Z" fill="white"/>
<path id="Vector_2" fill-rule="evenodd" clip-rule="evenodd" d="M22.557 15.7613C22.557 17.2882 21.5127 18.3494 19.8418 18.3494C18.2753 18.3494 16.6566 17.2624 16.6566 14.8813C16.6566 12.5003 18.2492 11.3357 19.894 11.3357C20.8339 11.3357 21.4604 11.5686 21.9043 11.9051C22.1392 12.0862 22.2959 12.3709 22.2959 12.7332C22.2959 13.225 21.9043 13.665 21.356 13.665C21.1472 13.665 20.9905 13.5873 20.8339 13.5097C20.6511 13.4061 20.4422 13.3026 20.0506 13.3026C19.4763 13.3026 18.7453 13.7167 18.7453 14.8813C18.7453 15.9166 19.2935 16.4859 20.0767 16.4859C20.3378 16.4859 20.5467 16.3565 20.5467 16.1754C20.5467 16.0201 20.4161 15.9683 20.2073 15.9683C19.8157 15.9683 19.2935 15.6836 19.2935 15.0884C19.2935 14.4414 19.7896 14.1308 20.4161 14.1308H20.7555C21.9565 14.1049 22.557 14.7778 22.557 15.7613ZM6.5269 23.6808C6.5269 23.7325 6.5269 23.8102 6.63133 23.9655C6.89241 24.3537 7.5712 25.1818 8.17168 25.8289C8.64161 26.3206 8.87658 26.7606 8.87658 27.3041C8.87658 28.2099 8.04114 29.0639 7.07516 29.0639C6.50079 29.0639 5.95253 28.7534 5.5087 28.2875C4.85601 27.5629 4.15111 26.3465 3.89003 25.7512C3.89003 25.7512 3.89003 25.7253 3.86392 25.6995C3.83782 25.6218 3.7856 25.4924 3.62896 25.4924C3.49842 25.4924 3.4462 25.5959 3.4462 25.6995V27.1747C3.4462 28.2099 2.81962 29.0381 1.7231 29.0381C0.626582 29.0381 0 28.2099 0 27.1747V20.7821C0 19.7469 0.600475 18.9187 1.7231 18.9187C2.84573 18.9187 3.4462 19.7469 3.4462 20.7821V21.8174C3.4462 21.9468 3.49842 22.0244 3.62896 22.0244C3.70728 22.0244 3.75949 21.9985 3.86392 21.9209C4.25554 21.5586 4.82991 20.6269 5.32595 19.8246C5.69146 19.2293 6.23972 18.8928 6.84019 18.8928C7.75396 18.8928 8.5894 19.6175 8.5894 20.5233C8.5894 20.8857 8.45886 21.2997 8.14557 21.7915C7.75396 22.4126 7.02294 23.0855 6.70965 23.3702C6.60522 23.4996 6.5269 23.5772 6.5269 23.6808ZM1.22706 18.2717H2.71519C4.125 18.2717 4.98655 17.34 4.98655 16.1754C4.98655 15.2696 4.4644 14.8296 4.30775 14.7261C4.25554 14.6743 4.20332 14.6484 4.20332 14.5967C4.20332 14.5449 4.22943 14.5449 4.25554 14.4931L4.28165 14.4673C4.49051 14.2343 4.67326 13.872 4.67326 13.3285C4.67326 12.0604 3.81171 11.4133 2.48022 11.4133H1.22706C0.391614 11.3875 0 11.8533 0 12.5262V17.133C0 17.78 0.391614 18.2717 1.22706 18.2717ZM1.85364 13.1732C1.85364 13.0438 1.93196 12.9403 2.11472 12.9403H2.24525C2.68908 12.9403 2.84573 13.2509 2.84573 13.5355C2.84573 13.7944 2.71519 14.1308 2.24525 14.1308H2.11472C1.93196 14.1308 1.85364 14.0273 1.85364 13.8979V13.1732ZM1.85364 15.6319C1.85364 15.5025 1.93196 15.399 2.11472 15.399H2.29747C2.79351 15.399 2.95016 15.7354 2.95016 16.046C2.95016 16.3307 2.79351 16.693 2.29747 16.693H2.11472C1.93196 16.693 1.85364 16.5895 1.85364 16.4601V15.6319ZM29.9193 17.1847C29.9193 17.8059 29.5538 18.3235 28.875 18.3235C28.1962 18.3235 27.8307 17.8317 27.8307 17.1847V12.5262C27.8307 11.8792 28.2223 11.3875 29.0578 11.3875H30.2587C31.5902 11.3875 32.7128 12.138 32.7128 13.4838C32.7128 14.3637 32.3212 14.9072 32.0079 15.166C31.9035 15.2437 31.9035 15.3213 31.9296 15.399C32.0601 15.7613 32.2951 16.046 32.6606 16.5118C32.8434 16.7448 33 17.0036 33 17.3659C33 17.9094 32.5301 18.3235 31.9818 18.3235C31.6424 18.3235 31.303 18.1682 30.9375 17.7023C30.6503 17.34 30.3892 16.6153 30.3109 16.0719C30.2848 15.9425 30.2587 15.8648 30.1282 15.8648C30.0237 15.8648 29.9715 15.9166 29.9715 16.0719V17.1847H29.9193ZM30.0498 13.1215C29.8671 13.1215 29.7888 13.225 29.7888 13.3544V14.079C29.7888 14.2084 29.8671 14.312 30.0498 14.312H30.2065C30.6503 14.312 30.7809 13.9755 30.7809 13.7167C30.7809 13.432 30.6503 13.1215 30.2065 13.1215H30.0498ZM11.4612 18.9187C10.2864 18.9187 9.6337 19.7987 9.6337 20.8857V27.097C9.6337 28.184 10.2864 29.0639 11.4612 29.0639C12.6361 29.0639 13.2888 28.184 13.2888 27.097V20.8857C13.2888 19.7987 12.6622 18.9187 11.4612 18.9187ZM29.7627 22.9561H30.2848C32.0601 22.9561 32.9739 23.9396 32.9739 25.3371C32.9739 27.5629 31.4074 29.0639 28.9011 29.0639C26.5253 29.0639 24.1234 27.4593 24.1234 24.0431C24.1234 20.6269 26.5253 18.9187 28.9794 18.9187C30.3631 18.9187 31.3291 19.2552 31.9818 19.7469C32.3473 20.0316 32.5823 20.4198 32.5823 20.9374C32.5823 21.6362 32.0079 22.3091 31.1725 22.3091C30.8331 22.3091 30.6242 22.2056 30.3892 22.0762C30.1021 21.9468 29.7888 21.7915 29.2144 21.7915C28.3528 21.7915 27.2563 22.3867 27.2563 24.069C27.2563 25.5701 28.0657 26.3724 29.2666 26.3724C29.6321 26.3724 29.9715 26.1912 29.9715 25.9324C29.9715 25.7253 29.7627 25.6218 29.4755 25.6218C28.9011 25.6218 28.1179 25.2077 28.1179 24.3537C28.1179 23.3961 28.8228 22.9561 29.7627 22.9561ZM26.2903 18.2717C26.8908 18.2717 27.3608 17.9353 27.3608 17.2882C27.3608 16.6412 26.8908 16.3307 26.2903 16.3307H25.3244C25.1416 16.3307 25.0633 16.2271 25.0633 16.0977V15.8907C25.0633 15.7613 25.1416 15.6578 25.3244 15.6578H26.0554C26.5514 15.6578 26.9691 15.3472 26.9691 14.8296C26.9691 14.2861 26.5775 14.0014 26.0554 14.0014H25.3244C25.1416 14.0014 25.0633 13.8979 25.0633 13.7685V13.6132C25.0633 13.4838 25.1416 13.3803 25.3244 13.3803H26.2642C26.8647 13.3803 27.3347 13.0438 27.3347 12.3968C27.3347 11.7498 26.8647 11.4392 26.2642 11.4392H24.2801C23.4446 11.4392 23.053 11.9309 23.053 12.578V17.1847C23.053 17.8317 23.4446 18.3235 24.2801 18.3235L26.2903 18.2717ZM10.7302 16.0201C10.7302 17.2882 9.81646 18.3235 8.09335 18.3235C6.37025 18.3235 5.48259 17.3141 5.48259 16.0201V12.5003C5.48259 11.8792 5.8481 11.3616 6.5269 11.3616C7.2057 11.3616 7.59731 11.8533 7.59731 12.5003V15.9166C7.59731 16.1754 7.72785 16.4601 8.09335 16.4601C8.48497 16.4601 8.61551 16.1754 8.61551 15.9166V12.5003C8.61551 11.8792 8.98101 11.3616 9.65981 11.3616C10.3386 11.3616 10.7041 11.8533 10.7041 12.5003V16.0201H10.7302ZM15.534 18.3235C16.0823 18.3235 16.5522 17.8835 16.5522 17.3659C16.5522 17.0036 16.3956 16.7448 16.2128 16.5118L16.1606 16.4342C15.8734 16.0719 15.6123 15.7354 15.4818 15.399C15.4557 15.3213 15.4818 15.2437 15.5601 15.166C15.8995 14.9072 16.265 14.3637 16.265 13.4838C16.265 12.1639 15.1424 11.3875 13.8109 11.3875H12.61C11.7745 11.3875 11.3829 11.8792 11.3829 12.5262V17.1847C11.3829 17.8059 11.7484 18.3235 12.4272 18.3235C13.106 18.3235 13.4715 17.8317 13.4715 17.1847V16.0719C13.4715 15.9425 13.5237 15.8648 13.6282 15.8648C13.7587 15.8648 13.7848 15.9425 13.8109 16.0719C13.9153 16.6153 14.1503 17.34 14.4375 17.7023C14.8552 18.1682 15.1946 18.3235 15.534 18.3235ZM13.7848 14.312H13.6282C13.4454 14.312 13.3671 14.2084 13.3671 14.079V13.3803C13.3671 13.2509 13.4454 13.1473 13.6282 13.1473H13.7848C14.2286 13.1473 14.3592 13.4579 14.3592 13.7426C14.3853 13.9755 14.2286 14.312 13.7848 14.312ZM19.9201 20.7563C19.9201 19.7469 20.5206 18.9446 21.591 18.9446C22.6614 18.9446 23.2619 19.7469 23.2619 20.7563V27.2264C23.2619 28.2616 22.6353 29.0898 21.5388 29.0898C20.8861 29.0898 20.2856 28.831 19.7373 27.7699L18.2753 24.9489C18.197 24.7936 18.1448 24.7419 18.0403 24.7419C17.9359 24.7419 17.8576 24.8195 17.8576 25.0266V27.2782C17.8576 28.2875 17.2571 29.0898 16.1867 29.0898C15.1163 29.0898 14.5158 28.2875 14.5158 27.2782V20.808C14.5158 19.7728 15.1424 18.9446 16.2389 18.9446C16.9177 18.9446 17.4921 19.2034 18.0403 20.2645L19.5024 23.0855C19.5807 23.2408 19.6329 23.2926 19.7373 23.2926C19.8418 23.2926 19.9201 23.2149 19.9201 23.0079V20.7563Z" fill="white"/>
</g>
<defs>
<clipPath id="clip0_14_466">
<rect width="33" height="36" fill="white"/>
</clipPath>
</defs>
</svg>
