<svg width="66" height="13" viewBox="0 0 66 13" fill="none" xmlns="http://www.w3.org/2000/svg">
<g id="Layer_1" clip-path="url(#clip0_14_444)">
<g id="logo">
<path id="Fill-11" fill-rule="evenodd" clip-rule="evenodd" d="M19.2583 12.8185V11.6307C18.5811 12.4886 17.4745 12.934 16.0706 12.934C13.9565 12.934 12.6351 11.6307 12.6351 9.88199C12.6351 8.13326 13.973 6.94544 16.3679 6.92894H19.2417V6.66499C19.2417 5.52666 18.482 4.85026 17.012 4.85026C16.0871 4.85026 15.0961 5.16372 14.0886 5.77412L13.2297 4.12438C14.6501 3.3325 15.7568 2.90356 17.5571 2.90356C20.1336 2.90356 21.5871 4.20686 21.6036 6.40103L21.6201 12.835H19.2583V12.8185ZM19.2417 9.40356V8.74367H16.7643C15.4925 8.74367 14.8979 8.99113 14.8979 9.73351C14.8979 10.5584 15.5586 11.0863 16.6486 11.0863C18.0195 11.0863 19.1096 10.3604 19.2417 9.40356Z" fill="white"/>
<path id="Fill-12" fill-rule="evenodd" clip-rule="evenodd" d="M28.937 2.88708V5.19673C26.8559 5.06475 25.5841 6.28556 25.5841 8.06729V12.8186H23.1892V2.98607H25.5841V4.88328C26.2448 3.59648 27.4009 2.92008 28.937 2.88708Z" fill="white"/>
<path id="Fill-13" fill-rule="evenodd" clip-rule="evenodd" d="M34.3378 2.92004C31.3979 2.92004 29.3333 4.94923 29.3333 7.93527C29.3333 10.9213 31.3318 12.9175 34.3874 12.9175C36.1216 12.9175 37.5585 12.2906 38.533 11.2183L37.2447 9.88197C36.551 10.5914 35.6096 10.9873 34.6021 10.9873C33.1651 10.9873 32.0916 10.1459 31.7943 8.74365H39.0615C39.2928 5.1802 37.8063 2.92004 34.3378 2.92004ZM34.3709 4.76776C35.7913 4.76776 36.7327 5.59263 36.8814 6.91243H31.7943C32.0585 5.59263 33.0165 4.76776 34.3709 4.76776Z" fill="white"/>
<path id="Fill-14" fill-rule="evenodd" clip-rule="evenodd" d="M45.2388 2.92004C42.2988 2.92004 40.2343 4.94923 40.2343 7.93527C40.2343 10.9213 42.2328 12.9175 45.2883 12.9175C47.0225 12.9175 48.4595 12.2906 49.4339 11.2183L48.1457 9.88197C47.452 10.5914 46.5105 10.9873 45.503 10.9873C44.0661 10.9873 42.9925 10.1459 42.6952 8.74365H49.9625C50.1937 5.1802 48.7072 2.92004 45.2388 2.92004ZM45.2553 4.76776C46.6757 4.76776 47.6171 5.59263 47.7658 6.91243H42.6787C42.9595 5.59263 43.9174 4.76776 45.2553 4.76776Z" fill="white"/>
<path id="Fill-15" fill-rule="evenodd" clip-rule="evenodd" d="M66 6.73092V12.868H63.5886V7.42382C63.5886 6.02153 62.8619 5.18016 61.9369 5.18016C60.5661 5.18016 59.8558 6.41747 59.8558 8.01772V12.868H57.4444V7.42382C57.4444 6.02153 56.6351 5.18016 55.6607 5.18016C54.0751 5.18016 53.6952 6.41747 53.6952 8.01772V12.868H51.3003V3.03549H53.6952V4.61925C54.3228 3.57991 55.2643 2.9695 56.503 2.953C58.039 2.953 59.0961 3.97585 59.3934 4.9162C60.3348 3.43143 61.2763 2.953 62.7793 2.953C64.7778 2.953 66 4.40478 66 6.73092Z" fill="white"/>
<path id="Fill-16" fill-rule="evenodd" clip-rule="evenodd" d="M6.60661 13C2.97297 13 0 10.0469 0 6.401H2.51051C2.51051 8.64466 4.34384 10.4759 6.59009 10.4759C7.31682 10.4759 8.01051 10.2944 8.63814 9.93146C9.05105 9.70049 9.41442 9.38704 9.72823 9.0241L11.6441 10.6408C11.1486 11.2348 10.5706 11.7132 9.89339 12.1091C8.9024 12.6865 7.76276 13 6.60661 13Z" fill="white"/>
<path id="Fill-17" fill-rule="evenodd" clip-rule="evenodd" d="M9.72824 3.77792C9.16668 3.11802 8.40692 2.63959 7.56458 2.44162L8.15917 0C9.51352 0.329949 10.7523 1.08883 11.6442 2.16117L9.72824 3.77792Z" fill="white"/>
<path id="Fill-18" fill-rule="evenodd" clip-rule="evenodd" d="M5.18618 2.34261C5.18618 3.38195 4.34383 4.22332 3.30329 4.22332C2.26275 4.22332 1.42041 3.38195 1.42041 2.34261C1.42041 1.30327 2.26275 0.478394 3.30329 0.478394C4.34383 0.478394 5.18618 1.30327 5.18618 2.34261Z" fill="white"/>
</g>
</g>
<defs>
<clipPath id="clip0_14_444">
<rect width="66" height="13" fill="white"/>
</clipPath>
</defs>
</svg>
