<svg width="27" height="27" viewBox="0 0 27 27" fill="none" xmlns="http://www.w3.org/2000/svg">
<g id="Mode_Isolation" clip-path="url(#clip0_14_463)">
<path id="Vector" d="M16.6203 9.32737L17.488 6.40581L18.3772 9.32737H16.6203ZM20.9496 11.8791L18.6706 4.98429C18.6203 4.83208 18.5618 4.73221 18.497 4.68538C18.4323 4.63924 18.3269 4.61444 18.183 4.61444H16.924C16.7794 4.61444 16.6719 4.64061 16.603 4.69089C16.5349 4.74048 16.4784 4.83897 16.4357 4.9836L14.1353 11.8784C14.1057 11.9149 14.0913 11.9858 14.0913 12.0947C14.0913 12.2613 14.1932 12.344 14.395 12.344H15.3385C15.426 12.344 15.4963 12.3405 15.55 12.3336C15.6044 12.3261 15.6478 12.3075 15.6802 12.2792C15.7125 12.251 15.7414 12.2069 15.7669 12.1498C15.7924 12.0905 15.8193 12.0148 15.8489 11.9218L16.207 10.7158H18.8001L19.1685 11.8998C19.1981 12.001 19.2264 12.0809 19.2553 12.1387C19.2842 12.1959 19.3166 12.2414 19.3531 12.2744C19.3896 12.3061 19.4323 12.3268 19.4833 12.3343C19.5329 12.3412 19.5983 12.3447 19.6789 12.3447H20.6872C20.889 12.3447 20.9909 12.262 20.9909 12.0953C20.9909 12.0451 20.9888 12.0106 20.9861 11.9927C20.9819 11.9741 20.9695 11.9363 20.9482 11.8791M19.8311 14.654H19.1038C18.9158 14.654 18.7911 14.6815 18.7298 14.7359C18.6685 14.7903 18.6382 14.9012 18.6382 15.0665V19.1589L16.4894 15.0555C16.4026 14.8819 16.3179 14.7717 16.2346 14.7249C16.1512 14.6781 16.0045 14.654 15.7952 14.654H15.1223C14.9343 14.654 14.8089 14.6815 14.7476 14.7359C14.687 14.7903 14.656 14.9012 14.656 15.0665V21.9709C14.656 22.1383 14.6849 22.2478 14.7428 22.3029C14.8007 22.3566 14.9239 22.3835 15.1113 22.3835H15.8496C16.0376 22.3835 16.1623 22.3566 16.2236 22.3029C16.2849 22.2485 16.3152 22.139 16.3152 21.9709V17.8675L18.464 21.982C18.5507 22.1562 18.6355 22.2664 18.7188 22.3126C18.8021 22.3608 18.9488 22.3835 19.1582 22.3835H19.8311C20.0191 22.3835 20.1438 22.3566 20.2051 22.3029C20.2664 22.2485 20.2973 22.139 20.2973 21.9709V15.0665C20.2973 14.9005 20.2664 14.7903 20.2051 14.7359C20.1438 14.6822 20.0191 14.654 19.8311 14.654ZM23.4345 14.001L25.3078 15.8737V25.3078H1.6915V15.873L3.56207 14.001C3.83894 13.7242 3.83894 13.2751 3.56207 12.999L1.6915 11.127V1.69219H25.3078V11.1263L23.4345 12.999C23.1576 13.2758 23.1576 13.7249 23.4345 14.0017M27 0H0V11.9404L1.55996 13.5003L0 15.0603V27H27V15.0603L25.44 13.5003L27 11.9404V0ZM12.0037 20.7767H8.95408L12.1649 16.2614C12.2152 16.1891 12.2482 16.1313 12.2634 16.0872C12.2779 16.0445 12.2847 15.9935 12.2847 15.9357V15.0665C12.2847 14.9005 12.2544 14.7903 12.1931 14.7359C12.1312 14.6822 12.0051 14.654 11.8171 14.654H7.18062C7.01326 14.654 6.90445 14.6849 6.85417 14.7456C6.80252 14.8075 6.77772 14.9356 6.77772 15.1319V15.7828C6.77772 15.9784 6.8032 16.1072 6.85417 16.1685C6.90445 16.2298 7.01326 16.2607 7.18062 16.2607H10.0423L6.87483 20.776C6.79494 20.8779 6.7543 20.9799 6.7543 21.0797V21.9703C6.7543 22.1376 6.7853 22.2471 6.84797 22.3022C6.90858 22.3559 7.03393 22.3828 7.22332 22.3828H12.0037C12.1711 22.3828 12.2799 22.3525 12.3316 22.2912C12.3819 22.2299 12.4073 22.1018 12.4073 21.9055V21.254C12.4073 21.0584 12.3819 20.931 12.3316 20.869C12.2799 20.807 12.1718 20.7753 12.0037 20.7753M10.5843 9.26194C10.5843 9.55947 10.565 9.80741 10.5244 10.0065C10.4851 10.2048 10.4197 10.3667 10.3288 10.4899C10.2386 10.6118 10.1201 10.6986 9.97064 10.7503C9.82257 10.8006 9.64005 10.826 9.42311 10.826H8.53328V6.13583H9.42311C9.83496 6.13583 10.1311 6.25774 10.3122 6.49948C10.4934 6.74191 10.5836 7.14274 10.5836 7.69992V9.26263L10.5843 9.26194ZM12.136 6.12481C11.8825 5.61034 11.5375 5.23085 11.1001 4.98498C10.6614 4.73841 10.1111 4.61513 9.44514 4.61513H7.22195C7.03324 4.61513 6.90858 4.64268 6.84728 4.69709C6.78599 4.7515 6.75499 4.86238 6.75499 5.02768V11.9328C6.75499 12.0995 6.78599 12.209 6.84728 12.2634C6.90858 12.3171 7.03324 12.344 7.22195 12.344H9.7165C10.8963 12.344 11.7028 11.8412 12.136 10.835C12.2372 10.6036 12.3075 10.3701 12.3474 10.1346C12.3881 9.8997 12.4073 9.6008 12.4073 9.23991V7.7743C12.4073 7.36176 12.3881 7.03599 12.3474 6.79701C12.3082 6.55802 12.2372 6.33418 12.136 6.12412" fill="white"/>
</g>
<defs>
<clipPath id="clip0_14_463">
<rect width="27" height="27" fill="white"/>
</clipPath>
</defs>
</svg>
