<svg width="98" height="26" viewBox="0 0 98 26" fill="none" xmlns="http://www.w3.org/2000/svg">
<g id="Calque_1" clip-path="url(#clip0_19_693)">
<path id="Vector" d="M9.41995 12.8467C9.43951 12.8425 9.45255 12.823 9.44836 12.8035L7.39111 3.28766C7.38086 3.24173 7.4102 3.19673 7.45585 3.18652C7.45585 3.18652 7.45631 3.18652 7.45678 3.18652L13.752 1.88046C13.8633 1.85727 13.9308 1.90088 13.9546 2.0113L15.9811 11.3467C15.9825 11.3537 15.989 11.3578 15.996 11.3564C16.0006 11.3555 16.0039 11.3523 16.0058 11.3476C16.0113 11.3305 16.0155 11.3105 16.0179 11.2878C16.4152 7.59184 16.8097 3.89545 17.2014 0.198599C17.2074 0.141532 17.2181 0.103951 17.2335 0.0858561C17.2586 0.0561625 17.2898 0.0431716 17.3276 0.0468833L23.7886 0.721949C23.8375 0.727052 23.8733 0.770665 23.8682 0.819845C23.2916 6.23011 22.715 11.6459 22.1384 17.0678C22.1007 17.4227 22.0084 17.7633 21.8617 18.0885C20.6852 20.6974 19.4999 23.2988 18.3057 25.8924C18.2852 25.9365 18.2367 25.9611 18.1892 25.9513L1.73821 22.5296C1.71213 22.524 1.69164 22.5041 1.68605 22.4776L0.0484433 14.8756C0.0386624 14.8306 0.0675393 14.786 0.112718 14.7763L9.41948 12.8467H9.41995ZM12.3375 15.9585C12.5419 14.78 10.5075 14.2618 10.2169 15.4555C9.99143 16.3816 10.4889 16.8716 11.4129 16.8363C11.9113 16.8168 12.2578 16.4164 12.3375 15.9585ZM16.9699 16.7133C17.1506 16.2234 16.8986 15.6801 16.4072 15.5001L16.193 15.4217C15.7012 15.2417 15.1557 15.4927 14.975 15.9821L14.9005 16.184C14.7198 16.6739 14.9718 17.2172 15.4631 17.3972L15.6774 17.4756C16.1692 17.6557 16.7146 17.4046 16.8954 16.9152L16.9699 16.7133Z" fill="#515151"/>
<path id="Vector_2" d="M53.9016 10.0736C54.6432 10.0736 55.2444 9.47472 55.2444 8.73598C55.2444 7.99724 54.6432 7.39838 53.9016 7.39838C53.16 7.39838 52.5588 7.99724 52.5588 8.73598C52.5588 9.47472 53.16 10.0736 53.9016 10.0736Z" fill="#515151"/>
<path id="Vector_3" d="M32.2863 19.5634C27.9813 18.7014 28.1876 11.4891 32.5634 11.0613C33.6868 10.9514 34.6505 11.3072 35.4544 12.1289C35.4702 12.1456 35.4968 12.1461 35.5135 12.1303C35.5219 12.1224 35.5266 12.1113 35.5266 12.0997V7.60249C35.5266 7.57697 35.5475 7.55609 35.5732 7.55609H37.6118C37.6369 7.55609 37.6574 7.57651 37.6574 7.60156C37.6574 10.7472 37.6574 13.8985 37.6579 17.0557C37.6579 17.8106 37.8316 18.5817 38.0044 19.3245C38.0268 19.4205 37.9886 19.4683 37.8898 19.4683H35.8936C35.84 19.4683 35.7939 19.4307 35.7832 19.3788L35.603 18.5019C35.5974 18.475 35.5708 18.4578 35.5438 18.4634C35.5345 18.4652 35.5261 18.4699 35.5196 18.4764C34.6528 19.3226 33.5294 19.8126 32.2863 19.5634ZM35.5569 15.3613C35.5648 14.2033 34.603 13.2582 33.4079 13.2498C32.2127 13.2415 31.2374 14.1736 31.2295 15.3312C31.2216 16.4892 32.1834 17.4343 33.3785 17.4427C34.5736 17.451 35.5489 16.5189 35.5569 15.3613Z" fill="#515151"/>
<path id="Vector_4" d="M50.8654 7.5556H48.8673C48.8307 7.5556 48.8011 7.5851 48.8011 7.62149V19.4015C48.8011 19.4379 48.8307 19.4674 48.8673 19.4674H50.8654C50.9019 19.4674 50.9315 19.4379 50.9315 19.4015V7.62149C50.9315 7.5851 50.9019 7.5556 50.8654 7.5556Z" fill="#515151"/>
<path id="Vector_5" d="M46.8137 18.6982C43.6973 20.4719 39.248 19.7272 39.0882 15.418C38.9992 13.0174 40.7295 10.9727 43.2106 11.0145C46.1263 11.0637 47.8724 13.4224 47.3279 16.2215C47.3228 16.2475 47.3004 16.2661 47.2739 16.2661L41.465 16.2675C41.4161 16.2675 41.376 16.3074 41.376 16.3561C41.376 16.3742 41.3816 16.3918 41.3923 16.4067C42.465 17.9234 44.5618 17.5981 45.9819 16.8757C46.0275 16.8525 46.0834 16.8706 46.1067 16.9161C46.1076 16.9175 46.1081 16.9189 46.1086 16.9203L46.8528 18.5794C46.8724 18.623 46.8556 18.6745 46.8137 18.6982ZM41.2442 14.5777C41.2801 14.58 41.336 14.6009 41.369 14.6005C42.3532 14.5907 43.3368 14.5856 44.321 14.5856C44.532 14.5851 44.8957 14.6102 45.1817 14.5893C45.2241 14.5861 45.2558 14.5494 45.2525 14.5072C45.252 14.5002 45.2506 14.4937 45.2483 14.4872C45.0485 13.9282 44.6792 13.5412 44.1412 13.3264C43.0276 12.8819 41.5139 13.1909 41.1958 14.5114C41.186 14.5522 41.2018 14.5745 41.2442 14.5777Z" fill="#515151"/>
<path id="Vector_6" d="M72.3209 18.726C70.0126 20.0603 66.1469 20.1471 64.9629 17.162C63.6704 13.9031 65.9508 10.4294 69.6303 11.1267C72.0908 11.593 73.245 13.898 72.8538 16.2211C72.8458 16.267 72.8188 16.2897 72.7723 16.2897L66.9461 16.3009C66.9056 16.3009 66.8725 16.3338 66.8725 16.3742C66.8725 16.3825 66.8739 16.3909 66.8772 16.3992C66.886 16.4238 66.9023 16.4512 66.9256 16.4818C68.0565 17.9558 70.0606 17.6185 71.5082 16.923C71.5482 16.9035 71.5967 16.9202 71.6162 16.9601C71.6162 16.9611 71.6167 16.9615 71.6172 16.9625L72.3591 18.6077C72.3819 18.6587 72.3694 18.6981 72.3209 18.726ZM70.7769 14.5536C70.6209 12.655 66.8143 12.7534 66.7626 14.5554C66.7617 14.5758 66.7775 14.593 66.798 14.5939C66.7985 14.5939 66.7994 14.5939 66.7998 14.5939L70.7509 14.5814C70.7653 14.5814 70.7769 14.5703 70.7769 14.5559C70.7769 14.555 70.7769 14.5545 70.7769 14.5536Z" fill="#515151"/>
<path id="Vector_7" d="M74.3982 19.4679C74.3637 19.4679 74.3358 19.44 74.3358 19.4057C74.3358 17.4278 74.3349 15.4421 74.3325 13.4484C74.3316 12.7209 74.163 12.0073 74.0093 11.2822C74.0023 11.2497 74.0233 11.2181 74.0559 11.2112C74.0601 11.2103 74.0643 11.2098 74.0685 11.2098H76.1164C76.1634 11.2098 76.1914 11.2325 76.2012 11.278L76.3884 12.1577C76.3917 12.1725 76.4061 12.1818 76.421 12.1785C76.4271 12.1772 76.4322 12.1739 76.4364 12.1693C77.4461 10.9606 78.8019 10.7602 80.1908 11.4279C80.2099 11.4367 80.2183 11.4594 80.2099 11.4789L79.2621 13.6006C79.2407 13.6484 79.1843 13.6697 79.1364 13.6484C79.1359 13.6484 79.1354 13.6479 79.135 13.6474C78.4149 13.3115 76.9054 13.1524 76.5374 14.136C76.4913 14.2594 76.4685 14.4863 76.468 14.8162C76.4662 16.35 76.4657 17.8765 76.4671 19.3959C76.4671 19.4358 76.435 19.4679 76.3949 19.4679H74.3982Z" fill="#515151"/>
<path id="Vector_8" d="M85.9681 19.2753C83.9271 20.1267 81.48 19.4178 80.5034 17.3374C79.1042 14.3573 81.0245 10.8939 84.4777 11.0498C87.0524 11.1657 88.608 13.2313 88.4808 15.6782C88.3961 17.3114 87.4841 18.643 85.9681 19.2753ZM86.4376 15.3057C86.4171 14.1486 85.4339 13.2276 84.2415 13.2485C83.0487 13.2694 82.0986 14.2242 82.1191 15.3808C82.1396 16.538 83.1228 17.4589 84.3151 17.4381C85.5079 17.4172 86.4581 16.4623 86.4376 15.3057Z" fill="#515151"/>
<path id="Vector_9" d="M92.1198 19.3264C89.4147 18.3423 88.6937 14.5591 90.5078 12.4825C92.1114 10.6466 95.2348 10.518 96.8696 12.3892C98.6069 14.3773 98.2604 17.8245 95.796 19.1204C94.6666 19.7147 93.3182 19.762 92.1198 19.3264ZM95.899 15.3637C95.9092 14.2056 94.9498 13.2587 93.7565 13.2485C92.5632 13.2382 91.5875 14.1685 91.5772 15.3261C91.567 16.4841 92.5264 17.4311 93.7197 17.4413C94.913 17.4515 95.8887 16.5212 95.899 15.3637Z" fill="#515151"/>
<path id="Vector_10" d="M54.903 11.2094H52.9338C52.889 11.2094 52.8528 11.2455 52.8528 11.2901V19.3872C52.8528 19.4317 52.889 19.4679 52.9338 19.4679H54.903C54.9478 19.4679 54.9841 19.4317 54.9841 19.3872V11.2901C54.9841 11.2455 54.9478 11.2094 54.903 11.2094Z" fill="#515151"/>
<path id="Vector_11" d="M58.3454 19.4386L56.128 11.2608C56.1219 11.2395 56.1349 11.2172 56.1564 11.2112C56.1601 11.2102 56.1634 11.2098 56.1671 11.2098H58.3855C58.4041 11.2098 58.4199 11.2223 58.4246 11.2404L60.0128 17.7354C60.018 17.7572 60.0403 17.7702 60.0617 17.7651C60.0762 17.7614 60.0878 17.7503 60.0915 17.7354L61.6816 11.2404C61.6863 11.2223 61.7021 11.2098 61.7208 11.2098H63.9606C63.983 11.2098 64.0011 11.2279 64.0011 11.2501C64.0011 11.2539 64.0006 11.2576 63.9997 11.2608L61.7888 19.4386C61.7841 19.4562 61.7678 19.4683 61.7496 19.4683H58.3845C58.3664 19.4683 58.3501 19.4562 58.3454 19.4386Z" fill="#515151"/>
</g>
<defs>
<clipPath id="clip0_19_693">
<rect width="98" height="26" fill="white"/>
</clipPath>
</defs>
</svg>
