<svg width="59" height="20" viewBox="0 0 59 20" fill="none" xmlns="http://www.w3.org/2000/svg">
<g id="Calque_1" clip-path="url(#clip0_14_477)">
<g id="Clip path group">
<mask id="mask0_14_477" style="mask-type:luminance" maskUnits="userSpaceOnUse" x="0" y="0" width="59" height="21">
<g id="clippath">
<path id="Vector" d="M58.9975 0.000488281H0V20.0001H58.9975V0.000488281Z" fill="white"/>
</g>
</mask>
<g mask="url(#mask0_14_477)">
<g id="Group">
<g id="Group_2">
<path id="Vector_2" d="M3.36058 7.43633H5.39708C6.51352 7.43633 7.2113 7.74115 7.64667 8.17804C8.07369 8.60654 8.27049 9.16711 8.27049 9.86773C8.27049 10.7331 7.9425 11.5235 7.3262 12.1423C6.63678 12.8341 5.64276 13.2056 4.3124 13.2056H1.81628L3.35933 7.43717L3.36058 7.43591V7.43633ZM4.52632 11.5235C5.1092 11.5235 5.60976 11.3499 5.90516 11.0539C6.14332 10.8149 6.3163 10.4275 6.3163 10.0732C6.3163 9.75997 6.22564 9.55369 6.07814 9.40568C5.89806 9.22455 5.61017 9.1168 5.15056 9.1168H4.83009L4.19039 11.5226H4.52674V11.5239L4.52632 11.5235Z" fill="white"/>
<path id="Vector_3" d="M8.54253 11.2438C8.54253 10.9474 8.58348 10.6258 8.66579 10.3126L9.43752 7.43675H11.3917L10.5874 10.4363C10.5464 10.6015 10.5222 10.7579 10.5222 10.8891C10.5222 11.3675 10.8013 11.614 11.3107 11.614C11.5488 11.614 11.7703 11.5314 11.9261 11.375C12.0991 11.2015 12.214 10.9792 12.3373 10.5348L13.1666 7.43591H15.1208L14.21 10.8312C14.0044 11.5973 13.7094 12.1578 13.3066 12.562C12.7647 13.1058 11.9437 13.3205 11.0328 13.3205C9.41496 13.3205 8.54504 12.5461 8.54504 11.2434H8.54211L8.54253 11.2438Z" fill="white"/>
<path id="Vector_4" d="M15.6954 7.4364H18.2399C20.0057 7.4364 20.4323 8.08712 20.4323 8.79612C20.4323 9.50512 19.9643 10.0816 19.0861 10.3122C19.628 10.4519 20.022 10.856 20.022 11.4497C20.022 12.422 19.2503 13.2048 17.2802 13.2048H14.1515L15.6945 7.4364H15.6954ZM17.3379 11.7466C17.8058 11.7466 18.0854 11.5403 18.0854 11.2527C18.0854 11.0053 17.8798 10.89 17.4699 10.89H16.6405L16.4107 11.747H17.3383L17.3379 11.7466ZM17.8468 9.7026C18.339 9.7026 18.5613 9.48038 18.5613 9.23301C18.5613 8.98564 18.3812 8.89549 17.97 8.89549H17.1732L16.9601 9.7026H17.8468Z" fill="white"/>
<path id="Vector_5" d="M23.5221 7.39478H25.427L26.2978 13.2043H24.2537L24.1556 12.4299H22.1445L21.644 13.2043H19.5507L23.5246 7.39478H23.5225H23.5221ZM24.0469 11.0618L23.8911 9.66098L22.9961 11.0618H24.0469Z" fill="white"/>
<path id="Vector_6" d="M27.9979 7.4364H29.9186L28.3756 13.2048H26.4553L27.9983 7.4364H27.9979Z" fill="white"/>
<path id="Vector_7" d="M3.98358 14.0605H5.89348L6.76633 19.8847H4.71729L4.61827 19.1082H2.60182L2.10001 19.8847H0L3.98358 14.0605ZM4.51047 17.7359L4.35462 16.3322L3.45754 17.7359H4.51047Z" fill="white"/>
<path id="Vector_8" d="M7.096 17.9178C7.096 17.6206 7.13695 17.2977 7.21926 16.9845L7.99308 14.1016H9.95144L9.14503 17.1082C9.10409 17.2734 9.07985 17.4298 9.07985 17.5623C9.07985 18.0415 9.35938 18.2893 9.87038 18.2893C10.1085 18.2893 10.3308 18.2067 10.4871 18.0503C10.6601 17.8767 10.775 17.6537 10.8991 17.208L11.7306 14.1016H13.6889L12.7751 17.5053C12.5696 18.2734 12.2733 18.8352 11.8697 19.2402C11.3269 19.7853 10.5038 20 9.5896 20C7.96843 20 7.09558 19.2235 7.09558 17.9178H7.096Z" fill="white"/>
<path id="Vector_9" d="M15.3042 15.7372H13.6083L14.0445 14.1016H19.3614L18.9252 15.7372H17.23L16.119 19.8847H14.1932L15.3042 15.7372Z" fill="white"/>
<path id="Vector_10" d="M18.8365 17.3816C18.8365 15.5892 20.2931 13.9863 22.2276 13.9863C23.9228 13.9863 25.0915 15.1268 25.0915 16.6047C25.0915 18.3971 23.6349 20 21.7003 20C20.0052 20 18.8365 18.8596 18.8365 17.3816ZM23.1573 16.7783C23.1573 16.167 22.7863 15.6873 22.096 15.6873C21.2896 15.6873 20.7711 16.481 20.7711 17.2076C20.7711 17.819 21.1409 18.2986 21.8324 18.2986C22.6388 18.2986 23.1573 17.5049 23.1573 16.7783Z" fill="white"/>
<path id="Vector_11" d="M26.3278 14.1016H28.3685C29.4879 14.1016 30.1869 14.4072 30.6231 14.8454C31.051 15.2747 31.2482 15.837 31.2482 16.5392C31.2482 17.4067 30.9194 18.1992 30.3018 18.8193C29.6103 19.5132 28.6142 19.8847 27.2809 19.8847H24.7794L26.327 14.1016H26.3278ZM27.4969 18.1992C28.081 18.1992 28.5837 18.0256 28.8799 17.7283C29.1181 17.4893 29.2919 17.1011 29.2919 16.7455C29.2919 16.4315 29.2012 16.2248 29.0538 16.0768C28.8724 15.8948 28.5845 15.7879 28.1241 15.7879H27.8028L27.161 18.2H27.4982L27.4969 18.1988V18.1992Z" fill="white"/>
<path id="Vector_12" d="M32.4691 14.1016H34.7154C35.7771 14.1016 36.4527 14.3334 36.8383 14.7217C37.1597 15.0433 37.2917 15.4739 37.2917 15.9279C37.2917 16.8281 36.8225 17.6051 35.6864 17.9606L36.4844 19.8851H34.4099L33.7681 18.2327H33.2906L32.8456 19.8851H30.9198L32.467 14.102H32.4691V14.1016ZM34.3539 16.8524C34.9957 16.8524 35.3333 16.5552 35.3333 16.1912C35.3333 16.0759 35.2924 15.9682 35.2101 15.8856C35.1035 15.7778 34.9138 15.7204 34.6418 15.7204H33.9587L33.6541 16.8524H34.3539Z" fill="white"/>
<path id="Vector_13" d="M37.4751 17.3816C37.4751 15.5892 38.9316 13.9863 40.8662 13.9863C42.5609 13.9863 43.73 15.1268 43.73 16.6047C43.73 18.3971 42.2734 20 40.3389 20C38.6438 20 37.4751 18.8596 37.4751 17.3816ZM41.7959 16.7783C41.7959 16.167 41.4248 15.6873 40.7342 15.6873C39.9278 15.6873 39.4092 16.481 39.4092 17.2076C39.4092 17.819 39.779 18.2986 40.4705 18.2986C41.2769 18.2986 41.7955 17.5049 41.7955 16.7783H41.7959Z" fill="white"/>
<path id="Vector_14" d="M44.9664 14.1016H46.8679L47.5594 16.1342L49.3369 14.1016H51.4523L49.9047 19.8847H47.9877L48.7527 17.0185L46.8767 19.075H46.8437L46.0703 17.0185L45.3048 19.8847H43.42L44.9676 14.1016H44.9664Z" fill="white"/>
<path id="Vector_15" d="M52.0795 14.1016H56.9928L56.5645 15.6877H53.5436L53.3877 16.2739H56.2022L55.832 17.6692H53.0175L52.845 18.2965H55.906L55.4865 19.8826H50.5323L52.0795 14.0995V14.1016Z" fill="white"/>
<path id="Vector_16" d="M58.3419 7.02463C58.2956 7.14958 58.2166 7.36006 56.8545 7.37599C55.2722 7.39947 53.6267 6.86908 53.1283 6.66489C52.3812 6.35924 49.8458 5.36764 48.604 5.40999C47.4395 5.45234 44.4667 6.50389 43.921 6.92401C43.7058 7.09004 43.5612 7.37767 43.5257 7.71435C43.4856 8.08583 43.5876 8.44766 43.8061 8.70804C44.3869 9.39985 44.9041 9.2032 45.1628 9.02543C45.2501 8.96421 45.3788 8.84766 45.5568 8.68581C45.909 8.36632 46.733 7.61624 47.0886 7.59192C47.6008 7.55586 48.2827 8.16339 48.9964 8.84346C49.7702 9.58097 51.2551 10.9562 51.4703 11.1554C51.6517 11.4229 51.833 11.861 51.7306 12.0082C51.4628 12.3914 51.4356 12.4312 50.8758 12.4312H50.3401C50.3401 12.4312 35.4416 12.4291 34.6247 12.4291C33.8078 12.4291 33.1669 12.2174 33.1669 12.2174C33.095 12.1813 33.0307 12.1411 32.9835 12.0937L32.9751 12.0853C32.9605 12.0706 32.6158 11.7172 32.9488 10.8644C33.0553 10.5923 33.1439 10.4283 33.2145 10.2971C33.4886 9.79019 33.4402 9.65602 33.0587 8.60447C32.5991 7.337 32.3726 6.5454 32.4896 5.99656C32.6066 5.4494 33.3065 4.19576 33.9578 3.91526C34.2257 3.79996 34.7325 3.72491 35.2239 3.6528C36.1916 3.50898 37.1066 3.37356 37.4689 2.88258C37.941 2.2436 38.4491 1.65326 38.9743 1.65326C39.1799 1.65326 39.5522 1.82348 39.9232 2.20461C40.2942 2.58531 40.5102 3.02262 40.5019 3.37356C40.4998 3.48341 40.4818 3.62848 40.4133 3.69221C40.2867 3.80751 39.899 3.7811 39.5238 3.75468C39.3646 3.74294 39.2004 3.73246 39.0261 3.72701C37.5261 3.68592 36.5237 3.84357 35.9576 4.21044C35.4875 4.51609 34.0569 5.44395 34.5808 6.91772C34.7718 7.45607 35.0183 7.78101 35.3567 7.93866C35.887 8.18729 36.5417 7.97891 37.3427 7.68038C38.3421 7.30806 46.4681 3.8008 50.834 1.91656C52.3223 1.27423 53.3974 0.810088 53.5599 0.742165C53.8749 0.610931 54.0237 0.651182 54.0521 0.6755C54.0659 0.688078 54.0742 0.744262 54.05 0.831891C53.9627 1.14845 53.643 1.53963 53.3606 1.88554C52.9507 2.38616 52.5976 2.81885 52.6649 3.25784C52.8262 4.30939 54.9692 5.22257 56.2332 5.67456C57.8944 6.26825 58.2517 6.71479 58.3277 6.87872C58.3612 6.95294 58.3528 6.99738 58.3424 7.02673M58.9131 6.60242C58.6653 6.0691 57.8602 5.56429 56.4496 5.06073C54.0663 4.20918 53.3506 3.46328 53.3033 3.15637C53.2799 3.00291 53.6288 2.57651 53.8599 2.29391C54.1983 1.87925 54.5493 1.45158 54.6726 1.00212C54.7632 0.672984 54.6926 0.376974 54.4795 0.18746C54.327 0.0520329 53.9727 -0.133288 53.313 0.141758C53.1475 0.21052 52.1259 0.651601 50.5795 1.31951C46.2199 3.20165 38.1031 6.70472 37.1187 7.07201C36.3842 7.34496 35.9054 7.47829 35.6304 7.35041C35.523 7.29968 35.3597 7.17683 35.19 6.69885C35.0267 6.23765 35.0053 5.60076 36.3094 4.75298C36.6161 4.55424 37.3331 4.32574 39.009 4.37312C39.1694 4.37731 39.3274 4.38905 39.479 4.39953C40.0368 4.43852 40.5182 4.47165 40.8483 4.16977C41.0421 3.99325 41.1391 3.73707 41.1474 3.38781C41.1591 2.85784 40.8809 2.26121 40.3841 1.75095C39.9286 1.28345 39.4017 1.00505 38.9739 1.00505C38.1232 1.00505 37.4835 1.77527 36.9499 2.49685C36.7464 2.77315 35.8113 2.91151 35.1286 3.01214C34.5733 3.09474 34.0481 3.17188 33.7034 3.32115C32.7746 3.71988 31.997 5.20958 31.8578 5.86239C31.707 6.56804 31.9389 7.41456 32.4512 8.82795C32.6709 9.4359 32.7361 9.82332 32.6463 9.98977C32.5702 10.1294 32.467 10.3197 32.3459 10.63C31.8746 11.8371 32.4227 12.453 32.5259 12.5545C32.6513 12.6803 32.8097 12.7755 32.978 12.8484C32.978 12.8484 33.6599 13.0811 34.478 13.0811H50.8753C51.6976 13.0811 51.8978 12.9 52.2592 12.3818C52.6703 11.7922 52.0971 10.9239 51.978 10.7554L51.9588 10.7277L51.9337 10.7046C51.9166 10.69 50.2682 9.16295 49.4405 8.37471C48.5869 7.56215 47.8152 6.89256 47.0447 6.94749C46.5103 6.98438 45.8313 7.56424 45.1243 8.20742C44.9894 8.33027 44.849 8.45689 44.7955 8.4942C44.7132 8.55123 44.5899 8.63718 44.3008 8.29337C44.1955 8.16759 44.147 7.98352 44.1683 7.78772C44.1871 7.6133 44.2578 7.48626 44.3146 7.44182C44.714 7.1349 47.5569 6.10012 48.6278 6.06113C49.5111 6.02927 51.4741 6.69173 52.8855 7.26823C53.5486 7.53909 55.23 8.04264 56.8637 8.02671C58.2128 8.01078 58.7389 7.81623 58.9486 7.2544C59.0268 7.04602 59.0151 6.8217 58.9148 6.60577" fill="white"/>
</g>
</g>
</g>
</g>
</g>
<defs>
<clipPath id="clip0_14_477">
<rect width="59" height="20" fill="white"/>
</clipPath>
</defs>
</svg>
