<svg width="62" height="13" viewBox="0 0 62 13" fill="none" xmlns="http://www.w3.org/2000/svg">
<g id="Calque_1" clip-path="url(#clip0_20_739)">
<g id="Page-1">
<path id="Shape" d="M8.99474 11.6987L8.81055 12.9921H0C0.364548 12.0973 0.341524 11.593 0.341524 10.9463V2.05538C0.341524 1.42903 0.364548 0.87996 0 0.00957907H8.59566L8.611 1.32735C8.44984 1.25821 8.31937 1.1972 8.20041 1.14026C7.88191 1.01418 7.47899 0.896229 7.06072 0.900297H2.34846V5.9843H7.87807L7.60562 6.98483H2.34846V12.0729H7.33317C8.17355 12.0892 9.01009 11.5848 9.01009 11.5848L8.98707 11.6947C8.98707 11.6987 8.9909 11.6987 8.99474 11.6987ZM22.2566 12.9921C22.3756 12.3535 22.3756 11.4506 22.2796 10.7145L21.4968 4.59738L17.222 12.988H16.4085L12.0646 4.21913L11.2204 10.8487C11.1283 11.6133 11.1014 12.5813 11.1782 12.9921H9.65093C9.9464 12.3291 10.0193 12.0404 10.1575 10.9504L11.5389 0.00957907H12.2411L17.3103 10.2183L22.3756 0.00957907H22.9051L24.3326 10.926C24.4746 12.0119 24.582 12.3251 24.866 12.9921H22.2566ZM35.1232 12.9921L33.0894 8.23753H28.9988L26.9919 12.9921H25.3956C25.9021 12.3251 26.0748 12.016 26.4316 11.1863L31.1746 0.00957907H31.708L36.3742 10.8731C36.8731 11.9346 37.1071 12.2641 37.8209 12.9921H35.1232ZM47.9208 12.9921L45.887 8.23753H41.7964L39.7894 12.9921H38.1931C38.6996 12.3251 38.8723 12.016 39.2292 11.1863L43.9722 0.00957907H44.5055L49.1756 10.8731C49.6744 11.9346 49.9085 12.2641 50.6223 12.9921H47.9208ZM59.5172 13.0002C58.2931 11.8167 56.7083 10.2467 54.7244 7.7576C54.1565 7.05397 53.7574 6.9645 53.5003 6.94823V10.9463C53.5003 11.5889 53.5003 12.0973 53.8456 12.9921H51.1518C51.5164 12.0973 51.4934 11.593 51.4934 10.9463V2.04725C51.4934 1.4209 51.5164 0.871826 51.1518 0.00144466H53.7919C55.5955 0.00144466 59.8588 -0.169378 59.8588 3.56431C59.8588 5.53691 58.3814 6.59845 56.6469 6.86688L56.1327 6.91976C56.1327 6.91976 61.7582 12.7481 62 13.0002H59.5172ZM56.3284 6.12258L56.3246 6.12665C57.4604 5.67113 57.8442 4.52824 57.8058 3.56025C57.7636 2.62886 57.3683 0.603391 53.5041 0.766079V6.30154C53.5041 6.30154 55.6684 6.42763 56.2747 6.14699C56.3092 6.13072 56.3284 6.12258 56.3284 6.12258ZM42.1878 7.33054H45.4917L43.8263 3.4545L42.1878 7.33054ZM29.3941 7.33054H32.698L31.0326 3.4545L29.3941 7.33054Z" fill="#515151"/>
</g>
</g>
<defs>
<clipPath id="clip0_20_739">
<rect width="62" height="13" fill="white"/>
</clipPath>
</defs>
</svg>
