<svg width="68" height="9" viewBox="0 0 68 9" fill="none" xmlns="http://www.w3.org/2000/svg">
<g id="Calque_1" clip-path="url(#clip0_20_767)">
<g id="Layer 2">
<g id="Group">
<g id="Group_2">
<path id="Vector" d="M0 8.76532V0.23468H6.35325V2.22947H2.67151V3.77836H5.60119V5.77314H2.67151V8.76532H0Z" fill="#515151"/>
<path id="Vector_2" d="M7.57678 8.76532V0.23468H10.2483V8.76532H7.57678Z" fill="#515151"/>
<path id="Vector_3" d="M11.382 0.23468H14.0759L15.5015 5.91395L16.9831 0.23468H19.6771L16.8597 8.76532H14.1769L11.382 0.23468Z" fill="#515151"/>
<path id="Vector_4" d="M20.8108 8.76532V0.23468H27.4671V2.22947H23.4823V3.4498H26.8497V5.44459H23.4823V6.77053H27.6243V8.76532H20.8108Z" fill="#515151"/>
<path id="Vector_5" d="M40.589 8.78879H38.8604L38.7593 7.94394C38.6471 8.07301 38.5124 8.21382 38.3665 8.33116C38.2206 8.46023 38.041 8.56584 37.8501 8.65971C37.6481 8.75359 37.4236 8.83572 37.1654 8.89439C36.9072 8.95306 36.6266 8.98827 36.3011 8.98827C35.7848 8.98827 35.2796 8.89439 34.8082 8.71838C34.3368 8.54237 33.9102 8.27249 33.5398 7.90874C33.1694 7.54498 32.8775 7.08735 32.6643 6.53585C32.451 5.98435 32.3387 5.33898 32.3387 4.59974C32.3387 3.91917 32.4398 3.29726 32.6306 2.73403C32.8326 2.1708 33.1133 1.6897 33.4837 1.27901C33.8541 0.880052 34.3031 0.563233 34.8307 0.340287C35.3582 0.11734 35.9531 0 36.6154 0C37.1093 0 37.5695 0.0704042 37.9961 0.199478C38.4226 0.328553 38.8155 0.528031 39.1522 0.797914C39.489 1.0678 39.7808 1.39635 40.0053 1.78357C40.241 2.18253 40.3869 2.64016 40.4767 3.15645H37.9399C37.8389 2.80443 37.6705 2.53455 37.446 2.34681C37.2103 2.1708 36.9185 2.07692 36.5705 2.07692C36.3011 2.07692 36.0766 2.13559 35.8858 2.25293C35.695 2.37027 35.5378 2.54628 35.4031 2.7575C35.2796 2.98044 35.1786 3.23859 35.1113 3.54368C35.0439 3.84876 35.0103 4.18905 35.0103 4.56454C35.0103 4.86962 35.0327 5.15124 35.0888 5.43286C35.145 5.71447 35.2347 5.96089 35.3582 6.1721C35.4817 6.38331 35.6613 6.55932 35.8746 6.67666C36.0991 6.80574 36.3685 6.86441 36.7164 6.86441C36.8511 6.86441 36.997 6.84094 37.143 6.794C37.2889 6.74707 37.4236 6.67666 37.5583 6.59452C37.6818 6.51239 37.794 6.40678 37.895 6.28944C37.9848 6.1721 38.0522 6.03129 38.0971 5.89048H36.9297V4.07171H40.589V8.78879Z" fill="#515151"/>
<path id="Vector_6" d="M42.1492 0.23468H44.8207V5.33898C44.8207 5.5502 44.8319 5.74967 44.8656 5.94915C44.888 6.1369 44.9554 6.30117 45.0452 6.44198C45.135 6.58279 45.2697 6.70013 45.4268 6.78227C45.5952 6.86441 45.8085 6.91134 46.0891 6.91134C46.336 6.91134 46.5269 6.87614 46.6952 6.794C46.8524 6.7236 46.9871 6.61799 47.0769 6.47718C47.1779 6.33638 47.2452 6.1721 47.2789 5.98435C47.3126 5.79661 47.335 5.5854 47.335 5.35072V0.23468H50.0065V5.05737C50.0065 6.41851 49.6923 7.41591 49.0637 8.04954C48.4351 8.68318 47.4361 8.98827 46.0891 8.98827C45.4493 8.98827 44.888 8.91786 44.4054 8.78879C43.9227 8.65971 43.5074 8.43677 43.1706 8.11995C42.8339 7.80313 42.5869 7.40417 42.4073 6.89961C42.239 6.39505 42.1492 5.78488 42.1492 5.04563V0.23468Z" fill="#515151"/>
<path id="Vector_7" d="M56.5395 8.76532H53.868V5.66754L50.826 0.23468H53.8231L55.2262 3.12125L56.6293 0.23468H59.5814L56.5395 5.6206V8.76532Z" fill="#515151"/>
<path id="Vector_8" d="M64.6662 2.71059C64.6438 2.55805 64.5989 2.44071 64.5315 2.34684C64.4642 2.25296 64.3856 2.18256 64.2846 2.12389C64.0938 2.01828 63.8693 1.97135 63.5886 1.97135C63.308 1.97135 63.0835 2.01828 62.9376 2.10042C62.8029 2.18256 62.7356 2.2999 62.7356 2.46418C62.7356 2.61672 62.8029 2.75753 62.9376 2.8514C63.0723 2.95701 63.2519 3.05088 63.4652 3.12128C63.6897 3.20342 63.9366 3.27382 64.2172 3.34423C64.4979 3.41463 64.7785 3.48504 65.0815 3.57891C65.3734 3.66105 65.6652 3.76665 65.9459 3.89573C66.2265 4.01307 66.4734 4.17734 66.6979 4.36509C66.9224 4.56457 67.0908 4.78751 67.2255 5.06913C67.3602 5.33901 67.4275 5.66757 67.4275 6.05479C67.4275 6.54762 67.3377 6.98178 67.1469 7.35727C66.9561 7.72102 66.6979 8.02611 66.3612 8.27252C66.0244 8.51894 65.6203 8.69495 65.1489 8.81229C64.6775 8.92963 64.1611 9.00003 63.6111 9.00003C63.0611 9.00003 62.5896 8.91789 62.1519 8.76535C61.7141 8.61281 61.3325 8.4016 61.0294 8.14345C60.7151 7.8853 60.4681 7.58021 60.2885 7.23993C60.1089 6.89964 60.0192 6.53588 59.9967 6.14866H62.556C62.6121 6.45375 62.758 6.67669 62.9937 6.82924C63.0948 6.89964 63.2182 6.95831 63.3529 6.99351C63.4876 7.02871 63.6223 7.05218 63.7458 7.05218C64.0825 7.05218 64.3519 6.99351 64.554 6.88791C64.756 6.7823 64.8571 6.62976 64.8571 6.41854C64.8571 6.20733 64.7448 6.04306 64.5091 5.92571C64.2734 5.80837 63.9927 5.70277 63.6448 5.62063C63.2968 5.52676 62.9152 5.43289 62.5111 5.32728C62.107 5.22167 61.7253 5.06913 61.3774 4.86965C61.0294 4.67017 60.7375 4.41203 60.513 4.07174C60.2773 3.74319 60.1651 3.29729 60.1651 2.75753C60.1651 2.31163 60.2549 1.91268 60.4345 1.56066C60.6141 1.22037 60.861 0.927019 61.1753 0.704072C61.4896 0.481126 61.86 0.305115 62.2866 0.199509C62.7131 0.0821687 63.1846 0.0234985 63.7009 0.0234985C64.2621 0.0234985 64.756 0.0939027 65.1713 0.234711C65.5867 0.375519 65.9346 0.574998 66.2153 0.809678C66.4959 1.05609 66.7204 1.33771 66.8775 1.66626C67.0347 1.99482 67.1357 2.34684 67.1806 2.71059H64.6662Z" fill="#515151"/>
</g>
<path id="Vector_9" d="M67.4051 1.54892C67.3265 1.54892 67.248 1.53719 67.1694 1.50199C67.102 1.46678 67.0347 1.41985 66.9786 1.37291C66.9224 1.31424 66.8775 1.25557 66.8551 1.17343C66.8214 1.10303 66.8102 1.02089 66.8102 0.927018C66.8102 0.84488 66.8214 0.762742 66.8551 0.680604C66.8888 0.6102 66.9337 0.539795 66.9786 0.481125C67.0347 0.422455 67.0908 0.375519 67.1694 0.352051C67.2367 0.316849 67.3153 0.305115 67.4051 0.305115C67.4837 0.305115 67.5622 0.316849 67.6408 0.352051C67.7082 0.387253 67.7755 0.434189 67.8316 0.481125C67.8878 0.539795 67.9327 0.598466 67.9551 0.680604C67.9888 0.751008 68 0.833146 68 0.927018C68 1.00916 67.9888 1.09129 67.9551 1.17343C67.9214 1.24384 67.8765 1.31424 67.8316 1.37291C67.7755 1.43158 67.7194 1.47852 67.6408 1.50199C67.5622 1.53719 67.4949 1.54892 67.4051 1.54892ZM67.4051 1.40811C67.4724 1.40811 67.5286 1.39638 67.5847 1.37291C67.6408 1.34944 67.6857 1.31424 67.7194 1.27904C67.7531 1.2321 67.7867 1.18517 67.8092 1.1265C67.8316 1.06783 67.8429 1.00916 67.8429 0.938752C67.8429 0.868348 67.8316 0.809678 67.8092 0.751008C67.7867 0.692338 67.7531 0.645402 67.7194 0.598465C67.6857 0.551529 67.6296 0.528061 67.5847 0.504593C67.5286 0.481125 67.4724 0.469391 67.4051 0.469391C67.3377 0.469391 67.2816 0.481125 67.2255 0.504593C67.1694 0.528061 67.1245 0.563263 67.0908 0.598465C67.0571 0.645402 67.0235 0.692338 67.001 0.751008C66.9786 0.809678 66.9673 0.868348 66.9673 0.938752C66.9673 1.00916 66.9786 1.06783 67.001 1.1265C67.0235 1.18517 67.0571 1.2321 67.0908 1.27904C67.1245 1.32598 67.1806 1.34944 67.2255 1.37291C67.2816 1.39638 67.349 1.40811 67.4051 1.40811ZM67.7082 1.26731H67.551L67.4051 0.985688H67.2928V1.26731H67.1581V0.598465H67.4724C67.5622 0.598465 67.6184 0.6102 67.6633 0.645402C67.7082 0.66887 67.7194 0.72754 67.7194 0.809678C67.7194 0.868348 67.7082 0.915284 67.6745 0.938752C67.6408 0.96222 67.5959 0.985688 67.5398 0.985688L67.7082 1.26731ZM67.4724 0.880082C67.5061 0.880082 67.5398 0.880082 67.5622 0.856614C67.5847 0.84488 67.5959 0.821412 67.5959 0.774476C67.5959 0.751008 67.5959 0.739274 67.5847 0.72754C67.5735 0.715806 67.5622 0.704072 67.551 0.704072C67.5398 0.704072 67.5173 0.692338 67.5061 0.692338H67.3153V0.880082H67.4724Z" fill="#515151"/>
</g>
</g>
</g>
<defs>
<clipPath id="clip0_20_767">
<rect width="68" height="9" fill="white"/>
</clipPath>
</defs>
</svg>
