<svg width="65" height="30" viewBox="0 0 65 30" fill="none" xmlns="http://www.w3.org/2000/svg">
<g id="Calque_1" clip-path="url(#clip0_14_521)">
<g id="Page-1">
<g id="FS Brand Logo2">
<g id="Group-25">
<g id="Fill-24-Clipped">
<path id="Fill-24" d="M1.91638 29.7858H0V29.5001H0.550923V24.6876H0.0444293V24.4019H3.43586C4.15562 24.4019 5.12714 24.4167 5.13898 24.4167V24.4227L5.33447 26.0983H5.07974L5.05901 26.0269C4.75393 24.9882 4.53771 24.6876 3.43586 24.6876H1.44247V27.0358H2.6154C3.60766 27.0358 3.89496 26.9435 3.89496 26.3036V26.1995H4.14673V28.1251H3.89496V28.0239C3.89496 27.5655 3.61358 27.3215 2.6154 27.3215H1.44247V29.4971H1.91342V29.7828" fill="#FFFFFE"/>
</g>
</g>
<path id="Fill-26" d="M8.53338 25.5298C7.20642 25.5298 6.44816 26.2798 6.44816 27.5923C6.44816 28.9048 7.18865 29.628 8.53338 29.628C9.8781 29.628 10.6245 28.9048 10.6245 27.5923C10.6245 26.2798 9.86329 25.5298 8.53338 25.5298ZM8.53338 29.884C6.5933 29.884 5.54773 28.7024 5.54773 27.5893C5.54773 26.1369 7.06721 25.2709 8.53338 25.2709C10.4735 25.2709 11.519 26.4673 11.519 27.5893C11.519 29.0774 9.98177 29.884 8.53338 29.884Z" fill="#FFFFFE"/>
<path id="Fill-27" d="M14.632 29.884C13.542 29.884 12.2417 29.4941 12.2417 27.637V25.6281H11.7944V25.3691H13.5627V25.6281H13.074V27.637C13.074 29.3691 14.0514 29.6281 14.6349 29.6281C15.5502 29.6281 16.5247 29.1043 16.5247 27.637V25.6281H16.0833V25.3691H17.1615V25.6281H16.7557V27.637C16.7557 29.2977 15.6153 29.884 14.6379 29.884" fill="#FFFFFE"/>
<path id="Fill-28" d="M18.838 27.5656H20.4227C21.1809 27.5656 21.5334 27.259 21.5334 26.5983C21.5334 25.9376 21.1809 25.6251 20.4286 25.6251H18.838V27.5656ZM20.4671 27.8245H18.838V29.5299H19.2438V29.7888H17.5377V29.5299H18.0442V25.6281H17.5377V25.3691H20.4286C20.9232 25.3691 22.4309 25.3691 22.4309 26.6013C22.4309 27.1608 22.1199 27.5447 21.5304 27.7174C21.5304 27.7174 21.1957 27.8245 20.4701 27.8245H20.4671Z" fill="#FFFFFE"/>
<path id="Fill-29" d="M31.0679 24.9138L31.1864 26.2263L30.9494 26.2203L30.8813 26.0001C30.5496 25.012 29.8594 24.5894 28.7754 24.5894C27.6913 24.5894 27.0604 24.8959 27.0604 25.4078C27.0604 25.9644 27.949 26.1906 28.8909 26.4316C30.052 26.7263 31.3671 27.0596 31.3671 28.1668C31.3671 29.2739 30.4815 29.9108 28.7369 29.9108C28.7369 29.9108 27.4514 29.8662 26.4562 29.4882L26.1659 27.9287H26.3851L26.471 28.1638C26.8264 29.0537 27.715 29.6281 28.7339 29.6281C29.4862 29.6281 30.748 29.4912 30.748 28.5715C30.748 27.9138 29.8061 27.6846 28.8109 27.4406C27.6469 27.1578 26.4414 26.8632 26.4414 25.8126C26.4414 24.8543 27.2914 24.3066 28.7724 24.3066C29.2226 24.3066 29.4922 24.3602 29.9246 24.4822C29.9246 24.4822 30.6651 24.6995 31.0679 24.9168" fill="#FFFFFE"/>
<path id="Fill-30" d="M36.6334 29.8214H36.6127C36.6127 29.8214 35.8515 29.7857 35.4339 29.7857H32.149V29.5268H32.6378V25.625H32.149V25.3661H35.3302C35.73 25.3661 36.1447 25.3661 36.2365 25.3334L36.4765 25.3036L36.6186 26.5447L36.4261 26.5566L36.4054 26.4941C36.1418 25.6756 35.7419 25.628 35.3272 25.628H33.4316V27.3601H34.4979C35.2561 27.3601 35.5109 27.2589 35.5109 26.7113V26.6161H35.7389V28.3155H35.5109V28.2203C35.5109 27.8095 35.265 27.6191 34.4979 27.6191H33.4316V29.5328H35.4339C36.1655 29.5328 36.3343 29.3036 36.5831 28.7203L36.6038 28.6607H36.8408L36.6334 29.8304" fill="#FFFFFE"/>
<path id="Fill-31" d="M38.683 28.0744H41.1651L39.927 25.8244L38.683 28.0744ZM41.5147 29.7857V29.5268H41.9678L41.3073 28.3304H38.5349L37.8685 29.5268H38.3246V29.7857H37.2109V29.5268H37.599L39.7641 25.625H39.3791V25.3661H40.5579L40.5846 25.4107L42.8475 29.5238H43.277V29.7798H41.5147V29.7857Z" fill="#FFFFFE"/>
<path id="Fill-32" d="M51.5646 25.2709C50.0955 25.2709 48.579 26.1399 48.579 27.5893C48.579 28.7024 49.6245 29.884 51.5646 29.884C53.013 29.884 54.5503 29.0804 54.5503 27.5893C54.5503 26.4643 53.5047 25.2709 51.5646 25.2709ZM51.5646 29.625C50.2199 29.625 49.4765 28.9018 49.4765 27.5893C49.4765 26.2768 50.2377 25.5268 51.5646 25.5268C52.8916 25.5268 53.6558 26.2768 53.6558 27.5893C53.6558 28.9018 52.9123 29.625 51.5646 29.625Z" fill="#FFFFFE"/>
<path id="Fill-33" d="M54.9235 25.3691V25.6251H55.267L55.4596 25.8096V29.5269H54.9412V29.7858H56.1556V29.5269H55.6876V26.0239L59.8403 29.9555L59.8877 30.0001V25.6251H60.2816V25.3691H59.1798V25.6251H59.6596V28.6935L56.1675 25.3751L56.1586 25.3691H54.9235Z" fill="#FFFFFE"/>
<path id="Fill-34" d="M22.9462 29.634C22.2768 29.6102 22.2057 29.3572 22.0369 29.0209L21.4297 27.6965H20.5322L21.6548 29.89H22.9492V29.634" fill="#FFFFFE"/>
<path id="Fill-35" d="M47.7022 25.8274L47.8 26.8988L47.6045 26.8929L47.5482 26.7113C47.2757 25.9048 46.7159 25.5595 45.8273 25.5595C44.9387 25.5595 44.4263 25.8095 44.4263 26.2292C44.4263 26.6845 45.152 26.8691 45.9221 27.0655C46.8699 27.3066 47.9451 27.5774 47.9451 28.4822C47.9451 29.3869 47.2224 29.9077 45.7947 29.9077C45.7947 29.9077 44.7432 29.8691 43.9317 29.5625L43.6947 28.2857H43.8754L43.9465 28.4792C44.2367 29.2054 44.9654 29.6756 45.7977 29.6756C46.4108 29.6756 47.4445 29.5625 47.4445 28.8125C47.4445 28.2768 46.6744 28.0893 45.8628 27.8899C44.9121 27.6577 43.9257 27.4167 43.9257 26.5595C43.9257 25.7768 44.6188 25.3274 45.8303 25.3274C46.1975 25.3274 46.4197 25.372 46.7722 25.4703C46.7722 25.4703 47.3794 25.6488 47.7081 25.8244" fill="#FFFFFE"/>
<path id="Fill-36" d="M64.7572 25.8274L64.8549 26.8988L64.6594 26.8929L64.6031 26.7113C64.3306 25.9048 63.7708 25.5595 62.8822 25.5595C61.9937 25.5595 61.4812 25.8095 61.4812 26.2292C61.4812 26.6845 62.2069 26.8691 62.977 27.0655C63.9278 27.3066 65 27.5774 65 28.4822C65 29.3869 64.2773 29.9077 62.8497 29.9077C62.8497 29.9077 61.8011 29.8691 60.9866 29.5625L60.7496 28.2857H60.9303L61.0014 28.4792C61.2917 29.2054 62.0203 29.6756 62.8497 29.6756C63.4628 29.6756 64.4965 29.5625 64.4965 28.8125C64.4965 28.2768 63.7264 28.0893 62.9148 27.8899C61.964 27.6577 60.9777 27.4167 60.9777 26.5595C60.9777 25.7768 61.6708 25.3274 62.8822 25.3274C63.2495 25.3274 63.4717 25.372 63.8241 25.4703C63.8241 25.4703 64.4313 25.6488 64.7601 25.8244" fill="#FFFFFE"/>
<path id="Fill-37" d="M39.4769 12.5834C39.1007 12.7381 38.8638 13.0149 38.9556 13.4822C39.4058 13.3304 39.5272 12.9881 39.4769 12.5834Z" fill="#FFFFFE"/>
<path id="Fill-38" d="M37.9663 12.8601C38.0374 13.2619 38.2566 13.5536 38.7305 13.5595C38.6772 13.0833 38.3691 12.8928 37.9663 12.8601Z" fill="#FFFFFE"/>
<path id="Fill-39" d="M38.7305 14.7857C38.7097 14.3125 38.3958 14.122 37.9692 14.0863C38.0166 14.4851 38.2269 14.7768 38.7305 14.7857Z" fill="#FFFFFE"/>
<path id="Fill-40" d="M37.3561 8.49707C36.9533 8.53278 36.6452 8.72326 36.5919 9.19648C37.0658 9.19052 37.285 8.89886 37.3561 8.49707Z" fill="#FFFFFE"/>
<path id="Fill-41" d="M35.5286 8.14587C35.5997 8.54766 35.8188 8.83933 36.2927 8.84528C36.2394 8.37206 35.9314 8.18159 35.5286 8.14587Z" fill="#FFFFFE"/>
<path id="Fill-42" d="M35.422 6.68451C35.8959 6.67558 36.1121 6.38689 36.1862 5.98511C35.7834 6.02082 35.4753 6.2113 35.422 6.68451Z" fill="#FFFFFE"/>
<path id="Fill-43" d="M35.7923 4.92261C35.4191 5.08332 35.1851 5.36308 35.2858 5.83035C35.733 5.67261 35.8485 5.32737 35.7923 4.92261Z" fill="#FFFFFE"/>
<path id="Fill-44" d="M34.4564 5.26489C34.4712 5.66965 34.643 5.98811 35.111 6.06251C35.1258 5.5893 34.8504 5.35715 34.4564 5.26489Z" fill="#FFFFFE"/>
<path id="Fill-45" d="M34.2845 4.12201C34.7585 4.11308 34.9747 3.82439 35.0487 3.42261C34.6459 3.45832 34.3379 3.6488 34.2845 4.12201Z" fill="#FFFFFE"/>
<path id="Fill-46" d="M34.6815 2.4613C34.332 2.66071 34.1276 2.95833 34.2757 3.41071C34.7022 3.20833 34.7822 2.85416 34.6815 2.4613Z" fill="#FFFFFE"/>
<path id="Fill-47" d="M34.1484 3.75001C34.1632 3.2768 33.8877 3.04465 33.4938 2.95239C33.5086 3.35715 33.6804 3.67561 34.1484 3.75001Z" fill="#FFFFFE"/>
<path id="Fill-48" d="M33.8906 4.44057C33.8403 3.96735 33.5322 3.77985 33.1294 3.74414C33.2034 4.14295 33.4197 4.43462 33.8906 4.44057Z" fill="#FFFFFE"/>
<path id="Fill-49" d="M32.6288 5.37208C32.7651 5.28577 34.2312 4.42565 34.2312 4.42565C34.2342 4.42565 34.2401 4.4197 34.2401 4.4078L34.172 3.88696H34.1483C34.1483 3.88696 34.169 4.1072 34.1631 4.19351C34.1572 4.2947 34.1424 4.32744 34.0683 4.37803L32.4452 5.21732C32.4452 5.34232 32.4511 5.4703 32.4511 5.60125C32.4718 5.52684 32.5222 5.44053 32.6288 5.37208Z" fill="#FFFFFE"/>
<path id="Fill-50" d="M32.2674 0.726214C32.2141 0.252999 31.9091 0.0654994 31.5062 0.0297852C31.5773 0.428595 31.7935 0.720261 32.2674 0.726214Z" fill="#FFFFFE"/>
<path id="Fill-51" d="M32.2556 1.49709C32.2053 1.02685 31.8972 0.836373 31.4944 0.800659C31.5684 1.19947 31.7847 1.49114 32.2556 1.49709Z" fill="#FFFFFE"/>
<path id="Fill-52" d="M32.2468 2.26491C32.1965 1.7917 31.8884 1.6042 31.4856 1.56848C31.5567 1.96729 31.7729 2.25896 32.2468 2.26491Z" fill="#FFFFFE"/>
<path id="Fill-53" d="M32.2349 3.03578C32.1815 2.56555 31.8765 2.37507 31.4736 2.33936C31.5477 2.73816 31.7639 3.02983 32.2349 3.03578Z" fill="#FFFFFE"/>
<path id="Fill-54" d="M32.223 3.80959C32.1727 3.33637 31.8646 3.14887 31.4618 3.11316C31.5329 3.51197 31.7491 3.80364 32.223 3.80959Z" fill="#FFFFFE"/>
<path id="Fill-55" d="M32.2112 4.58046C32.1579 4.10725 31.8528 3.91975 31.45 3.88403C31.521 4.28284 31.7402 4.57451 32.2112 4.58046Z" fill="#FFFFFE"/>
<path id="Fill-56" d="M31.1894 2.82153C30.8043 2.94653 30.5466 3.20249 30.6029 3.6757C31.062 3.55963 31.2072 3.22927 31.1894 2.82153Z" fill="#FFFFFE"/>
<path id="Fill-57" d="M30.6177 4.24111C31.0886 4.23218 31.3048 3.94349 31.3789 3.54468C30.9761 3.58039 30.671 3.77087 30.6177 4.24111Z" fill="#FFFFFE"/>
<path id="Fill-58" d="M30.434 3.76488C30.5022 3.29464 30.2504 3.03273 29.8683 2.8988C29.8387 3.30357 29.9779 3.63988 30.434 3.76488Z" fill="#FFFFFE"/>
<path id="Fill-59" d="M30.3363 4.29767C30.2859 3.82446 29.9779 3.63398 29.5751 3.59827C29.6491 4.00005 29.8653 4.28874 30.3363 4.29767Z" fill="#FFFFFE"/>
<path id="Fill-60" d="M31.4589 6.4613C31.0561 6.49702 30.748 6.68749 30.6947 7.16071C31.1686 7.15178 31.3878 6.86011 31.4589 6.4613Z" fill="#FFFFFE"/>
<path id="Fill-61" d="M30.1349 6.87201C30.6088 6.86606 30.828 6.57439 30.8991 6.17261C30.4962 6.20832 30.1882 6.3988 30.1349 6.87201Z" fill="#FFFFFE"/>
<path id="Fill-62" d="M32.0216 6.75305C31.6188 6.78877 31.3078 6.97924 31.2574 7.45246C31.7314 7.44353 31.9505 7.15484 32.0216 6.75305Z" fill="#FFFFFE"/>
<path id="Fill-63" d="M31.0176 5.96137C31.4915 5.95542 31.7077 5.66375 31.7818 5.26196C31.3789 5.29768 31.0709 5.48815 31.0176 5.96137Z" fill="#FFFFFE"/>
<path id="Fill-64" d="M30.4814 5.64594C30.9554 5.63701 31.1716 5.34832 31.2456 4.94653C30.8428 4.98225 30.5348 5.17272 30.4814 5.64594Z" fill="#FFFFFE"/>
<path id="Fill-65" d="M29.9364 5.33039C30.4103 5.32146 30.6265 5.03277 30.6976 4.63098C30.2948 4.6667 29.9868 4.85717 29.9364 5.33039Z" fill="#FFFFFE"/>
<path id="Fill-66" d="M30.3363 5.86914C29.9335 5.90485 29.6225 6.09533 29.5721 6.56855C30.0461 6.55962 30.2652 6.27093 30.3363 5.86914Z" fill="#FFFFFE"/>
<path id="Fill-67" d="M29.4299 5.82447C29.4892 5.35126 29.2315 5.09233 28.8464 4.96436C28.8257 5.36912 28.9679 5.70543 29.4299 5.82447Z" fill="#FFFFFE"/>
<path id="Fill-68" d="M29.2848 6.54474C29.2315 6.07153 28.9235 5.88105 28.5206 5.84534C28.5917 6.24712 28.8109 6.53879 29.2848 6.54474Z" fill="#FFFFFE"/>
<path id="Fill-69" d="M29.6876 8.95837C29.2848 8.99409 28.9768 9.18456 28.9235 9.65778C29.3974 9.64885 29.6166 9.36016 29.6876 8.95837Z" fill="#FFFFFE"/>
<path id="Fill-70" d="M28.3784 9.34528C28.8523 9.33635 29.0715 9.04766 29.1426 8.64587C28.7398 8.68159 28.4317 8.87206 28.3784 9.34528Z" fill="#FFFFFE"/>
<path id="Fill-71" d="M30.2475 9.25C29.8446 9.28571 29.5366 9.47619 29.4833 9.9494C29.9572 9.94048 30.1764 9.65179 30.2475 9.25Z" fill="#FFFFFE"/>
<path id="Fill-72" d="M30.8073 9.5387C30.4044 9.57441 30.0964 9.76489 30.0431 10.2381C30.517 10.2292 30.7362 9.94048 30.8073 9.5387Z" fill="#FFFFFE"/>
<path id="Fill-73" d="M31.3671 9.83044C30.9643 9.86616 30.6562 10.0566 30.6029 10.5298C31.0768 10.5209 31.296 10.2293 31.3671 9.83044Z" fill="#FFFFFE"/>
<path id="Fill-74" d="M31.9328 10.1191C31.5299 10.1549 31.2189 10.3453 31.1686 10.8185C31.6425 10.8096 31.8617 10.5209 31.9328 10.1191Z" fill="#FFFFFE"/>
<path id="Fill-75" d="M31.1271 8.97321C31.601 8.96428 31.8202 8.67559 31.8913 8.2738C31.4884 8.30952 31.1804 8.49999 31.1271 8.97321Z" fill="#FFFFFE"/>
<path id="Fill-76" d="M30.5851 8.6518C31.059 8.64287 31.2782 8.35418 31.3493 7.95239C30.9464 7.98811 30.6384 8.17858 30.5851 8.6518Z" fill="#FFFFFE"/>
<path id="Fill-77" d="M30.046 8.33344C30.5199 8.32451 30.7391 8.03582 30.8102 7.63403C30.4074 7.66975 30.0964 7.86022 30.046 8.33344Z" fill="#FFFFFE"/>
<path id="Fill-78" d="M29.5099 8.01496C29.9838 8.00603 30.2 7.71734 30.2741 7.31555C29.8712 7.35127 29.5602 7.54174 29.5099 8.01496Z" fill="#FFFFFE"/>
<path id="Fill-79" d="M28.9679 7.69648C29.4418 7.68755 29.661 7.39886 29.7321 6.99707C29.3293 7.03278 29.0212 7.22326 28.9679 7.69648Z" fill="#FFFFFE"/>
<path id="Fill-80" d="M29.1249 7.93164C28.7221 7.96735 28.414 8.15783 28.3607 8.63105C28.8346 8.62212 29.0538 8.33343 29.1249 7.93164Z" fill="#FFFFFE"/>
<path id="Fill-81" d="M28.2688 8.2381C28.3843 7.77679 28.1622 7.4881 27.7949 7.3125C27.7238 7.71429 27.8275 8.0625 28.2688 8.2381Z" fill="#FFFFFE"/>
<path id="Fill-82" d="M28.1415 8.85419C28.0882 8.38098 27.7801 8.1905 27.3773 8.15479C27.4514 8.55657 27.6676 8.84824 28.1415 8.85419Z" fill="#FFFFFE"/>
<path id="Fill-83" d="M28.0379 9.55365C27.9875 9.07746 27.6765 8.88699 27.2737 8.85425C27.3448 9.25603 27.564 9.5477 28.0379 9.55365Z" fill="#FFFFFE"/>
<path id="Fill-84" d="M29.3558 11.503C29.8297 11.4941 30.0489 11.2054 30.12 10.8036C29.7172 10.8393 29.4092 11.0298 29.3558 11.503Z" fill="#FFFFFE"/>
<path id="Fill-85" d="M29.3558 12.5982C29.8297 12.5893 30.0489 12.3006 30.12 11.8988C29.7172 11.9345 29.4092 12.125 29.3558 12.5982Z" fill="#FFFFFE"/>
<path id="Fill-86" d="M28.8198 11.1875C29.2937 11.1786 29.5129 10.8869 29.584 10.4851C29.1812 10.5208 28.8731 10.7113 28.8198 11.1875Z" fill="#FFFFFE"/>
<path id="Fill-87" d="M28.2866 10.8691C28.7605 10.8602 28.9797 10.5685 29.0508 10.1697C28.645 10.2054 28.337 10.3959 28.2866 10.8691Z" fill="#FFFFFE"/>
<path id="Fill-88" d="M27.7505 10.5537C28.2244 10.5447 28.4436 10.2531 28.5147 9.85425C28.1118 9.88996 27.8038 10.0804 27.7505 10.5537Z" fill="#FFFFFE"/>
<path id="Fill-89" d="M38.8341 13.5418C38.8341 13.5418 38.9052 14.3275 38.8845 14.6429C38.8608 15.0001 38.8134 15.1251 38.5409 15.3037L32.6733 18.3424C32.6644 17.762 32.6526 17.1013 32.6377 16.381V16.1906C32.6318 15.7947 32.7384 15.5834 33.2035 15.2858C33.6063 15.0299 37.9367 12.4822 37.9367 12.4822C37.9456 12.4763 37.9633 12.4644 37.9604 12.4287L37.759 10.887H37.6938C37.6938 10.887 37.753 11.5358 37.7353 11.7947C37.7175 12.0894 37.676 12.1935 37.4539 12.3394L32.6081 14.8483C32.5963 14.1013 32.5815 13.3156 32.5667 12.515V12.2977C32.5696 12.0477 32.6585 11.8989 32.9724 11.6995C33.2746 11.506 36.509 9.60426 36.509 9.60426C36.5179 9.60128 36.5297 9.58938 36.5268 9.56557L36.3787 8.41378H36.3283C36.3283 8.41378 36.3728 8.8989 36.3609 9.09235C36.3461 9.31259 36.3165 9.38997 36.1506 9.50009L32.5459 11.3662C32.5311 10.4644 32.5133 9.55069 32.4985 8.65783C32.5222 8.52985 32.5963 8.36616 32.7947 8.23819C33.0109 8.10128 35.3272 6.73819 35.3272 6.73819C35.3331 6.73819 35.342 6.72926 35.339 6.7114L35.2324 5.887H35.1969C35.1969 5.887 35.2294 6.23521 35.2206 6.37212C35.2087 6.52985 35.188 6.5864 35.0695 6.66378L32.4896 8.00009C32.4748 7.16973 32.46 6.36021 32.4482 5.59533C32.4482 5.46735 32.4423 5.33938 32.4423 5.2114C32.3889 2.23224 32.3504 0.0209263 32.3504 0.0209263C32.3504 0.00604539 32.3415 -0.00585938 32.3267 -0.00585938C32.3119 -0.00585938 32.303 0.00604539 32.303 0.0209263C32.303 0.0209263 32.2645 2.23224 32.2142 5.20843C32.2142 5.26795 32.2142 5.32747 32.2112 5.38997C32.2112 5.33045 32.2112 5.26795 32.2142 5.20843L30.5999 4.37212C30.5259 4.32152 30.5111 4.28581 30.5051 4.18759C30.4992 4.09831 30.5199 3.88105 30.5199 3.88105H30.4962L30.4281 4.40188C30.4281 4.40188 30.434 4.41676 30.437 4.41974C30.437 4.41974 31.9002 5.27985 32.0394 5.36616C32.1342 5.42569 32.1816 5.50009 32.2083 5.56854C32.1964 6.33938 32.1816 7.15485 32.1668 7.99414L29.5929 6.66081C29.4714 6.58343 29.4536 6.52688 29.4418 6.36914C29.4329 6.22926 29.4655 5.88402 29.4655 5.88402H29.4299L29.3233 6.70843C29.3233 6.72628 29.3322 6.73223 29.3381 6.73521C29.3381 6.73521 31.6544 8.09533 31.8706 8.23223C32.0513 8.34831 32.1283 8.49414 32.1579 8.61616C32.1431 9.52093 32.1253 10.4465 32.1105 11.3572L28.5058 9.49116C28.3399 9.38104 28.3103 9.30366 28.2955 9.08343C28.2837 8.88997 28.3281 8.40485 28.3281 8.40485H28.2777L28.1297 9.55664C28.1297 9.58343 28.1415 9.59235 28.1474 9.59533C28.1474 9.59533 31.3819 11.4971 31.684 11.6876C32.0068 11.8929 32.0927 12.0447 32.0927 12.3096V12.5418H32.0898C32.075 13.3304 32.0631 14.1013 32.0513 14.8364L27.2114 12.3304C26.9893 12.1846 26.9478 12.0804 26.9301 11.7858C26.9123 11.5269 26.9715 10.8781 26.9715 10.8781H26.9034L26.705 12.4197C26.705 12.4554 26.7198 12.4674 26.7286 12.4733C26.7286 12.4733 31.059 15.0179 31.4648 15.2769C31.9298 15.5715 32.0365 15.7858 32.0305 16.1816C32.0157 16.9763 32.0039 17.7025 31.995 18.3304L26.1303 15.2947C25.8608 15.1162 25.8134 14.9912 25.7897 14.634C25.769 14.3185 25.8401 13.5328 25.8401 13.5328H25.7601L25.5172 15.3989C25.5172 15.4406 25.535 15.4554 25.5468 15.4614C25.5468 15.4614 30.7924 18.5447 31.2812 18.8572C31.8499 19.2203 31.9654 19.2441 31.9654 19.9108C31.9654 19.9406 31.9535 20.7114 31.9535 20.7382C31.9535 21.3185 31.4974 21.3334 31.4974 21.3334V21.4465H33.1798V21.3334C33.1798 21.3334 32.7236 21.3185 32.7236 20.7382C32.7236 20.7114 32.7147 19.9674 32.7147 19.9108C32.7147 19.2471 32.8303 19.2203 33.399 18.8572C33.8877 18.5447 39.1333 15.4614 39.1333 15.4614C39.1451 15.4554 39.1659 15.4406 39.1629 15.3989L38.92 13.5328H38.8401" fill="#FFFFFE"/>
<path id="Fill-90" d="M30.4607 12.1638C30.9346 12.1548 31.1538 11.8661 31.2249 11.4644C30.8221 11.5001 30.511 11.6905 30.4607 12.1638Z" fill="#FFFFFE"/>
<path id="Fill-91" d="M31.761 11.8156C31.3582 11.8513 31.0472 12.0417 30.9968 12.515C31.4707 12.506 31.6899 12.2173 31.761 11.8156Z" fill="#FFFFFE"/>
<path id="Fill-92" d="M34.6163 10.2293C34.9895 9.93163 34.9836 9.56854 34.797 9.20544C34.4978 9.48223 34.3704 9.82152 34.6163 10.2293Z" fill="#FFFFFE"/>
<path id="Fill-93" d="M33.8462 9.7113C33.547 9.98809 33.4196 10.3274 33.6655 10.7351C34.0387 10.4375 34.0328 10.0744 33.8462 9.7113Z" fill="#FFFFFE"/>
<path id="Fill-94" d="M32.8391 8.30359C32.9132 8.70537 33.1294 8.99704 33.6033 9.00299C33.55 8.52978 33.2419 8.3393 32.8391 8.30359Z" fill="#FFFFFE"/>
<path id="Fill-95" d="M35.5641 11.4435C35.5108 10.9703 35.2028 10.7799 34.7999 10.7441C34.871 11.1459 35.0902 11.4376 35.5641 11.4435Z" fill="#FFFFFE"/>
<path id="Fill-96" d="M34.6074 11.9614C34.5541 11.4882 34.2461 11.2977 33.8433 11.262C33.9173 11.6637 34.1335 11.9554 34.6074 11.9614Z" fill="#FFFFFE"/>
<path id="Fill-97" d="M37.291 15.8155C37.2376 15.3393 36.9296 15.1489 36.5238 15.1132C36.5949 15.5149 36.8141 15.8066 37.291 15.8155Z" fill="#FFFFFE"/>
<path id="Fill-98" d="M36.1921 16.3245C36.1388 15.8483 35.8307 15.6578 35.4249 15.6221C35.496 16.0239 35.7152 16.3155 36.1921 16.3245Z" fill="#FFFFFE"/>
<path id="Fill-99" d="M34.9185 14.4346C34.9925 14.8364 35.2087 15.128 35.6826 15.134C35.6293 14.6608 35.3213 14.4703 34.9185 14.4346Z" fill="#FFFFFE"/>
<path id="Fill-100" d="M34.1957 17.3483C34.1424 16.8721 33.8343 16.6816 33.4315 16.6459C33.5026 17.0477 33.7218 17.3393 34.1957 17.3483Z" fill="#FFFFFE"/>
<path id="Fill-101" d="M38.4224 16.1548C38.3454 16.622 38.615 16.872 39.0237 16.9941C39.0593 16.5923 38.9112 16.2649 38.4224 16.1548Z" fill="#FFFFFE"/>
<path id="Fill-102" d="M37.371 16.9226C37.3917 17.3988 37.7086 17.5893 38.1352 17.628C38.0878 17.2262 37.8775 16.9345 37.371 16.9226Z" fill="#FFFFFE"/>
<path id="Fill-103" d="M35.7626 18.4852C36.2039 18.3006 36.2987 17.9465 36.2217 17.5447C35.8574 17.7292 35.6382 18.0209 35.7626 18.4852Z" fill="#FFFFFE"/>
<path id="Fill-104" d="M37.6435 11.2679C37.5901 10.7947 37.2821 10.6042 36.8793 10.5685C36.9533 10.9703 37.1695 11.2619 37.6435 11.2679Z" fill="#FFFFFE"/>
<path id="Fill-105" d="M37.6138 11.9673C37.5634 11.4912 37.2524 11.3007 36.8496 11.2679C36.9207 11.6697 37.1399 11.9614 37.6138 11.9673Z" fill="#FFFFFE"/>
<path id="Fill-106" d="M38.0284 12.4376C38.5024 12.4286 38.7186 12.1399 38.7926 11.7382C38.3898 11.7739 38.0788 11.9644 38.0284 12.4376Z" fill="#FFFFFE"/>
<path id="Fill-107" d="M38.6771 10.5685C38.2714 10.6042 37.9633 10.7947 37.913 11.2679C38.3869 11.259 38.6061 10.9703 38.6771 10.5685Z" fill="#FFFFFE"/>
</g>
</g>
</g>
<defs>
<clipPath id="clip0_14_521">
<rect width="65" height="30" fill="white"/>
</clipPath>
</defs>
</svg>
