<svg width="51" height="20" viewBox="0 0 51 20" fill="none" xmlns="http://www.w3.org/2000/svg">
<g id="Calque_1" clip-path="url(#clip0_11_219)">
<path id="Vector" d="M24.1012 9.75171V15.5989H22.1894V1.13806H27.1601C28.3709 1.13806 29.5179 1.57817 30.4101 2.39553C31.3023 3.15001 31.7483 4.28173 31.7483 5.47632C31.7483 6.67091 31.3023 7.73976 30.4101 8.55711C29.5179 9.37446 28.4346 9.81458 27.1601 9.81458L24.1012 9.75171ZM24.1012 2.89851V7.92838H27.2875C27.9885 7.92838 28.6895 7.67689 29.1356 7.1739C30.1552 6.2308 30.1552 4.65897 29.1993 3.71587L29.1356 3.65299C28.6258 3.15001 27.9885 2.83564 27.2875 2.89851H24.1012Z" fill="#6B6B6B"/>
<path id="Vector_2" d="M36.1518 5.41345C37.5538 5.41345 38.6371 5.79069 39.4656 6.54517C40.294 7.29965 40.6764 8.30562 40.6764 9.56309V15.5989H38.892V14.2157H38.8283C38.0636 15.3474 36.9803 15.9133 35.7057 15.9133C34.6224 15.9133 33.6665 15.5989 32.9018 14.9702C32.2008 14.3415 31.7547 13.4612 31.7547 12.5181C31.7547 11.5122 32.1371 10.6948 32.9018 10.0661C33.6665 9.43734 34.7498 9.18585 36.0244 9.18585C37.1714 9.18585 38.0636 9.37447 38.7646 9.81458V9.37447C38.7646 8.74574 38.5097 8.117 37.9999 7.73977C37.4901 7.29965 36.8528 7.04816 36.1518 7.04816C35.0685 7.04816 34.24 7.48827 33.6665 8.3685L32.0096 7.36252C33.0292 6.04219 34.3675 5.41345 36.1518 5.41345ZM33.7302 12.581C33.7302 13.084 33.9851 13.5241 34.3675 13.7756C34.8136 14.09 35.3234 14.2786 35.8332 14.2786C36.5979 14.2786 37.3626 13.9642 37.9361 13.3984C38.5734 12.8325 38.892 12.1409 38.892 11.3864C38.3185 10.9463 37.4901 10.6948 36.4067 10.6948C35.642 10.6948 35.0047 10.8834 34.4949 11.2607C33.9851 11.575 33.7302 12.0152 33.7302 12.581Z" fill="#6B6B6B"/>
<path id="Vector_3" d="M51 5.72778L44.6911 20H42.7793L45.1372 15.033L40.995 5.79066H43.0342L46.0294 12.8953H46.0931L49.0245 5.79066H51V5.72778Z" fill="#6B6B6B"/>
<path id="Vector_4" d="M16.5178 8.49421C16.5178 7.92835 16.4541 7.36249 16.3904 6.79663H8.42459V10.0032H12.9491C12.758 11.0091 12.1844 11.9522 11.2923 12.5181V14.5929H14.0325C15.6256 13.1468 16.5178 11.0091 16.5178 8.49421Z" fill="#6B6B6B"/>
<path id="Vector_5" d="M8.42459 16.6049C10.7187 16.6049 12.6305 15.8504 14.0325 14.5929L11.2923 12.5181C10.5275 13.0211 9.57166 13.3355 8.42459 13.3355C6.2579 13.3355 4.34612 11.8894 3.70886 9.87744H0.904907V12.0151C2.37061 14.8444 5.23828 16.6049 8.42459 16.6049Z" fill="#6B6B6B"/>
<path id="Vector_6" d="M3.71517 9.87743C3.33281 8.87146 3.33281 7.73974 3.71517 6.6709V4.5332H0.904847C-0.305949 6.85952 -0.305949 9.62594 0.904847 12.0151L3.7088 9.87743H3.71517Z" fill="#6B6B6B"/>
<path id="Vector_7" d="M8.4246 3.27565C9.63539 3.27565 10.7825 3.71576 11.6746 4.53312L14.0962 2.14393C12.5668 0.760718 10.5276 -0.0566352 8.48832 -4.91929e-05C5.30202 -4.91929e-05 2.37062 1.76669 0.968643 4.59599L3.77259 6.73368C4.34613 4.72174 6.25791 3.27565 8.4246 3.27565Z" fill="#6B6B6B"/>
</g>
<defs>
<clipPath id="clip0_11_219">
<rect width="51" height="20" fill="white"/>
</clipPath>
</defs>
</svg>
