<svg width="55" height="21" viewBox="0 0 55 21" fill="none" xmlns="http://www.w3.org/2000/svg">
<g id="svg46988" clip-path="url(#clip0_5_868)">
<g id="layer1">
<g id="g1762">
<path id="path1764" d="M53.0025 7.9158C51.7129 6.63731 50.0227 5.93549 48.2392 5.93549C46.9359 5.93549 45.6243 6.41697 44.9055 6.89301C43.4156 7.87772 42.1891 8.94676 39.983 11.7731V13.8051C41.8543 11.3868 43.6268 9.48264 44.9713 8.43536C45.8548 7.73083 47.1088 7.2956 48.242 7.2956C51.1641 7.2956 53.6336 9.74378 53.6336 12.6408V13.8622C53.6336 15.293 53.0656 16.6395 52.0339 17.6514C51.0105 18.6552 49.6633 19.2074 48.2447 19.2074C45.8439 19.2074 43.7311 17.5725 43.1549 15.342L42.1891 16.5008C42.8942 18.8374 45.435 20.5648 48.242 20.5648C50.0254 20.5648 51.7184 19.8602 53.0052 18.5845C54.2921 17.306 55 15.6303 55 13.8622V12.6408C55 10.8727 54.2921 9.1943 53.0052 7.91852M23.671 7.29288C24.6011 7.29288 25.4051 7.49145 26.1322 7.89948C26.4724 7.47785 26.8182 7.13238 27.0761 6.8794C26.3078 6.29728 25.0072 5.93549 23.671 5.93549C21.7695 5.93549 20.0409 6.61554 18.8089 7.85052C17.5852 9.07461 16.9075 10.7747 16.9075 12.6381V20.5648H18.2766V12.6381C18.2766 9.4908 20.4936 7.29288 23.671 7.29288ZM36.6822 20.5648V12.6381C36.6822 10.2008 34.7561 8.29119 32.2976 8.29119C31.1534 8.29119 30.0614 8.75091 29.219 9.58329C28.3794 10.4157 27.9157 11.501 27.9157 12.6354V13.8567C27.9157 16.2124 29.9242 18.2036 32.2976 18.2036C32.9479 18.2036 33.8341 18.0459 34.3774 17.6025V16.1689C33.8451 16.5933 33.0713 16.8462 32.2976 16.8462C30.6074 16.8462 29.2849 15.5324 29.2849 13.8567V12.6354C29.2849 10.9597 30.6101 9.64858 32.2976 9.64858C33.985 9.64858 35.313 10.9597 35.313 12.6354V20.562H36.6822V20.5648ZM0 11.8519V12.2899C0 14.6429 0.899975 16.8408 2.53804 18.4729C4.17062 20.1023 6.35745 21 8.69793 21C10.5802 21 12.2457 20.5784 13.6533 19.7487C14.8139 19.0632 15.327 18.3696 15.3709 18.307V10.9978H8.36593V12.3552H14.0017V17.8826L13.9963 17.8881C13.335 18.5437 11.771 19.6399 8.69793 19.6399C6.69768 19.6399 4.84285 18.8837 3.47643 17.5073C2.11823 16.1363 1.36917 14.2838 1.36917 12.2872V11.8492C1.36917 9.96412 2.22524 8.08718 3.72063 6.69443C5.2462 5.2772 7.23273 4.4965 9.31529 4.4965C11.2579 4.4965 12.6106 4.78756 13.6999 5.44041V3.9171C12.5667 3.44106 11.214 3.22617 9.31529 3.22617C4.26665 3.22889 0 7.17863 0 11.8519ZM23.671 9.6513C24.1896 9.6513 24.6313 9.73562 24.9798 9.90427C25.1499 9.48264 25.3255 9.13446 25.5807 8.71282C25.2075 8.44896 24.3213 8.29119 23.671 8.29119C21.1714 8.29119 19.2864 10.16 19.2864 12.6381V20.5648H20.6555V12.6381C20.6555 10.8781 21.8957 9.6513 23.671 9.6513ZM13.6999 8.05725V6.45233C12.4597 5.79404 11.1098 5.50026 9.31529 5.50026C7.52083 5.50026 5.75106 6.16671 4.43128 7.37176C3.10876 8.58225 2.3789 10.1736 2.3789 11.8519V12.2899C2.3789 15.7935 5.21327 18.6416 8.69793 18.6416C11.5323 18.6416 12.6957 17.7222 12.992 17.4311V13.3562H8.36318V14.7136H11.7107V16.7565H11.6997C11.2689 16.9306 10.3744 17.2842 8.69793 17.2842C7.36717 17.2842 6.12422 16.7728 5.19406 15.8398C4.25842 14.904 3.74807 13.6418 3.74807 12.2899V11.8519C3.74807 9.14534 6.29708 6.85764 9.31529 6.85764C11.4033 6.85764 12.6381 7.19223 13.6999 8.05725ZM46.0249 10.617C46.6423 10.0049 47.4517 9.65402 48.2392 9.65402C49.9294 9.65402 51.2547 10.9652 51.2547 12.6408V13.8622C51.2547 15.5378 49.9294 16.8517 48.2392 16.8517C47.4216 16.8517 46.6313 16.4056 46.0112 15.6004C45.4625 14.8877 45.1058 13.9247 45.0509 13.057L43.9424 14.3981C44.1591 15.4236 44.7024 16.4083 45.4652 17.0992C46.2554 17.8119 47.2377 18.2063 48.2365 18.2063C50.6538 18.2063 52.6184 16.256 52.6184 13.8595V12.6381C52.6184 11.5038 52.1547 10.4184 51.315 9.58601C50.4727 8.75091 49.3806 8.29391 48.2365 8.29391C47.5121 8.29391 46.3624 8.55233 44.9905 9.7737L44.985 9.77915C44.6174 10.1437 43.7558 10.9978 43.2317 11.6071C42.351 12.5619 41.0696 14.0009 39.9776 15.4399V17.5589C41.1876 16.0166 41.8873 15.1516 43.0259 13.8486C44.0466 12.668 45.3088 11.2345 46.0222 10.617M25.5395 13.8622C25.5395 15.6303 26.2502 17.3087 27.537 18.5845C28.8266 19.8602 30.5168 20.5648 32.3003 20.5648C33.0549 20.5648 33.8314 20.4043 34.3801 20.1377V18.7803C33.7381 19.0469 32.9643 19.2074 32.3003 19.2074C29.3782 19.2074 26.9087 16.7592 26.9087 13.8622V12.6408C26.9087 9.74378 29.3782 7.2956 32.3003 7.2956C33.7518 7.2956 35.11 7.8478 36.1252 8.85155C37.1377 9.85531 37.6919 11.2018 37.6919 12.6408V20.5675H39.0611V12.3797C38.9761 10.6496 38.2297 9.03109 36.9648 7.8206C35.6972 6.60466 34.0372 5.93549 32.3003 5.93549C30.5635 5.93549 28.8239 6.64003 27.537 7.9158C26.2502 9.19158 25.5395 10.8699 25.5395 12.6381V13.8595V13.8622ZM41.3906 8.60674C41.8104 8.10894 42.244 7.60026 42.757 7.17319V0H41.3906V8.60674ZM43.7668 6.61554V0H45.1359V5.68523C44.7655 5.87021 44.2442 6.22655 43.7668 6.61554Z" fill="white"/>
</g>
</g>
</g>
<defs>
<clipPath id="clip0_5_868">
<rect width="55" height="21" fill="white"/>
</clipPath>
</defs>
</svg>
