<svg width="74" height="15" viewBox="0 0 74 15" fill="none" xmlns="http://www.w3.org/2000/svg">
<g id="Calque_1" clip-path="url(#clip0_14_455)">
<path id="Vector" fill-rule="evenodd" clip-rule="evenodd" d="M39.0238 9.22634C39.0238 8.77926 39.5558 8.56339 39.8666 8.40372C40.0581 8.30536 40.2296 8.21723 40.4198 8.11887C40.8263 7.90938 41.1557 7.94132 41.556 8.05373C41.699 8.09332 42.318 8.25427 42.3976 8.32197C42.4883 8.39861 42.5468 8.57744 42.5468 8.74477C42.5468 9.0986 42.5878 10.5522 42.4933 10.7873C42.42 10.9674 42.2136 11.0325 42.0048 11.1398C41.9041 11.1909 41.8282 11.2407 41.7213 11.2944C41.3695 11.4745 40.8536 11.827 40.523 11.827C40.2545 11.827 39.715 11.5115 39.4738 11.3646C39.3607 11.2944 39.2823 11.2369 39.2115 11.1143C39.1381 10.9878 39.1096 10.8882 39.0971 10.7119C39.0847 10.5433 39.0934 10.3811 39.076 10.2137L39.025 9.22762L39.0238 9.22634ZM46.8653 15H46.6416C46.3992 14.9898 46.1617 14.9451 45.8286 14.8582C45.4208 14.7535 44.8639 14.6781 44.5047 14.4916C44.0994 14.2821 43.9167 14.0203 43.5997 13.6945L42.7867 12.8221C42.5182 12.5462 42.6151 12.559 42.4747 12.2882C42.3852 12.2958 42.3578 12.3367 42.2882 12.375L41.3845 12.8387C41.3173 12.8732 41.2713 12.8962 41.203 12.9307L40.3116 13.4071C40.2184 13.4608 40.0357 13.531 39.9138 13.5553C39.7572 13.586 39.6167 13.5872 39.444 13.563C39.1294 13.5183 38.9405 13.3892 38.6981 13.2155C38.4843 13.061 38.2891 12.9038 38.0765 12.7403C37.6738 12.4299 37.1902 12.1528 37.0112 11.6265C36.9304 11.3889 36.9254 11.1424 36.9453 10.8946C36.9528 10.8064 36.9403 10.7068 36.9478 10.6187L36.9838 10.0988C36.995 9.70279 37.0273 8.92233 37.1131 8.56083C37.2573 7.95409 37.7471 7.74716 38.2294 7.49935C38.35 7.43804 38.4706 7.37545 38.5912 7.31414L40.1289 6.66652C40.7119 6.4417 41.3807 6.67035 41.9128 6.85173C42.0234 6.89005 42.4225 7.04972 42.5331 6.96414C42.599 6.91305 42.6126 6.75338 42.594 6.63331C42.558 6.39188 42.5828 6.09426 42.5841 5.84518C42.5841 5.69189 42.5654 5.6127 42.5654 5.45558C42.5679 4.96635 42.4585 4.89227 42.1465 4.67895C41.9637 4.55377 41.6008 4.24848 41.3907 4.24848C41.0252 4.24848 40.8549 4.29702 40.5242 4.343C40.2458 4.38132 40.1376 4.40176 40.0058 4.60869C39.93 4.72877 39.6441 5.57565 39.5807 5.76853C39.5173 5.96652 39.4638 6.16962 39.2699 6.24754C39.1207 6.3063 38.7565 6.30502 38.5688 6.32546L38.1921 6.34718C37.8242 6.34718 37.3965 6.53367 37.3965 5.97547C37.3965 5.69189 37.5196 5.22055 37.5756 4.93442C37.7048 4.27147 37.6265 4.28552 38.1051 3.95597C38.5178 3.67111 38.9194 3.36455 39.3656 3.1359C39.5036 3.06437 39.6093 2.98901 39.8169 2.98645L40.7032 3.00561C40.8089 3.00689 40.8512 3.02605 40.973 3.02477C41.1321 3.02477 41.4006 3.00944 41.5461 3.02988C41.8892 3.07842 42.3379 3.02988 42.6872 3.06437C42.8389 3.0797 43.0303 3.13846 43.1534 3.19722C43.4493 3.339 43.5723 3.53571 43.7874 3.75287C43.8856 3.8525 43.9962 3.95597 44.0857 4.05943C44.4375 4.47074 44.6973 4.61636 44.6787 5.27164L44.6414 5.84518C44.6402 5.94992 44.6427 6.05722 44.6427 6.16196C44.6427 6.27948 44.6228 6.31652 44.624 6.43915C44.624 6.5375 44.6265 6.63841 44.624 6.73677C44.6228 6.84535 44.6041 6.88878 44.6054 7.01396C44.6091 7.72289 44.5295 8.66941 44.5333 9.37196C44.5333 9.50225 44.5146 9.54823 44.5146 9.6683C44.5146 10.0643 44.4773 10.4833 44.4798 10.8384C44.4798 11.0223 44.4437 11.4208 44.4437 11.6916C44.4437 12.0199 44.7309 12.6113 44.8987 12.8949C45.1038 13.2423 45.294 13.5732 45.6906 13.7341C46.2189 13.9487 46.7311 13.9474 47.2942 13.8402C47.3837 13.8235 47.5205 13.7839 47.6062 13.752C48.2129 13.5234 48.4814 13.4544 48.5622 12.711C48.6355 12.0404 48.6355 11.8526 49.2857 11.8219L49.8463 11.7849C50.003 11.7849 50.2093 11.7236 50.3199 11.873C50.3883 11.9663 50.3597 12.0672 50.3386 12.1796C50.2528 12.633 50.1447 13.0622 50.0378 13.5042C49.9234 13.9756 49.8376 14.3192 49.4784 14.544C49.2484 14.6883 47.8238 14.8825 47.472 14.9336C47.2321 14.9681 47.0406 14.9898 46.8666 14.9974L46.8653 15ZM58.6786 7.87106C59.1212 7.87106 59.3027 7.94643 59.7166 8.06778C59.8223 8.09843 60.051 8.15847 60.1194 8.21084C60.2176 8.28493 60.2872 8.42799 60.2872 8.59532V10.4884C60.2872 10.6187 60.2412 10.7145 60.1828 10.7885C60.107 10.8831 58.9819 11.4477 58.8601 11.509C58.6873 11.5971 58.522 11.7325 58.2647 11.7325C58.0074 11.7325 57.8047 11.569 57.627 11.4783C57.1397 11.2305 56.8724 11.1832 56.8562 10.4513C56.8537 10.33 56.85 10.132 56.8339 10.0106L56.8015 9.57889C56.7928 9.257 56.7543 9.02196 56.8948 8.80098C57.0066 8.62598 57.2503 8.52635 57.4268 8.41905C57.6978 8.25299 58.4201 7.86979 58.6811 7.86979L58.6786 7.87106ZM55.1569 5.92182C55.1569 6.17473 55.3185 6.27948 55.5895 6.25521C55.8543 6.23094 56.906 6.17857 57.0228 6.1313C57.2329 6.04828 57.2677 5.86689 57.3398 5.65868C57.402 5.48241 57.7015 4.57548 57.7538 4.48735C57.8743 4.28041 58.0136 4.27403 58.2796 4.22932C58.5755 4.17823 58.7905 4.13863 59.0951 4.13863C59.3226 4.13863 59.565 4.34684 59.7639 4.49118L60.0635 4.70322C60.1567 4.77475 60.235 4.88077 60.281 4.99957C60.3655 5.21544 60.3046 6.16962 60.3233 6.51451C60.3282 6.60393 60.3556 6.64352 60.3332 6.74571C60.276 7.00757 59.9578 6.84407 59.7204 6.76232C59.3412 6.63203 58.7259 6.45831 58.3181 6.45831C57.9912 6.45831 57.2491 6.78403 56.9035 6.93604C56.8314 6.96797 56.7966 6.98969 56.717 7.0229C56.3577 7.1749 55.5621 7.58749 55.3086 7.7842C54.7367 8.22361 54.8548 8.57489 54.7616 9.43072C54.7429 9.60571 54.7591 9.7871 54.733 9.95826L54.6671 11.0057C54.6758 11.8832 55.2091 12.1643 55.7934 12.6152C56.0059 12.7787 56.1999 12.9281 56.4124 13.0929C56.809 13.3982 57.0576 13.5131 57.6282 13.4531C57.9216 13.4225 58.4511 13.0903 58.7507 12.9358C58.8514 12.8834 60.1219 12.1936 60.1965 12.1936C60.3258 12.1936 60.1741 12.3942 60.5135 12.665L61.3526 13.3995C61.687 13.6639 61.8038 13.8376 62.2973 13.554L62.9636 13.1619C63.0681 13.0967 63.2284 13.0226 63.1762 12.863C63.1252 12.7097 62.7797 12.4453 62.6392 12.3188L62.2103 11.9433C62.0661 11.8092 62.1046 11.5997 62.137 11.3659L62.2066 10.5842C62.2215 10.4654 62.2265 10.3146 62.2451 10.178C62.3023 9.76922 62.3334 9.01557 62.3918 8.58383C62.4502 8.15847 62.4763 7.42016 62.536 6.98713C62.5808 6.66779 62.5994 6.11725 62.6442 5.79919C62.7784 4.84117 62.4229 4.60231 61.9157 4.03899L61.7267 3.82567C61.5875 3.68261 61.4806 3.53061 61.3289 3.39904C61.0405 3.14868 60.6639 2.9724 60.1604 2.94813C60.0796 2.9443 60.0734 2.93025 59.9802 2.92897C59.9143 2.92897 59.8472 2.92897 59.7813 2.92897C59.6483 2.92897 59.5165 2.92897 59.3835 2.92897C59.2306 2.92897 59.1398 2.90981 59.0043 2.90981L58.2087 2.89193C58.0683 2.89193 57.9576 2.86127 57.837 2.88043C57.5511 2.92642 57.5201 2.86893 57.1558 3.01583C56.9308 3.10652 56.3838 3.46418 56.1414 3.62641C55.8145 3.84611 55.4652 4.02877 55.3819 4.49884C55.3583 4.63169 55.1544 5.81069 55.1544 5.91799L55.1569 5.92182ZM28.8874 7.87106C29.1858 7.87106 29.1982 7.87106 29.4978 7.94898C29.6383 7.98475 29.78 8.02179 29.9267 8.06522C30.0411 8.09843 30.2499 8.15336 30.3295 8.20829C30.4252 8.27343 30.4948 8.43565 30.4948 8.59532V10.5075C30.4948 10.6225 30.4364 10.7323 30.3767 10.7937C30.312 10.8601 30.2114 10.9048 30.133 10.952L29.0677 11.5103C28.4474 11.8283 28.4648 11.804 27.8333 11.4796C27.3534 11.2331 27.0787 11.1807 27.0626 10.4526L27.0277 9.80243C27.0277 9.52779 26.9159 9.09605 27.1023 8.80353C27.2316 8.60171 27.6953 8.38967 27.9116 8.26193C28.118 8.13931 28.6836 7.87234 28.8874 7.87234V7.87106ZM25.3645 5.92182C25.3645 6.33568 25.7424 6.24499 25.9972 6.23732L26.3043 6.21816C26.3826 6.21433 26.3701 6.20411 26.4485 6.199C26.5007 6.19645 26.5579 6.20284 26.6101 6.199C26.6921 6.19262 26.8201 6.19006 26.9159 6.17857C27.4554 6.11725 27.3932 6.05466 27.5921 5.53733C27.6244 5.45175 27.6493 5.36872 27.6754 5.28825L27.9302 4.54738C28.0707 4.21655 28.425 4.23315 28.8613 4.16801C29.0615 4.13863 29.2566 4.10414 29.4319 4.15396C29.6035 4.20377 29.7178 4.30596 29.8446 4.39793C29.9714 4.49118 30.1007 4.57293 30.2288 4.67128C30.3456 4.7607 30.4699 4.8846 30.506 5.05449C30.5557 5.28953 30.5122 6.2897 30.5321 6.53112C30.547 6.70995 30.593 6.88494 30.3506 6.88494C30.1728 6.88494 29.2741 6.45831 28.5083 6.45831C28.2211 6.45831 27.5076 6.75338 27.2739 6.86067C26.7369 7.10593 25.5236 7.61559 25.2165 8.08821C25.0002 8.42033 25.0052 8.907 24.9853 9.31703L24.948 9.90972C24.9393 10.0183 24.9269 10.1971 24.9157 10.3032C24.9082 10.3696 24.9169 10.4373 24.912 10.5037C24.9058 10.5765 24.8946 10.5944 24.8946 10.6902C24.8946 10.9482 24.8386 11.0734 24.9406 11.4413C24.9779 11.5741 25.0052 11.6354 25.0624 11.7427C25.1643 11.9343 25.2936 12.0659 25.4577 12.1911L26.8512 13.2653C27.0949 13.448 27.4367 13.4557 27.75 13.4557C28.0036 13.4557 28.287 13.3011 28.4598 13.2015C28.6699 13.0801 28.8725 12.9792 29.0926 12.8681L29.8745 12.4466C29.9901 12.3865 30.3158 12.1936 30.4053 12.1936C30.465 12.1936 30.4637 12.2447 30.4811 12.3022C30.5557 12.5564 30.7434 12.6944 30.9398 12.8515L31.6919 13.508C31.7342 13.5464 31.7503 13.5655 31.8038 13.5975C32.1481 13.8082 32.3383 13.6511 32.664 13.4569C32.7224 13.4225 32.7759 13.3931 32.8381 13.3573C33.0643 13.227 33.4459 13.0597 33.3875 12.8617C33.3564 12.7557 33.2234 12.642 33.1401 12.5756L32.6404 12.1425C32.3184 11.8475 32.2724 11.8845 32.3445 11.3659C32.4017 10.9546 32.4316 10.2316 32.4863 9.78582C32.5285 9.43966 32.5546 8.88912 32.5969 8.58127C32.6416 8.2581 32.664 7.69096 32.705 7.39333C32.7523 7.05356 32.7722 6.50812 32.8157 6.19006L32.8778 5.34445C32.8778 5.043 32.7622 4.79519 32.6143 4.59337L32.4303 4.37366C32.3881 4.3264 32.3781 4.30085 32.3321 4.25231L31.8461 3.73115C31.636 3.46035 31.3687 3.22659 31.0542 3.09758C30.9585 3.05798 30.8702 3.02477 30.7546 2.99667C30.5346 2.9443 30.5768 2.96857 30.3904 2.94302C29.9379 2.88299 29.279 2.9609 28.8265 2.89704L28.0546 2.87277C27.4032 2.90981 27.111 3.12185 26.6125 3.45141C25.5037 4.18717 25.6628 4.02622 25.4167 5.545C25.3993 5.64974 25.362 5.80941 25.362 5.91671L25.3645 5.92182ZM12.809 7.87106C13.2217 7.87106 13.4604 7.96687 13.8247 8.07161C14.1503 8.16486 14.3803 8.20445 14.3803 8.63237V10.4884C14.3803 10.6187 14.3343 10.7145 14.2759 10.7885C14.2075 10.8729 13.8781 11.0249 13.7662 11.0823L12.9657 11.5039C12.8041 11.5971 12.6126 11.7325 12.3752 11.7325C12.0918 11.7325 11.9289 11.5856 11.7313 11.4847C11.244 11.2369 10.9531 11.1832 10.9481 10.4334C10.9468 10.1716 10.9145 10.0157 10.9133 9.78199C10.9108 9.49331 10.8039 9.07689 10.9953 8.79076C11.0687 8.68091 11.1308 8.64642 11.244 8.58127L11.6716 8.33347C11.7238 8.30281 11.7598 8.27982 11.8232 8.24788C12.0719 8.12142 12.5467 7.87106 12.8103 7.87106H12.809ZM9.25 5.94098C9.25 6.20794 9.47127 6.28203 9.71741 6.25393C10.0319 6.21689 10.9804 6.199 11.142 6.12108C11.3272 6.03167 11.3794 5.8439 11.4478 5.63697C11.4963 5.49007 11.7872 4.57804 11.8618 4.46563C11.9911 4.2702 12.1365 4.26892 12.4038 4.22421C12.7158 4.17312 12.8637 4.1399 13.1882 4.1399C13.4219 4.1399 13.8135 4.4503 14.0061 4.59848C14.0608 4.64063 14.1019 4.66234 14.1566 4.7045C14.4972 4.96635 14.4164 5.42493 14.4164 5.99718C14.4164 6.15557 14.4052 6.36378 14.4164 6.51579C14.4338 6.724 14.4885 6.8875 14.2162 6.8875C14.1255 6.8875 13.8856 6.78786 13.7985 6.75976C13.4008 6.62947 12.8351 6.46086 12.41 6.46086C12.1203 6.46086 11.4727 6.72911 11.1868 6.85556L10.6398 7.10976C10.2582 7.28476 9.71244 7.54661 9.40166 7.78676C9.01008 8.08821 8.91312 8.40117 8.88825 8.91083L8.82858 9.96337C8.80745 10.123 8.80621 10.3057 8.79751 10.4884C8.77886 10.8575 8.71546 11.1066 8.83604 11.4885C8.92182 11.7632 9.0685 11.9739 9.26989 12.1374C9.46506 12.2958 10.6734 13.2436 10.8263 13.3215C11.1147 13.4697 11.4043 13.4876 11.7213 13.4544C11.8941 13.4365 11.9935 13.3829 12.1278 13.3152L13.5611 12.5602C13.6817 12.4976 14.2274 12.1949 14.2896 12.1949C14.3729 12.1949 14.3492 12.3201 14.4164 12.4542C14.4972 12.6164 14.8788 12.8911 15.0255 13.0354L15.4457 13.402C15.7801 13.6664 15.8969 13.8402 16.3904 13.5566L17.0567 13.1644C17.4222 12.9383 17.3116 12.8247 16.9573 12.5168C16.9212 12.4849 16.9138 12.4862 16.8765 12.4504C16.8243 12.4006 16.7845 12.3686 16.731 12.3214C16.6341 12.2345 16.5433 12.1643 16.4439 12.0787C16.1779 11.8488 16.1692 11.8053 16.2288 11.3685L16.3009 10.5893C16.3444 10.2712 16.3656 9.70152 16.4091 9.38218C16.4688 8.95043 16.4998 8.19807 16.557 7.78804C16.5968 7.50318 16.6229 6.91049 16.6652 6.60009L16.7634 5.36361C16.7634 4.99829 16.5694 4.63296 16.3531 4.41198L15.928 3.93936C15.8596 3.85505 15.7763 3.78863 15.703 3.70688L15.4867 3.46546C15.0528 3.01711 14.481 2.93153 13.7662 2.93153C13.1123 2.93153 12.4895 2.89448 11.8145 2.89448C11.6318 2.89448 11.3844 2.95963 11.2489 3.01839C11.0053 3.12441 10.4223 3.50123 10.1699 3.67367C10.0481 3.75797 9.97722 3.79246 9.85912 3.8921C9.55083 4.15268 9.51354 4.26892 9.44268 4.70833C9.41782 4.86033 9.24876 5.80813 9.24876 5.93842L9.25 5.94098ZM0.397796 13.0507C0.589235 13.0507 1.74782 13.0456 1.80749 13.0137C1.96163 12.9345 1.90693 12.711 1.93553 12.4402C1.96163 12.2 1.97282 11.7019 2.00265 11.4323L2.05984 10.4334C2.06357 9.94677 2.13442 9.27743 2.14934 8.74222L2.18539 8.25938C2.19036 8.20062 2.18415 8.1342 2.18539 8.07416C2.18788 7.98986 2.19782 7.99497 2.2028 7.92471C2.20777 7.86595 2.2028 7.79825 2.2028 7.7395L2.23512 7.25282C2.26744 7.00502 2.22268 6.89261 2.35943 6.47108C2.526 5.95758 2.59189 5.98058 2.95985 5.67784C3.75047 5.02767 3.60751 5.14263 4.66043 5.14263C5.04331 5.14263 5.14648 5.2908 5.47094 5.53478C5.95202 5.89755 5.82771 5.91926 5.87371 6.3459C5.8936 6.52345 5.88987 6.73677 5.88862 6.94242C5.88862 7.06633 5.90478 7.1187 5.90727 7.21961C5.90976 7.3218 5.90727 7.43165 5.90727 7.5364L5.92467 8.44587C5.92467 8.57616 5.94332 8.62215 5.94332 8.74222C5.94332 9.1663 5.96197 9.52652 5.96072 9.94932C5.96072 10.0719 5.97937 10.109 5.97937 10.2265L6.01418 12.3622C6.02412 13.2194 6.22178 13.0852 7.31572 13.0852C7.77442 13.0852 7.69238 12.5653 7.71351 12.2882L7.74583 11.8385C7.75453 11.7542 7.7421 11.6686 7.7508 11.5843L7.85771 9.72579C7.86269 9.22889 7.92484 8.81375 7.92857 8.33219L8.02056 6.94115C8.04045 6.10576 8.23935 5.74043 7.75951 5.05449C7.60785 4.83734 6.91668 3.88954 6.76626 3.7733C6.65189 3.68517 6.53007 3.63918 6.33987 3.63663C6.182 3.63407 5.98683 3.59703 5.80285 3.62258C5.47218 3.66856 5.05698 3.61619 4.69524 3.63535L4.15821 3.65962C3.98542 3.68261 3.84868 3.69922 3.68956 3.75414C3.2582 3.90232 3.0419 4.21399 2.77463 4.53972C2.68761 4.64574 2.55584 4.84245 2.47255 4.84245C2.35073 4.84245 2.40667 4.56654 2.41785 4.32257L2.49244 3.23043C2.50114 3.14868 2.50114 3.01328 2.51606 2.92003C2.55211 2.67094 2.56703 2.12168 2.5807 1.83555C2.58443 1.75508 2.59438 1.76785 2.59935 1.68738C2.60183 1.63373 2.59562 1.57497 2.59935 1.52132L2.6354 1.05637C2.63913 0.622064 2.78706 0.153274 2.41661 0.0178742C2.38926 0.00765538 2.33705 0.00126859 2.26744 -0.00256348H1.83359C1.58 0.00382331 1.31273 0.0165969 1.17101 0.0165969C0.952224 0.0165969 0.773216 0.0357572 0.538268 0.0344799C0.0534538 0.0357572 0.00372934 0.240134 0 0.60929V1.52132C0.00372934 1.61968 0.0186467 1.67844 0.0186467 1.79979V2.80251C0.0186467 2.9328 0.0360503 2.98773 0.0372934 3.09886V4.10158C0.0372934 4.3264 0.0546969 4.51034 0.0546969 4.75176C0.0546969 4.97402 0.0546969 5.19756 0.0546969 5.41982C0.0546969 5.65102 0.0733436 5.8158 0.0733436 6.05083V6.71889C0.0733436 6.96031 0.0919903 7.13531 0.0919903 7.36906C0.0919903 8.89934 0.146687 10.4552 0.146687 11.9727C0.146687 12.0914 0.15166 12.877 0.181494 12.9383C0.213815 13.0035 0.303319 13.0482 0.399039 13.0482L0.397796 13.0507Z" fill="white"/>
<path id="Vector_2" fill-rule="evenodd" clip-rule="evenodd" d="M46.3395 13.0138L47.2619 12.9959C47.3924 12.9959 47.4459 12.9665 47.518 12.9065C47.7405 12.7174 47.7107 12.2895 47.7343 12.0698C47.7554 11.8693 47.7616 11.6151 47.7828 11.4145L47.8213 10.7682C47.8213 10.6417 47.835 10.5702 47.8387 10.4335C47.8412 10.3492 47.8511 10.3543 47.8561 10.2841C47.8611 10.224 47.8536 10.1602 47.8586 10.1001L47.9108 9.28133C47.9133 9.17276 47.9481 8.96327 47.9481 8.78061C47.9481 8.58262 47.9928 8.18153 48.0015 7.98226L48.0376 7.3142C48.0401 7.20946 48.0736 6.99486 48.0736 6.81348C48.0736 6.60655 48.1184 6.36896 48.1942 6.23228C48.3335 5.97809 48.6679 5.75199 48.9152 5.56167L49.2981 5.24872C49.5815 4.9677 50.1782 5.08905 50.5313 5.08649C50.7588 5.08521 50.9104 5.13248 51.0546 5.21678C51.1827 5.29215 51.2871 5.42755 51.394 5.53612L51.6973 5.8925C51.7669 6.04068 51.7421 6.29104 51.7421 6.49669C51.7421 6.73811 51.7607 6.91311 51.7607 7.14687C51.7607 7.36913 51.7607 7.59267 51.7607 7.81493C51.7607 8.0474 51.7781 8.2224 51.7781 8.4651C51.7781 8.91984 51.7968 9.31071 51.7968 9.76417C51.7968 10.0056 51.8154 10.178 51.8154 10.4143C51.8154 10.6289 51.7955 10.8678 51.8254 11.0722L51.8515 12.3636C51.8515 12.5935 51.8714 12.7775 51.982 12.8988C52.0877 13.015 52.3015 13.0138 52.5203 13.0138C53.0038 13.0138 53.2587 13.0891 53.3705 12.6433C53.4252 12.4249 53.516 11.1501 53.5558 10.8282C53.5694 10.7158 53.5781 10.5842 53.5881 10.4527C53.6055 10.2227 53.6428 9.96088 53.659 9.72713L53.9225 6.76877C53.9399 6.64359 53.9387 6.53501 53.9511 6.40856C53.961 6.31531 53.9784 6.12754 53.9772 6.03684C53.971 5.76477 53.9312 5.58594 53.823 5.402C53.7261 5.23594 53.6018 5.08394 53.4824 4.93449C53.3183 4.72755 52.841 4.11059 52.6881 3.94964C52.4631 3.71206 52.3189 3.45275 51.7806 3.45275C51.6849 3.45275 51.5879 3.45275 51.491 3.45275C51.3642 3.45275 51.3107 3.47063 51.2026 3.47191C51.1068 3.47191 51.0086 3.47063 50.9117 3.47063C50.7948 3.47063 50.7501 3.49107 50.6233 3.4898L50.0552 3.51917C49.8488 3.55111 49.7519 3.52173 49.5306 3.61114C49.4063 3.66096 49.2521 3.75804 49.175 3.85767C49.0545 4.01351 48.5958 4.53595 48.4429 4.66496C48.3844 4.71478 48.3297 4.76204 48.2377 4.76971C48.1445 4.62664 48.1905 4.48486 48.2004 4.36095C48.2129 4.20895 48.1967 4.14508 48.2303 3.90877C48.2415 3.82957 48.2551 3.67118 48.2564 3.60093C48.2663 3.21644 48.2564 2.95075 47.6597 2.95075H46.3407C45.9566 2.95075 45.8373 3.11808 45.8336 3.46936L45.8186 3.80147C45.8522 4.223 45.8348 4.72628 45.8348 5.17846V7.9631L45.8534 12.1209C45.8534 12.3521 45.8373 12.5846 45.9193 12.7404C45.9964 12.886 46.1307 13.0125 46.3407 13.0125L46.3395 13.0138ZM63.3403 5.43904C63.3403 5.60382 63.9507 7.30781 64.0563 7.52496C64.1334 7.68336 64.2664 7.78171 64.4218 7.85452C64.7562 8.01292 66.1125 8.37185 66.5699 8.48681L67.6539 8.78444C67.9311 8.86236 68.4706 8.96966 68.6559 9.18425C68.8162 9.36947 69.2476 10.4629 69.2476 10.712C69.2476 11.0811 69.1245 11.2319 68.8324 11.38C68.6161 11.4899 68.4147 11.6036 68.1996 11.7134C68.094 11.7671 67.997 11.8182 67.8864 11.8744C67.767 11.9357 67.6788 11.9766 67.5557 12.0353C67.2772 12.1682 67.1654 12.2716 66.8198 12.1477C66.7464 12.1209 66.7228 12.103 66.6582 12.0724C66.596 12.043 66.5562 12.0302 66.4953 11.9983C66.3797 11.9382 66.2852 11.891 66.1696 11.8309L65.5431 11.4912C65.4561 11.4452 65.3604 11.3404 65.2957 11.2625C65.2497 11.2063 65.2398 11.1871 65.1863 11.1335C65.0359 10.9815 64.7475 10.5446 64.5312 10.5446C64.3149 10.5446 63.8326 10.8397 63.6225 10.947L63.0059 11.2791C62.9587 11.3085 62.945 11.3085 62.9102 11.3481C62.6914 11.5921 63.1078 11.8565 63.2533 12.0072C63.4634 12.2244 63.9619 12.7034 64.1831 12.872C64.3746 13.0176 64.4952 13.1172 64.7624 13.1862C65.2211 13.305 65.6761 13.4391 66.1497 13.5605C66.5488 13.6627 67.2511 13.9054 67.6564 13.9054C67.7521 13.9054 67.9175 13.8262 67.9933 13.7878C68.3165 13.6282 68.6658 13.5158 68.9927 13.3663L69.9847 12.9371C70.1575 12.8656 70.4509 12.7366 70.5665 12.5884C70.6349 12.5003 70.6846 12.3828 70.7256 12.2691C70.8363 11.9625 71.3248 10.2125 71.3248 9.98899C71.3248 9.63133 71.2689 9.52403 71.0998 9.23535L70.6523 8.47021C70.5019 8.23134 70.3714 7.91456 70.1401 7.75233C69.9574 7.62332 68.0219 7.13793 67.6365 7.02041C67.4264 6.95654 67.2263 6.908 67.0125 6.84413C66.6868 6.74706 66.0391 6.62826 65.8166 6.42133L65.788 6.3945C65.788 6.3945 65.7818 6.38812 65.7793 6.38556C65.7706 6.37662 65.7408 6.3383 65.7308 6.32425C65.701 6.27699 65.6848 6.22973 65.6724 6.17991C65.6488 6.08922 65.6214 5.91039 65.6152 5.81075C65.609 5.69707 65.6028 5.54634 65.5866 5.43265C65.5767 5.3624 65.5829 5.30747 65.5767 5.2385C65.5344 4.83357 65.6177 4.79398 65.9397 4.60365C66.1112 4.50274 66.8098 4.048 67.0063 4.048C67.3058 4.048 67.5197 4.13358 67.7832 4.25238C68.0045 4.35329 68.493 4.52445 68.6658 4.64453C68.8684 4.78504 68.943 5.38412 69.2103 5.38412C69.4515 5.38412 70.124 4.96003 70.4149 4.80292C70.5752 4.71606 70.7754 4.58704 70.6622 4.37628C70.5417 4.15019 70.1638 3.70184 70.0009 3.49618C69.7846 3.22283 69.7883 3.17684 69.3806 3.09381L67.2785 2.6544C66.969 2.59054 66.7502 2.53816 66.4506 2.66079L64.3199 3.64563C64.0675 3.77592 64.0862 3.83085 63.9494 4.06333C63.896 4.15274 63.8612 4.23577 63.8139 4.33285C63.7045 4.55767 63.3378 5.18868 63.3378 5.44032L63.3403 5.43904ZM20.9924 12.9576C21.4387 12.9576 21.4748 13.0112 21.8738 13.093C22.3425 13.19 22.4829 12.3521 22.5749 12.0213L24.7653 4.19106C24.861 3.84107 25.2265 2.96991 24.5701 2.96991C24.0555 2.96991 23.4625 2.88433 23.24 3.29308C23.2052 3.35823 23.1778 3.46169 23.1567 3.54217C23.1331 3.62775 23.1045 3.71844 23.0784 3.81424L22.6259 5.40966C22.5215 5.76988 22.4245 6.1071 22.3226 6.47242L21.1851 10.445C21.1143 10.7018 20.9452 10.7209 20.893 10.482L20.7388 9.60067C20.5934 8.85342 20.4703 8.02697 20.3324 7.27077C20.1906 6.50052 20.0713 5.69068 19.9259 4.94087C19.8513 4.55894 19.7928 4.17063 19.7207 3.7772C19.6648 3.47191 19.6623 3.17173 19.4286 3.05677C19.2073 2.9482 18.7026 3.01206 18.4925 2.97885C18.3496 2.95714 17.7479 2.97119 17.5242 2.97119C17.1798 2.97119 17.14 3.17557 17.2097 3.46169L19.1613 11.4631C19.2111 11.6649 19.4311 12.7327 19.5529 12.8796C19.8736 13.2692 20.5188 12.9588 20.9937 12.9588L20.9924 12.9576ZM33.983 6.40472V12.6983C33.983 13.5413 34.3621 13.4225 35.2298 13.4225C35.7432 13.4225 35.6898 12.84 35.7208 12.5348L36.187 7.07406C36.2044 6.75855 36.2976 6.31659 36.1646 6.15181C36.0329 5.98831 35.9197 5.99852 35.645 5.99852L34.3024 6.02918C34.1098 6.06878 33.983 6.20801 33.983 6.406V6.40472ZM35.0844 5.17974C35.4486 5.17974 35.6699 5.14142 35.9695 4.92043C36.136 4.79781 36.3213 4.55767 36.3983 4.3584C36.5351 4.00202 36.5525 3.61498 36.3859 3.26754C36.3088 3.10659 36.2392 2.99674 36.1186 2.87283C35.5965 2.33634 34.7711 2.33251 34.2577 2.86389C33.8574 3.27775 33.7692 3.77465 33.9569 4.33285C33.9879 4.4261 34.0203 4.47719 34.0663 4.55383C34.1483 4.69051 34.2577 4.80547 34.377 4.90383C34.5411 5.03923 34.8531 5.17974 35.0844 5.17974ZM71.6866 4.04672C71.6866 2.51006 73.7104 2.51134 73.7104 4.04672C73.7104 4.86168 72.9533 5.35729 72.2833 5.04945C72.2286 5.0239 72.1664 4.99069 72.1204 4.95748C71.8581 4.76204 71.6878 4.44654 71.6878 4.048L71.6866 4.04672ZM71.3982 3.89855C71.3982 4.19234 71.3944 4.37117 71.5237 4.64197C71.9451 5.51824 73.0465 5.59488 73.6159 5.00857C73.6755 4.94726 73.7066 4.91022 73.7576 4.83868C73.9652 4.54489 74 4.29581 74 3.93687C74 3.26498 73.4232 2.65568 72.7718 2.65568C72.3603 2.65568 72.067 2.73999 71.7736 3.04144C71.571 3.24965 71.3994 3.5741 71.3994 3.89983L71.3982 3.89855Z" fill="white"/>
<path id="Vector_3" fill-rule="evenodd" clip-rule="evenodd" d="M72.7532 3.93552H72.4461V3.50888C72.7532 3.50888 73.0428 3.45013 73.0428 3.73114C73.0428 3.88698 72.9061 3.93552 72.7544 3.93552H72.7532ZM72.1925 4.80796H72.4449V4.15778C72.7494 4.15778 72.6239 4.11818 72.8464 4.46946C72.9173 4.58314 72.9807 4.68788 73.0416 4.80668H73.3126C73.2952 4.73131 73.1696 4.53971 73.1211 4.46435C73.0478 4.35066 72.9856 4.24592 72.9148 4.13734C73.1584 4.07859 73.2939 4.00322 73.2939 3.71071C73.2939 3.17549 72.6997 3.28407 72.1913 3.28407V4.80668L72.1925 4.80796Z" fill="white"/>
</g>
<defs>
<clipPath id="clip0_14_455">
<rect width="74" height="15" fill="white"/>
</clipPath>
</defs>
</svg>
