<svg width="89" height="17" viewBox="0 0 89 17" fill="none" xmlns="http://www.w3.org/2000/svg">
<g id="svg5838" clip-path="url(#clip0_9_412)">
<g id="layer1">
<g id="g5994">
<path id="path3013" d="M86.6438 5.14944C86.5724 5.14944 86.501 5.0789 86.501 5.00836V4.0208H86.2154C86.144 4.0208 86.0726 3.95027 86.0726 3.87973C86.0726 3.80919 86.144 3.73865 86.2154 3.73865H87.0722C87.1436 3.73865 87.215 3.80919 87.215 3.87973C87.215 3.95027 87.1436 4.0208 87.0722 4.0208H86.7866V5.00836C86.7866 5.0789 86.7509 5.14944 86.6438 5.14944ZM88.7858 5.14944C88.7144 5.14944 88.643 5.0789 88.643 5.00836V4.16188L88.286 5.11417C88.286 5.14944 88.2503 5.18471 88.2146 5.18471C88.1789 5.18471 88.1432 5.14944 88.1432 5.11417L87.7862 4.16188V5.00836C87.7862 5.0789 87.7148 5.14944 87.6434 5.14944C87.572 5.14944 87.5006 5.0789 87.5006 5.00836V3.98554C87.5006 3.84446 87.6077 3.73865 87.7505 3.73865C87.8576 3.73865 87.929 3.80919 87.9647 3.87973L88.2503 4.58512L88.5359 3.87973C88.5716 3.77392 88.643 3.73865 88.7501 3.73865C88.8929 3.73865 89 3.84446 89 3.98554V5.00836C88.9286 5.0789 88.8929 5.14944 88.7858 5.14944Z" fill="white"/>
<path id="path3017" d="M10.4958 3.31535C10.4958 2.82157 10.6386 2.36306 10.9242 1.9751C10.1388 2.22199 9.53186 2.92738 9.53186 3.77385V5.29045L10.4958 5.32572V3.31535Z" fill="white"/>
<path id="path3021" d="M9.56757 13.7199C9.56757 14.5664 10.1388 15.307 10.9599 15.5186C10.71 15.1307 10.5315 14.6722 10.5315 14.1784V11.3568H9.56757V13.7199Z" fill="white"/>
<path id="path3025" d="M11.9595 11.3568H10.9956V14.1784C10.9956 15.0249 11.5668 15.7655 12.3879 15.9771C12.138 15.5892 11.9595 15.1307 11.9595 14.6369V11.3568Z" fill="white"/>
<path id="path3029" d="M11.9595 2.85685C11.9595 2.36307 12.1023 1.90457 12.3879 1.5166C11.6025 1.76349 10.9956 2.46888 10.9956 3.31536V5.361L11.9595 5.39627V2.85685Z" fill="white"/>
<path id="path3033" d="M1.1781 2.2572C0.464099 2.68044 0 3.4211 0 4.26758V13.2614C0 14.1078 0.464099 14.8838 1.1781 15.2717C1.0353 14.9543 0.963899 14.5663 0.963899 14.1784V3.31529C0.963899 2.9626 1.0353 2.57463 1.1781 2.2572Z" fill="white"/>
<path id="path3037" d="M2.39188 2.39829C2.39188 2.01033 2.46328 1.65763 2.60608 1.30493C1.89208 1.72817 1.42798 2.46883 1.42798 3.3153V14.1784C1.42798 15.2012 2.07058 16.0477 2.99878 16.4004C2.60608 15.9066 2.39188 15.307 2.39188 14.6721V2.39829Z" fill="white"/>
<path id="path3041" d="M14.3514 0.987552C13.2804 0.987552 12.4236 1.83402 12.4236 2.89212V5.96058L7.63981 5.67842V2.36307C7.63981 1.05809 6.56881 0 5.24792 0C3.92702 0 2.85602 1.05809 2.85602 2.36307V14.6369C2.85602 15.9419 3.92702 17 5.24792 17C6.56881 17 7.63981 15.9419 7.63981 14.6369V10.8631H12.4236V14.6369C12.4236 15.695 13.2804 16.5415 14.3514 16.5415C15.4224 16.5415 16.2792 15.695 16.2792 14.6369V2.85685C16.2435 1.79876 15.3867 0.987552 14.3514 0.987552Z" fill="white"/>
<path id="path3045" d="M30.8448 12.4854V8.99373H25.6683V12.4854C25.6683 12.8734 25.347 13.1908 24.99 13.1908C24.5973 13.1908 24.276 12.8734 24.276 12.4854V4.51448C24.276 4.12651 24.5973 3.80908 24.99 3.80908C25.3827 3.80908 25.704 4.12651 25.704 4.51448V7.75929H30.8805V4.51448C30.8805 4.12651 31.2018 3.80908 31.5945 3.80908C31.9872 3.80908 32.3085 4.12651 32.3085 4.51448V12.4854C32.3085 12.8734 31.9872 13.1908 31.5945 13.1908C31.1661 13.1556 30.8448 12.8381 30.8448 12.4854Z" fill="white"/>
<path id="path3049" d="M33.2366 9.7345C33.2366 7.79466 34.5575 6.2428 36.6638 6.2428C38.7701 6.2428 40.091 7.82993 40.091 9.7345C40.091 11.6391 38.8058 13.2615 36.6638 13.2615C34.5218 13.2615 33.2366 11.6743 33.2366 9.7345ZM38.7701 9.7345C38.7701 8.46479 38.0204 7.33616 36.6638 7.33616C35.3072 7.33616 34.5575 8.46479 34.5575 9.7345C34.5575 11.0042 35.3072 12.1328 36.6638 12.1328C38.0204 12.1681 38.7701 11.0395 38.7701 9.7345Z" fill="white"/>
<path id="path3053" d="M47.4096 6.2428C49.4445 6.2428 50.694 7.79466 50.694 9.55815C50.694 9.94612 50.4441 10.1577 49.9443 10.1577H45.339C45.4461 11.2864 46.2672 12.2386 47.6238 12.2386C48.195 12.2386 48.8019 12.0623 49.3017 11.7096C49.3731 11.6391 49.4802 11.6391 49.5873 11.6391C49.8729 11.6391 50.0871 11.8507 50.0871 12.1328C50.0871 12.3092 50.0157 12.4503 49.8729 12.5561C49.1946 13.0499 48.4092 13.2615 47.5167 13.2615C45.5175 13.2615 44.0181 11.8507 44.0181 9.7345C44.0181 7.82993 45.4104 6.2428 47.4096 6.2428ZM45.339 9.27599H49.4802C49.4445 8.39425 48.8376 7.30089 47.4096 7.30089C46.053 7.26562 45.3747 8.35898 45.339 9.27599Z" fill="white"/>
<path id="path3057" d="M51.4794 12.556V4.44394C51.4794 4.09124 51.765 3.80908 52.122 3.80908C52.4433 3.80908 52.7646 4.09124 52.7646 4.44394V12.556C52.7646 12.9087 52.479 13.1908 52.122 13.1908C51.765 13.1556 51.4794 12.9087 51.4794 12.556Z" fill="white"/>
<path id="path3061" d="M53.5499 12.0623C53.5499 11.7449 53.7998 11.5333 54.0854 11.5333C54.1925 11.5333 54.2996 11.5685 54.4067 11.6391C54.9422 12.027 55.5848 12.2739 56.2988 12.2739C57.2627 12.2739 57.7625 11.886 57.7625 11.3216C57.7625 10.6515 56.9771 10.4399 56.1203 10.2283C54.9779 9.98139 53.6213 9.66396 53.6213 8.2179C53.6213 7.15981 54.5495 6.2428 56.1917 6.2428C57.1199 6.2428 57.8696 6.52496 58.4408 6.94819C58.5836 7.054 58.655 7.19508 58.655 7.37143C58.655 7.65359 58.4051 7.8652 58.1552 7.8652C58.0481 7.8652 57.941 7.82993 57.8696 7.7594C57.4412 7.44197 56.8343 7.26562 56.1917 7.26562C55.3349 7.26562 54.7994 7.58305 54.7994 8.14736C54.7994 8.71168 55.5134 8.9233 56.3702 9.09964C57.5483 9.34653 58.9406 9.66396 58.9406 11.2158C58.9406 12.3797 57.9767 13.2615 56.2274 13.2615C55.2992 13.2615 54.4424 13.0146 53.7641 12.5208C53.657 12.415 53.5499 12.2386 53.5499 12.0623Z" fill="white"/>
<path id="path3065" d="M60.6542 11.5332C61.1183 11.5332 61.5467 11.9212 61.5467 12.3797C61.5467 12.8382 61.154 13.2614 60.6542 13.2614C60.1901 13.2614 59.7974 12.8735 59.7974 12.3797C59.7617 11.9212 60.1544 11.5332 60.6542 11.5332Z" fill="white"/>
<path id="path3069" d="M68.0798 9.7345C68.0798 7.79466 69.4007 6.2428 71.507 6.2428C73.6133 6.2428 74.9342 7.82993 74.9342 9.7345C74.9342 11.6391 73.649 13.2615 71.507 13.2615C69.365 13.2615 68.0798 11.6743 68.0798 9.7345ZM73.5776 9.7345C73.5776 8.46479 72.8279 7.33616 71.4713 7.33616C70.1147 7.33616 69.365 8.46479 69.365 9.7345C69.365 11.0042 70.1147 12.1328 71.4713 12.1328C72.8279 12.1681 73.5776 11.0395 73.5776 9.7345Z" fill="white"/>
<path id="path3073" d="M85.3229 8.28844V12.5561C85.3229 12.9088 85.0373 13.1909 84.6803 13.1909C84.359 13.1909 84.0734 12.9088 84.0734 12.5561V8.64114C84.0734 7.8652 83.7164 7.47724 82.8953 7.47724C82.217 7.47724 81.5387 8.25317 81.2174 8.71168V12.5208C81.2174 12.8735 80.9318 13.1557 80.5748 13.1557C80.2535 13.1557 79.9322 12.8735 79.9322 12.5208V8.60587C79.9322 7.82993 79.6109 7.44197 78.7541 7.44197C78.1115 7.44197 77.4332 8.25317 77.1119 8.74695V12.5208C77.1119 12.8735 76.8263 13.1557 76.4693 13.1557C76.1123 13.1557 75.8267 12.8735 75.8267 12.5208V6.94819C75.8267 6.59549 76.1123 6.31334 76.4336 6.31334C76.7906 6.31334 77.0762 6.59549 77.0762 6.94819V7.33616C77.3618 6.91292 78.2543 6.2428 79.2539 6.2428C80.2535 6.2428 80.8961 6.77184 81.0746 7.47724C81.4673 6.84238 82.3955 6.2428 83.3594 6.2428C84.6803 6.2428 85.3229 6.94819 85.3229 8.28844Z" fill="white"/>
<path id="path3077" d="M65.2952 6.2428C66.2591 6.2428 66.9374 6.56022 67.4372 7.01873C67.5443 7.12454 67.6157 7.26562 67.6157 7.44197C67.6157 7.7594 67.3658 8.00628 67.0445 8.00628C66.9017 8.00628 66.7589 7.93574 66.6518 7.8652C66.2591 7.51251 65.8307 7.33616 65.2952 7.33616C63.9743 7.33616 63.1175 8.35898 63.1175 9.7345C63.1175 11.11 63.9743 12.0976 65.2952 12.1328C66.1877 12.1681 67.0802 11.5333 67.8299 10.3694C67.937 10.2283 68.0441 9.98139 68.1512 9.84031C68.3654 9.59342 68.5082 9.69923 68.6153 9.84031C68.8295 10.0872 68.8295 10.6162 68.6867 10.8984C68.294 11.6391 67.937 11.9918 67.5443 12.3797C67.0088 12.9088 66.1877 13.2615 65.2238 13.2615C63.1889 13.2615 61.7966 11.7449 61.7966 9.7345C61.868 7.7594 63.2603 6.2428 65.2952 6.2428Z" fill="white"/>
<path id="path3081" d="M44.9105 12.0622C44.9105 12.3091 44.2322 12.8382 43.7324 13.0498C43.4468 13.1909 43.1612 13.2261 42.7685 13.2261C41.6975 13.2261 41.162 12.6265 41.162 11.5685V7.47717H40.5194C40.2338 7.47717 39.9482 7.23029 39.9482 6.91286C39.9482 6.6307 40.1981 6.38381 40.5194 6.38381H41.162V5.1141C41.162 4.76141 41.4476 4.47925 41.8046 4.47925C42.1259 4.47925 42.4472 4.76141 42.4472 5.1141V6.38381H43.3397C43.661 6.38381 43.9109 6.6307 43.9109 6.91286C43.9109 7.23029 43.661 7.47717 43.3397 7.47717H42.4472V11.3216C42.4472 11.7801 42.6614 12.1328 43.0898 12.1328C43.8752 12.1328 44.4821 10.9336 44.8034 10.9336C45.1247 10.9689 44.9105 11.7801 44.9105 12.0622Z" fill="white"/>
</g>
</g>
</g>
<defs>
<clipPath id="clip0_9_412">
<rect width="89" height="17" fill="white"/>
</clipPath>
</defs>
</svg>
