<svg width="43" height="18" viewBox="0 0 43 18" fill="none" xmlns="http://www.w3.org/2000/svg">
<g id="Layer_2" clip-path="url(#clip0_20_751)">
<path id="Vector" d="M1.75475 0.353279C0.731146 0.560077 0 1.4562 0 2.4988V10.3399L1.75475 9.9866C2.77406 9.7798 3.5095 8.88368 3.5095 7.84107V0L1.75475 0.353279Z" fill="#515151"/>
<path id="Vector_2" d="M4.67505 0V2.86932H13.152V10.3399H16.696V2.86932H22.8247C23.6547 2.86932 24.4332 2.46865 24.9149 1.79225L26.188 0H4.67505Z" fill="#515151"/>
<path id="Vector_3" d="M35.4649 0H28.9706C28.1578 0 27.3879 0.387745 26.9062 1.04691L20.1238 10.3399H24.3386L31.5684 0.42652L38.0111 9.28435C38.4928 9.94782 39.2626 10.3399 40.0841 10.3399H43.0001L35.4649 0Z" fill="#515151"/>
<path id="Vector_4" d="M32.8414 6.47534H29.9039C29.0997 6.47534 28.3384 6.85878 27.8653 7.51364L25.8009 10.3399H30.02L32.8414 6.47534Z" fill="#515151"/>
<path id="Vector_5" d="M6.82974 17.8191H7.82754L5.71152 13.5151V13.5108L5.27283 12.6233L2.73962 17.8191H3.71162L4.22342 16.7162H6.34805C6.54589 17.147 6.71792 17.5347 6.82974 17.8191ZM4.55889 16.001L5.27713 14.4543C5.49217 14.8981 5.75883 15.4538 6.01688 16.001H4.55889Z" fill="#515151"/>
<path id="Vector_6" d="M10.6619 12.8257H9.7157V17.819H10.6619V12.8257Z" fill="#515151"/>
<path id="Vector_7" d="M15.5003 15.7209C16.1239 15.4969 16.4981 15.023 16.4981 14.3466C16.4981 13.3772 15.6895 12.8215 14.6745 12.8215H13.1993V17.8148H14.0939V15.8674H14.567L14.5584 15.8717L15.982 17.8148H17.0314L15.5003 15.7209ZM14.4982 15.1307H14.0853V13.5668H14.5584C15.1906 13.5668 15.5218 13.8512 15.5218 14.3466C15.5218 14.8421 15.2595 15.1307 14.4982 15.1307Z" fill="#515151"/>
<path id="Vector_8" d="M22.9322 18L21.5774 14.6697L20.1754 18L18.0765 12.8258H19.0485L20.27 15.8933L21.6032 12.6922L22.8806 15.9019L24.1106 12.8258H25.0568L22.9322 18Z" fill="#515151"/>
<path id="Vector_9" d="M27.9169 12.6276L25.3837 17.819H26.3557L26.8632 16.7247H28.9878L29.4695 17.819H30.4372L27.9169 12.6276ZM27.1986 16.0009L27.9212 14.4715L28.6523 16.0009H27.1986Z" fill="#515151"/>
<path id="Vector_10" d="M35.6799 12.8257H34.6391L33.3833 14.7214L32.0758 12.8257H31.0608L32.8973 15.5572V17.819H33.8133V15.5787L35.6799 12.8257Z" fill="#515151"/>
<path id="Vector_11" d="M40.2432 16.2293C40.2174 15.5831 39.6368 15.2212 39.2841 15.0661C39.1035 14.9842 38.5358 14.7343 38.3121 14.6352C37.9293 14.4672 37.9078 14.2733 37.9078 14.0019C37.9078 14.0019 37.9336 13.5108 38.6132 13.5108C39.3529 13.5108 39.9981 14.1742 39.9981 14.1742V13.2307C39.7486 12.9765 39.1723 12.7439 38.6906 12.7439C37.5853 12.7784 37.2799 13.2824 37.1294 13.6314C36.9229 14.1656 37.1122 14.6352 37.1122 14.6352C37.2412 15.0144 37.6068 15.2686 38.11 15.5141C38.2863 15.5874 38.7422 15.7726 39.0261 15.9363C39.3185 16.0871 39.3873 16.2422 39.3873 16.4921C39.3873 16.7291 39.211 17.1039 38.4971 17.1039C37.6154 17.0953 36.9832 16.4232 36.9832 16.4232V17.3753C37.6541 17.8923 38.4153 17.9526 38.9099 17.8449C40.0669 17.5649 40.2733 16.8755 40.2432 16.2293Z" fill="#515151"/>
</g>
<defs>
<clipPath id="clip0_20_751">
<rect width="43" height="18" fill="white"/>
</clipPath>
</defs>
</svg>
