<svg width="147" height="35" viewBox="0 0 147 35" fill="none" xmlns="http://www.w3.org/2000/svg">
<g id="Cover" clip-path="url(#clip0_2_6)">
<path id="Vector" d="M0 27.216V0H5.52439V27.216H0ZM4.99894 21.251V14.6515H5.82263L12.5541 6.79694H18.9448L10.0547 17.0488H8.74814L4.99894 21.251ZM12.8382 27.216L6.66052 18.2615L10.3529 14.3695L19.3283 27.216H12.8382Z" fill="white"/>
<path id="Vector_2" d="M27.5936 27.6249C26.287 27.6249 25.1225 27.3993 24.0858 26.9339C23.0491 26.4827 22.2396 25.7917 21.6431 24.8892C21.0467 23.9867 20.7484 22.8586 20.7484 21.5048C20.7484 20.3767 20.9615 19.4178 21.3875 18.6563C21.8135 17.8948 22.3816 17.2744 23.1201 16.809C23.8444 16.3437 24.6823 15.9911 25.6054 15.7514C26.5285 15.5117 27.5084 15.3425 28.5167 15.2438C29.7096 15.1168 30.6611 15.004 31.3996 14.9053C32.1381 14.8066 32.6635 14.6374 33.0043 14.4118C33.3452 14.1861 33.5156 13.8477 33.5156 13.4106V13.3259C33.5156 12.7478 33.3878 12.2542 33.1464 11.8453C32.9049 11.4363 32.5357 11.1402 32.0528 10.9287C31.57 10.7172 30.9877 10.6043 30.2919 10.6043C29.596 10.6043 28.9569 10.7172 28.4315 10.9287C27.906 11.1402 27.48 11.4222 27.1391 11.7748C26.8125 12.1273 26.5569 12.5222 26.4006 12.9593L21.3449 12.1414C21.6999 10.9428 22.2964 9.94158 23.1059 9.10959C23.9154 8.27759 24.9521 7.64303 26.1734 7.20588C27.3947 6.76873 28.7723 6.54311 30.3061 6.54311C31.4138 6.54311 32.4789 6.67002 33.5298 6.93795C34.5665 7.20588 35.5038 7.60072 36.3417 8.15068C37.1796 8.70064 37.8187 9.41982 38.3157 10.2941C38.7986 11.1825 39.04 12.2401 39.04 13.467V27.2301H33.8138V24.3956H33.6292C33.3026 25.0302 32.8623 25.5802 32.3085 26.0737C31.7546 26.5532 31.0871 26.9339 30.3061 27.216C29.525 27.498 28.6303 27.639 27.6078 27.639L27.5936 27.6249ZM29.1557 23.7611C30.022 23.7611 30.7889 23.5919 31.4422 23.2534C32.0954 22.915 32.6067 22.4496 32.9759 21.8715C33.3452 21.2933 33.5298 20.6305 33.5298 19.9114V17.6974C33.3736 17.8243 33.118 17.923 32.7913 18.0218C32.4647 18.1205 32.0954 18.2051 31.6836 18.2756C31.2718 18.3461 30.8741 18.4166 30.4907 18.473C30.093 18.5294 29.7522 18.5858 29.4398 18.614C28.7581 18.7127 28.1758 18.8678 27.6504 19.0935C27.1391 19.3191 26.7415 19.6011 26.4574 19.9678C26.1734 20.3203 26.0314 20.7857 26.0314 21.3497C26.0314 21.8715 26.1734 22.3086 26.4432 22.6753C26.7131 23.0419 27.0823 23.3098 27.551 23.4931C28.0196 23.6765 28.5451 23.7611 29.1557 23.7611Z" fill="white"/>
<path id="Vector_3" d="M43.7265 27.216V6.79694H49.0663V10.3646H49.2935C49.6769 9.09549 50.3018 8.13658 51.1965 7.50201C52.0912 6.85334 53.1137 6.52901 54.264 6.52901C54.5481 6.52901 54.8463 6.54311 55.1871 6.57131C55.5138 6.59951 55.812 6.64182 56.0534 6.71233V11.6056C55.812 11.5209 55.457 11.4504 54.9883 11.4081C54.5197 11.3658 54.0794 11.3376 53.6676 11.3376C52.8297 11.3376 52.077 11.5209 51.4095 11.8735C50.7279 12.226 50.2166 12.7337 49.8332 13.3682C49.4639 14.0028 49.2651 14.7502 49.2651 15.6104V27.2301H43.7407L43.7265 27.216Z" fill="white"/>
<path id="Vector_4" d="M65.6679 27.5685C64.0915 27.5685 62.6855 27.1595 61.4074 26.3558C60.1293 25.552 59.1352 24.3533 58.3967 22.7881C57.6582 21.2228 57.289 19.305 57.289 17.0487C57.289 14.7925 57.6724 12.776 58.4251 11.2248C59.1778 9.67365 60.2003 8.50322 61.4642 7.71354C62.7281 6.92385 64.1199 6.54311 65.6395 6.54311C66.804 6.54311 67.7697 6.74053 68.5508 7.12127C69.3176 7.51612 69.9425 7.99557 70.4254 8.55963C70.9082 9.13779 71.2633 9.68775 71.4905 10.2236H71.6751V0H77.1995V27.216H71.7745V23.9444H71.5047C71.2633 24.4944 70.894 25.0443 70.4112 25.5943C69.9283 26.1442 69.3034 26.6096 68.5224 26.9903C67.7555 27.3711 66.804 27.5544 65.6679 27.5544V27.5685ZM67.372 23.1688C68.3093 23.1688 69.1046 22.915 69.7579 22.4073C70.4254 21.8997 70.9224 21.1805 71.2633 20.2639C71.6041 19.3473 71.7745 18.2756 71.7745 17.0346C71.7745 15.7937 71.6041 14.722 71.2633 13.8054C70.9224 12.9029 70.4254 12.1978 69.7579 11.6902C69.0904 11.1825 68.2951 10.9287 67.3436 10.9287C66.3921 10.9287 65.5684 11.1966 64.901 11.7184C64.2477 12.2401 63.7506 12.9593 63.424 13.8759C63.0974 14.7925 62.927 15.8501 62.927 17.0346C62.927 18.2192 63.0974 19.2909 63.4382 20.2075C63.779 21.1382 64.2761 21.8574 64.9294 22.3791C65.5826 22.9009 66.3921 23.1688 67.3436 23.1688H67.372Z" fill="white"/>
<path id="Vector_5" d="M81.9144 34.859V6.79693H87.3394V10.2377H87.595C87.8506 9.70185 88.2199 9.15189 88.6885 8.57372C89.1572 7.99556 89.782 7.51611 90.5489 7.13537C91.3158 6.74052 92.2957 6.55721 93.4602 6.55721C94.9798 6.55721 96.3716 6.95205 97.6355 7.72763C98.8994 8.50322 99.9077 9.67364 100.66 11.2389C101.413 12.8042 101.797 14.7361 101.797 17.0628C101.797 19.3896 101.427 21.2369 100.689 22.8022C99.9503 24.3674 98.9562 25.552 97.6923 26.3699C96.4284 27.1736 95.0082 27.5826 93.4176 27.5826C92.2957 27.5826 91.3584 27.3993 90.5773 27.0185C89.8105 26.6378 89.1714 26.1724 88.6885 25.6225C88.2057 25.0725 87.8364 24.5226 87.5808 23.9726H87.4104V34.8731H81.886L81.9144 34.859ZM91.7277 23.1688C92.6792 23.1688 93.4886 22.9009 94.1419 22.3791C94.7952 21.8574 95.2922 21.1241 95.6331 20.2075C95.9739 19.2768 96.1443 18.2192 96.1443 17.0346C96.1443 15.8501 95.9739 14.7925 95.6331 13.8759C95.2922 12.9593 94.8094 12.2401 94.1561 11.7184C93.5029 11.1966 92.6934 10.9287 91.7277 10.9287C90.7619 10.9287 89.9809 11.1825 89.3134 11.6902C88.6459 12.1978 88.1489 12.9029 87.808 13.8054C87.4672 14.7079 87.2968 15.7937 87.2968 17.0346C87.2968 18.2756 87.4672 19.3332 87.8222 20.2639C88.1773 21.1805 88.6743 21.8997 89.3418 22.4073C90.0093 22.915 90.8046 23.1688 91.7277 23.1688Z" fill="white"/>
<path id="Vector_6" d="M111.766 27.6249C110.459 27.6249 109.295 27.3993 108.258 26.9339C107.222 26.4827 106.412 25.7917 105.816 24.8892C105.219 23.9867 104.921 22.8586 104.921 21.5048C104.921 20.3767 105.134 19.4178 105.56 18.6563C105.986 17.8948 106.554 17.2744 107.293 16.809C108.017 16.3437 108.855 15.9911 109.778 15.7514C110.701 15.5117 111.681 15.3425 112.689 15.2438C113.882 15.1168 114.834 15.004 115.572 14.9053C116.31 14.8066 116.836 14.6374 117.177 14.4118C117.518 14.1861 117.688 13.8477 117.688 13.4106V13.3259C117.688 12.7478 117.56 12.2542 117.319 11.8453C117.077 11.4363 116.708 11.1402 116.225 10.9287C115.742 10.7172 115.16 10.6043 114.464 10.6043C113.768 10.6043 113.129 10.7172 112.604 10.9287C112.078 11.1402 111.652 11.4222 111.312 11.7748C110.985 12.1273 110.729 12.5222 110.573 12.9593L105.517 12.1414C105.872 10.9428 106.469 9.94158 107.278 9.10959C108.088 8.27759 109.125 7.64303 110.346 7.20588C111.567 6.76873 112.945 6.54311 114.479 6.54311C115.586 6.54311 116.651 6.67002 117.702 6.93795C118.739 7.20588 119.676 7.60072 120.514 8.15068C121.352 8.70064 121.991 9.41982 122.488 10.2941C122.971 11.1825 123.212 12.2401 123.212 13.467V27.2301H117.986V24.3956H117.802C117.475 25.0302 117.035 25.5802 116.481 26.0737C115.927 26.5532 115.26 26.9339 114.479 27.216C113.697 27.498 112.803 27.639 111.78 27.639L111.766 27.6249ZM113.328 23.7611C114.194 23.7611 114.961 23.5919 115.615 23.2534C116.268 22.915 116.779 22.4496 117.148 21.8715C117.518 21.2933 117.702 20.6305 117.702 19.9114V17.6974C117.546 17.8243 117.29 17.923 116.964 18.0218C116.637 18.1205 116.268 18.2051 115.856 18.2756C115.444 18.3461 115.047 18.4166 114.663 18.473C114.265 18.5294 113.925 18.5858 113.612 18.614C112.931 18.7127 112.348 18.8678 111.823 19.0935C111.312 19.3191 110.914 19.6011 110.63 19.9678C110.346 20.3203 110.204 20.7857 110.204 21.3497C110.204 21.8715 110.346 22.3086 110.616 22.6753C110.886 23.0419 111.255 23.3098 111.723 23.4931C112.192 23.6765 112.718 23.7611 113.328 23.7611Z" fill="white"/>
<path id="Vector_7" d="M127.118 34.45L128.382 30.3183L129.063 30.4875C129.802 30.6849 130.455 30.7413 131.037 30.6567C131.62 30.5721 132.074 30.3465 132.429 29.9658C132.784 29.585 132.997 29.0633 133.068 28.3723L133.21 27.2724L125.485 6.79694H131.35L134.815 17.3872C135.227 18.7268 135.568 20.0665 135.838 21.4061C136.107 22.7458 136.406 24.1418 136.746 25.6084H135.454C135.781 24.1418 136.122 22.7458 136.448 21.392C136.775 20.0524 137.173 18.7127 137.613 17.3872L141.22 6.79694H147.014L138.28 29.6273C137.868 30.7272 137.329 31.672 136.675 32.4758C136.022 33.2796 135.213 33.9001 134.247 34.3372C133.281 34.7744 132.103 35 130.739 35C130.001 35 129.319 34.9436 128.68 34.8449C128.041 34.7462 127.53 34.6052 127.132 34.45H127.118Z" fill="white"/>
</g>
<defs>
<clipPath id="clip0_2_6">
<rect width="147" height="35" fill="white"/>
</clipPath>
</defs>
</svg>
