<svg width="28" height="19" viewBox="0 0 28 19" fill="none" xmlns="http://www.w3.org/2000/svg">
<g id="katman_1" clip-path="url(#clip0_20_781)">
<path id="Vector" d="M9.33333 0C4.17835 0 0 4.25296 0 9.5C0 14.747 4.17835 19 9.33333 19C14.4883 19 18.6667 14.747 18.6667 9.5C18.6667 4.25296 14.4883 0 9.33333 0ZM9.33333 12.35C7.78699 12.35 6.53333 11.074 6.53333 9.5C6.53333 7.92604 7.78699 6.65 9.33333 6.65C10.8797 6.65 12.1333 7.92604 12.1333 9.5C12.1356 11.0717 10.8849 12.3477 9.3408 12.35H9.33333Z" fill="#515151"/>
<path id="Vector_2" d="M19.824 7.125C22.1955 7.81964 24.9947 7.125 24.9947 7.125C24.1823 10.735 21.6063 12.996 17.8917 13.2711C16.4192 16.7496 13.054 19.0023 9.33337 19L12.1334 9.94156C15.0118 0.6308 16.4872 0 23.3132 0H28C27.216 3.515 24.5139 6.20008 19.824 7.125Z" fill="#515151"/>
</g>
<defs>
<clipPath id="clip0_20_781">
<rect width="28" height="19" fill="white"/>
</clipPath>
</defs>
</svg>
