<svg width="121" height="14" viewBox="0 0 121 14" fill="none" xmlns="http://www.w3.org/2000/svg">
<g id="Mode_Isolation" clip-path="url(#clip0_19_676)">
<path id="Vector" d="M48.4233 0.423458C47.9839 0.0641543 47.3765 -0.0898329 46.8208 0.051322C46.1488 0.192477 45.5802 0.757097 45.438 1.42437C45.2829 2.06599 45.5026 2.77176 46.0066 3.19523C46.5752 3.72135 47.4799 3.81118 48.1519 3.42621C48.6171 3.15673 48.966 2.69477 49.0565 2.16865C49.1857 1.52703 48.9273 0.83409 48.4233 0.423458Z" fill="#515151"/>
<path id="Vector_2" d="M3.38588 11.318C3.15326 11.2667 3.02403 11.0229 3.03695 10.8047C3.03695 7.50686 3.03695 4.20896 3.03695 0.911072C2.02894 0.911072 1.00801 0.911072 0 0.911072C0 4.26029 0 7.62235 0 10.9716C0 11.9981 0.516928 13.0504 1.46032 13.5124C2.45541 14.0513 3.60558 13.8332 4.69112 13.8717C4.69112 13.0247 4.69112 12.1906 4.69112 11.3437C4.26466 11.3437 3.81235 11.3822 3.38588 11.2924V11.318Z" fill="#515151"/>
<path id="Vector_3" d="M27.9141 6.77541C28.4311 6.77541 28.948 6.77541 29.4649 6.77541C29.4649 6.00547 29.4649 5.2227 29.4649 4.45277C28.948 4.45277 28.4311 4.45277 27.9141 4.45277C27.9141 3.51601 27.9141 2.59209 27.9141 1.65533C26.9061 1.65533 25.8981 1.65533 24.8901 1.65533C24.8901 2.59209 24.8901 3.51601 24.8901 4.45277C24.5799 4.45277 24.2827 4.45277 23.9725 4.45277C23.9725 5.2227 23.9725 6.00547 23.9725 6.77541C24.2827 6.77541 24.5799 6.77541 24.8901 6.77541C24.8901 8.21262 24.8901 9.637 24.8901 11.0742C24.8901 12.1008 25.4716 13.1274 26.415 13.5765C27.3584 14.0513 28.444 13.8588 29.4649 13.8973C29.4649 13.0504 29.4649 12.2163 29.4649 11.3694C29.0643 11.3694 28.6637 11.4079 28.276 11.3309C28.0046 11.2539 27.8883 10.9716 27.9141 10.7149C27.9141 9.40602 27.9141 8.09713 27.9141 6.78824V6.77541Z" fill="#515151"/>
<path id="Vector_4" d="M74.6832 4.45277C74.1663 4.45277 73.6494 4.45277 73.1324 4.45277C73.1324 3.51601 73.1324 2.59209 73.1324 1.65533C72.1244 1.65533 71.1164 1.65533 70.1084 1.65533V4.45277H69.2167C69.2167 5.2227 69.2167 5.99264 69.2167 6.77541C69.5139 6.77541 69.8112 6.77541 70.1084 6.77541C70.1084 8.21262 70.1084 9.637 70.1084 11.0614C70.1084 12.1265 70.7546 13.1915 71.7626 13.615C72.6801 14.0128 73.714 13.846 74.6961 13.8845C74.6961 13.0376 74.6961 12.2035 74.6961 11.3565C74.2955 11.3565 73.8949 11.395 73.5072 11.318C73.2358 11.2539 73.1324 10.9587 73.1454 10.7021C73.1454 9.39319 73.1454 8.0843 73.1454 6.77541C73.6623 6.77541 74.1792 6.77541 74.6961 6.77541C74.6961 6.00547 74.6961 5.2227 74.6961 4.45277H74.6832Z" fill="#515151"/>
<path id="Vector_5" d="M12.2641 4.45282C11.1527 3.93952 9.88625 3.92669 8.68439 4.01652C7.67638 4.09351 6.72007 4.55547 6.04806 5.31258C6.6813 5.92853 7.30161 6.57014 7.93485 7.17326C8.23208 6.86528 8.60685 6.5958 9.04624 6.54447C9.55025 6.49315 10.1189 6.48031 10.5712 6.74979C10.9718 7.01927 10.9976 7.54539 10.9718 7.96886C9.96379 8.00735 8.94286 7.87903 7.94777 8.07151C7.05607 8.23833 6.21606 8.80295 5.85421 9.64988C5.29851 10.9973 5.71206 12.7938 7.03022 13.5509C7.80561 14 8.74901 14.0898 9.61486 13.9487C10.1706 13.8589 10.6616 13.5252 11.0623 13.1403C11.0623 13.3969 11.0623 13.6536 11.0623 13.923H14.0088C14.0088 11.8057 14.0088 9.67555 14.0088 7.55822C14.0088 7.0321 13.9312 6.49315 13.7244 6.00552C13.4531 5.33824 12.8974 4.78645 12.2383 4.49131L12.2641 4.45282ZM10.6616 11.2026C10.3127 11.5362 9.78287 11.5491 9.33055 11.5234C8.94286 11.4977 8.56808 11.2026 8.54224 10.8048C8.47762 10.3557 8.91701 9.99635 9.34348 9.97069C9.88625 9.94502 10.4419 9.97069 10.9847 9.97069C10.9847 10.3942 11.0364 10.9203 10.6616 11.2154V11.2026Z" fill="#515151"/>
<path id="Vector_6" d="M21.9048 8.13568C20.8968 7.57106 19.695 7.68655 18.5836 7.49406C18.3768 7.44273 18.1571 7.30158 18.1571 7.05777C18.1183 6.68563 18.5319 6.50598 18.842 6.46748C19.6562 6.40332 20.5608 6.46748 21.207 7.01927C21.8273 6.40332 22.4605 5.78737 23.0679 5.15859C22.1116 4.19617 20.6901 3.95236 19.3977 3.96519C18.2605 3.91386 17.0716 4.209 16.2057 4.96611C15.5595 5.53073 15.2106 6.39049 15.2365 7.23742C15.2365 8.03302 15.4949 8.89278 16.154 9.39324C16.9165 9.98352 17.9116 10.0477 18.842 10.1247C19.2297 10.176 19.6304 10.1503 19.9922 10.2915C20.3024 10.3942 20.4574 10.8176 20.2377 11.0743C20.031 11.3052 19.7079 11.3694 19.4236 11.4079C18.4543 11.5234 17.3817 11.3181 16.6709 10.6123C16.0119 11.2539 15.3657 11.9084 14.7066 12.55C15.0168 12.8836 15.3915 13.1531 15.7792 13.3841C16.826 13.9615 18.0537 14 19.2168 13.9872C20.3799 13.9487 21.6205 13.6664 22.4605 12.8323C23.1842 12.1265 23.4039 11.0358 23.2489 10.0605C23.1325 9.25208 22.6415 8.50781 21.9048 8.12284V8.13568Z" fill="#515151"/>
<path id="Vector_7" d="M44.5334 8.25117C44.5334 7.5069 44.5334 6.73697 44.262 6.03119C44.0035 5.40241 43.5771 4.82496 42.9955 4.46566C42.1426 3.9652 41.1087 3.90104 40.1524 4.05502C39.4546 4.17052 38.8213 4.54265 38.2915 4.99178C37.1284 3.65722 34.8797 3.67006 33.6133 4.85063C33.6133 4.59398 33.6133 4.33733 33.6133 4.08069H30.6668V13.8974C31.6748 13.8974 32.6828 13.8974 33.6908 13.8974C33.6908 11.9854 33.6908 10.0862 33.6908 8.17418C33.6908 7.81488 33.7296 7.42991 33.9493 7.13477C34.337 6.62148 35.1641 6.55732 35.6551 6.96795C35.9911 7.23743 36.0945 7.67372 36.0945 8.08436C36.0945 10.022 36.0945 11.9597 36.0945 13.8974H39.1186C39.1186 11.9597 39.1186 10.022 39.1186 8.07152C39.1186 7.71222 39.1961 7.32725 39.4546 7.05777C39.8681 6.62148 40.6177 6.58298 41.07 6.95512C41.3801 7.19893 41.5093 7.60956 41.5093 7.99453C41.5093 9.95787 41.5093 11.934 41.5093 13.8974C42.5303 13.8974 43.5383 13.8974 44.5592 13.8974C44.5592 12.0239 44.5592 10.1504 44.5592 8.26401L44.5334 8.25117Z" fill="#515151"/>
<path id="Vector_8" d="M58.4387 7.25025C58.4258 6.42899 58.1803 5.56922 57.5987 4.95328C56.9913 4.2475 56.0221 3.92669 55.1046 3.97802C54.3033 3.97802 53.5667 4.33733 52.9464 4.81212C52.9464 4.56831 52.9464 4.32449 52.9464 4.06785C51.9642 4.06785 50.9821 4.06785 49.987 4.06785C49.987 7.34008 49.987 10.6123 49.987 13.8845C50.995 13.8845 52.003 13.8845 53.011 13.8845C53.011 11.9469 53.011 10.0092 53.011 8.05868C53.011 7.66088 53.1144 7.22459 53.4375 6.95511C53.8769 6.58297 54.5876 6.58297 55.0141 6.96794C55.3243 7.23742 55.4147 7.66088 55.4147 8.05868C55.4147 9.99636 55.4147 11.934 55.4147 13.8717C56.4227 13.8717 57.4307 13.8845 58.4387 13.8717C58.4129 11.6645 58.4387 9.4574 58.4387 7.23742V7.25025Z" fill="#515151"/>
<path id="Vector_9" d="M84.3627 7.87901C84.2464 6.90376 83.8458 5.9285 83.1479 5.2099C82.3338 4.36297 81.1577 3.95234 79.9947 3.978C78.8316 3.9395 77.6426 4.35014 76.8285 5.19707C76.0143 6.044 75.6266 7.21173 75.5361 8.36664C75.4715 9.61136 75.5491 10.9331 76.1823 12.0495C76.6605 12.9478 77.5522 13.5637 78.5214 13.8075C79.5423 14.0642 80.6408 14.077 81.6747 13.8588C82.6051 13.6664 83.4193 13.1146 84.0784 12.4473C83.471 11.8442 82.8636 11.2411 82.2562 10.6379C81.8944 10.9844 81.4937 11.3052 80.9897 11.3951C80.4211 11.4977 79.775 11.5234 79.2451 11.2411C78.7799 10.9973 78.4826 10.484 78.4826 9.97067H84.3885C84.3885 9.27773 84.4273 8.58478 84.3369 7.89184L84.3627 7.87901ZM78.4826 7.93034C78.5214 7.40422 78.7411 6.82676 79.2451 6.59578C79.8525 6.32631 80.6925 6.4033 81.106 6.96792C81.3257 7.25023 81.3774 7.5967 81.4421 7.93034C80.4599 7.956 79.4648 7.96883 78.4826 7.93034Z" fill="#515151"/>
<path id="Vector_10" d="M94.1843 6.68561C94.6625 6.65994 95.1019 6.92942 95.425 7.27589C96.1228 6.60861 96.7948 5.91567 97.4927 5.24839C96.3555 4.05499 94.5333 3.77268 92.9696 4.11915C92.0133 4.32447 91.1345 4.88909 90.6046 5.69752C89.9197 6.73694 89.7517 8.03299 89.7775 9.25206C89.8163 10.5096 90.1006 11.8442 91.0052 12.7809C91.9228 13.7434 93.3314 14.077 94.6367 13.9872C95.6964 13.923 96.769 13.5124 97.4927 12.7296C96.8078 12.0623 96.1228 11.3822 95.4508 10.7021C95.2053 10.9074 94.9597 11.1384 94.6496 11.2411C94.2231 11.3566 93.7062 11.3052 93.3702 10.9844C92.9566 10.5994 92.8662 9.99633 92.8274 9.45738C92.8145 8.80293 92.7886 8.10999 93.0471 7.48121C93.228 7.03208 93.6933 6.68561 94.1973 6.69844L94.1843 6.68561Z" fill="#515151"/>
<path id="Vector_11" d="M104.239 4.54261C103.269 3.97799 102.093 3.88816 101.008 4.05498C99.7543 4.24746 98.5912 5.06873 98.0742 6.22363C97.6865 7.09623 97.6736 8.05865 97.6607 8.9954C97.6607 9.868 97.6865 10.7663 97.9967 11.5875C98.449 12.7553 99.5475 13.6278 100.762 13.8845C101.938 14.1411 103.244 14.0256 104.29 13.4097C105.26 12.8451 105.932 11.8313 106.074 10.7149C106.229 9.57285 106.229 8.40512 106.074 7.26305C105.932 6.13381 105.221 5.12006 104.239 4.55544V4.54261ZM102.946 10.6764C102.623 11.4977 101.215 11.4977 100.904 10.6764C100.607 9.93216 100.723 9.12372 100.711 8.35379C100.736 7.77634 100.827 7.0064 101.447 6.77542C101.938 6.62143 102.597 6.68559 102.882 7.17322C103.192 7.72501 103.14 8.39229 103.179 8.9954C103.153 9.56002 103.179 10.1631 102.959 10.6893L102.946 10.6764Z" fill="#515151"/>
<path id="Vector_12" d="M120.806 6.24929C120.599 5.56918 120.16 4.96606 119.591 4.54259C118.726 3.96514 117.614 3.87532 116.619 4.04214C115.908 4.15763 115.288 4.54259 114.745 4.97889C114.151 4.28595 113.22 3.92665 112.316 3.96514C111.489 3.93948 110.713 4.31161 110.067 4.79924C110.067 4.55543 110.067 4.31161 110.067 4.05497C109.085 4.05497 108.103 4.05497 107.108 4.05497C107.108 7.3272 107.108 10.5994 107.108 13.8717C108.116 13.8717 109.124 13.8717 110.132 13.8717V8.05864C110.132 7.69933 110.209 7.31436 110.455 7.04489C110.881 6.59576 111.657 6.55726 112.122 6.96789C112.432 7.23737 112.535 7.67367 112.535 8.07147C112.535 10.0091 112.535 11.9468 112.535 13.8845C113.543 13.8845 114.551 13.8845 115.559 13.8845C115.559 12.0366 115.559 10.1888 115.559 8.34094C115.559 7.96881 115.559 7.55818 115.766 7.22454C116.089 6.64709 116.955 6.50593 117.485 6.90373C117.821 7.14754 117.976 7.57101 117.963 7.96881C117.963 9.93215 117.963 11.9083 117.963 13.8717H121C121 11.934 121 9.99631 121 8.05864C121 7.45552 121 6.82674 120.806 6.24929Z" fill="#515151"/>
<path id="Vector_13" d="M65.0296 4.08064C65.0296 6.01831 65.0296 7.95599 65.0296 9.89366C65.0296 10.2658 64.952 10.6764 64.6677 10.9459C64.2283 11.395 63.4271 11.395 62.9877 10.9459C62.7293 10.7021 62.6259 10.33 62.6259 9.98348C62.6259 8.00732 62.6259 6.04398 62.6259 4.06781C61.6179 4.06781 60.6098 4.06781 59.6018 4.06781C59.6018 6.31346 59.6018 8.5591 59.6018 10.8047C59.6148 11.7543 60.0154 12.7296 60.7649 13.3327C61.9926 14.3208 63.944 14.1796 65.0942 13.1274C65.0942 13.384 65.0942 13.6407 65.0942 13.8973C66.0764 13.8973 67.0585 13.8973 68.0536 13.8973C68.0536 10.6251 68.0536 7.35287 68.0536 4.08064C67.0456 4.08064 66.0376 4.08064 65.0296 4.08064Z" fill="#515151"/>
<path id="Vector_14" d="M48.7334 4.45282C47.7254 4.45282 46.7174 4.45282 45.7223 4.45282C45.7094 7.59672 45.7223 10.7406 45.7223 13.8845C46.7303 13.8845 47.7383 13.8845 48.7464 13.8845C48.7464 10.7406 48.7464 7.59672 48.7464 4.46565L48.7334 4.45282Z" fill="#515151"/>
<path id="Vector_15" d="M88.1751 10.3941C87.7486 10.1247 87.2187 10.0348 86.7277 10.1375C85.8747 10.3043 85.1898 11.0999 85.2027 11.9725C85.1639 12.627 85.5258 13.2942 86.0815 13.6407C86.7147 14.0513 87.5935 14.0385 88.2138 13.615C88.6791 13.3071 88.9892 12.7938 89.0538 12.2548C89.1443 11.5362 88.7954 10.7791 88.1621 10.3941H88.1751Z" fill="#515151"/>
</g>
<defs>
<clipPath id="clip0_19_676">
<rect width="121" height="14" fill="white"/>
</clipPath>
</defs>
</svg>
