<svg width="83" height="11" viewBox="0 0 83 11" fill="none" xmlns="http://www.w3.org/2000/svg">
<g id="Mode_Isolation" clip-path="url(#clip0_5_851)">
<path id="Vector" d="M32.9825 0.302818C32.6832 0.0458333 32.2695 -0.064303 31.891 0.0366553C31.4332 0.137614 31.0459 0.541447 30.9491 1.0187C30.8435 1.4776 30.9931 1.9824 31.3364 2.28527C31.7237 2.66157 32.3399 2.72582 32.7976 2.45048C33.1145 2.25774 33.3522 1.92733 33.4138 1.55103C33.5018 1.09213 33.3258 0.596515 32.9825 0.302818Z" fill="#FFFAFF"/>
<path id="Vector_2" d="M2.30622 8.09499C2.14778 8.05827 2.05975 7.88389 2.06856 7.72787C2.06856 5.36911 2.06856 3.01036 2.06856 0.651611C1.38197 0.651611 0.686584 0.651611 0 0.651611C0 3.04708 0 5.45172 0 7.84718C0 8.58142 0.352095 9.33402 0.994667 9.66443C1.67245 10.0499 2.45586 9.89388 3.19526 9.92141C3.19526 9.31566 3.19526 8.71909 3.19526 8.11334C2.90478 8.11334 2.5967 8.14088 2.30622 8.07663V8.09499Z" fill="#FFFAFF"/>
<path id="Vector_3" d="M19.0131 4.84599C19.3652 4.84599 19.7173 4.84599 20.0694 4.84599C20.0694 4.29531 20.0694 3.73545 20.0694 3.18477C19.7173 3.18477 19.3652 3.18477 19.0131 3.18477C19.0131 2.51477 19.0131 1.85396 19.0131 1.18396C18.3265 1.18396 17.6399 1.18396 16.9533 1.18396C16.9533 1.85396 16.9533 2.51477 16.9533 3.18477C16.7421 3.18477 16.5396 3.18477 16.3284 3.18477C16.3284 3.73545 16.3284 4.29531 16.3284 4.84599C16.5396 4.84599 16.7421 4.84599 16.9533 4.84599C16.9533 5.87393 16.9533 6.89269 16.9533 7.92063C16.9533 8.65487 17.3494 9.38911 17.992 9.71034C18.6346 10.0499 19.374 9.91226 20.0694 9.93979C20.0694 9.33404 20.0694 8.73747 20.0694 8.13172C19.7965 8.13172 19.5236 8.15926 19.2596 8.10419C19.0747 8.04912 18.9955 7.8472 19.0131 7.66364C19.0131 6.72749 19.0131 5.79133 19.0131 4.85517V4.84599Z" fill="#FFFAFF"/>
<path id="Vector_4" d="M50.8688 3.18477C50.5168 3.18477 50.1647 3.18477 49.8126 3.18477C49.8126 2.51477 49.8126 1.85396 49.8126 1.18396C49.126 1.18396 48.4394 1.18396 47.7528 1.18396V3.18477H47.1454C47.1454 3.73545 47.1454 4.28613 47.1454 4.84599C47.3479 4.84599 47.5504 4.84599 47.7528 4.84599C47.7528 5.87393 47.7528 6.89269 47.7528 7.91145C47.7528 8.67323 48.1929 9.435 48.8795 9.73788C49.5045 10.0224 50.2087 9.90308 50.8776 9.93062C50.8776 9.32487 50.8776 8.72829 50.8776 8.12255C50.6048 8.12255 50.3319 8.15008 50.0678 8.09501C49.883 8.04912 49.8126 7.83803 49.8214 7.65447C49.8214 6.71831 49.8214 5.78215 49.8214 4.84599C50.1735 4.84599 50.5256 4.84599 50.8776 4.84599C50.8776 4.29531 50.8776 3.73545 50.8776 3.18477H50.8688Z" fill="#FFFAFF"/>
<path id="Vector_5" d="M8.35345 3.18479C7.59645 2.81767 6.73381 2.80849 5.91519 2.87274C5.22861 2.92781 4.57724 3.25822 4.11951 3.79972C4.55083 4.24027 4.97334 4.69917 5.40466 5.13053C5.60711 4.91026 5.86238 4.71752 6.16166 4.68081C6.50495 4.6441 6.89226 4.63492 7.20034 4.82766C7.47321 5.0204 7.49082 5.3967 7.47321 5.69957C6.78663 5.72711 6.09124 5.63532 5.41346 5.773C4.8061 5.89231 4.23394 6.29614 3.98748 6.90189C3.60898 7.86558 3.89065 9.15051 4.78849 9.69201C5.31663 10.0132 5.95921 10.0775 6.54896 9.97653C6.92747 9.91228 7.26196 9.67366 7.53483 9.39831C7.53483 9.58187 7.53483 9.76544 7.53483 9.95817H9.54177C9.54177 8.4438 9.54177 6.92025 9.54177 5.40587C9.54177 5.02958 9.48895 4.6441 9.34812 4.29533C9.16327 3.81808 8.78476 3.42342 8.33584 3.21233L8.35345 3.18479ZM7.26196 8.01243C7.02429 8.25106 6.6634 8.26024 6.35531 8.24188C6.09124 8.22353 5.83597 8.01243 5.81837 7.72791C5.77436 7.40668 6.07364 7.1497 6.36411 7.13134C6.73381 7.11299 7.11232 7.13134 7.48201 7.13134C7.48201 7.43422 7.51722 7.81052 7.26196 8.02161V8.01243Z" fill="#FFFAFF"/>
<path id="Vector_6" d="M14.92 5.81881C14.2334 5.41498 13.4148 5.49758 12.6578 5.35991C12.517 5.3232 12.3673 5.22224 12.3673 5.04786C12.3409 4.7817 12.6226 4.6532 12.8338 4.62567C13.3884 4.57978 14.0046 4.62567 14.4447 5.02032C14.8672 4.57978 15.2985 4.13923 15.7122 3.68951C15.0608 3.00116 14.0926 2.82678 13.2123 2.83596C12.4377 2.79924 11.6279 3.01034 11.0382 3.55184C10.598 3.95567 10.3604 4.5706 10.378 5.17635C10.378 5.74539 10.554 6.36032 11.003 6.71826C11.5223 7.14045 12.2001 7.18634 12.8338 7.24141C13.0979 7.27812 13.3708 7.25976 13.6173 7.36072C13.8285 7.43415 13.9341 7.73702 13.7845 7.92058C13.6437 8.08578 13.4236 8.13167 13.23 8.15921C12.5698 8.24181 11.8392 8.09496 11.355 7.59017C10.9061 8.04907 10.466 8.51715 10.0171 8.97605C10.2283 9.21468 10.4836 9.40742 10.7477 9.57262C11.4607 9.98564 12.2969 10.0132 13.0891 10.004C13.8813 9.97646 14.7264 9.77454 15.2985 9.17797C15.7914 8.67318 15.9411 7.89305 15.8355 7.19552C15.7562 6.6173 15.4217 6.08498 14.92 5.80963V5.81881Z" fill="#FFFAFF"/>
<path id="Vector_7" d="M30.3329 5.90145C30.3329 5.36912 30.3329 4.81844 30.1481 4.31365C29.972 3.86393 29.6816 3.45092 29.2855 3.19393C28.7045 2.83599 28.0003 2.7901 27.3489 2.90023C26.8736 2.98284 26.4423 3.249 26.0814 3.57023C25.2892 2.61572 23.7576 2.62489 22.8949 3.46927C22.8949 3.28571 22.8949 3.10215 22.8949 2.91859H20.888V9.93978C21.5746 9.93978 22.2612 9.93978 22.9478 9.93978C22.9478 8.57225 22.9478 7.2139 22.9478 5.84638C22.9478 5.58939 22.9742 5.31405 23.1238 5.10296C23.3879 4.73584 23.9512 4.68995 24.2857 4.98364C24.5146 5.17638 24.585 5.48844 24.585 5.78213C24.585 7.16801 24.585 8.5539 24.585 9.93978H26.6447C26.6447 8.5539 26.6447 7.16801 26.6447 5.77295C26.6447 5.51597 26.6976 5.24063 26.8736 5.04789C27.1553 4.73584 27.6658 4.7083 27.9739 4.97447C28.1852 5.14885 28.2732 5.44255 28.2732 5.71789C28.2732 7.12212 28.2732 8.53554 28.2732 9.93978C28.9686 9.93978 29.6552 9.93978 30.3505 9.93978C30.3505 8.59979 30.3505 7.25979 30.3505 5.91063L30.3329 5.90145Z" fill="#FFFAFF"/>
<path id="Vector_8" d="M39.8043 5.18562C39.7955 4.59823 39.6282 3.9833 39.2321 3.54276C38.8184 3.03796 38.1582 2.80851 37.5333 2.84523C36.9875 2.84523 36.4858 3.10221 36.0633 3.4418C36.0633 3.26741 36.0633 3.09303 36.0633 2.90947C35.3943 2.90947 34.7253 2.90947 34.0475 2.90947C34.0475 5.24987 34.0475 7.59026 34.0475 9.93066C34.7341 9.93066 35.4207 9.93066 36.1073 9.93066C36.1073 8.54478 36.1073 7.1589 36.1073 5.76384C36.1073 5.47932 36.1777 5.16727 36.3978 4.97453C36.6971 4.70836 37.1812 4.70836 37.4717 4.9837C37.6829 5.17644 37.7445 5.47932 37.7445 5.76384C37.7445 7.14972 37.7445 8.5356 37.7445 9.92148C38.4311 9.92148 39.1177 9.93066 39.8043 9.92148C39.7867 8.34286 39.8043 6.76424 39.8043 5.17644V5.18562Z" fill="#FFFAFF"/>
<path id="Vector_9" d="M57.4619 5.63527C57.3826 4.93774 57.1098 4.24021 56.6344 3.72624C56.0799 3.1205 55.2789 2.8268 54.4867 2.84515C53.6944 2.81762 52.8846 3.11132 52.3301 3.71707C51.7755 4.32282 51.5115 5.15802 51.4498 5.98404C51.4058 6.87431 51.4586 7.81964 51.89 8.61813C52.2157 9.26059 52.823 9.70114 53.4832 9.87552C54.1786 10.0591 54.9268 10.0683 55.631 9.91223C56.2647 9.77456 56.8193 9.37991 57.2682 8.90265C56.8545 8.47128 56.4408 8.03992 56.0271 7.60855C55.7806 7.85636 55.5077 8.08581 55.1644 8.15005C54.7771 8.22348 54.337 8.24183 53.9761 8.03992C53.6592 7.86553 53.4568 7.49841 53.4568 7.13129H57.4795C57.4795 6.63568 57.5059 6.14006 57.4443 5.64445L57.4619 5.63527ZM53.4568 5.67199C53.4832 5.29569 53.6328 4.88268 53.9761 4.71747C54.3898 4.52473 54.962 4.5798 55.2437 4.98363C55.3933 5.18555 55.4285 5.43336 55.4725 5.67199C54.8035 5.69034 54.1258 5.69952 53.4568 5.67199Z" fill="#FFFAFF"/>
<path id="Vector_10" d="M64.1516 4.7818C64.4773 4.76344 64.7766 4.95618 64.9966 5.20399C65.472 4.72673 65.9297 4.23112 66.405 3.75386C65.6304 2.9003 64.3893 2.69839 63.3242 2.94619C62.6728 3.09304 62.0743 3.49687 61.7134 4.07509C61.2468 4.81851 61.1324 5.74549 61.15 6.6174C61.1764 7.51685 61.3701 8.47136 61.9862 9.14136C62.6112 9.82971 63.5707 10.0683 64.4597 10.0041C65.1815 9.9582 65.9121 9.66451 66.405 9.10465C65.9385 8.62739 65.472 8.14095 65.0143 7.65452C64.847 7.80137 64.6798 7.96657 64.4685 8.04C64.178 8.1226 63.8259 8.08589 63.5971 7.85644C63.3154 7.5811 63.2538 7.14973 63.2274 6.76425C63.2186 6.29617 63.201 5.80056 63.377 5.35083C63.5002 5.0296 63.8171 4.7818 64.1604 4.79098L64.1516 4.7818Z" fill="#FFFAFF"/>
<path id="Vector_11" d="M70.9999 3.24901C70.3397 2.84518 69.5387 2.78093 68.7993 2.90024C67.9455 3.03791 67.1532 3.62531 66.8011 4.45133C66.5371 5.07543 66.5283 5.76379 66.5195 6.43378C66.5195 7.05789 66.5371 7.70035 66.7483 8.28774C67.0564 9.12294 67.8046 9.74705 68.632 9.93061C69.4331 10.1142 70.3221 10.0316 71.0351 9.59102C71.6953 9.18719 72.153 8.46213 72.2498 7.66364C72.3554 6.84679 72.3554 6.01159 72.2498 5.19475C72.153 4.38708 71.6689 3.66202 70.9999 3.25819V3.24901ZM70.1196 7.6361C69.8996 8.2235 68.9401 8.2235 68.7289 7.6361C68.5264 7.10378 68.6056 6.52556 68.5968 5.97488C68.6144 5.56187 68.676 5.01119 69.0986 4.84598C69.4331 4.73585 69.882 4.78174 70.0756 5.1305C70.2869 5.52516 70.2517 6.00242 70.2781 6.43378C70.2605 6.83762 70.2781 7.26898 70.1284 7.64528L70.1196 7.6361Z" fill="#FFFAFF"/>
<path id="Vector_12" d="M82.2845 4.46968C82.1437 3.98324 81.8444 3.55187 81.4571 3.249C80.8673 2.83599 80.1103 2.77174 79.4325 2.89106C78.9484 2.97366 78.5259 3.249 78.1562 3.56105C77.7513 3.06544 77.1175 2.80845 76.5013 2.83599C75.938 2.81763 75.4098 3.08379 74.9697 3.43256C74.9697 3.25818 74.9697 3.08379 74.9697 2.90023C74.3007 2.90023 73.6318 2.90023 72.954 2.90023C72.954 5.24063 72.954 7.58103 72.954 9.92142C73.6406 9.92142 74.3272 9.92142 75.0137 9.92142V5.76378C75.0137 5.50679 75.0666 5.23145 75.2338 5.03871C75.5243 4.71748 76.0524 4.68995 76.3693 4.98365C76.5806 5.17638 76.651 5.48844 76.651 5.77296C76.651 7.15884 76.651 8.54472 76.651 9.9306C77.3376 9.9306 78.0241 9.9306 78.7107 9.9306C78.7107 8.60896 78.7107 7.28733 78.7107 5.96569C78.7107 5.69953 78.7107 5.40583 78.8516 5.16721C79.0716 4.7542 79.6614 4.65324 80.0223 4.93776C80.2511 5.11214 80.3568 5.41501 80.348 5.69953C80.348 7.10377 80.348 8.51718 80.348 9.92142H82.4165C82.4165 8.53554 82.4165 7.14966 82.4165 5.76378C82.4165 5.33241 82.4165 4.88269 82.2845 4.46968Z" fill="#FFFAFF"/>
<path id="Vector_13" d="M44.2935 2.9186C44.2935 4.30448 44.2935 5.69036 44.2935 7.07625C44.2935 7.34241 44.2407 7.63611 44.047 7.82884C43.7477 8.15007 43.202 8.15007 42.9027 7.82884C42.7267 7.65446 42.6562 7.3883 42.6562 7.14049C42.6562 5.72708 42.6562 4.32284 42.6562 2.90942C41.9697 2.90942 41.2831 2.90942 40.5965 2.90942C40.5965 4.51558 40.5965 6.12173 40.5965 7.72789C40.6053 8.40706 40.8782 9.10459 41.3887 9.53596C42.2249 10.2427 43.5541 10.1417 44.3375 9.38911C44.3375 9.57267 44.3375 9.75623 44.3375 9.93979C45.0065 9.93979 45.6755 9.93979 46.3532 9.93979C46.3532 7.59939 46.3532 5.259 46.3532 2.9186C45.6667 2.9186 44.9801 2.9186 44.2935 2.9186Z" fill="#FFFAFF"/>
<path id="Vector_14" d="M33.1937 3.18481C32.5071 3.18481 31.8205 3.18481 31.1428 3.18481C31.134 5.43343 31.1428 7.68204 31.1428 9.93066C31.8294 9.93066 32.5159 9.93066 33.2025 9.93066C33.2025 7.68204 33.2025 5.43343 33.2025 3.19399L33.1937 3.18481Z" fill="#FFFAFF"/>
<path id="Vector_15" d="M60.0585 7.43418C59.768 7.24144 59.4071 7.17719 59.0727 7.25062C58.4917 7.36993 58.0252 7.93897 58.034 8.56307C58.0076 9.03115 58.254 9.50841 58.6325 9.75622C59.0639 10.0499 59.6624 10.0407 60.0849 9.73786C60.4018 9.51759 60.6131 9.15047 60.6571 8.76499C60.7187 8.25102 60.481 7.70952 60.0497 7.43418H60.0585Z" fill="#FFFAFF"/>
</g>
<defs>
<clipPath id="clip0_5_851">
<rect width="82.4165" height="10.0132" fill="white"/>
</clipPath>
</defs>
</svg>
