<svg width="100" height="19" viewBox="0 0 100 19" fill="none" xmlns="http://www.w3.org/2000/svg">
<g id="Layer_1" clip-path="url(#clip0_19_731)">
<g id="Page-1">
<g id="nespresso logo">
<path id="Shape" fill-rule="evenodd" clip-rule="evenodd" d="M90.8838 3.03632C89.403 3.03632 84.7293 3.54237 84.7293 9.477C84.7293 15.8257 89.727 16.0557 90.745 16.0557C91.3929 16.0557 93.6141 15.9177 95.1411 14.3535C96.2517 13.1574 96.7608 11.5932 96.7608 9.477C96.8996 3.45036 92.4109 3.03632 90.8838 3.03632ZM92.7811 13.5714C92.4109 13.8475 91.9019 14.2155 91.0227 14.2155H90.8838C90.0046 14.2155 89.4956 13.8015 89.1254 13.5714C88.2462 12.7893 87.876 11.3172 87.876 9.20097C87.876 5.24455 89.7732 4.60048 90.8838 4.60048H91.0227C92.1333 4.60048 94.0305 5.24455 94.0305 9.20097C94.0305 11.3172 93.6603 12.7893 92.7811 13.5714ZM18.5099 18.0799C17.3994 17.6659 15.7335 16.3777 14.9005 15.1816C13.7899 13.7094 10.8746 9.79903 10.8746 9.79903C10.3656 9.29298 9.99537 8.60291 9.48635 7.95884C8.23693 6.11864 6.84868 4.14044 5.36789 2.94431V16.1017H7.12633V9.24697L8.60713 11.2252C9.34752 12.2833 10.2267 13.4794 10.8746 14.2615C11.3836 14.7676 12.4942 16.2397 12.8644 16.5157C14.484 18.0799 16.9829 19 19.4817 19C20.5923 19 21.6104 18.862 22.6284 18.4939V18.3559C22.2582 18.4939 21.7492 18.4939 21.379 18.4939C20.546 18.724 19.528 18.4479 18.5099 18.0799ZM7.77418 3.95642C8.88478 5.42857 11.8926 9.33898 11.8926 9.33898C12.2628 9.84504 12.7719 10.5351 13.1421 11.1792C14.3915 13.0194 15.7797 14.9976 17.2605 16.1937V3.03632H15.5021V9.89104L14.0213 7.91283C13.2809 6.71671 12.5405 5.6586 11.7538 4.87651C11.3836 4.23245 9.99537 2.89831 9.62517 2.48426C8.14438 0.920097 5.50671 0 3.00787 0C1.98982 0 1.01805 0.138015 0 0.506053V0.644068C0.370199 0.506053 0.879223 0.506053 1.24942 0.506053C2.26747 0.506053 3.14669 0.782082 4.11846 1.01211C5.27534 1.47215 6.89496 2.76029 7.77418 3.95642ZM73.9935 9.75303C72.6053 8.41889 70.9856 8.18886 69.8751 7.36077C68.9958 6.71671 69.1347 5.79661 69.5049 5.24455C70.5229 3.91041 72.6516 4.46247 73.1143 4.60048C73.7621 4.7385 73.9935 4.87651 74.5951 5.24455V3.8184C72.0962 3.03632 68.2092 2.34625 66.7284 5.01453C66.0805 6.07264 65.988 7.91283 67.6076 9.10896C69.2272 10.4431 72.0962 11.0872 72.3739 12.2833C72.6053 12.9274 72.3739 13.4794 72.0037 13.8475C70.5229 15.3196 68.1166 14.3535 66.6358 13.7094V15.2736C68.2554 16.0557 70.3841 16.1937 72.1425 15.7797C73.3919 15.5036 74.7802 14.3075 75.0116 12.8814C75.2429 11.4552 74.8727 10.5351 73.9935 9.75303ZM83.0171 9.75303C81.6289 8.41889 80.0093 8.18886 78.8987 7.36077C78.0194 6.71671 78.1583 5.79661 78.5285 5.24455C79.5465 4.04843 81.5363 4.60048 82.0453 4.7385C82.6932 4.87651 82.9246 5.01453 83.5261 5.38257V3.8184C81.0273 3.03632 77.1402 2.34625 75.6594 5.01453C75.1504 6.07264 75.0116 7.91283 76.6775 9.10896C78.2971 10.4431 81.1661 11.0872 81.4438 12.2833C81.6751 12.9274 81.4438 13.4794 81.0736 13.8475C79.5928 15.3196 77.1865 14.3535 75.7057 13.7094V15.2736C77.3253 16.0557 79.3151 16.1937 81.2124 15.7797C82.4618 15.5036 83.8501 14.3075 84.0814 12.8814C84.2665 11.4552 83.8963 10.5351 83.0171 9.75303ZM57.7048 15.8257H65.5715V14.2615H60.435V10.1671H64.5534V8.69491H60.435V4.87651H65.5715V3.45036H57.7048V15.8257ZM35.1689 9.75303C33.7807 8.41889 32.161 8.18886 31.0504 7.36077C30.1712 6.71671 30.31 5.79661 30.6802 5.24455C31.6983 4.04843 33.6881 4.60048 34.1971 4.7385C34.845 4.87651 35.0764 5.01453 35.6779 5.38257V3.8184C33.1791 3.03632 29.292 2.34625 27.8112 5.01453C27.3022 6.07264 27.0708 7.91283 28.8292 9.10896C30.4489 10.4431 33.3179 11.0872 33.5956 12.2833C33.8269 12.9274 33.5956 13.4794 33.2254 13.8475C31.7446 15.3196 29.3383 14.3535 27.8575 13.7094V15.2736C29.4771 16.0557 31.6057 16.1937 33.3642 15.7797C34.6136 15.5036 36.0019 14.3075 36.2332 12.8814C36.3258 11.4552 36.0481 10.5351 35.1689 9.75303ZM18.8801 15.8257H26.7469V14.2615H21.6566V10.1671H25.7751V8.69491H21.6566V4.87651H26.7931V3.45036H18.9264V15.8257H18.8801ZM42.5729 3.31235H37.4364V15.9637H40.074V11.3632C40.074 11.3632 44.1925 11.6392 45.4419 9.89104C46.3211 8.83293 46.46 6.99274 46.0898 5.6586C45.4419 3.95642 44.0537 3.31235 42.5729 3.31235ZM43.0819 8.97094C42.3415 9.75303 41.0921 9.75303 40.074 9.61501V4.87651C40.074 4.87651 42.3415 4.37046 43.2207 5.6586C43.6835 6.34867 43.6835 8.05085 43.0819 8.97094ZM55.0671 9.75303C55.9463 8.69492 56.0851 6.99274 55.7149 5.52058C55.2059 4.04843 53.8177 3.26634 52.3369 3.26634H47.2004V15.7797H49.838V11.1792H51.0875L53.8639 15.7797H56.8718L53.8639 10.6271C54.1879 10.3971 54.8357 10.1671 55.0671 9.75303ZM52.9385 8.97094C52.1981 9.75303 50.9486 9.61501 49.9306 9.61501V5.01453C49.9306 5.01453 52.0592 4.50847 53.0773 5.79661C53.4475 6.44068 53.5863 8.05085 52.9385 8.97094ZM98.5192 13.0654C97.64 13.0654 97.0384 13.7094 97.0384 14.6295C97.0384 15.5496 97.7788 16.1937 98.5192 16.1937C99.2596 16.1937 100 15.5496 100 14.6295C100 13.7094 99.2596 13.0654 98.5192 13.0654ZM98.5192 15.9637C97.7788 15.9637 97.131 15.3196 97.131 14.4915C97.131 13.7094 97.7788 13.0194 98.5192 13.0194C99.2596 13.0194 99.9074 13.6634 99.9074 14.4915C99.7686 15.4116 99.167 15.9637 98.5192 15.9637ZM98.8894 14.6295C98.8894 14.6295 99.1208 14.4915 99.1208 14.2155C99.1208 13.9395 98.8894 13.7094 98.6118 13.7094H97.8714V15.4116H98.1027V14.7676H98.6118C98.8431 14.7676 98.9819 14.9056 98.9819 15.1816V15.4576H99.2133C99.0745 15.3196 99.0745 15.1816 99.0745 14.9516C99.0745 14.7215 99.0282 14.6295 98.8894 14.6295ZM98.5192 14.4915H98.0102V13.9855H98.5192C98.658 13.9855 98.7506 13.9855 98.7506 14.2615C98.8894 14.3535 98.7506 14.4915 98.5192 14.4915Z" fill="#515151"/>
</g>
</g>
</g>
<defs>
<clipPath id="clip0_19_731">
<rect width="100" height="19" fill="white"/>
</clipPath>
</defs>
</svg>
