<svg width="71" height="19" viewBox="0 0 71 19" fill="none" xmlns="http://www.w3.org/2000/svg">
<g id="Layer_1" clip-path="url(#clip0_19_725)">
<path id="Vector" d="M67.2058 9.04659L71 19C69.8879 18.8489 68.754 18.633 67.6201 18.4602L65.4831 12.9545L63.2807 18.0068C62.2122 17.8341 61.1437 17.7693 60.0534 17.6398L63.9131 8.93864L60.4241 0H63.6732L65.6357 4.9875L67.7291 0H71L67.2058 9.04659ZM57.8728 0H54.9291V17.2511C55.8885 17.3159 56.8916 17.3591 57.8728 17.467V0ZM52.3996 17.0568C49.7174 16.8841 47.0353 16.7114 44.3096 16.6682V0H47.297V13.8614C49.0197 13.9045 50.7423 14.0341 52.3996 14.1205V17.0568ZM41.1041 6.75795V9.71591H37.0046V16.4739H34.039V0H42.4343V2.95795H37.0046V6.73636L41.1041 6.75795ZM29.0018 2.95795V16.625C27.9988 16.625 26.9739 16.625 25.9926 16.6682V2.95795H22.8962V0H32.1201V2.95795H29.0018ZM19.6689 9.86705C18.3606 9.86705 16.7905 9.86705 15.6784 9.93182V14.3364C17.4447 14.2068 19.1892 14.0773 20.9773 14.0125V16.8625L12.691 17.5102V0H20.9773V2.95795H15.6784V6.95227C16.8342 6.95227 18.6222 6.8875 19.6689 6.8875V9.86705ZM3.05283 8.20455V18.5682C1.98434 18.6977 1.02488 18.8489 0 19V0H2.85657L6.75983 10.7955V0H9.76904V17.7693C8.70055 17.942 7.63206 18.0068 6.49816 18.158L3.05283 8.20455Z" fill="#515151"/>
</g>
<defs>
<clipPath id="clip0_19_725">
<rect width="71" height="19" fill="white"/>
</clipPath>
</defs>
</svg>
