<svg width="59" height="21" viewBox="0 0 59 21" fill="none" xmlns="http://www.w3.org/2000/svg">
<g id="Mode_Isolation" clip-path="url(#clip0_5_835)">
<path id="Vector" fill-rule="evenodd" clip-rule="evenodd" d="M7.55783 0.931421C3.71849 5.39029 0.0373679 10.9194 -7.99584e-05 15.0524C-0.0141229 16.6078 0.487678 17.9651 1.69163 18.9937C3.42452 20.4751 5.33436 20.9972 7.23391 21C10.0107 21.0037 12.7678 19.8964 14.9266 19.0419C18.5628 17.604 58.7518 0.344436 58.7518 0.344436C59.1394 0.15186 59.0673 -0.0870074 58.5814 0.0324265C58.3858 0.0805704 14.8293 11.7545 14.8293 11.7545C14.0045 11.9851 13.1516 12.1064 12.294 12.1138C8.94621 12.1332 5.96817 10.2954 5.99251 6.42353C6.00187 4.90885 6.47091 3.08123 7.55783 0.932347V0.931421Z" fill="white"/>
</g>
<defs>
<clipPath id="clip0_5_835">
<rect width="59" height="21" fill="white"/>
</clipPath>
</defs>
</svg>
