<svg width="82" height="13" viewBox="0 0 82 13" fill="none" xmlns="http://www.w3.org/2000/svg">
<g id="Layer_1" clip-path="url(#clip0_19_728)">
<path id="Vector" d="M3.11564 3.51856C3.05543 3.26946 3.07048 3.02036 3.10059 2.88024C3.17584 2.49102 3.43172 2.07066 4.16924 2.07066C4.8616 2.07066 5.25294 2.50659 5.25294 3.17605V3.92335H8.17291V3.06707C8.18796 0.420359 5.8851 0 4.22944 0C2.15235 0 0.451542 0.716168 0.135463 2.69341C0.0451542 3.23832 0.0301028 3.72096 0.165565 4.32814C0.677313 6.80359 4.84655 7.51976 5.44861 9.09222C5.56902 9.38802 5.52386 9.76168 5.47871 9.99521C5.3884 10.4 5.11747 10.8204 4.3348 10.8204C3.59728 10.8204 3.16079 10.3844 3.16079 9.71497V8.54731H0V9.48144C0 12.1904 2.06204 13 4.25954 13C6.45705 13 8.1127 12.2527 8.39868 10.2287C8.53414 9.18563 8.42878 8.5006 8.38363 8.2515C7.90198 5.68263 3.44677 4.93533 3.11564 3.51856ZM41.2408 3.53413C41.1957 3.3006 41.2107 3.03593 41.2258 2.91138C41.3161 2.52216 41.5569 2.1018 42.2944 2.1018C42.9717 2.1018 43.3631 2.53772 43.3631 3.19162V3.93892H46.2529V3.0982C46.2529 0.482635 43.9952 0.0778443 42.3546 0.0778443C40.2926 0.0778443 38.6068 0.778443 38.2907 2.74012C38.2155 3.26946 38.1854 3.7521 38.3209 4.35928C38.8175 6.80359 42.9416 7.51976 43.5437 9.07665C43.649 9.37246 43.6189 9.74611 43.5587 9.96407C43.4684 10.3689 43.2126 10.7737 42.4299 10.7737C41.7074 10.7737 41.2559 10.3377 41.2559 9.68383V8.51617H38.1402V9.43473C38.1402 12.1126 40.1722 12.9222 42.3546 12.9222C44.5371 12.9222 46.1777 12.1749 46.4486 10.182C46.5841 9.13892 46.4787 8.46946 46.4336 8.22036C45.967 5.6982 41.572 4.9509 41.2408 3.53413ZM67.8517 10.1509L65.0973 0.389222H60.7474V12.3928H63.6222L63.4567 2.31976L66.4218 12.3928H70.591V0.389222H67.7012L67.8517 10.1509ZM12.5529 0.389222L10.3704 12.5174H13.5312L15.1718 1.29222L16.7673 12.5174H19.913L17.7606 0.389222H12.5529ZM30.2533 0.389222L28.7783 9.87066L27.3032 0.389222H22.5169L22.261 12.5174H25.196L25.2713 1.29222L27.2882 12.5174H30.2533L32.2702 1.29222L32.3454 12.5174H35.2805L35.0246 0.389222H30.2533ZM57.4963 0.389222H54.5312V9.35689C54.5312 9.51258 54.5312 9.68383 54.5011 9.82395C54.4409 10.1198 54.2001 10.7114 53.3722 10.7114C52.5444 10.7114 52.3186 10.1353 52.2584 9.82395C52.2283 9.6994 52.2283 9.51258 52.2283 9.35689V0.389222H49.2632V9.07665C49.2632 9.29461 49.2783 9.76168 49.2933 9.87066C49.504 12.1281 51.2199 12.8754 53.3722 12.8754C55.5246 12.8754 57.2555 12.1437 57.4662 9.87066C57.4813 9.74611 57.5114 9.29461 57.4963 9.07665V0.389222ZM77.8458 5.6982V7.47305H79.0499V9.23234C79.0499 9.38802 79.0499 9.55928 79.0198 9.6994C78.9747 10.0263 78.6736 10.5868 77.8157 10.5868C76.9578 10.5868 76.6718 10.0263 76.6266 9.6994C76.6116 9.55928 76.5965 9.38802 76.5965 9.23234V3.68982C76.5965 3.48743 76.6116 3.28503 76.6568 3.11377C76.717 2.81796 76.9728 2.24192 77.8157 2.24192C78.7188 2.24192 78.9295 2.8491 78.9897 3.11377C79.0198 3.28503 79.0198 3.58084 79.0198 3.58084V4.2503H81.9699V3.84551C81.9699 3.84551 81.9849 3.42515 81.9548 3.03593C81.7291 0.778443 79.9079 0.0622755 77.8308 0.0622755C75.7537 0.0622755 73.9776 0.794012 73.7217 3.0515C73.6916 3.25389 73.6615 3.62754 73.6615 3.86108V8.9521C73.6615 9.17006 73.6615 9.34132 73.7067 9.74611C73.9024 11.9569 75.7537 12.7353 77.8308 12.7353C79.9079 12.7353 81.7592 11.9569 81.9548 9.74611C81.9849 9.34132 82 9.17006 82 8.9521V5.6982H77.8458Z" fill="#515151"/>
</g>
<defs>
<clipPath id="clip0_19_728">
<rect width="82" height="13" fill="white"/>
</clipPath>
</defs>
</svg>
