<svg width="71" height="11" viewBox="0 0 71 11" fill="none" xmlns="http://www.w3.org/2000/svg">
<g id="Layer_1" clip-path="url(#clip0_5_873)">
<path id="Vector" d="M2.69769 2.97725C2.64556 2.76647 2.65859 2.55569 2.68465 2.43713C2.74982 2.10778 2.97137 1.7521 3.60995 1.7521C4.20943 1.7521 4.54827 2.12096 4.54827 2.68743V3.31976H7.07654V2.59521C7.08957 0.355689 5.09563 0 3.66208 0C1.86362 0 0.390969 0.605988 0.117291 2.27904C0.0390969 2.74012 0.0260646 3.1485 0.143355 3.66228C0.586454 5.75689 4.1964 6.36287 4.71769 7.69341C4.82195 7.94371 4.78286 8.25988 4.74376 8.45749C4.66557 8.8 4.43098 9.15569 3.7533 9.15569C3.11472 9.15569 2.73678 8.78683 2.73678 8.22036V7.23234H0V8.02275C0 10.315 1.78543 11 3.68814 11C5.59086 11 7.02441 10.3677 7.27203 8.65509C7.38932 7.77246 7.29809 7.19281 7.25899 6.98204C6.84196 4.80838 2.9844 4.17605 2.69769 2.97725ZM35.7085 2.99042C35.6694 2.79281 35.6824 2.56886 35.6955 2.46347C35.7737 2.13413 35.9822 1.77844 36.6208 1.77844C37.2072 1.77844 37.5461 2.14731 37.5461 2.7006V3.33293H40.0483V2.62156C40.0483 0.408383 38.0934 0.0658683 36.6729 0.0658683C34.8875 0.0658683 33.4279 0.658683 33.1542 2.31856C33.089 2.76647 33.063 3.17485 33.1802 3.68862C33.6103 5.75689 37.1812 6.36287 37.7025 7.68024C37.7937 7.93054 37.7676 8.24671 37.7155 8.43114C37.6373 8.77365 37.4157 9.11617 36.7381 9.11617C36.1125 9.11617 35.7215 8.74731 35.7215 8.19401V7.20599H33.0239V7.98323C33.0239 10.2491 34.7832 10.9341 36.6729 10.9341C38.5626 10.9341 39.9831 10.3018 40.2177 8.61557C40.335 7.73293 40.2438 7.16647 40.2047 6.95569C39.8007 4.82156 35.9952 4.18922 35.7085 2.99042ZM58.7496 8.58922L56.3647 0.329341H52.5984V10.4862H55.0876L54.9442 1.96287L57.5116 10.4862H61.1215V0.329341H58.6193L58.7496 8.58922ZM10.8689 0.329341L8.97926 10.5916H11.716L13.1366 1.09341L14.518 10.5916H17.2417L15.3781 0.329341H10.8689ZM26.1949 0.329341L24.9178 8.3521L23.6406 0.329341H19.4963L19.2748 10.5916H21.8161L21.8812 1.09341L23.6276 10.5916H26.1949L27.9413 1.09341L28.0064 10.5916H30.5477L30.3262 0.329341H26.1949ZM49.7834 0.329341H47.216V7.91737C47.216 8.0491 47.216 8.19401 47.19 8.31258C47.1378 8.56287 46.9293 9.06347 46.2126 9.06347C45.4958 9.06347 45.3003 8.57605 45.2482 8.31258C45.2221 8.20719 45.2221 8.0491 45.2221 7.91737V0.329341H42.6547V7.68024C42.6547 7.86467 42.6678 8.25988 42.6808 8.3521C42.8633 10.2623 44.3489 10.8946 46.2126 10.8946C48.0762 10.8946 49.5749 10.2754 49.7573 8.3521C49.7704 8.24671 49.7964 7.86467 49.7834 7.68024V0.329341ZM67.4031 4.82156V6.32335H68.4457V7.81198C68.4457 7.94371 68.4457 8.08862 68.4196 8.20719C68.3805 8.48383 68.1199 8.95808 67.377 8.95808C66.6342 8.95808 66.3866 8.48383 66.3475 8.20719C66.3344 8.08862 66.3214 7.94371 66.3214 7.81198V3.12216C66.3214 2.9509 66.3344 2.77964 66.3735 2.63473C66.4257 2.38443 66.6472 1.89701 67.377 1.89701C68.159 1.89701 68.3414 2.41078 68.3935 2.63473C68.4196 2.77964 68.4196 3.02994 68.4196 3.02994V3.59641H70.9739V3.25389C70.9739 3.25389 70.987 2.8982 70.9609 2.56886C70.7654 0.658683 69.1885 0.0526946 67.39 0.0526946C65.5916 0.0526946 64.0538 0.671856 63.8322 2.58204C63.8062 2.75329 63.7801 3.06946 63.7801 3.26707V7.57485C63.7801 7.75928 63.7801 7.90419 63.8192 8.24671C63.9886 10.1174 65.5916 10.776 67.39 10.776C69.1885 10.776 70.7915 10.1174 70.9609 8.24671C70.987 7.90419 71 7.75928 71 7.57485V4.82156H67.4031Z" fill="white"/>
</g>
<defs>
<clipPath id="clip0_5_873">
<rect width="71" height="11" fill="white"/>
</clipPath>
</defs>
</svg>
