<svg width="87" height="18" viewBox="0 0 87 18" fill="none" xmlns="http://www.w3.org/2000/svg">
<g id="Calque_1" clip-path="url(#clip0_19_673)">
<path id="Vector" d="M13.5704 13.05C13.5704 13.7242 13.419 14.3247 13.118 14.85C12.817 15.4505 12.3647 15.9005 11.8366 16.3505C11.3086 16.8005 10.6309 17.1753 9.87594 17.4011C9.12258 17.6253 8.29191 17.7758 7.38886 17.7758C6.55983 17.7758 5.80647 17.7005 5.2028 17.6253C4.5251 17.55 3.92143 17.4011 3.31775 17.2505C2.71408 17.1 2.18606 16.8005 1.6597 16.5764C1.13169 16.2769 0.603679 15.9005 0.00164795 15.5258L2.64006 13.2005C3.39342 13.8011 4.14842 14.1758 4.90178 14.4C5.65514 14.6242 6.41015 14.7747 7.23917 14.7747C7.61585 14.7747 7.91687 14.6995 8.21953 14.6242C8.52055 14.5489 8.82321 14.4 9.04856 14.2495C9.27391 14.0989 9.42524 13.8747 9.57657 13.7242C9.7279 13.5 9.80356 13.2742 9.80356 13.05C9.80356 12.7505 9.7279 12.5247 9.65223 12.3005C9.57657 12.0747 9.35122 11.8505 9.04856 11.7C8.74754 11.4742 8.37086 11.3253 7.84285 11.0995C7.31484 10.8753 6.71116 10.6495 5.88214 10.4253C5.2028 10.1995 4.5251 9.97527 3.84741 9.67582C3.16807 9.37636 2.6417 9.00164 2.18935 8.62527C1.73701 8.25054 1.28466 7.72527 1.05767 7.2C0.680988 6.52418 0.529658 5.85 0.529658 5.10055C0.529658 4.35109 0.680988 3.67527 0.982004 3.07636C1.28302 2.47582 1.73536 1.95055 2.33904 1.50055C2.86705 1.12582 3.54475 0.751091 4.29975 0.525273C5.05311 0.299455 5.88378 0.150545 6.71281 0.150545C8.14551 0.150545 9.42688 0.301091 10.4072 0.675818C11.3876 1.05055 12.2923 1.50055 13.0456 2.17636L10.4829 4.50164C10.0306 4.12691 9.50255 3.75218 8.89887 3.52636C8.2952 3.30055 7.6175 3.22691 6.86249 3.22691C6.48581 3.22691 6.1848 3.30218 5.88214 3.37745C5.50546 3.45273 5.27846 3.60327 5.05311 3.75218C4.82612 3.90273 4.67643 4.12691 4.5251 4.35273C4.37377 4.57855 4.29811 4.80273 4.29811 5.02855C4.29811 5.328 4.37377 5.55382 4.5251 5.778C4.60077 6.00382 4.82612 6.15273 5.12878 6.37855C5.42979 6.60436 5.80812 6.75327 6.33448 6.97909C6.86249 7.20491 7.46617 7.42909 8.21953 7.65491C9.19989 7.95436 9.95325 8.25545 10.6326 8.63018C11.3103 9.00491 11.8383 9.37964 12.2906 9.82964C12.743 10.2796 13.044 10.7296 13.271 11.2549C13.4963 11.7802 13.572 12.3807 13.572 13.0549L13.5704 13.05ZM34.7549 17.55H31.0605V10.0505H24.1997V17.55H20.5052V0.525273H24.1997V7.27527H31.0605V0.525273H34.7549V17.55ZM55.1861 17.55H41.6914V0.525273H55.1861V3.22527H45.3102V7.27527H54.4328V9.9H45.3102V14.5505H55.1861V17.55ZM66.1181 17.55H62.4237V0.525273H66.1181V17.55ZM87 0.525273V18L76.6717 9.07527V17.4011H73.053V0L83.3812 8.92473V0.525273H87Z" fill="#515151"/>
</g>
<defs>
<clipPath id="clip0_19_673">
<rect width="87" height="18" fill="white"/>
</clipPath>
</defs>
</svg>
