<svg width="78" height="22" viewBox="0 0 78 22" fill="none" xmlns="http://www.w3.org/2000/svg">
<g id="Mode_Isolation" clip-path="url(#clip0_5_838)">
<path id="Vector" fill-rule="evenodd" clip-rule="evenodd" d="M28.1227 7.20517C28.1227 6.82445 28.2834 6.5006 28.6047 6.23402C28.926 5.96743 29.3757 5.83395 29.954 5.83395C30.4679 5.83395 30.9766 5.93455 31.4799 6.13613C31.9832 6.33732 32.4918 6.62828 33.0057 7.0094L34.0656 5.49153C33.4873 5.02336 32.8691 4.6674 32.2104 4.42248C31.5518 4.17756 30.8106 4.0553 29.9859 4.0553C29.4293 4.0553 28.9154 4.13423 28.4467 4.29209C27.9758 4.44995 27.5741 4.67552 27.2395 4.96958C26.9049 5.26363 26.6425 5.61418 26.4499 6.02237C26.2599 6.43057 26.1636 6.88481 26.1636 7.38548C26.1636 7.91865 26.2466 8.37018 26.4126 8.74007C26.5786 9.10996 26.8222 9.42568 27.1378 9.68685C27.4538 9.94802 27.8471 10.1659 28.3131 10.3396C28.7814 10.5137 29.3144 10.6715 29.9167 10.8128C30.4413 10.9435 30.8669 11.0685 31.1962 11.1881C31.5229 11.3076 31.7799 11.4357 31.9698 11.5715C32.1571 11.7073 32.2858 11.8571 32.3551 12.0203C32.4248 12.1836 32.4594 12.3686 32.4594 12.5752C32.4594 13.0213 32.2801 13.3749 31.9215 13.6361C31.5628 13.8973 31.0782 14.0277 30.4679 14.0277C29.7613 14.0277 29.1293 13.9 28.5727 13.6442C28.0161 13.3885 27.4645 13.0213 26.9186 12.5423L25.73 13.9785C26.4046 14.5987 27.1378 15.0584 27.9305 15.3579C28.7227 15.657 29.5527 15.8067 30.42 15.8067C31.0089 15.8067 31.5495 15.7305 32.0422 15.578C32.5321 15.4256 32.9551 15.2027 33.3031 14.9087C33.6537 14.615 33.9267 14.2559 34.125 13.8315C34.3203 13.407 34.4193 12.923 34.4193 12.3786C34.4193 11.8996 34.3417 11.4837 34.1863 11.13C34.031 10.7764 33.8007 10.4661 33.501 10.1995C33.201 9.93293 32.8211 9.70697 32.3661 9.52202C31.9112 9.33708 31.3866 9.16838 30.7976 9.01594C30.2597 8.88555 29.8181 8.76019 29.467 8.64063C29.1191 8.52107 28.8461 8.3903 28.6451 8.24907C28.4471 8.10746 28.3104 7.95502 28.2354 7.79213C28.1604 7.62885 28.1231 7.43307 28.1231 7.2044L28.1227 7.20517Z" fill="white"/>
<path id="Vector_2" fill-rule="evenodd" clip-rule="evenodd" d="M44.381 11.3347C44.381 10.6166 44.2687 9.98008 44.0437 9.42486C43.8187 8.87002 43.5244 8.39915 43.1551 8.01301C42.7858 7.62686 42.3682 7.33552 41.8968 7.13974C41.4286 6.94396 40.9413 6.84607 40.438 6.84607C39.7554 6.84607 39.185 7.00122 38.7248 7.31114C38.2645 7.62106 37.8815 8.00488 37.5712 8.46183V7.0256H35.6117V18.2558H37.5712L37.5552 14.3058C37.8552 14.7086 38.2352 15.0622 38.6955 15.3667C39.1561 15.6716 39.734 15.8237 40.43 15.8237C40.9333 15.8237 41.4232 15.7258 41.8995 15.5296C42.3762 15.3338 42.7987 15.0425 43.1684 14.6563C43.5377 14.2702 43.8324 13.7993 44.0517 13.2445C44.2713 12.6897 44.381 12.0528 44.381 11.3347ZM42.4215 11.3347C42.4215 11.7591 42.3571 12.1426 42.2288 12.4854C42.1001 12.8282 41.9262 13.1191 41.7069 13.3586C41.4876 13.5981 41.2306 13.7831 40.9359 13.9135C40.6416 14.0439 40.3283 14.1092 39.9963 14.1092C39.6644 14.1092 39.3484 14.0439 39.0488 13.9135C38.7488 13.7827 38.4864 13.595 38.2618 13.3505C38.0368 13.1056 37.8575 12.8146 37.7239 12.4772C37.5899 12.1398 37.5232 11.7591 37.5232 11.3347C37.5232 10.9102 37.5902 10.5295 37.7239 10.1921C37.8575 9.85472 38.0372 9.56376 38.2618 9.31884C38.4868 9.07393 38.7491 8.88627 39.0488 8.7555C39.3484 8.62472 39.6644 8.55972 39.9963 8.55972C40.3283 8.55972 40.6413 8.62472 40.9359 8.7555C41.2302 8.88627 41.4872 9.07122 41.7069 9.31033C41.9265 9.54983 42.1005 9.84079 42.2288 10.1836C42.3571 10.5264 42.4215 10.9098 42.4215 11.3343V11.3347Z" fill="white"/>
<path id="Vector_3" fill-rule="evenodd" clip-rule="evenodd" d="M54.19 11.3347C54.19 10.7144 54.0777 10.1321 53.8527 9.58814C53.6277 9.04413 53.3147 8.56784 52.9131 8.16003C52.5114 7.75184 52.0352 7.43108 51.4835 7.197C50.9319 6.96292 50.3296 6.84607 49.6767 6.84607C49.0237 6.84607 48.4211 6.96563 47.8698 7.20513C47.3185 7.44463 46.8419 7.76809 46.4402 8.17628C46.0386 8.58448 45.723 9.06309 45.4926 9.6129C45.2623 10.1623 45.1473 10.7473 45.1473 11.3676C45.1473 11.9878 45.2596 12.5674 45.4846 13.106C45.7096 13.6446 46.0226 14.1181 46.4242 14.5259C46.8259 14.9341 47.3022 15.2549 47.8538 15.489C48.4051 15.7231 49.002 15.8399 49.6447 15.8399C50.2873 15.8399 50.9029 15.7204 51.4595 15.4809C52.0165 15.2414 52.4954 14.9179 52.8971 14.5097C53.2987 14.1015 53.6143 13.6256 53.8447 13.0812C54.075 12.5372 54.19 11.9549 54.19 11.3347ZM52.2305 11.3672C52.2305 11.7479 52.1715 12.1042 52.0538 12.4362C51.9388 12.7682 51.7671 13.0592 51.5452 13.3095C51.3202 13.5598 51.0525 13.7583 50.7396 13.9053C50.4236 14.0524 50.0703 14.1259 49.677 14.1259C49.3051 14.1259 48.9624 14.0524 48.6465 13.9053C48.3331 13.7583 48.0628 13.5598 47.8325 13.3095C47.6048 13.0592 47.4255 12.7628 47.2999 12.42C47.1716 12.0772 47.1072 11.7154 47.1072 11.3347C47.1072 10.9539 47.1662 10.5976 47.2839 10.2656C47.3989 9.93365 47.5702 9.64269 47.7925 9.39236C48.0175 9.14202 48.2852 8.94354 48.5981 8.79651C48.9141 8.64948 49.2621 8.57597 49.6447 8.57597C50.0273 8.57597 50.3756 8.64948 50.6912 8.79651C51.0046 8.94354 51.2749 9.14473 51.5052 9.40048C51.7329 9.65623 51.9122 9.95261 52.0378 10.29C52.1665 10.6274 52.2305 10.9864 52.2305 11.3672Z" fill="white"/>
<path id="Vector_4" fill-rule="evenodd" clip-rule="evenodd" d="M57.4637 8.70672H59.7445V7.02557H57.4637V4.65881H55.5042V7.02557H54.4283V8.70672H55.5042V13.2553C55.5042 13.7343 55.5632 14.1367 55.6835 14.4578C55.8011 14.779 55.9698 15.0374 56.1921 15.2359C56.4144 15.4317 56.6764 15.5733 56.979 15.6604C57.2787 15.7474 57.608 15.7908 57.9613 15.7908C58.3146 15.7908 58.6466 15.7528 58.9249 15.6766C59.2032 15.6004 59.4655 15.4917 59.7118 15.3501V13.7339C59.3265 13.9297 58.9249 14.0276 58.5072 14.0276C58.1752 14.0276 57.9183 13.9432 57.7363 13.7745C57.5543 13.6058 57.4633 13.3284 57.4633 12.9473V8.70595L57.4637 8.70672Z" fill="white"/>
<path id="Vector_5" fill-rule="evenodd" clip-rule="evenodd" d="M62.9478 5.70312V3.82581H60.8436V5.70312H62.9478ZM62.8835 15.6437V7.02521H60.924V15.6437H62.8835Z" fill="white"/>
<path id="Vector_6" fill-rule="evenodd" clip-rule="evenodd" d="M67.7661 7.09055V6.61736C67.7661 5.7468 68.1407 5.31152 68.8904 5.31152C69.1043 5.31152 69.3 5.33048 69.4767 5.36878C69.6533 5.4067 69.8379 5.45855 70.0306 5.52393V3.85904C69.8162 3.79365 69.5863 3.73948 69.34 3.69576C69.0937 3.65243 68.7994 3.63037 68.4567 3.63037C67.6188 3.63037 66.9739 3.86175 66.5185 4.32411C66.0662 4.78647 65.8386 5.49646 65.8386 6.45408V7.0743H64.7627V8.72295H65.8386V15.6437H67.7981V8.72295H70.0146V7.09055H67.7661Z" fill="white"/>
<path id="Vector_7" fill-rule="evenodd" clip-rule="evenodd" d="M78 7.09062H75.9765L73.776 13.489L71.3669 7.09062H69.295L72.8284 15.6952C72.6678 16.0732 72.4964 16.3344 72.3145 16.476C72.1325 16.6176 71.9021 16.6881 71.6238 16.6881C71.4205 16.6881 71.2252 16.6583 71.0376 16.5983C70.8502 16.5383 70.6656 16.4594 70.4832 16.3615L69.8246 17.8414C70.1246 18.0074 70.4322 18.1351 70.7482 18.2276C71.0642 18.3228 71.4255 18.3692 71.8321 18.3692C72.1747 18.3692 72.4801 18.3255 72.7477 18.2384C73.0153 18.1514 73.2617 18.0125 73.4867 17.8221C73.7117 17.6317 73.915 17.3841 74.0969 17.0792C74.2789 16.7743 74.4556 16.399 74.6269 15.9529L77.9996 7.08984L78 7.09062Z" fill="white"/>
<path id="Vector_8" d="M10.8236 0C4.86206 0 0 4.94129 0 11C0 17.0587 4.86206 22 10.8236 22C16.7852 22 21.6472 17.0587 21.6472 11C21.6472 4.94129 16.7852 0 10.8236 0ZM15.747 16.0806C15.5581 16.3758 15.1694 16.4598 14.8789 16.2679C13.4684 15.3358 12.0118 14.8189 10.4391 14.6289C8.84239 14.4362 7.11586 14.5786 5.18985 14.9647C4.84911 15.0324 4.51865 14.8065 4.45203 14.4598C4.38541 14.1135 4.60774 13.7777 4.94886 13.71C6.99784 13.2987 8.85 13.1493 10.5868 13.359C12.3472 13.5714 13.9793 14.1514 15.5627 15.198C15.8532 15.3899 15.9358 15.785 15.747 16.0802V16.0806ZM17.1373 12.7825C16.939 13.1497 16.4852 13.284 16.1239 13.0824C14.2961 12.0625 12.4995 11.4833 10.6789 11.2836C8.85152 11.0828 6.98718 11.2619 5.03376 11.7584C4.63363 11.8601 4.22855 11.6129 4.12843 11.2062C4.02868 10.7996 4.27157 10.3879 4.6717 10.2861C6.79074 9.74756 8.82563 9.55487 10.8365 9.7758C12.8547 9.9975 14.8371 10.634 16.8423 11.7529C17.2036 11.9545 17.3357 12.4157 17.1373 12.7825ZM17.3916 9.75607C15.3091 8.72649 13.2495 8.14186 11.159 7.94066C9.05596 7.7383 6.9099 7.92093 4.66865 8.42701C4.16155 8.54077 3.65939 8.21537 3.54746 7.69961C3.43553 7.18424 3.75571 6.6739 4.2632 6.56015C6.69327 6.0115 9.03122 5.81456 11.3364 6.03626C13.6538 6.25913 15.9259 6.90179 18.2109 8.03159C18.6796 8.26141 18.876 8.83366 18.6499 9.30995C18.4237 9.78625 17.8607 9.9859 17.392 9.75607H17.3916Z" fill="white"/>
</g>
<defs>
<clipPath id="clip0_5_838">
<rect width="78" height="22" fill="white"/>
</clipPath>
</defs>
</svg>
