<svg width="44" height="16" viewBox="0 0 44 16" fill="none" xmlns="http://www.w3.org/2000/svg">
<g id="svg2" clip-path="url(#clip0_20_785)">
<g id="g10">
<g id="g12">
<path id="path14" d="M5.19836 5.80889H7.55579V11.44H8.74341V5.80889H11.1008V4.59778H5.19836V5.80889Z" fill="#515151"/>
<path id="path16" d="M17.6873 8.81333C17.6873 9.40222 17.5447 9.80222 17.2483 10.04C16.9765 10.2578 16.5576 10.36 15.9315 10.36C15.1605 10.36 14.6391 10.2133 14.3361 9.91111C14.0241 9.6 13.9996 9.26 13.9996 8.81556V4.59778H12.7942V8.81556C12.7942 9.38444 12.8232 9.89778 13.1886 10.4311C13.4225 10.7733 14.1422 11.5733 15.7822 11.5733C16.4685 11.5733 17.7229 11.4422 18.3892 10.5711C18.8504 9.97778 18.8838 9.46889 18.8838 8.81556V4.59778H17.6873V8.81556" fill="#515151"/>
<path id="path18" d="M24.8643 7.74447H22.0368V5.80003H24.8643C25.5283 5.80003 25.8648 6.1978 25.8648 6.7378C25.8648 7.14003 25.691 7.74669 24.8643 7.74669M27.0725 6.78891C27.0725 5.53114 26.2057 4.59558 24.8643 4.59558H20.8224V11.4378H22.0368V8.95558H24.3028L25.6887 11.4378H27.0635L25.6085 8.87558C26.5421 8.59336 27.0725 7.76225 27.0725 6.78891Z" fill="#515151"/>
<path id="path20" d="M33.8239 9.68444C33.3582 10.1311 32.7388 10.3778 32.0793 10.3778C31.4197 10.3778 30.8025 10.1356 30.3368 9.71111C29.8533 9.27111 29.5881 8.67556 29.5881 8.03556C29.5881 7.35778 29.8422 6.74 30.3012 6.3C30.7557 5.86444 31.3841 5.62222 32.0703 5.62222C32.7566 5.62222 33.3538 5.85778 33.8172 6.28222C34.2918 6.71778 34.5525 7.31778 34.5525 7.97111C34.5525 8.62444 34.2941 9.23111 33.8239 9.68222M32.0793 4.40222C30.0449 4.40222 28.3916 5.98 28.3916 7.92C28.3916 9.98222 30.007 11.5978 32.0703 11.5978C34.1336 11.5978 35.758 9.99555 35.758 8.02667C35.758 7.04444 35.3747 6.12889 34.6773 5.44889C33.9866 4.77333 33.0641 4.40222 32.0793 4.40222Z" fill="#515151"/>
<path id="path22" d="M37.6252 14.3022L37.6207 14.3089C37.5828 14.3556 37.5338 14.4133 37.4915 14.4556C37.2486 14.6889 36.9211 14.8178 36.569 14.8178C36.5668 14.8178 36.5623 14.8178 36.5601 14.8178H1.1854V1.18222H36.5601C36.5601 1.18222 36.5645 1.18222 36.569 1.18222C36.9211 1.18222 37.2486 1.31111 37.4915 1.54444C37.536 1.58667 37.585 1.64444 37.6207 1.69111C37.6252 1.69778 37.6207 1.69111 37.6252 1.69778L39.127 3.64L42.5027 8.00222L37.6252 14.3044V14.3022ZM38.8262 1.31333L38.5565 0.966667C38.5565 0.966667 38.5521 0.96 38.5499 0.957778C38.4786 0.864444 38.3983 0.775556 38.3114 0.693333C37.8457 0.246667 37.2263 0 36.5668 0C36.5645 0 36.5601 0 36.5579 0H35.622H0V16H36.5579C36.5579 16 36.5645 16 36.5668 16C37.2263 16 37.8457 15.7533 38.3114 15.3067C38.3983 15.2244 38.4786 15.1356 38.5499 15.0422C38.5521 15.04 38.5543 15.0356 38.5565 15.0333L44 8L38.8262 1.31333Z" fill="#515151"/>
</g>
</g>
</g>
<defs>
<clipPath id="clip0_20_785">
<rect width="44" height="16" fill="white"/>
</clipPath>
</defs>
</svg>
