<svg width="54" height="18" viewBox="0 0 54 18" fill="none" xmlns="http://www.w3.org/2000/svg">
<g id="Layer_1" clip-path="url(#clip0_5_848)">
<path id="Vector" d="M2.66881 10.9237V0H0V11.0611C0 15.2176 2.94608 17.9656 6.75867 17.9656C8.6303 17.9656 10.2593 17.2443 11.4724 16.0076V17.6565H14.1065V0H11.4377V10.9237C11.4377 13.7405 9.53145 15.6298 7.0706 15.6298C4.5751 15.5954 2.66881 13.7748 2.66881 10.9237ZM16.7407 17.6908H19.2709V16.0763C20.4493 17.2786 22.113 18 23.9153 18C27.7279 18 30.7433 15.0114 30.7433 11.2672C30.7433 7.5229 27.7279 4.53435 23.9153 4.53435C22.113 4.53435 20.484 5.25572 19.3055 6.45801V0H16.7407V17.6908ZM19.2709 11.2672C19.2709 8.75954 21.2811 6.80153 23.742 6.80153C26.2028 6.80153 28.2131 8.75954 28.2131 11.2672C28.2131 13.7748 26.2028 15.7328 23.742 15.7328C21.2811 15.7328 19.2709 13.7405 19.2709 11.2672ZM32.2683 11.2328C32.2683 15.0802 35.2837 17.9656 39.1656 17.9656C41.5225 17.9656 43.4634 16.9351 44.7805 15.2176L42.9089 13.8435C41.9384 15.1145 40.656 15.7328 39.1656 15.7328C36.982 15.7328 35.2144 14.1527 34.8678 12.0573H45.439V11.2328C45.439 7.3855 42.7009 4.53435 38.9576 4.53435C35.1451 4.53435 32.2683 7.5916 32.2683 11.2328ZM38.8883 6.76718C40.7946 6.76718 42.389 8.07252 42.8395 10.0649H34.9024C35.3877 8.07252 36.982 6.76718 38.8883 6.76718ZM54 7.07634V4.70611H53.0988C51.6778 4.70611 50.638 5.35878 49.9795 6.38931V4.80916H47.484V17.6908H50.0488V10.3397C50.0488 8.34733 51.2619 7.04198 52.9602 7.04198H54V7.07634Z" fill="white"/>
</g>
<defs>
<clipPath id="clip0_5_848">
<rect width="54" height="18" fill="white"/>
</clipPath>
</defs>
</svg>
