<svg width="43" height="14" viewBox="0 0 43 14" fill="none" xmlns="http://www.w3.org/2000/svg">
<g id="Layer_1" clip-path="url(#clip0_20_743)">
<g id="g4158">
<path id="polygon9" d="M18.6331 13.798H15.1498L17.3285 0.245728H20.8118L18.6331 13.798Z" fill="#515151"/>
<path id="path11" d="M31.2603 0.577043C30.5732 0.302796 29.4836 0 28.1361 0C24.6963 0 22.2738 1.84533 22.2591 4.48355C22.2308 6.43009 23.9932 7.51108 25.312 8.16036C26.6595 8.82348 27.1179 9.25648 27.1179 9.8478C27.1041 10.7558 26.0288 11.174 25.0261 11.174C23.6355 11.174 22.8903 10.9582 21.7578 10.453L21.299 10.2362L20.8114 13.2785C21.6284 13.6531 23.1337 13.9853 24.6963 13.9996C28.3511 13.9996 30.7306 12.1828 30.759 9.37111C30.7727 7.82815 29.8418 6.64638 27.8351 5.68002C26.617 5.05972 25.8705 4.64187 25.8705 4.00729C25.8847 3.43068 26.5017 2.8398 27.8768 2.8398C29.0094 2.81081 29.8414 3.08463 30.4713 3.35888L30.7865 3.50292L31.2603 0.576611V0.577043Z" fill="#515151"/>
<path id="path13" d="M35.8899 8.99697C36.1767 8.21835 37.2804 5.2051 37.2804 5.2051C37.2658 5.23408 37.5668 4.4122 37.7388 3.9074L37.9822 5.07533C37.9822 5.07533 38.6418 8.31914 38.7849 8.99697H35.8895H35.8899ZM40.1897 0.245728H37.4954C36.6647 0.245728 36.0335 0.49056 35.6749 1.3704L30.501 13.7985H34.1558C34.1558 13.7985 34.7573 12.1257 34.8868 11.7654H39.359C39.4591 12.2412 39.7748 13.7985 39.7748 13.7985H43L40.1897 0.245728Z" fill="#515151"/>
<path id="path15" d="M12.2406 0.245728L8.82918 9.48707L8.45638 7.61276C7.82561 5.44993 5.8477 3.10023 3.64062 1.93187L6.76528 13.7833H10.4489L15.9238 0.245728H12.2406Z" fill="#515151"/>
<path id="path17" d="M5.66153 0.245728H0.0571871L0 0.519542C4.37159 1.64421 7.26707 4.3551 8.45639 7.61363L7.23826 1.38511C7.03789 0.519542 6.4213 0.274277 5.66153 0.245728Z" fill="#515151"/>
</g>
</g>
<defs>
<clipPath id="clip0_20_743">
<rect width="43" height="14" fill="white"/>
</clipPath>
</defs>
</svg>
