<svg width="93" height="29" viewBox="0 0 93 29" fill="none" xmlns="http://www.w3.org/2000/svg">
<g id="Group">
<path id="Vector" d="M32.6964 28.2158L37.4297 0.439697H44.968L40.2346 28.2158H32.6964Z" fill="#E0E0E0"/>
<path id="Vector_2" d="M67.5801 1.1427C66.09 0.615303 63.7233 0 60.8307 0C53.3801 0 48.1209 3.77967 48.1209 9.14152C48.1209 13.097 51.89 15.3824 54.6949 16.7008C57.6752 18.0193 58.6394 18.8983 58.6394 20.1289C58.6394 21.9748 56.2727 22.8538 54.0814 22.8538C51.1011 22.8538 49.4357 22.4143 46.9814 21.3595L46.0172 20.92L44.9653 27.1608C46.7184 27.9519 49.9616 28.5672 53.3801 28.6551C61.269 28.6551 66.4406 24.9634 66.5283 19.162C66.5283 15.9976 64.5122 13.6244 60.2172 11.6027C57.5875 10.2842 55.9221 9.49311 56.0098 8.17462C56.0098 7.03193 57.4122 5.80134 60.3048 5.80134C62.7591 5.80134 64.5999 6.32874 65.9147 6.85614L66.6159 7.20773L67.6678 1.2306L67.5801 1.1427Z" fill="#E0E0E0"/>
<path id="Vector_3" d="M86.9519 0.52771H81.1667C79.326 0.52771 78.0112 1.05509 77.2223 2.81307L66.0026 28.2159H73.8915C73.8915 28.2159 75.2063 24.7879 75.4692 24.0847C76.3458 24.0847 84.0593 24.0847 85.1112 24.0847C85.3742 25.0516 85.9877 28.2159 85.9877 28.2159H93.0001L86.8643 0.52771H86.9519ZM77.6606 18.3712C78.2742 16.789 80.6408 10.6361 80.6408 10.6361C80.6408 10.6361 81.2544 9.05391 81.605 7.99912L82.131 10.3724C82.131 10.3724 83.5334 16.9648 83.884 18.3712H77.6606Z" fill="#E0E0E0"/>
<path id="Vector_4" d="M26.3821 0.52771L19.0191 19.426L18.2302 15.5585C16.8278 11.1635 12.6204 6.32905 7.79938 3.95577L14.5488 28.2159H22.5253L34.3586 0.52771H26.3821Z" fill="#E0E0E0"/>
<path id="Vector_5" d="M12.1839 0.439697H0V1.05499C9.37901 3.34037 15.6024 8.87801 18.2321 15.5583L15.6024 2.81296C15.1642 1.05498 13.8494 0.527596 12.1839 0.439697Z" fill="#E0E0E0"/>
</g>
</svg>
